<svg xmlns="http://www.w3.org/2000/svg" xmlns:xlink="http://www.w3.org/1999/xlink" width="200" zoomAndPan="magnify" viewBox="0 0 150 149.999998" height="200" preserveAspectRatio="xMidYMid meet" version="1.2"><defs><clipPath id="2bb49ef809"><path d="M 19.078125 29.359375 L 134.773438 29.359375 L 134.773438 55.609375 L 19.078125 55.609375 Z M 19.078125 29.359375 "/></clipPath><clipPath id="6dc9ff07fd"><path d="M 13.355469 10.222656 L 139.355469 10.222656 L 139.355469 136.972656 L 13.355469 136.972656 Z M 13.355469 10.222656 "/></clipPath><clipPath id="8a88fcb7bf"><path d="M 20.09375 10.222656 L 132.367188 10.222656 C 136.089844 10.222656 139.105469 13.242188 139.105469 16.964844 L 139.105469 130.234375 C 139.105469 133.957031 136.089844 136.972656 132.367188 136.972656 L 20.09375 136.972656 C 16.371094 136.972656 13.355469 133.957031 13.355469 130.234375 L 13.355469 16.964844 C 13.355469 13.242188 16.371094 10.222656 20.09375 10.222656 Z M 20.09375 10.222656 "/></clipPath><clipPath id="2a7a8e6019"><path d="M 19.0625 29.359375 L 76.320312 29.359375 L 76.320312 55.664062 L 19.0625 55.664062 Z M 19.0625 29.359375 "/></clipPath></defs><g id="9ed4b56a08"><g clip-rule="nonzero" clip-path="url(#2bb49ef809)"><path style=" stroke:none;fill-rule:nonzero;fill:#ffffff;fill-opacity:1;" d="M 29.558594 27.863281 L 38.542969 27.863281 L 38.542969 30.859375 L 29.558594 30.859375 Z M 40.039062 27.863281 L 49.023438 27.863281 L 49.023438 30.859375 L 40.039062 30.859375 Z M 50.523438 27.863281 L 59.503906 27.863281 L 59.503906 30.859375 L 50.523438 30.859375 Z M 61.003906 27.863281 L 69.988281 27.863281 L 69.988281 30.859375 L 61.003906 30.859375 Z M 71.484375 27.863281 L 80.46875 27.863281 L 80.46875 30.859375 L 71.484375 30.859375 Z M 81.964844 27.863281 L 90.949219 27.863281 L 90.949219 30.859375 L 81.964844 30.859375 Z M 92.445312 27.863281 L 101.429688 27.863281 L 101.429688 30.859375 L 92.445312 30.859375 Z M 102.929688 27.863281 L 111.914062 27.863281 L 111.914062 30.859375 L 102.929688 30.859375 Z M 113.410156 27.863281 L 122.394531 27.863281 L 122.394531 30.859375 L 113.410156 30.859375 Z M 123.890625 27.863281 L 132.875 27.863281 L 132.875 30.859375 L 123.890625 30.859375 Z M 134.371094 27.863281 L 136.269531 27.863281 L 136.269531 37.945312 L 133.273438 37.945312 L 133.273438 29.359375 L 134.773438 29.359375 L 134.773438 30.859375 L 134.371094 30.859375 Z M 136.269531 39.441406 L 136.269531 48.425781 L 133.273438 48.425781 L 133.273438 39.441406 Z M 136.269531 49.921875 L 136.269531 57.109375 L 131.476562 57.109375 L 131.476562 54.113281 L 134.773438 54.113281 L 134.773438 55.609375 L 133.273438 55.609375 L 133.273438 49.921875 Z M 129.980469 57.109375 L 120.996094 57.109375 L 120.996094 54.113281 L 129.980469 54.113281 Z M 119.5 57.109375 L 110.515625 57.109375 L 110.515625 54.113281 L 119.5 54.113281 Z M 109.015625 57.109375 L 100.03125 57.109375 L 100.03125 54.113281 L 109.015625 54.113281 Z M 98.535156 57.109375 L 89.550781 57.109375 L 89.550781 54.113281 L 98.535156 54.113281 Z M 88.054688 57.109375 L 79.070312 57.109375 L 79.070312 54.113281 L 88.054688 54.113281 Z M 77.574219 57.109375 L 68.589844 57.109375 L 68.589844 54.113281 L 77.574219 54.113281 Z M 67.089844 57.109375 L 58.109375 57.109375 L 58.109375 54.113281 L 67.089844 54.113281 Z M 56.609375 57.109375 L 47.625 57.109375 L 47.625 54.113281 L 56.609375 54.113281 Z M 46.128906 57.109375 L 37.144531 57.109375 L 37.144531 54.113281 L 46.128906 54.113281 Z M 35.648438 57.109375 L 26.664062 57.109375 L 26.664062 54.113281 L 35.648438 54.113281 Z M 25.167969 57.109375 L 17.582031 57.109375 L 17.582031 52.714844 L 20.574219 52.714844 L 20.574219 55.609375 L 19.078125 55.609375 L 19.078125 54.113281 L 25.167969 54.113281 Z M 17.582031 51.21875 L 17.582031 42.234375 L 20.574219 42.234375 L 20.574219 51.21875 Z M 17.582031 40.734375 L 17.582031 31.753906 L 20.574219 31.753906 L 20.574219 40.734375 Z M 17.582031 30.253906 L 17.582031 27.863281 L 28.0625 27.863281 L 28.0625 30.859375 L 19.078125 30.859375 L 19.078125 29.359375 L 20.574219 29.359375 L 20.574219 30.253906 Z M 17.582031 30.253906 "/></g><g clip-rule="nonzero" clip-path="url(#6dc9ff07fd)"><g clip-rule="nonzero" clip-path="url(#8a88fcb7bf)"><path style="fill:none;stroke-width:4;stroke-linecap:butt;stroke-linejoin:miter;stroke:#ffffff;stroke-opacity:1;stroke-miterlimit:4;" d="M 8.997126 -0.00169028 L 158.902655 -0.00169028 C 163.87308 -0.00169028 167.89949 4.029935 167.89949 9.00036 L 167.89949 160.235856 C 167.89949 165.206282 163.87308 169.232692 158.902655 169.232692 L 8.997126 169.232692 C 4.026701 169.232692 0.000290801 165.206282 0.000290801 160.235856 L 0.000290801 9.00036 C 0.000290801 4.029935 4.026701 -0.00169028 8.997126 -0.00169028 Z M 8.997126 -0.00169028 " transform="matrix(0.748961,0,0,0.748961,13.355251,10.223922)"/></g></g><path style="fill:none;stroke-width:2;stroke-linecap:butt;stroke-linejoin:miter;stroke:#ffffff;stroke-opacity:1;stroke-miterlimit:4;" d="M -0.000373268 1.000171 L 132.843384 1.000171 " transform="matrix(0.75,-0.000000000000000186,0.000000000000000186,0.75,25.183874,73.691278)"/><path style="fill:none;stroke-width:2;stroke-linecap:butt;stroke-linejoin:miter;stroke:#ffffff;stroke-opacity:1;stroke-miterlimit:4;" d="M -0.000373268 1.000434 L 132.843384 1.000434 " transform="matrix(0.75,0,0,0.75,25.183874,82.780924)"/><path style="fill:none;stroke-width:2;stroke-linecap:butt;stroke-linejoin:miter;stroke:#ffffff;stroke-opacity:1;stroke-miterlimit:4;" d="M -0.000373268 1.000732 L 132.843384 1.000732 " transform="matrix(0.75,0,0,0.75,25.183874,91.870545)"/><path style="fill:none;stroke-width:2;stroke-linecap:butt;stroke-linejoin:miter;stroke:#ffffff;stroke-opacity:1;stroke-miterlimit:4;" d="M -0.000373268 1.002283 L 132.843384 1.002283 " transform="matrix(0.75,-0.000000000000000186,0.000000000000000186,0.75,25.183874,99.986569)"/><path style="fill:none;stroke-width:2;stroke-linecap:butt;stroke-linejoin:miter;stroke:#ffffff;stroke-opacity:1;stroke-miterlimit:4;" d="M -0.000373268 1.002546 L 132.843384 1.002546 " transform="matrix(0.75,0,0,0.75,25.183874,109.076216)"/><path style="fill:none;stroke-width:2;stroke-linecap:butt;stroke-linejoin:miter;stroke:#ffffff;stroke-opacity:1;stroke-miterlimit:4;" d="M -0.000373268 0.997597 L 132.843384 0.997597 " transform="matrix(0.75,0,0,0.75,25.183874,118.165865)"/><g clip-rule="nonzero" clip-path="url(#2a7a8e6019)"><path style=" stroke:none;fill-rule:nonzero;fill:#ffffff;fill-opacity:1;" d="M 19.0625 29.359375 L 76.296875 29.359375 L 76.296875 55.664062 L 19.0625 55.664062 Z M 19.0625 29.359375 "/></g><g style="fill:#1c1f23;fill-opacity:1;"><g transform="translate(23.224113, 49.500468)"><path style="stroke:none" d="M 13.234375 -1.1875 C 13.335938 -1.25 13.421875 -1.238281 13.484375 -1.15625 C 13.546875 -1.070312 13.546875 -0.988281 13.484375 -0.90625 C 13.066406 -0.507812 12.617188 -0.25 12.140625 -0.125 C 11.660156 0 11.128906 0.0507812 10.546875 0.03125 C 9.710938 -0.0078125 9.039062 -0.191406 8.53125 -0.515625 C 8.019531 -0.835938 7.722656 -1.394531 7.640625 -2.1875 C 7.535156 -3.289062 7.359375 -4.117188 7.109375 -4.671875 C 6.859375 -5.234375 6.585938 -5.601562 6.296875 -5.78125 C 6.003906 -5.957031 5.742188 -5.992188 5.515625 -5.890625 C 5.472656 -5.867188 5.4375 -5.847656 5.40625 -5.828125 C 5.375 -5.804688 5.335938 -5.785156 5.296875 -5.765625 C 4.992188 -5.410156 4.773438 -5.253906 4.640625 -5.296875 C 4.503906 -5.335938 4.476562 -5.441406 4.5625 -5.609375 C 4.625 -5.710938 4.75 -5.878906 4.9375 -6.109375 C 5.132812 -6.335938 5.367188 -6.578125 5.640625 -6.828125 C 5.660156 -6.828125 5.671875 -6.828125 5.671875 -6.828125 C 5.753906 -6.929688 5.835938 -7.015625 5.921875 -7.078125 C 6.003906 -7.140625 6.085938 -7.210938 6.171875 -7.296875 C 6.628906 -7.671875 7.0625 -7.988281 7.46875 -8.25 C 7.875 -8.507812 8.21875 -8.84375 8.5 -9.25 C 8.78125 -9.65625 8.953125 -10.234375 9.015625 -10.984375 C 9.054688 -11.609375 8.953125 -12.175781 8.703125 -12.6875 C 8.453125 -13.195312 8.144531 -13.613281 7.78125 -13.9375 C 7.414062 -14.257812 7.054688 -14.429688 6.703125 -14.453125 C 6.410156 -14.492188 6.035156 -14.390625 5.578125 -14.140625 C 5.128906 -13.890625 4.691406 -13.554688 4.265625 -13.140625 C 3.835938 -12.722656 3.5 -12.273438 3.25 -11.796875 C 2.726562 -10.859375 2.429688 -9.796875 2.359375 -8.609375 C 2.285156 -7.421875 2.410156 -6.253906 2.734375 -5.109375 C 3.054688 -3.972656 3.546875 -2.96875 4.203125 -2.09375 C 4.859375 -1.21875 5.640625 -0.613281 6.546875 -0.28125 C 6.546875 -0.28125 6.578125 -0.257812 6.640625 -0.21875 C 6.703125 -0.175781 6.734375 -0.125 6.734375 -0.0625 C 6.734375 -0.0195312 6.707031 0.0078125 6.65625 0.03125 C 6.601562 0.0507812 6.578125 0.0625 6.578125 0.0625 C 6.578125 0.0625 6.28125 0.0625 5.6875 0.0625 C 5.101562 0.0625 4.351562 0.0625 3.4375 0.0625 C 2.519531 0.0625 1.570312 0.0625 0.59375 0.0625 C 0.507812 0.0625 0.46875 0.00390625 0.46875 -0.109375 C 0.46875 -0.222656 0.507812 -0.28125 0.59375 -0.28125 C 1.09375 -0.28125 1.414062 -0.53125 1.5625 -1.03125 C 1.644531 -1.257812 1.6875 -1.632812 1.6875 -2.15625 L 1.6875 -12.546875 C 1.6875 -13.023438 1.582031 -13.453125 1.375 -13.828125 C 1.164062 -14.203125 0.820312 -14.398438 0.34375 -14.421875 C 0.238281 -14.421875 0.191406 -14.472656 0.203125 -14.578125 C 0.210938 -14.679688 0.257812 -14.734375 0.34375 -14.734375 C 3.007812 -14.734375 5.132812 -14.742188 6.71875 -14.765625 C 8.3125 -14.785156 9.523438 -14.679688 10.359375 -14.453125 C 10.960938 -14.304688 11.445312 -13.972656 11.8125 -13.453125 C 12.175781 -12.929688 12.375 -12.34375 12.40625 -11.6875 C 12.4375 -11.03125 12.257812 -10.382812 11.875 -9.75 C 11.488281 -9.113281 10.828125 -8.597656 9.890625 -8.203125 C 9.265625 -7.929688 8.613281 -7.675781 7.9375 -7.4375 C 7.257812 -7.195312 6.648438 -6.898438 6.109375 -6.546875 C 7.128906 -6.734375 7.972656 -6.710938 8.640625 -6.484375 C 9.304688 -6.253906 9.835938 -5.898438 10.234375 -5.421875 C 10.628906 -4.953125 10.9375 -4.4375 11.15625 -3.875 C 11.375 -3.3125 11.550781 -2.789062 11.6875 -2.3125 C 11.820312 -1.832031 11.960938 -1.476562 12.109375 -1.25 C 12.234375 -1.0625 12.40625 -0.960938 12.625 -0.953125 C 12.84375 -0.941406 13.046875 -1.019531 13.234375 -1.1875 Z M 13.234375 -1.1875 "/></g></g><g style="fill:#1c1f23;fill-opacity:1;"><g transform="translate(37.204832, 49.500468)"><path style="stroke:none" d="M 10.546875 -1.90625 C 10.566406 -1.613281 10.660156 -1.289062 10.828125 -0.9375 C 10.992188 -0.582031 11.140625 -0.3125 11.265625 -0.125 C 11.367188 -0.0195312 11.347656 0.03125 11.203125 0.03125 C 11.203125 0.03125 10.957031 0.03125 10.46875 0.03125 C 9.976562 0.03125 9.347656 0.03125 8.578125 0.03125 C 7.804688 0.03125 6.976562 0.0234375 6.09375 0.015625 C 5.21875 0.00390625 4.382812 0 3.59375 0 C 2.800781 0 2.140625 -0.00390625 1.609375 -0.015625 C 1.078125 -0.0234375 0.78125 -0.03125 0.71875 -0.03125 C 0.632812 -0.03125 0.597656 -0.0820312 0.609375 -0.1875 C 0.617188 -0.289062 0.65625 -0.351562 0.71875 -0.375 C 0.945312 -0.375 1.148438 -0.425781 1.328125 -0.53125 C 1.503906 -0.632812 1.632812 -0.820312 1.71875 -1.09375 C 1.78125 -1.34375 1.8125 -1.726562 1.8125 -2.25 L 1.8125 -12.609375 C 1.8125 -13.109375 1.707031 -13.546875 1.5 -13.921875 C 1.289062 -14.296875 0.945312 -14.484375 0.46875 -14.484375 C 0.382812 -14.484375 0.34375 -14.535156 0.34375 -14.640625 C 0.34375 -14.742188 0.382812 -14.796875 0.46875 -14.796875 C 0.46875 -14.796875 0.726562 -14.796875 1.25 -14.796875 C 1.769531 -14.796875 2.4375 -14.796875 3.25 -14.796875 C 4.0625 -14.796875 4.921875 -14.800781 5.828125 -14.8125 C 6.742188 -14.820312 7.609375 -14.828125 8.421875 -14.828125 C 9.234375 -14.828125 9.898438 -14.828125 10.421875 -14.828125 C 10.941406 -14.828125 11.203125 -14.828125 11.203125 -14.828125 C 11.347656 -14.828125 11.367188 -14.773438 11.265625 -14.671875 C 11.140625 -14.484375 10.992188 -14.210938 10.828125 -13.859375 C 10.660156 -13.503906 10.566406 -13.179688 10.546875 -12.890625 C 10.523438 -12.160156 10.550781 -11.484375 10.625 -10.859375 C 10.695312 -10.234375 10.734375 -9.890625 10.734375 -9.828125 C 10.734375 -9.742188 10.660156 -9.703125 10.515625 -9.703125 C 10.367188 -9.703125 10.285156 -9.742188 10.265625 -9.828125 C 10.097656 -11.035156 9.773438 -12.023438 9.296875 -12.796875 C 8.816406 -13.566406 8.257812 -14.070312 7.625 -14.3125 C 6.988281 -14.550781 6.320312 -14.476562 5.625 -14.09375 C 4.9375 -13.707031 4.289062 -12.960938 3.6875 -11.859375 C 3.25 -11.066406 2.976562 -10.332031 2.875 -9.65625 C 2.769531 -8.976562 2.914062 -8.425781 3.3125 -8 C 3.707031 -7.570312 4.441406 -7.328125 5.515625 -7.265625 C 6.242188 -7.222656 6.925781 -7.4375 7.5625 -7.90625 C 8.195312 -8.375 8.566406 -9.085938 8.671875 -10.046875 C 8.671875 -10.046875 8.679688 -10.066406 8.703125 -10.109375 C 8.722656 -10.148438 8.765625 -10.171875 8.828125 -10.171875 C 8.867188 -10.171875 8.894531 -10.148438 8.90625 -10.109375 C 8.914062 -10.066406 8.921875 -10.046875 8.921875 -10.046875 L 8.984375 -4.1875 C 8.984375 -4.1875 8.976562 -4.164062 8.96875 -4.125 C 8.957031 -4.082031 8.929688 -4.0625 8.890625 -4.0625 C 8.804688 -4.0625 8.757812 -4.082031 8.75 -4.125 C 8.738281 -4.164062 8.734375 -4.1875 8.734375 -4.1875 C 8.585938 -5.050781 8.195312 -5.6875 7.5625 -6.09375 C 6.925781 -6.5 6.242188 -6.679688 5.515625 -6.640625 C 4.753906 -6.597656 4.210938 -6.394531 3.890625 -6.03125 C 3.566406 -5.664062 3.414062 -5.21875 3.4375 -4.6875 C 3.457031 -4.164062 3.609375 -3.628906 3.890625 -3.078125 C 4.171875 -2.523438 4.535156 -2.03125 4.984375 -1.59375 C 5.441406 -1.15625 5.929688 -0.832031 6.453125 -0.625 C 6.972656 -0.414062 7.488281 -0.398438 8 -0.578125 C 8.507812 -0.753906 8.96875 -1.191406 9.375 -1.890625 C 9.78125 -2.585938 10.078125 -3.613281 10.265625 -4.96875 C 10.285156 -5.050781 10.367188 -5.09375 10.515625 -5.09375 C 10.660156 -5.09375 10.734375 -5.050781 10.734375 -4.96875 C 10.734375 -4.90625 10.695312 -4.5625 10.625 -3.9375 C 10.550781 -3.3125 10.523438 -2.632812 10.546875 -1.90625 Z M 10.546875 -1.90625 "/></g></g><g style="fill:#1c1f23;fill-opacity:1;"><g transform="translate(49.157098, 49.500468)"><path style="stroke:none" d="M 7.984375 -7.671875 C 9.628906 -7.523438 10.890625 -7.148438 11.765625 -6.546875 C 12.640625 -5.941406 13.078125 -5.03125 13.078125 -3.8125 C 13.078125 -2.976562 12.765625 -2.296875 12.140625 -1.765625 C 11.515625 -1.234375 10.804688 -0.832031 10.015625 -0.5625 C 9.554688 -0.414062 8.988281 -0.300781 8.3125 -0.21875 C 7.632812 -0.132812 6.921875 -0.0703125 6.171875 -0.03125 C 5.222656 0.0078125 4.285156 0.0234375 3.359375 0.015625 C 2.429688 0.00390625 1.664062 -0.015625 1.0625 -0.046875 C 0.457031 -0.078125 0.15625 -0.09375 0.15625 -0.09375 C 0.15625 -0.09375 0.132812 -0.101562 0.09375 -0.125 C 0.0507812 -0.144531 0.03125 -0.175781 0.03125 -0.21875 C 0.03125 -0.257812 0.0507812 -0.289062 0.09375 -0.3125 C 0.132812 -0.332031 0.15625 -0.34375 0.15625 -0.34375 C 1.050781 -0.675781 1.816406 -1.257812 2.453125 -2.09375 C 3.085938 -2.925781 3.578125 -3.890625 3.921875 -4.984375 C 4.265625 -6.085938 4.414062 -7.203125 4.375 -8.328125 C 4.351562 -9.265625 4.191406 -10.148438 3.890625 -10.984375 C 3.585938 -11.816406 3.128906 -12.546875 2.515625 -13.171875 C 1.898438 -13.796875 1.113281 -14.222656 0.15625 -14.453125 C 0.09375 -14.453125 0.0546875 -14.492188 0.046875 -14.578125 C 0.0351562 -14.660156 0.0703125 -14.710938 0.15625 -14.734375 C 0.195312 -14.734375 0.4375 -14.738281 0.875 -14.75 C 1.3125 -14.757812 1.851562 -14.769531 2.5 -14.78125 C 3.144531 -14.789062 3.816406 -14.796875 4.515625 -14.796875 C 5.222656 -14.796875 5.867188 -14.785156 6.453125 -14.765625 C 7.492188 -14.765625 8.441406 -14.707031 9.296875 -14.59375 C 10.148438 -14.476562 10.851562 -14.191406 11.40625 -13.734375 C 11.957031 -13.273438 12.273438 -12.523438 12.359375 -11.484375 C 12.421875 -10.710938 12.109375 -9.960938 11.421875 -9.234375 C 10.734375 -8.503906 9.585938 -7.984375 7.984375 -7.671875 Z M 9.015625 -11.140625 C 9.078125 -11.804688 8.960938 -12.394531 8.671875 -12.90625 C 8.378906 -13.414062 8.019531 -13.8125 7.59375 -14.09375 C 7.164062 -14.375 6.742188 -14.503906 6.328125 -14.484375 C 5.972656 -14.460938 5.671875 -14.300781 5.421875 -14 C 5.179688 -13.695312 5.0625 -13.234375 5.0625 -12.609375 C 5.0625 -12.609375 5.0625 -12.390625 5.0625 -11.953125 C 5.0625 -11.515625 5.0625 -10.988281 5.0625 -10.375 C 5.0625 -9.757812 5.0625 -9.171875 5.0625 -8.609375 C 5.0625 -8.046875 5.0625 -7.628906 5.0625 -7.359375 C 5.0625 -6.835938 5.109375 -6.578125 5.203125 -6.578125 C 5.304688 -6.578125 5.390625 -6.609375 5.453125 -6.671875 C 5.867188 -7.109375 6.273438 -7.460938 6.671875 -7.734375 C 7.066406 -8.003906 7.429688 -8.273438 7.765625 -8.546875 C 8.097656 -8.816406 8.378906 -9.148438 8.609375 -9.546875 C 8.835938 -9.941406 8.972656 -10.472656 9.015625 -11.140625 Z M 8.421875 -1.40625 C 9.148438 -2.007812 9.515625 -2.875 9.515625 -4 C 9.515625 -4.96875 9.222656 -5.734375 8.640625 -6.296875 C 7.867188 -7.066406 7.191406 -7.335938 6.609375 -7.109375 C 6.023438 -6.878906 5.507812 -6.367188 5.0625 -5.578125 L 5.0625 -2.25 C 5.0625 -1.726562 5.09375 -1.34375 5.15625 -1.09375 C 5.289062 -0.65625 5.546875 -0.414062 5.921875 -0.375 C 6.296875 -0.332031 6.710938 -0.421875 7.171875 -0.640625 C 7.628906 -0.859375 8.046875 -1.113281 8.421875 -1.40625 Z M 8.421875 -1.40625 "/></g></g><g style="fill:#1c1f23;fill-opacity:1;"><g transform="translate(62.482472, 49.500468)"><path style="stroke:none" d="M 13.234375 -1.1875 C 13.335938 -1.25 13.421875 -1.238281 13.484375 -1.15625 C 13.546875 -1.070312 13.546875 -0.988281 13.484375 -0.90625 C 13.066406 -0.507812 12.617188 -0.25 12.140625 -0.125 C 11.660156 0 11.128906 0.0507812 10.546875 0.03125 C 9.710938 -0.0078125 9.039062 -0.191406 8.53125 -0.515625 C 8.019531 -0.835938 7.722656 -1.394531 7.640625 -2.1875 C 7.535156 -3.289062 7.359375 -4.117188 7.109375 -4.671875 C 6.859375 -5.234375 6.585938 -5.601562 6.296875 -5.78125 C 6.003906 -5.957031 5.742188 -5.992188 5.515625 -5.890625 C 5.472656 -5.867188 5.4375 -5.847656 5.40625 -5.828125 C 5.375 -5.804688 5.335938 -5.785156 5.296875 -5.765625 C 4.992188 -5.410156 4.773438 -5.253906 4.640625 -5.296875 C 4.503906 -5.335938 4.476562 -5.441406 4.5625 -5.609375 C 4.625 -5.710938 4.75 -5.878906 4.9375 -6.109375 C 5.132812 -6.335938 5.367188 -6.578125 5.640625 -6.828125 C 5.660156 -6.828125 5.671875 -6.828125 5.671875 -6.828125 C 5.753906 -6.929688 5.835938 -7.015625 5.921875 -7.078125 C 6.003906 -7.140625 6.085938 -7.210938 6.171875 -7.296875 C 6.628906 -7.671875 7.0625 -7.988281 7.46875 -8.25 C 7.875 -8.507812 8.21875 -8.84375 8.5 -9.25 C 8.78125 -9.65625 8.953125 -10.234375 9.015625 -10.984375 C 9.054688 -11.609375 8.953125 -12.175781 8.703125 -12.6875 C 8.453125 -13.195312 8.144531 -13.613281 7.78125 -13.9375 C 7.414062 -14.257812 7.054688 -14.429688 6.703125 -14.453125 C 6.410156 -14.492188 6.035156 -14.390625 5.578125 -14.140625 C 5.128906 -13.890625 4.691406 -13.554688 4.265625 -13.140625 C 3.835938 -12.722656 3.5 -12.273438 3.25 -11.796875 C 2.726562 -10.859375 2.429688 -9.796875 2.359375 -8.609375 C 2.285156 -7.421875 2.410156 -6.253906 2.734375 -5.109375 C 3.054688 -3.972656 3.546875 -2.96875 4.203125 -2.09375 C 4.859375 -1.21875 5.640625 -0.613281 6.546875 -0.28125 C 6.546875 -0.28125 6.578125 -0.257812 6.640625 -0.21875 C 6.703125 -0.175781 6.734375 -0.125 6.734375 -0.0625 C 6.734375 -0.0195312 6.707031 0.0078125 6.65625 0.03125 C 6.601562 0.0507812 6.578125 0.0625 6.578125 0.0625 C 6.578125 0.0625 6.28125 0.0625 5.6875 0.0625 C 5.101562 0.0625 4.351562 0.0625 3.4375 0.0625 C 2.519531 0.0625 1.570312 0.0625 0.59375 0.0625 C 0.507812 0.0625 0.46875 0.00390625 0.46875 -0.109375 C 0.46875 -0.222656 0.507812 -0.28125 0.59375 -0.28125 C 1.09375 -0.28125 1.414062 -0.53125 1.5625 -1.03125 C 1.644531 -1.257812 1.6875 -1.632812 1.6875 -2.15625 L 1.6875 -12.546875 C 1.6875 -13.023438 1.582031 -13.453125 1.375 -13.828125 C 1.164062 -14.203125 0.820312 -14.398438 0.34375 -14.421875 C 0.238281 -14.421875 0.191406 -14.472656 0.203125 -14.578125 C 0.210938 -14.679688 0.257812 -14.734375 0.34375 -14.734375 C 3.007812 -14.734375 5.132812 -14.742188 6.71875 -14.765625 C 8.3125 -14.785156 9.523438 -14.679688 10.359375 -14.453125 C 10.960938 -14.304688 11.445312 -13.972656 11.8125 -13.453125 C 12.175781 -12.929688 12.375 -12.34375 12.40625 -11.6875 C 12.4375 -11.03125 12.257812 -10.382812 11.875 -9.75 C 11.488281 -9.113281 10.828125 -8.597656 9.890625 -8.203125 C 9.265625 -7.929688 8.613281 -7.675781 7.9375 -7.4375 C 7.257812 -7.195312 6.648438 -6.898438 6.109375 -6.546875 C 7.128906 -6.734375 7.972656 -6.710938 8.640625 -6.484375 C 9.304688 -6.253906 9.835938 -5.898438 10.234375 -5.421875 C 10.628906 -4.953125 10.9375 -4.4375 11.15625 -3.875 C 11.375 -3.3125 11.550781 -2.789062 11.6875 -2.3125 C 11.820312 -1.832031 11.960938 -1.476562 12.109375 -1.25 C 12.234375 -1.0625 12.40625 -0.960938 12.625 -0.953125 C 12.84375 -0.941406 13.046875 -1.019531 13.234375 -1.1875 Z M 13.234375 -1.1875 "/></g></g><g style="fill:#ffffff;fill-opacity:1;"><g transform="translate(76.474109, 49.500468)"><path style="stroke:none" d="M 16.28125 -7.765625 C 16.300781 -7.328125 16.273438 -6.832031 16.203125 -6.28125 C 16.128906 -5.726562 16.03125 -5.222656 15.90625 -4.765625 C 15.78125 -4.316406 15.640625 -4.015625 15.484375 -3.859375 C 15.335938 -3.703125 15.191406 -3.800781 15.046875 -4.15625 C 14.835938 -4.675781 14.625 -4.972656 14.40625 -5.046875 C 14.1875 -5.117188 13.972656 -5.0625 13.765625 -4.875 C 13.472656 -4.601562 13.179688 -4.21875 12.890625 -3.71875 C 12.597656 -3.21875 12.296875 -2.695312 11.984375 -2.15625 C 11.671875 -1.613281 11.328125 -1.144531 10.953125 -0.75 C 10.578125 -0.351562 10.148438 -0.125 9.671875 -0.0625 C 9.273438 -0.0195312 8.722656 0.00390625 8.015625 0.015625 C 7.304688 0.0234375 6.359375 0.0234375 5.171875 0.015625 C 3.992188 0.00390625 2.488281 0 0.65625 0 C 0.570312 0 0.535156 -0.0546875 0.546875 -0.171875 C 0.554688 -0.285156 0.601562 -0.351562 0.6875 -0.375 C 1.6875 -0.726562 2.460938 -1.320312 3.015625 -2.15625 C 3.566406 -2.988281 3.945312 -3.953125 4.15625 -5.046875 C 4.363281 -6.148438 4.46875 -7.253906 4.46875 -8.359375 C 4.488281 -9.378906 4.40625 -10.351562 4.21875 -11.28125 C 4.03125 -12.207031 3.691406 -12.972656 3.203125 -13.578125 C 2.710938 -14.179688 1.988281 -14.484375 1.03125 -14.484375 C 0.945312 -14.484375 0.90625 -14.539062 0.90625 -14.65625 C 0.90625 -14.769531 0.957031 -14.828125 1.0625 -14.828125 C 1.101562 -14.828125 1.390625 -14.828125 1.921875 -14.828125 C 2.453125 -14.828125 3.113281 -14.828125 3.90625 -14.828125 C 4.695312 -14.828125 5.472656 -14.828125 6.234375 -14.828125 C 7.273438 -14.828125 8.34375 -14.8125 9.4375 -14.78125 C 10.53125 -14.75 11.554688 -14.492188 12.515625 -14.015625 C 13.722656 -13.410156 14.632812 -12.539062 15.25 -11.40625 C 15.875 -10.269531 16.21875 -9.054688 16.28125 -7.765625 Z M 7.640625 -1.3125 C 8.117188 -0.875 8.515625 -0.597656 8.828125 -0.484375 C 9.140625 -0.367188 9.398438 -0.332031 9.609375 -0.375 C 10.148438 -0.476562 10.585938 -0.800781 10.921875 -1.34375 C 11.253906 -1.882812 11.515625 -2.535156 11.703125 -3.296875 C 11.890625 -4.054688 12.019531 -4.820312 12.09375 -5.59375 C 12.164062 -6.375 12.203125 -7.046875 12.203125 -7.609375 C 12.179688 -8.648438 12.078125 -9.660156 11.890625 -10.640625 C 11.703125 -11.617188 11.429688 -12.429688 11.078125 -13.078125 C 10.554688 -14.015625 9.894531 -14.457031 9.09375 -14.40625 C 8.289062 -14.351562 7.503906 -13.941406 6.734375 -13.171875 C 6.148438 -12.585938 5.710938 -11.875 5.421875 -11.03125 C 5.140625 -10.1875 4.976562 -9.304688 4.9375 -8.390625 C 4.914062 -7.054688 5.140625 -5.738281 5.609375 -4.4375 C 6.085938 -3.144531 6.765625 -2.101562 7.640625 -1.3125 Z M 7.640625 -1.3125 "/></g></g><g style="fill:#ffffff;fill-opacity:1;"><g transform="translate(93.263461, 49.500468)"><path style="stroke:none" d="M 0.5 -0.34375 C 1.539062 -0.675781 2.332031 -1.269531 2.875 -2.125 C 3.414062 -2.976562 3.785156 -3.957031 3.984375 -5.0625 C 4.179688 -6.175781 4.28125 -7.273438 4.28125 -8.359375 C 4.300781 -9.359375 4.195312 -10.328125 3.96875 -11.265625 C 3.738281 -12.203125 3.351562 -12.96875 2.8125 -13.5625 C 2.269531 -14.15625 1.519531 -14.453125 0.5625 -14.453125 C 0.476562 -14.453125 0.4375 -14.507812 0.4375 -14.625 C 0.4375 -14.738281 0.488281 -14.796875 0.59375 -14.796875 C 0.613281 -14.796875 0.894531 -14.796875 1.4375 -14.796875 C 1.976562 -14.796875 2.644531 -14.796875 3.4375 -14.796875 C 4.226562 -14.796875 5.015625 -14.796875 5.796875 -14.796875 C 6.585938 -14.796875 7.257812 -14.796875 7.8125 -14.796875 C 8.363281 -14.796875 8.648438 -14.796875 8.671875 -14.796875 C 8.773438 -14.773438 8.816406 -14.71875 8.796875 -14.625 C 8.773438 -14.53125 8.734375 -14.484375 8.671875 -14.484375 C 7.734375 -14.253906 6.976562 -13.835938 6.40625 -13.234375 C 5.832031 -12.628906 5.421875 -11.910156 5.171875 -11.078125 C 4.929688 -10.242188 4.789062 -9.367188 4.75 -8.453125 C 4.707031 -7.328125 4.851562 -6.203125 5.1875 -5.078125 C 5.53125 -3.960938 6.023438 -2.976562 6.671875 -2.125 C 7.316406 -1.269531 8.085938 -0.675781 8.984375 -0.34375 C 9.085938 -0.320312 9.132812 -0.253906 9.125 -0.140625 C 9.113281 -0.0234375 9.066406 0.03125 8.984375 0.03125 C 8.984375 0.03125 8.679688 0.03125 8.078125 0.03125 C 7.472656 0.03125 6.710938 0.03125 5.796875 0.03125 C 4.890625 0.03125 3.957031 0.03125 3 0.03125 C 2.039062 0.03125 1.195312 0.03125 0.46875 0.03125 C 0.382812 0.03125 0.347656 -0.0234375 0.359375 -0.140625 C 0.367188 -0.253906 0.414062 -0.320312 0.5 -0.34375 Z M 0.5 -0.34375 "/></g></g><g style="fill:#ffffff;fill-opacity:1;"><g transform="translate(102.719175, 49.500468)"><path style="stroke:none" d="M 13.734375 -14.703125 C 13.816406 -14.703125 13.863281 -14.664062 13.875 -14.59375 C 13.882812 -14.519531 13.835938 -14.460938 13.734375 -14.421875 C 13.441406 -14.128906 13.222656 -13.675781 13.078125 -13.0625 C 12.929688 -12.445312 12.820312 -11.617188 12.75 -10.578125 C 12.675781 -9.535156 12.597656 -8.203125 12.515625 -6.578125 C 12.515625 -6.472656 12.515625 -6.179688 12.515625 -5.703125 C 12.515625 -5.234375 12.515625 -4.675781 12.515625 -4.03125 C 12.515625 -3.382812 12.519531 -2.753906 12.53125 -2.140625 C 12.539062 -1.523438 12.546875 -1.007812 12.546875 -0.59375 C 12.546875 -0.34375 12.488281 -0.160156 12.375 -0.046875 C 12.257812 0.0664062 12.097656 -0.0078125 11.890625 -0.28125 C 11.828125 -0.363281 11.597656 -0.65625 11.203125 -1.15625 C 10.804688 -1.65625 10.3125 -2.269531 9.71875 -3 C 9.125 -3.726562 8.503906 -4.488281 7.859375 -5.28125 C 7.210938 -6.082031 6.601562 -6.832031 6.03125 -7.53125 C 5.46875 -8.226562 5.007812 -8.796875 4.65625 -9.234375 C 4.300781 -9.671875 4.125 -9.890625 4.125 -9.890625 C 3.601562 -10.515625 3.210938 -10.757812 2.953125 -10.625 C 2.691406 -10.488281 2.5625 -10.140625 2.5625 -9.578125 C 2.5625 -9.367188 2.566406 -9.0625 2.578125 -8.65625 C 2.585938 -8.25 2.601562 -7.859375 2.625 -7.484375 C 2.644531 -7.109375 2.65625 -6.859375 2.65625 -6.734375 C 2.820312 -5.410156 3.242188 -4.320312 3.921875 -3.46875 C 4.597656 -2.613281 5.367188 -1.9375 6.234375 -1.4375 C 7.109375 -0.9375 7.929688 -0.539062 8.703125 -0.25 C 8.703125 -0.25 8.722656 -0.238281 8.765625 -0.21875 C 8.804688 -0.195312 8.828125 -0.164062 8.828125 -0.125 C 8.828125 -0.0820312 8.804688 -0.0507812 8.765625 -0.03125 C 8.722656 -0.0078125 8.703125 0 8.703125 0 C 8.703125 0 8.4375 0 7.90625 0 C 7.375 0 6.707031 0 5.90625 0 C 5.113281 0 4.316406 0 3.515625 0 C 2.710938 0 2.03125 0 1.46875 0 C 0.90625 0 0.601562 0 0.5625 0 C 0.457031 -0.0195312 0.421875 -0.078125 0.453125 -0.171875 C 0.484375 -0.265625 0.53125 -0.320312 0.59375 -0.34375 C 0.988281 -0.59375 1.300781 -1.0625 1.53125 -1.75 C 1.757812 -2.4375 1.9375 -3.222656 2.0625 -4.109375 C 2.1875 -5.003906 2.257812 -5.867188 2.28125 -6.703125 C 2.28125 -6.804688 2.28125 -7.082031 2.28125 -7.53125 C 2.28125 -7.976562 2.28125 -8.453125 2.28125 -8.953125 C 2.28125 -9.453125 2.28125 -9.816406 2.28125 -10.046875 C 2.28125 -10.046875 2.273438 -10.253906 2.265625 -10.671875 C 2.253906 -11.085938 2.210938 -11.578125 2.140625 -12.140625 C 2.066406 -12.703125 1.9375 -13.207031 1.75 -13.65625 C 1.5625 -14.101562 1.28125 -14.367188 0.90625 -14.453125 C 0.78125 -14.492188 0.726562 -14.550781 0.75 -14.625 C 0.769531 -14.695312 0.820312 -14.734375 0.90625 -14.734375 C 1.03125 -14.734375 1.289062 -14.726562 1.6875 -14.71875 C 2.082031 -14.707031 2.53125 -14.675781 3.03125 -14.625 C 3.53125 -14.570312 4.007812 -14.472656 4.46875 -14.328125 C 4.925781 -14.179688 5.273438 -13.953125 5.515625 -13.640625 C 5.828125 -13.265625 6.203125 -12.644531 6.640625 -11.78125 C 7.078125 -10.914062 7.546875 -9.945312 8.046875 -8.875 C 8.546875 -7.800781 9.035156 -6.75 9.515625 -5.71875 C 9.992188 -4.695312 10.429688 -3.832031 10.828125 -3.125 C 11.160156 -2.539062 11.425781 -2.140625 11.625 -1.921875 C 11.820312 -1.703125 11.960938 -1.738281 12.046875 -2.03125 C 12.128906 -2.320312 12.160156 -2.9375 12.140625 -3.875 C 12.179688 -4.5625 12.207031 -5.269531 12.21875 -6 C 12.226562 -6.738281 12.210938 -7.273438 12.171875 -7.609375 C 12.046875 -8.941406 11.84375 -10.003906 11.5625 -10.796875 C 11.28125 -11.585938 10.929688 -12.195312 10.515625 -12.625 C 10.097656 -13.050781 9.628906 -13.390625 9.109375 -13.640625 C 8.585938 -13.890625 8.015625 -14.148438 7.390625 -14.421875 C 7.265625 -14.460938 7.210938 -14.519531 7.234375 -14.59375 C 7.253906 -14.664062 7.304688 -14.703125 7.390625 -14.703125 C 7.453125 -14.703125 7.664062 -14.703125 8.03125 -14.703125 C 8.394531 -14.703125 8.835938 -14.703125 9.359375 -14.703125 C 9.878906 -14.703125 10.410156 -14.703125 10.953125 -14.703125 C 11.492188 -14.703125 11.960938 -14.703125 12.359375 -14.703125 C 12.960938 -14.703125 13.347656 -14.703125 13.515625 -14.703125 C 13.679688 -14.703125 13.753906 -14.703125 13.734375 -14.703125 C 13.710938 -14.703125 13.710938 -14.703125 13.734375 -14.703125 Z M 13.734375 -14.703125 "/></g></g><g style="fill:#ffffff;fill-opacity:1;"><g transform="translate(117.136796, 49.500468)"><path style="stroke:none" d="M 12.421875 -5.578125 C 12.960938 -5.578125 13.316406 -5.378906 13.484375 -4.984375 C 13.648438 -4.597656 13.644531 -4.125 13.46875 -3.5625 C 13.289062 -3 12.945312 -2.4375 12.4375 -1.875 C 11.925781 -1.3125 11.253906 -0.851562 10.421875 -0.5 C 9.296875 -0.0390625 8.351562 0.125 7.59375 0 C 6.832031 -0.125 6.1875 -0.457031 5.65625 -1 C 5.132812 -1.539062 4.644531 -2.195312 4.1875 -2.96875 C 3.976562 -3.363281 3.765625 -3.738281 3.546875 -4.09375 C 3.328125 -4.445312 3.101562 -4.726562 2.875 -4.9375 C 2.664062 -5.113281 2.453125 -5.164062 2.234375 -5.09375 C 2.015625 -5.03125 1.800781 -4.726562 1.59375 -4.1875 C 1.445312 -3.832031 1.296875 -3.738281 1.140625 -3.90625 C 0.984375 -4.070312 0.84375 -4.378906 0.71875 -4.828125 C 0.59375 -5.285156 0.492188 -5.789062 0.421875 -6.34375 C 0.347656 -6.894531 0.320312 -7.390625 0.34375 -7.828125 C 0.40625 -9.015625 0.710938 -10.140625 1.265625 -11.203125 C 1.816406 -12.265625 2.609375 -13.128906 3.640625 -13.796875 C 4.671875 -14.460938 5.941406 -14.796875 7.453125 -14.796875 C 9.429688 -14.816406 10.898438 -14.382812 11.859375 -13.5 C 12.816406 -12.613281 13.304688 -11.472656 13.328125 -10.078125 C 13.328125 -10.078125 13.175781 -10.035156 12.875 -9.953125 C 12.570312 -9.867188 12.191406 -9.765625 11.734375 -9.640625 C 11.273438 -9.515625 10.785156 -9.394531 10.265625 -9.28125 C 9.742188 -9.164062 9.265625 -9.078125 8.828125 -9.015625 C 8.785156 -9.097656 8.757812 -9.15625 8.75 -9.1875 C 8.738281 -9.21875 8.710938 -9.265625 8.671875 -9.328125 C 9.148438 -10.203125 9.398438 -11.019531 9.421875 -11.78125 C 9.441406 -12.539062 9.285156 -13.171875 8.953125 -13.671875 C 8.617188 -14.171875 8.117188 -14.429688 7.453125 -14.453125 C 6.804688 -14.492188 6.257812 -14.1875 5.8125 -13.53125 C 5.375 -12.875 5.039062 -12.019531 4.8125 -10.96875 C 4.582031 -9.914062 4.457031 -8.804688 4.4375 -7.640625 C 4.4375 -6.847656 4.476562 -6.007812 4.5625 -5.125 C 4.644531 -4.25 4.832031 -3.441406 5.125 -2.703125 C 5.425781 -1.960938 5.878906 -1.390625 6.484375 -0.984375 C 7.085938 -0.578125 7.910156 -0.445312 8.953125 -0.59375 C 9.640625 -0.695312 10.257812 -0.960938 10.8125 -1.390625 C 11.363281 -1.816406 11.640625 -2.476562 11.640625 -3.375 C 11.640625 -3.769531 11.363281 -4.117188 10.8125 -4.421875 C 10.257812 -4.722656 9.578125 -4.945312 8.765625 -5.09375 C 7.953125 -5.25 7.128906 -5.304688 6.296875 -5.265625 C 6.296875 -5.265625 6.273438 -5.269531 6.234375 -5.28125 C 6.191406 -5.289062 6.171875 -5.335938 6.171875 -5.421875 C 6.171875 -5.484375 6.191406 -5.523438 6.234375 -5.546875 C 6.273438 -5.566406 6.296875 -5.578125 6.296875 -5.578125 C 6.378906 -5.578125 6.6875 -5.578125 7.21875 -5.578125 C 7.75 -5.578125 8.367188 -5.578125 9.078125 -5.578125 C 9.785156 -5.578125 10.457031 -5.578125 11.09375 -5.578125 C 11.726562 -5.578125 12.171875 -5.578125 12.421875 -5.578125 Z M 12.421875 -5.578125 "/></g></g></g></svg>