<svg xmlns="http://www.w3.org/2000/svg" xmlns:xlink="http://www.w3.org/1999/xlink" width="200" zoomAndPan="magnify" viewBox="0 0 150 149.999998" height="200" preserveAspectRatio="xMidYMid meet" version="1.2"><defs><clipPath id="3243941f67"><path d="M 13.355469 10.222656 L 139.355469 10.222656 L 139.355469 136.972656 L 13.355469 136.972656 Z M 13.355469 10.222656 "/></clipPath><clipPath id="146385819e"><path d="M 20.09375 10.222656 L 132.367188 10.222656 C 136.089844 10.222656 139.105469 13.242188 139.105469 16.964844 L 139.105469 130.234375 C 139.105469 133.957031 136.089844 136.972656 132.367188 136.972656 L 20.09375 136.972656 C 16.371094 136.972656 13.355469 133.957031 13.355469 130.234375 L 13.355469 16.964844 C 13.355469 13.242188 16.371094 10.222656 20.09375 10.222656 Z M 20.09375 10.222656 "/></clipPath><clipPath id="697e228fcd"><path d="M 15 8.007812 L 137.949219 8.007812 L 137.949219 18.75 L 15 18.75 Z M 15 8.007812 "/></clipPath><clipPath id="6309c659d2"><path d="M 20.371094 8.007812 L 132.535156 8.007812 C 135.503906 8.007812 137.90625 10.414062 137.90625 13.378906 C 137.90625 16.347656 135.503906 18.75 132.535156 18.75 L 20.371094 18.75 C 17.40625 18.75 15 16.347656 15 13.378906 C 15 10.414062 17.40625 8.007812 20.371094 8.007812 Z M 20.371094 8.007812 "/></clipPath><clipPath id="2b68d615d1"><path d="M 109.882812 10.8125 L 115.015625 10.8125 L 115.015625 15.949219 L 109.882812 15.949219 Z M 109.882812 10.8125 "/></clipPath><clipPath id="55b828a0d8"><path d="M 112.449219 10.8125 C 111.03125 10.8125 109.882812 11.960938 109.882812 13.378906 C 109.882812 14.796875 111.03125 15.949219 112.449219 15.949219 C 113.867188 15.949219 115.015625 14.796875 115.015625 13.378906 C 115.015625 11.960938 113.867188 10.8125 112.449219 10.8125 Z M 112.449219 10.8125 "/></clipPath><clipPath id="e81dce4a48"><path d="M 118.058594 10.8125 L 123.191406 10.8125 L 123.191406 15.949219 L 118.058594 15.949219 Z M 118.058594 10.8125 "/></clipPath><clipPath id="18c228984a"><path d="M 120.625 10.8125 C 119.207031 10.8125 118.058594 11.960938 118.058594 13.378906 C 118.058594 14.796875 119.207031 15.949219 120.625 15.949219 C 122.042969 15.949219 123.191406 14.796875 123.191406 13.378906 C 123.191406 11.960938 122.042969 10.8125 120.625 10.8125 Z M 120.625 10.8125 "/></clipPath><clipPath id="f5e64a1ba1"><path d="M 126.230469 10.8125 L 131.367188 10.8125 L 131.367188 15.949219 L 126.230469 15.949219 Z M 126.230469 10.8125 "/></clipPath><clipPath id="87eb3f1720"><path d="M 128.796875 10.8125 C 127.378906 10.8125 126.230469 11.960938 126.230469 13.378906 C 126.230469 14.796875 127.378906 15.949219 128.796875 15.949219 C 130.214844 15.949219 131.367188 14.796875 131.367188 13.378906 C 131.367188 11.960938 130.214844 10.8125 128.796875 10.8125 Z M 128.796875 10.8125 "/></clipPath><linearGradient x1="-0.0000727801" gradientTransform="matrix(0.0200556,0,0,0.0200556,126.231528,10.813158)" y1="128" x2="255.999918" gradientUnits="userSpaceOnUse" y2="128" id="b7054db977"><stop style="stop-color:#89d957;stop-opacity:1;" offset="0"/><stop style="stop-color:#89d957;stop-opacity:1;" offset="0.0078125"/><stop style="stop-color:#8ad957;stop-opacity:1;" offset="0.015625"/><stop style="stop-color:#8ad957;stop-opacity:1;" offset="0.0234375"/><stop style="stop-color:#8bd957;stop-opacity:1;" offset="0.03125"/><stop style="stop-color:#8bd957;stop-opacity:1;" offset="0.0390625"/><stop style="stop-color:#8cd958;stop-opacity:1;" offset="0.046875"/><stop style="stop-color:#8cd958;stop-opacity:1;" offset="0.0546875"/><stop style="stop-color:#8dda58;stop-opacity:1;" offset="0.0625"/><stop style="stop-color:#8dda58;stop-opacity:1;" offset="0.0703125"/><stop style="stop-color:#8eda58;stop-opacity:1;" offset="0.078125"/><stop style="stop-color:#8eda58;stop-opacity:1;" offset="0.0859375"/><stop style="stop-color:#8fda58;stop-opacity:1;" offset="0.09375"/><stop style="stop-color:#8fda58;stop-opacity:1;" offset="0.101562"/><stop style="stop-color:#90da58;stop-opacity:1;" offset="0.109375"/><stop style="stop-color:#90da59;stop-opacity:1;" offset="0.117188"/><stop style="stop-color:#91da59;stop-opacity:1;" offset="0.125"/><stop style="stop-color:#91da59;stop-opacity:1;" offset="0.132812"/><stop style="stop-color:#92da59;stop-opacity:1;" offset="0.140625"/><stop style="stop-color:#92da59;stop-opacity:1;" offset="0.148438"/><stop style="stop-color:#93da59;stop-opacity:1;" offset="0.15625"/><stop style="stop-color:#93da59;stop-opacity:1;" offset="0.164062"/><stop style="stop-color:#94db59;stop-opacity:1;" offset="0.171875"/><stop style="stop-color:#94db59;stop-opacity:1;" offset="0.179688"/><stop style="stop-color:#95db5a;stop-opacity:1;" offset="0.1875"/><stop style="stop-color:#95db5a;stop-opacity:1;" offset="0.195312"/><stop style="stop-color:#96db5a;stop-opacity:1;" offset="0.203125"/><stop style="stop-color:#96db5a;stop-opacity:1;" offset="0.210938"/><stop style="stop-color:#97db5a;stop-opacity:1;" offset="0.21875"/><stop style="stop-color:#97db5a;stop-opacity:1;" offset="0.226562"/><stop style="stop-color:#98db5a;stop-opacity:1;" offset="0.234375"/><stop style="stop-color:#98db5a;stop-opacity:1;" offset="0.242188"/><stop style="stop-color:#99db5a;stop-opacity:1;" offset="0.25"/><stop style="stop-color:#99db5b;stop-opacity:1;" offset="0.257813"/><stop style="stop-color:#9adb5b;stop-opacity:1;" offset="0.265625"/><stop style="stop-color:#9adb5b;stop-opacity:1;" offset="0.273437"/><stop style="stop-color:#9bdb5b;stop-opacity:1;" offset="0.28125"/><stop style="stop-color:#9bdc5b;stop-opacity:1;" offset="0.289063"/><stop style="stop-color:#9cdc5b;stop-opacity:1;" offset="0.296875"/><stop style="stop-color:#9cdc5b;stop-opacity:1;" offset="0.304687"/><stop style="stop-color:#9ddc5b;stop-opacity:1;" offset="0.3125"/><stop style="stop-color:#9ddc5b;stop-opacity:1;" offset="0.320313"/><stop style="stop-color:#9edc5c;stop-opacity:1;" offset="0.328125"/><stop style="stop-color:#9edc5c;stop-opacity:1;" offset="0.335937"/><stop style="stop-color:#9fdc5c;stop-opacity:1;" offset="0.34375"/><stop style="stop-color:#9fdc5c;stop-opacity:1;" offset="0.351563"/><stop style="stop-color:#a0dc5c;stop-opacity:1;" offset="0.359375"/><stop style="stop-color:#a0dc5c;stop-opacity:1;" offset="0.367187"/><stop style="stop-color:#a1dc5c;stop-opacity:1;" offset="0.375"/><stop style="stop-color:#a1dc5c;stop-opacity:1;" offset="0.382813"/><stop style="stop-color:#a2dc5c;stop-opacity:1;" offset="0.390625"/><stop style="stop-color:#a2dd5c;stop-opacity:1;" offset="0.398437"/><stop style="stop-color:#a3dd5d;stop-opacity:1;" offset="0.40625"/><stop style="stop-color:#a3dd5d;stop-opacity:1;" offset="0.414063"/><stop style="stop-color:#a4dd5d;stop-opacity:1;" offset="0.421875"/><stop style="stop-color:#a4dd5d;stop-opacity:1;" offset="0.429687"/><stop style="stop-color:#a5dd5d;stop-opacity:1;" offset="0.4375"/><stop style="stop-color:#a5dd5d;stop-opacity:1;" offset="0.445313"/><stop style="stop-color:#a6dd5d;stop-opacity:1;" offset="0.453125"/><stop style="stop-color:#a6dd5d;stop-opacity:1;" offset="0.460937"/><stop style="stop-color:#a7dd5d;stop-opacity:1;" offset="0.46875"/><stop style="stop-color:#a7dd5e;stop-opacity:1;" offset="0.476563"/><stop style="stop-color:#a8dd5e;stop-opacity:1;" offset="0.484375"/><stop style="stop-color:#a8dd5e;stop-opacity:1;" offset="0.492187"/><stop style="stop-color:#a9dd5e;stop-opacity:1;" offset="0.5"/><stop style="stop-color:#a9dd5e;stop-opacity:1;" offset="0.507812"/><stop style="stop-color:#aade5e;stop-opacity:1;" offset="0.515625"/><stop style="stop-color:#aade5e;stop-opacity:1;" offset="0.523438"/><stop style="stop-color:#abde5e;stop-opacity:1;" offset="0.53125"/><stop style="stop-color:#abde5e;stop-opacity:1;" offset="0.539062"/><stop style="stop-color:#acde5f;stop-opacity:1;" offset="0.546875"/><stop style="stop-color:#acde5f;stop-opacity:1;" offset="0.554688"/><stop style="stop-color:#adde5f;stop-opacity:1;" offset="0.5625"/><stop style="stop-color:#adde5f;stop-opacity:1;" offset="0.570312"/><stop style="stop-color:#aede5f;stop-opacity:1;" offset="0.578125"/><stop style="stop-color:#aede5f;stop-opacity:1;" offset="0.585938"/><stop style="stop-color:#afde5f;stop-opacity:1;" offset="0.59375"/><stop style="stop-color:#afde5f;stop-opacity:1;" offset="0.601562"/><stop style="stop-color:#b0de5f;stop-opacity:1;" offset="0.609375"/><stop style="stop-color:#b0de60;stop-opacity:1;" offset="0.617188"/><stop style="stop-color:#b1df60;stop-opacity:1;" offset="0.625"/><stop style="stop-color:#b1df60;stop-opacity:1;" offset="0.632812"/><stop style="stop-color:#b2df60;stop-opacity:1;" offset="0.640625"/><stop style="stop-color:#b2df60;stop-opacity:1;" offset="0.648438"/><stop style="stop-color:#b3df60;stop-opacity:1;" offset="0.65625"/><stop style="stop-color:#b3df60;stop-opacity:1;" offset="0.664062"/><stop style="stop-color:#b4df60;stop-opacity:1;" offset="0.671875"/><stop style="stop-color:#b4df60;stop-opacity:1;" offset="0.679688"/><stop style="stop-color:#b5df61;stop-opacity:1;" offset="0.6875"/><stop style="stop-color:#b5df61;stop-opacity:1;" offset="0.695312"/><stop style="stop-color:#b6df61;stop-opacity:1;" offset="0.703125"/><stop style="stop-color:#b6df61;stop-opacity:1;" offset="0.710938"/><stop style="stop-color:#b7df61;stop-opacity:1;" offset="0.71875"/><stop style="stop-color:#b7df61;stop-opacity:1;" offset="0.726562"/><stop style="stop-color:#b8e061;stop-opacity:1;" offset="0.734375"/><stop style="stop-color:#b8e061;stop-opacity:1;" offset="0.742188"/><stop style="stop-color:#b9e061;stop-opacity:1;" offset="0.75"/><stop style="stop-color:#b9e062;stop-opacity:1;" offset="0.757812"/><stop style="stop-color:#bae062;stop-opacity:1;" offset="0.765625"/><stop style="stop-color:#bae062;stop-opacity:1;" offset="0.773438"/><stop style="stop-color:#bbe062;stop-opacity:1;" offset="0.78125"/><stop style="stop-color:#bbe062;stop-opacity:1;" offset="0.789062"/><stop style="stop-color:#bce062;stop-opacity:1;" offset="0.796875"/><stop style="stop-color:#bce062;stop-opacity:1;" offset="0.804688"/><stop style="stop-color:#bde062;stop-opacity:1;" offset="0.8125"/><stop style="stop-color:#bde062;stop-opacity:1;" offset="0.820312"/><stop style="stop-color:#bee063;stop-opacity:1;" offset="0.828125"/><stop style="stop-color:#bee063;stop-opacity:1;" offset="0.835938"/><stop style="stop-color:#bfe063;stop-opacity:1;" offset="0.84375"/><stop style="stop-color:#bfe163;stop-opacity:1;" offset="0.851562"/><stop style="stop-color:#c0e163;stop-opacity:1;" offset="0.859375"/><stop style="stop-color:#c0e163;stop-opacity:1;" offset="0.867188"/><stop style="stop-color:#c1e163;stop-opacity:1;" offset="0.875"/><stop style="stop-color:#c1e163;stop-opacity:1;" offset="0.882812"/><stop style="stop-color:#c2e163;stop-opacity:1;" offset="0.890625"/><stop style="stop-color:#c2e164;stop-opacity:1;" offset="0.898438"/><stop style="stop-color:#c3e164;stop-opacity:1;" offset="0.90625"/><stop style="stop-color:#c3e164;stop-opacity:1;" offset="0.914062"/><stop style="stop-color:#c4e164;stop-opacity:1;" offset="0.921875"/><stop style="stop-color:#c4e164;stop-opacity:1;" offset="0.929688"/><stop style="stop-color:#c5e164;stop-opacity:1;" offset="0.9375"/><stop style="stop-color:#c5e164;stop-opacity:1;" offset="0.945312"/><stop style="stop-color:#c6e164;stop-opacity:1;" offset="0.953125"/><stop style="stop-color:#c6e264;stop-opacity:1;" offset="0.960938"/><stop style="stop-color:#c7e264;stop-opacity:1;" offset="0.96875"/><stop style="stop-color:#c7e265;stop-opacity:1;" offset="0.976562"/><stop style="stop-color:#c8e265;stop-opacity:1;" offset="0.984375"/><stop style="stop-color:#c8e265;stop-opacity:1;" offset="0.992188"/><stop style="stop-color:#c9e265;stop-opacity:1;" offset="1"/></linearGradient><clipPath id="30e6e24b45"><path d="M 124.816406 22.5 L 130.976562 22.5 L 130.976562 28.660156 L 124.816406 28.660156 Z M 124.816406 22.5 "/></clipPath><clipPath id="c131a54f0d"><path d="M 126.3125 24.574219 L 128.355469 24.574219 L 128.355469 27.109375 L 126.3125 27.109375 Z M 126.3125 24.574219 "/></clipPath><clipPath id="eb03d88c32"><path d="M 127.941406 23.65625 L 129.734375 23.65625 L 129.734375 25.773438 L 127.941406 25.773438 Z M 127.941406 23.65625 "/></clipPath><clipPath id="24e8452770"><path d="M 126 27 L 128 27 L 128 27.910156 L 126 27.910156 Z M 126 27 "/></clipPath><clipPath id="496590a92c"><path d="M 127 27 L 128 27 L 128 27.910156 L 127 27.910156 Z M 127 27 "/></clipPath><clipPath id="7aa5325d6b"><path d="M 127 27 L 129 27 L 129 27.910156 L 127 27.910156 Z M 127 27 "/></clipPath><clipPath id="91bf5e90c2"><path d="M 128 27 L 129 27 L 129 27.910156 L 128 27.910156 Z M 128 27 "/></clipPath><clipPath id="af8a6271f3"><path d="M 124 28 L 126 28 L 126 29 L 124 29 Z M 124 28 "/></clipPath><clipPath id="de257aaad3"><path d="M 122.238281 27.078125 L 132.082031 30.730469 L 127.390625 43.386719 L 117.542969 39.738281 Z M 122.238281 27.078125 "/></clipPath><clipPath id="ddbf3a76ae"><path d="M 122.238281 27.078125 L 132.082031 30.730469 L 127.390625 43.386719 L 117.542969 39.738281 Z M 122.238281 27.078125 "/></clipPath><clipPath id="a76606a4fd"><path d="M 125 28 L 127 28 L 127 30 L 125 30 Z M 125 28 "/></clipPath><clipPath id="690bfd6751"><path d="M 122.238281 27.078125 L 132.082031 30.730469 L 127.390625 43.386719 L 117.542969 39.738281 Z M 122.238281 27.078125 "/></clipPath><clipPath id="9260166d59"><path d="M 122.238281 27.078125 L 132.082031 30.730469 L 127.390625 43.386719 L 117.542969 39.738281 Z M 122.238281 27.078125 "/></clipPath><clipPath id="8b591cdf6f"><path d="M 125 29 L 127 29 L 127 30 L 125 30 Z M 125 29 "/></clipPath><clipPath id="9bf00d152b"><path d="M 122.238281 27.078125 L 132.082031 30.730469 L 127.390625 43.386719 L 117.542969 39.738281 Z M 122.238281 27.078125 "/></clipPath><clipPath id="9fcdb26d6e"><path d="M 122.238281 27.078125 L 132.082031 30.730469 L 127.390625 43.386719 L 117.542969 39.738281 Z M 122.238281 27.078125 "/></clipPath><clipPath id="3058527b24"><path d="M 125 29 L 127 29 L 127 31 L 125 31 Z M 125 29 "/></clipPath><clipPath id="dd04767f64"><path d="M 122.238281 27.078125 L 132.082031 30.730469 L 127.390625 43.386719 L 117.542969 39.738281 Z M 122.238281 27.078125 "/></clipPath><clipPath id="e38fc0774f"><path d="M 122.238281 27.078125 L 132.082031 30.730469 L 127.390625 43.386719 L 117.542969 39.738281 Z M 122.238281 27.078125 "/></clipPath><clipPath id="cd5afe0dc7"><path d="M 125 30 L 127 30 L 127 32 L 125 32 Z M 125 30 "/></clipPath><clipPath id="dac394a83d"><path d="M 122.238281 27.078125 L 132.082031 30.730469 L 127.390625 43.386719 L 117.542969 39.738281 Z M 122.238281 27.078125 "/></clipPath><clipPath id="4e2f270361"><path d="M 122.238281 27.078125 L 132.082031 30.730469 L 127.390625 43.386719 L 117.542969 39.738281 Z M 122.238281 27.078125 "/></clipPath><clipPath id="01f7a4df91"><path d="M 125 30 L 126 30 L 126 32 L 125 32 Z M 125 30 "/></clipPath><clipPath id="0546a0aa97"><path d="M 122.238281 27.078125 L 132.082031 30.730469 L 127.390625 43.386719 L 117.542969 39.738281 Z M 122.238281 27.078125 "/></clipPath><clipPath id="9e4a5558c7"><path d="M 122.238281 27.078125 L 132.082031 30.730469 L 127.390625 43.386719 L 117.542969 39.738281 Z M 122.238281 27.078125 "/></clipPath><clipPath id="72a7f53004"><path d="M 124 31 L 126 31 L 126 33 L 124 33 Z M 124 31 "/></clipPath><clipPath id="c481678926"><path d="M 122.238281 27.078125 L 132.082031 30.730469 L 127.390625 43.386719 L 117.542969 39.738281 Z M 122.238281 27.078125 "/></clipPath><clipPath id="3905e4cf2d"><path d="M 122.238281 27.078125 L 132.082031 30.730469 L 127.390625 43.386719 L 117.542969 39.738281 Z M 122.238281 27.078125 "/></clipPath><clipPath id="92bf787d50"><path d="M 124 32 L 126 32 L 126 33 L 124 33 Z M 124 32 "/></clipPath><clipPath id="4441a1c889"><path d="M 122.238281 27.078125 L 132.082031 30.730469 L 127.390625 43.386719 L 117.542969 39.738281 Z M 122.238281 27.078125 "/></clipPath><clipPath id="d9c9fca544"><path d="M 122.238281 27.078125 L 132.082031 30.730469 L 127.390625 43.386719 L 117.542969 39.738281 Z M 122.238281 27.078125 "/></clipPath><clipPath id="311290a52e"><path d="M 124 32 L 126 32 L 126 34 L 124 34 Z M 124 32 "/></clipPath><clipPath id="d48f8d5e5b"><path d="M 122.238281 27.078125 L 132.082031 30.730469 L 127.390625 43.386719 L 117.542969 39.738281 Z M 122.238281 27.078125 "/></clipPath><clipPath id="8d1ce919da"><path d="M 122.238281 27.078125 L 132.082031 30.730469 L 127.390625 43.386719 L 117.542969 39.738281 Z M 122.238281 27.078125 "/></clipPath><clipPath id="5929f53360"><path d="M 124 33 L 126 33 L 126 34 L 124 34 Z M 124 33 "/></clipPath><clipPath id="38513ed237"><path d="M 122.238281 27.078125 L 132.082031 30.730469 L 127.390625 43.386719 L 117.542969 39.738281 Z M 122.238281 27.078125 "/></clipPath><clipPath id="38f0e10da4"><path d="M 122.238281 27.078125 L 132.082031 30.730469 L 127.390625 43.386719 L 117.542969 39.738281 Z M 122.238281 27.078125 "/></clipPath><clipPath id="c319b1746e"><path d="M 124 33 L 125 33 L 125 35 L 124 35 Z M 124 33 "/></clipPath><clipPath id="202a913716"><path d="M 122.238281 27.078125 L 132.082031 30.730469 L 127.390625 43.386719 L 117.542969 39.738281 Z M 122.238281 27.078125 "/></clipPath><clipPath id="ce6b6d8d29"><path d="M 122.238281 27.078125 L 132.082031 30.730469 L 127.390625 43.386719 L 117.542969 39.738281 Z M 122.238281 27.078125 "/></clipPath><clipPath id="3124ba8405"><path d="M 125 31 L 127 31 L 127 33 L 125 33 Z M 125 31 "/></clipPath><clipPath id="0472eadd1d"><path d="M 122.238281 27.078125 L 132.082031 30.730469 L 127.390625 43.386719 L 117.542969 39.738281 Z M 122.238281 27.078125 "/></clipPath><clipPath id="16b74abe5c"><path d="M 122.238281 27.078125 L 132.082031 30.730469 L 127.390625 43.386719 L 117.542969 39.738281 Z M 122.238281 27.078125 "/></clipPath><clipPath id="2fcf1f7637"><path d="M 126 31 L 127 31 L 127 33 L 126 33 Z M 126 31 "/></clipPath><clipPath id="a914ce234e"><path d="M 122.238281 27.078125 L 132.082031 30.730469 L 127.390625 43.386719 L 117.542969 39.738281 Z M 122.238281 27.078125 "/></clipPath><clipPath id="3b66e9afe9"><path d="M 122.238281 27.078125 L 132.082031 30.730469 L 127.390625 43.386719 L 117.542969 39.738281 Z M 122.238281 27.078125 "/></clipPath><clipPath id="bf229e3f53"><path d="M 126 32 L 128 32 L 128 34 L 126 34 Z M 126 32 "/></clipPath><clipPath id="77334d9121"><path d="M 122.238281 27.078125 L 132.082031 30.730469 L 127.390625 43.386719 L 117.542969 39.738281 Z M 122.238281 27.078125 "/></clipPath><clipPath id="3991d99864"><path d="M 122.238281 27.078125 L 132.082031 30.730469 L 127.390625 43.386719 L 117.542969 39.738281 Z M 122.238281 27.078125 "/></clipPath><clipPath id="8dd9b90fc6"><path d="M 127 32 L 128 32 L 128 34 L 127 34 Z M 127 32 "/></clipPath><clipPath id="da9103e53c"><path d="M 122.238281 27.078125 L 132.082031 30.730469 L 127.390625 43.386719 L 117.542969 39.738281 Z M 122.238281 27.078125 "/></clipPath><clipPath id="67bf1755f3"><path d="M 122.238281 27.078125 L 132.082031 30.730469 L 127.390625 43.386719 L 117.542969 39.738281 Z M 122.238281 27.078125 "/></clipPath><clipPath id="4ac4cd21ac"><path d="M 127 33 L 129 33 L 129 34 L 127 34 Z M 127 33 "/></clipPath><clipPath id="40c04606f0"><path d="M 122.238281 27.078125 L 132.082031 30.730469 L 127.390625 43.386719 L 117.542969 39.738281 Z M 122.238281 27.078125 "/></clipPath><clipPath id="6f9c6a600e"><path d="M 122.238281 27.078125 L 132.082031 30.730469 L 127.390625 43.386719 L 117.542969 39.738281 Z M 122.238281 27.078125 "/></clipPath><clipPath id="c3fb1bc231"><path d="M 126 33 L 128 33 L 128 35 L 126 35 Z M 126 33 "/></clipPath><clipPath id="53f8b3cfd5"><path d="M 122.238281 27.078125 L 132.082031 30.730469 L 127.390625 43.386719 L 117.542969 39.738281 Z M 122.238281 27.078125 "/></clipPath><clipPath id="f34f3eea0b"><path d="M 122.238281 27.078125 L 132.082031 30.730469 L 127.390625 43.386719 L 117.542969 39.738281 Z M 122.238281 27.078125 "/></clipPath><clipPath id="82160f3814"><path d="M 126 33 L 127 33 L 127 35 L 126 35 Z M 126 33 "/></clipPath><clipPath id="ab9fbd5fa3"><path d="M 122.238281 27.078125 L 132.082031 30.730469 L 127.390625 43.386719 L 117.542969 39.738281 Z M 122.238281 27.078125 "/></clipPath><clipPath id="0c19524003"><path d="M 122.238281 27.078125 L 132.082031 30.730469 L 127.390625 43.386719 L 117.542969 39.738281 Z M 122.238281 27.078125 "/></clipPath><clipPath id="050cdfa63c"><path d="M 125 34 L 127 34 L 127 36 L 125 36 Z M 125 34 "/></clipPath><clipPath id="5a184a4e27"><path d="M 122.238281 27.078125 L 132.082031 30.730469 L 127.390625 43.386719 L 117.542969 39.738281 Z M 122.238281 27.078125 "/></clipPath><clipPath id="d3d76f4df3"><path d="M 122.238281 27.078125 L 132.082031 30.730469 L 127.390625 43.386719 L 117.542969 39.738281 Z M 122.238281 27.078125 "/></clipPath><clipPath id="e66081785f"><path d="M 128 33 L 129 33 L 129 35 L 128 35 Z M 128 33 "/></clipPath><clipPath id="0e33b9cb4b"><path d="M 122.238281 27.078125 L 132.082031 30.730469 L 127.390625 43.386719 L 117.542969 39.738281 Z M 122.238281 27.078125 "/></clipPath><clipPath id="ea256dc54d"><path d="M 122.238281 27.078125 L 132.082031 30.730469 L 127.390625 43.386719 L 117.542969 39.738281 Z M 122.238281 27.078125 "/></clipPath><clipPath id="d04522d975"><path d="M 128 34 L 130 34 L 130 35 L 128 35 Z M 128 34 "/></clipPath><clipPath id="78d092ffcc"><path d="M 122.238281 27.078125 L 132.082031 30.730469 L 127.390625 43.386719 L 117.542969 39.738281 Z M 122.238281 27.078125 "/></clipPath><clipPath id="d6a0fdc153"><path d="M 122.238281 27.078125 L 132.082031 30.730469 L 127.390625 43.386719 L 117.542969 39.738281 Z M 122.238281 27.078125 "/></clipPath><clipPath id="dcec8ada3d"><path d="M 127 34 L 129 34 L 129 36 L 127 36 Z M 127 34 "/></clipPath><clipPath id="d98caf2d08"><path d="M 122.238281 27.078125 L 132.082031 30.730469 L 127.390625 43.386719 L 117.542969 39.738281 Z M 122.238281 27.078125 "/></clipPath><clipPath id="6b94cd451e"><path d="M 122.238281 27.078125 L 132.082031 30.730469 L 127.390625 43.386719 L 117.542969 39.738281 Z M 122.238281 27.078125 "/></clipPath><clipPath id="2d6102226e"><path d="M 127 35 L 129 35 L 129 36 L 127 36 Z M 127 35 "/></clipPath><clipPath id="4f50b018d3"><path d="M 122.238281 27.078125 L 132.082031 30.730469 L 127.390625 43.386719 L 117.542969 39.738281 Z M 122.238281 27.078125 "/></clipPath><clipPath id="d591f0dc20"><path d="M 122.238281 27.078125 L 132.082031 30.730469 L 127.390625 43.386719 L 117.542969 39.738281 Z M 122.238281 27.078125 "/></clipPath><clipPath id="3fdca7b292"><path d="M 127 35 L 129 35 L 129 37 L 127 37 Z M 127 35 "/></clipPath><clipPath id="98c17b48ee"><path d="M 122.238281 27.078125 L 132.082031 30.730469 L 127.390625 43.386719 L 117.542969 39.738281 Z M 122.238281 27.078125 "/></clipPath><clipPath id="7bcccfaf9f"><path d="M 122.238281 27.078125 L 132.082031 30.730469 L 127.390625 43.386719 L 117.542969 39.738281 Z M 122.238281 27.078125 "/></clipPath><clipPath id="b02095b879"><path d="M 128 34 L 130 34 L 130 36 L 128 36 Z M 128 34 "/></clipPath><clipPath id="a1e8c45ed9"><path d="M 122.238281 27.078125 L 132.082031 30.730469 L 127.390625 43.386719 L 117.542969 39.738281 Z M 122.238281 27.078125 "/></clipPath><clipPath id="01db9691e8"><path d="M 122.238281 27.078125 L 132.082031 30.730469 L 127.390625 43.386719 L 117.542969 39.738281 Z M 122.238281 27.078125 "/></clipPath><clipPath id="694937c485"><path d="M 129 35 L 131 35 L 131 37 L 129 37 Z M 129 35 "/></clipPath><clipPath id="dfaf66d3a2"><path d="M 122.238281 27.078125 L 132.082031 30.730469 L 127.390625 43.386719 L 117.542969 39.738281 Z M 122.238281 27.078125 "/></clipPath><clipPath id="0baaa536c2"><path d="M 122.238281 27.078125 L 132.082031 30.730469 L 127.390625 43.386719 L 117.542969 39.738281 Z M 122.238281 27.078125 "/></clipPath><clipPath id="19ceb7f84b"><path d="M 129.515625 35.660156 L 130.09375 35.875 L 129.875 36.472656 L 129.296875 36.257812 Z M 129.515625 35.660156 "/></clipPath><clipPath id="dc3154829e"><path d="M 129 36 L 130 36 L 130 38 L 129 38 Z M 129 36 "/></clipPath><clipPath id="78afae7eca"><path d="M 122.238281 27.078125 L 132.082031 30.730469 L 127.390625 43.386719 L 117.542969 39.738281 Z M 122.238281 27.078125 "/></clipPath><clipPath id="9704a4896b"><path d="M 122.238281 27.078125 L 132.082031 30.730469 L 127.390625 43.386719 L 117.542969 39.738281 Z M 122.238281 27.078125 "/></clipPath><clipPath id="3397a41d85"><path d="M 129.300781 36.238281 L 129.878906 36.453125 L 129.664062 37.03125 L 129.089844 36.816406 Z M 129.300781 36.238281 "/></clipPath><clipPath id="7f91a540c5"><path d="M 128 36 L 130 36 L 130 38 L 128 38 Z M 128 36 "/></clipPath><clipPath id="1a6c063c50"><path d="M 122.238281 27.078125 L 132.082031 30.730469 L 127.390625 43.386719 L 117.542969 39.738281 Z M 122.238281 27.078125 "/></clipPath><clipPath id="e625ea59ce"><path d="M 122.238281 27.078125 L 132.082031 30.730469 L 127.390625 43.386719 L 117.542969 39.738281 Z M 122.238281 27.078125 "/></clipPath><clipPath id="99d641a300"><path d="M 129.089844 36.816406 L 129.664062 37.03125 L 129.453125 37.609375 L 128.875 37.398438 Z M 129.089844 36.816406 "/></clipPath><clipPath id="2714b7abfb"><path d="M 128 37 L 130 37 L 130 39 L 128 39 Z M 128 37 "/></clipPath><clipPath id="d43d614db2"><path d="M 122.238281 27.078125 L 132.082031 30.730469 L 127.390625 43.386719 L 117.542969 39.738281 Z M 122.238281 27.078125 "/></clipPath><clipPath id="22f5181974"><path d="M 122.238281 27.078125 L 132.082031 30.730469 L 127.390625 43.386719 L 117.542969 39.738281 Z M 122.238281 27.078125 "/></clipPath><clipPath id="620abc8cf6"><path d="M 128.878906 37.378906 L 129.457031 37.59375 L 129.238281 38.1875 L 128.660156 37.976562 Z M 128.878906 37.378906 "/></clipPath><clipPath id="c7e66189ba"><path d="M 128 37 L 130 37 L 130 39 L 128 39 Z M 128 37 "/></clipPath><clipPath id="7c9736286e"><path d="M 122.238281 27.078125 L 132.082031 30.730469 L 127.390625 43.386719 L 117.542969 39.738281 Z M 122.238281 27.078125 "/></clipPath><clipPath id="26bc36d73f"><path d="M 122.238281 27.078125 L 132.082031 30.730469 L 127.390625 43.386719 L 117.542969 39.738281 Z M 122.238281 27.078125 "/></clipPath><clipPath id="0a3644b43d"><path d="M 128.667969 37.957031 L 129.242188 38.171875 L 129.023438 38.765625 L 128.445312 38.554688 Z M 128.667969 37.957031 "/></clipPath><clipPath id="2909d4b77e"><path d="M 128 38 L 130 38 L 130 40 L 128 40 Z M 128 38 "/></clipPath><clipPath id="e70461a013"><path d="M 122.238281 27.078125 L 132.082031 30.730469 L 127.390625 43.386719 L 117.542969 39.738281 Z M 122.238281 27.078125 "/></clipPath><clipPath id="45cc76e8b8"><path d="M 122.238281 27.078125 L 132.082031 30.730469 L 127.390625 43.386719 L 117.542969 39.738281 Z M 122.238281 27.078125 "/></clipPath><clipPath id="cbc8fae7de"><path d="M 128.453125 38.535156 L 129.027344 38.75 L 128.808594 39.34375 L 128.230469 39.132812 Z M 128.453125 38.535156 "/></clipPath><clipPath id="48e9505f5d"><path d="M 128 39 L 129 39 L 129 40 L 128 40 Z M 128 39 "/></clipPath><clipPath id="0335f9e3de"><path d="M 122.238281 27.078125 L 132.082031 30.730469 L 127.390625 43.386719 L 117.542969 39.738281 Z M 122.238281 27.078125 "/></clipPath><clipPath id="78c5e17e9c"><path d="M 122.238281 27.078125 L 132.082031 30.730469 L 127.390625 43.386719 L 117.542969 39.738281 Z M 122.238281 27.078125 "/></clipPath><clipPath id="44cdebe2eb"><path d="M 128.238281 39.113281 L 128.816406 39.328125 L 128.59375 39.921875 L 128.015625 39.710938 Z M 128.238281 39.113281 "/></clipPath><clipPath id="ce6a684347"><path d="M 127 39 L 129 39 L 129 41 L 127 41 Z M 127 39 "/></clipPath><clipPath id="b5ee663702"><path d="M 122.238281 27.078125 L 132.082031 30.730469 L 127.390625 43.386719 L 117.542969 39.738281 Z M 122.238281 27.078125 "/></clipPath><clipPath id="d858cdd2d3"><path d="M 122.238281 27.078125 L 132.082031 30.730469 L 127.390625 43.386719 L 117.542969 39.738281 Z M 122.238281 27.078125 "/></clipPath><clipPath id="9553e7eda5"><path d="M 127 40 L 128 40 L 128 41 L 127 41 Z M 127 40 "/></clipPath><clipPath id="7f483515aa"><path d="M 122.238281 27.078125 L 132.082031 30.730469 L 127.390625 43.386719 L 117.542969 39.738281 Z M 122.238281 27.078125 "/></clipPath><clipPath id="66fc0bdf5c"><path d="M 122.238281 27.078125 L 132.082031 30.730469 L 127.390625 43.386719 L 117.542969 39.738281 Z M 122.238281 27.078125 "/></clipPath><clipPath id="bac47962fe"><path d="M 126 40 L 128 40 L 128 42 L 126 42 Z M 126 40 "/></clipPath><clipPath id="00a64cde69"><path d="M 122.238281 27.078125 L 132.082031 30.730469 L 127.390625 43.386719 L 117.542969 39.738281 Z M 122.238281 27.078125 "/></clipPath><clipPath id="987f2340fb"><path d="M 122.238281 27.078125 L 132.082031 30.730469 L 127.390625 43.386719 L 117.542969 39.738281 Z M 122.238281 27.078125 "/></clipPath><clipPath id="d8eb5bea26"><path d="M 126 40 L 127 40 L 127 42 L 126 42 Z M 126 40 "/></clipPath><clipPath id="e6dea2fda4"><path d="M 122.238281 27.078125 L 132.082031 30.730469 L 127.390625 43.386719 L 117.542969 39.738281 Z M 122.238281 27.078125 "/></clipPath><clipPath id="5975830685"><path d="M 122.238281 27.078125 L 132.082031 30.730469 L 127.390625 43.386719 L 117.542969 39.738281 Z M 122.238281 27.078125 "/></clipPath><clipPath id="463b22786c"><path d="M 125 41 L 127 41 L 127 43 L 125 43 Z M 125 41 "/></clipPath><clipPath id="9dc827f825"><path d="M 122.238281 27.078125 L 132.082031 30.730469 L 127.390625 43.386719 L 117.542969 39.738281 Z M 122.238281 27.078125 "/></clipPath><clipPath id="2c5bfcd1cf"><path d="M 122.238281 27.078125 L 132.082031 30.730469 L 127.390625 43.386719 L 117.542969 39.738281 Z M 122.238281 27.078125 "/></clipPath><clipPath id="6dec5dab15"><path d="M 125 42 L 127 42 L 127 43 L 125 43 Z M 125 42 "/></clipPath><clipPath id="ff89dd6f65"><path d="M 122.238281 27.078125 L 132.082031 30.730469 L 127.390625 43.386719 L 117.542969 39.738281 Z M 122.238281 27.078125 "/></clipPath><clipPath id="8ba269ed5a"><path d="M 122.238281 27.078125 L 132.082031 30.730469 L 127.390625 43.386719 L 117.542969 39.738281 Z M 122.238281 27.078125 "/></clipPath><clipPath id="05240466f2"><path d="M 125 41 L 126 41 L 126 43 L 125 43 Z M 125 41 "/></clipPath><clipPath id="d12b957a66"><path d="M 122.238281 27.078125 L 132.082031 30.730469 L 127.390625 43.386719 L 117.542969 39.738281 Z M 122.238281 27.078125 "/></clipPath><clipPath id="1d72b56cb5"><path d="M 122.238281 27.078125 L 132.082031 30.730469 L 127.390625 43.386719 L 117.542969 39.738281 Z M 122.238281 27.078125 "/></clipPath><clipPath id="661827b96d"><path d="M 124 41 L 126 41 L 126 43 L 124 43 Z M 124 41 "/></clipPath><clipPath id="e3eddc81fa"><path d="M 122.238281 27.078125 L 132.082031 30.730469 L 127.390625 43.386719 L 117.542969 39.738281 Z M 122.238281 27.078125 "/></clipPath><clipPath id="ec7386efd1"><path d="M 122.238281 27.078125 L 132.082031 30.730469 L 127.390625 43.386719 L 117.542969 39.738281 Z M 122.238281 27.078125 "/></clipPath><clipPath id="acb811d52d"><path d="M 123 41 L 125 41 L 125 43 L 123 43 Z M 123 41 "/></clipPath><clipPath id="1dffa13966"><path d="M 122.238281 27.078125 L 132.082031 30.730469 L 127.390625 43.386719 L 117.542969 39.738281 Z M 122.238281 27.078125 "/></clipPath><clipPath id="49015fc4b3"><path d="M 122.238281 27.078125 L 132.082031 30.730469 L 127.390625 43.386719 L 117.542969 39.738281 Z M 122.238281 27.078125 "/></clipPath><clipPath id="a85e6a4735"><path d="M 122 41 L 124 41 L 124 42 L 122 42 Z M 122 41 "/></clipPath><clipPath id="5560335a98"><path d="M 122.238281 27.078125 L 132.082031 30.730469 L 127.390625 43.386719 L 117.542969 39.738281 Z M 122.238281 27.078125 "/></clipPath><clipPath id="050129102a"><path d="M 122.238281 27.078125 L 132.082031 30.730469 L 127.390625 43.386719 L 117.542969 39.738281 Z M 122.238281 27.078125 "/></clipPath><clipPath id="20c9202a04"><path d="M 122 40 L 123 40 L 123 42 L 122 42 Z M 122 40 "/></clipPath><clipPath id="40337dc10d"><path d="M 122.238281 27.078125 L 132.082031 30.730469 L 127.390625 43.386719 L 117.542969 39.738281 Z M 122.238281 27.078125 "/></clipPath><clipPath id="d8ca851aaf"><path d="M 122.238281 27.078125 L 132.082031 30.730469 L 127.390625 43.386719 L 117.542969 39.738281 Z M 122.238281 27.078125 "/></clipPath><clipPath id="9b76f20581"><path d="M 121 40 L 123 40 L 123 42 L 121 42 Z M 121 40 "/></clipPath><clipPath id="5ddfe5a99b"><path d="M 122.238281 27.078125 L 132.082031 30.730469 L 127.390625 43.386719 L 117.542969 39.738281 Z M 122.238281 27.078125 "/></clipPath><clipPath id="6a8a8df615"><path d="M 122.238281 27.078125 L 132.082031 30.730469 L 127.390625 43.386719 L 117.542969 39.738281 Z M 122.238281 27.078125 "/></clipPath><clipPath id="3d7e7d46ee"><path d="M 120 40 L 122 40 L 122 42 L 120 42 Z M 120 40 "/></clipPath><clipPath id="20b3913b58"><path d="M 122.238281 27.078125 L 132.082031 30.730469 L 127.390625 43.386719 L 117.542969 39.738281 Z M 122.238281 27.078125 "/></clipPath><clipPath id="3dd804c1ce"><path d="M 122.238281 27.078125 L 132.082031 30.730469 L 127.390625 43.386719 L 117.542969 39.738281 Z M 122.238281 27.078125 "/></clipPath><clipPath id="25f95aa1b8"><path d="M 120 39 L 122 39 L 122 41 L 120 41 Z M 120 39 "/></clipPath><clipPath id="f9229b8c35"><path d="M 122.238281 27.078125 L 132.082031 30.730469 L 127.390625 43.386719 L 117.542969 39.738281 Z M 122.238281 27.078125 "/></clipPath><clipPath id="8e4f6f1e65"><path d="M 122.238281 27.078125 L 132.082031 30.730469 L 127.390625 43.386719 L 117.542969 39.738281 Z M 122.238281 27.078125 "/></clipPath><clipPath id="411d060e75"><path d="M 120 39 L 122 39 L 122 40 L 120 40 Z M 120 39 "/></clipPath><clipPath id="91fca99981"><path d="M 122.238281 27.078125 L 132.082031 30.730469 L 127.390625 43.386719 L 117.542969 39.738281 Z M 122.238281 27.078125 "/></clipPath><clipPath id="b84ed6fec5"><path d="M 122.238281 27.078125 L 132.082031 30.730469 L 127.390625 43.386719 L 117.542969 39.738281 Z M 122.238281 27.078125 "/></clipPath><clipPath id="22424b6bed"><path d="M 120 38 L 122 38 L 122 40 L 120 40 Z M 120 38 "/></clipPath><clipPath id="c38ddc6a3a"><path d="M 122.238281 27.078125 L 132.082031 30.730469 L 127.390625 43.386719 L 117.542969 39.738281 Z M 122.238281 27.078125 "/></clipPath><clipPath id="99a46bc9c3"><path d="M 122.238281 27.078125 L 132.082031 30.730469 L 127.390625 43.386719 L 117.542969 39.738281 Z M 122.238281 27.078125 "/></clipPath><clipPath id="a38d9fa20c"><path d="M 120 37 L 122 37 L 122 39 L 120 39 Z M 120 37 "/></clipPath><clipPath id="282aff43a8"><path d="M 122.238281 27.078125 L 132.082031 30.730469 L 127.390625 43.386719 L 117.542969 39.738281 Z M 122.238281 27.078125 "/></clipPath><clipPath id="ab275ca1a6"><path d="M 122.238281 27.078125 L 132.082031 30.730469 L 127.390625 43.386719 L 117.542969 39.738281 Z M 122.238281 27.078125 "/></clipPath><clipPath id="352faa5cf2"><path d="M 120 37 L 122 37 L 122 38 L 120 38 Z M 120 37 "/></clipPath><clipPath id="096c56173c"><path d="M 122.238281 27.078125 L 132.082031 30.730469 L 127.390625 43.386719 L 117.542969 39.738281 Z M 122.238281 27.078125 "/></clipPath><clipPath id="aa2907dc7b"><path d="M 122.238281 27.078125 L 132.082031 30.730469 L 127.390625 43.386719 L 117.542969 39.738281 Z M 122.238281 27.078125 "/></clipPath><clipPath id="412b650789"><path d="M 120 36 L 122 36 L 122 38 L 120 38 Z M 120 36 "/></clipPath><clipPath id="17a42e1bdb"><path d="M 122.238281 27.078125 L 132.082031 30.730469 L 127.390625 43.386719 L 117.542969 39.738281 Z M 122.238281 27.078125 "/></clipPath><clipPath id="de5a7d97f4"><path d="M 122.238281 27.078125 L 132.082031 30.730469 L 127.390625 43.386719 L 117.542969 39.738281 Z M 122.238281 27.078125 "/></clipPath><clipPath id="5ff4c3054b"><path d="M 120 35 L 122 35 L 122 37 L 120 37 Z M 120 35 "/></clipPath><clipPath id="95698d1acf"><path d="M 122.238281 27.078125 L 132.082031 30.730469 L 127.390625 43.386719 L 117.542969 39.738281 Z M 122.238281 27.078125 "/></clipPath><clipPath id="76059eebba"><path d="M 122.238281 27.078125 L 132.082031 30.730469 L 127.390625 43.386719 L 117.542969 39.738281 Z M 122.238281 27.078125 "/></clipPath><clipPath id="49545b10d5"><path d="M 120 34 L 122 34 L 122 36 L 120 36 Z M 120 34 "/></clipPath><clipPath id="e54a7a792a"><path d="M 122.238281 27.078125 L 132.082031 30.730469 L 127.390625 43.386719 L 117.542969 39.738281 Z M 122.238281 27.078125 "/></clipPath><clipPath id="53e2bf9dfd"><path d="M 122.238281 27.078125 L 132.082031 30.730469 L 127.390625 43.386719 L 117.542969 39.738281 Z M 122.238281 27.078125 "/></clipPath><clipPath id="9e1b2b34b0"><path d="M 120 33 L 122 33 L 122 35 L 120 35 Z M 120 33 "/></clipPath><clipPath id="d6d473498c"><path d="M 122.238281 27.078125 L 132.082031 30.730469 L 127.390625 43.386719 L 117.542969 39.738281 Z M 122.238281 27.078125 "/></clipPath><clipPath id="df8d136335"><path d="M 122.238281 27.078125 L 132.082031 30.730469 L 127.390625 43.386719 L 117.542969 39.738281 Z M 122.238281 27.078125 "/></clipPath><clipPath id="045511afcf"><path d="M 119 32 L 121 32 L 121 34 L 119 34 Z M 119 32 "/></clipPath><clipPath id="9206e9b8c2"><path d="M 122.238281 27.078125 L 132.082031 30.730469 L 127.390625 43.386719 L 117.542969 39.738281 Z M 122.238281 27.078125 "/></clipPath><clipPath id="54f805064f"><path d="M 122.238281 27.078125 L 132.082031 30.730469 L 127.390625 43.386719 L 117.542969 39.738281 Z M 122.238281 27.078125 "/></clipPath><clipPath id="790c468ba4"><path d="M 120 32 L 121 32 L 121 34 L 120 34 Z M 120 32 "/></clipPath><clipPath id="51fe281711"><path d="M 122.238281 27.078125 L 132.082031 30.730469 L 127.390625 43.386719 L 117.542969 39.738281 Z M 122.238281 27.078125 "/></clipPath><clipPath id="b0a065d283"><path d="M 122.238281 27.078125 L 132.082031 30.730469 L 127.390625 43.386719 L 117.542969 39.738281 Z M 122.238281 27.078125 "/></clipPath><clipPath id="6035fa2d64"><path d="M 120 32 L 122 32 L 122 34 L 120 34 Z M 120 32 "/></clipPath><clipPath id="9ac49cf248"><path d="M 122.238281 27.078125 L 132.082031 30.730469 L 127.390625 43.386719 L 117.542969 39.738281 Z M 122.238281 27.078125 "/></clipPath><clipPath id="a37743d187"><path d="M 122.238281 27.078125 L 132.082031 30.730469 L 127.390625 43.386719 L 117.542969 39.738281 Z M 122.238281 27.078125 "/></clipPath><clipPath id="4663459df5"><path d="M 121 32 L 123 32 L 123 34 L 121 34 Z M 121 32 "/></clipPath><clipPath id="f3c3331d80"><path d="M 122.238281 27.078125 L 132.082031 30.730469 L 127.390625 43.386719 L 117.542969 39.738281 Z M 122.238281 27.078125 "/></clipPath><clipPath id="3278794941"><path d="M 122.238281 27.078125 L 132.082031 30.730469 L 127.390625 43.386719 L 117.542969 39.738281 Z M 122.238281 27.078125 "/></clipPath><clipPath id="d5cd233a16"><path d="M 121 33 L 123 33 L 123 35 L 121 35 Z M 121 33 "/></clipPath><clipPath id="628336b2fd"><path d="M 122.238281 27.078125 L 132.082031 30.730469 L 127.390625 43.386719 L 117.542969 39.738281 Z M 122.238281 27.078125 "/></clipPath><clipPath id="63797a09c5"><path d="M 122.238281 27.078125 L 132.082031 30.730469 L 127.390625 43.386719 L 117.542969 39.738281 Z M 122.238281 27.078125 "/></clipPath><clipPath id="8fedbbad16"><path d="M 121 34 L 123 34 L 123 36 L 121 36 Z M 121 34 "/></clipPath><clipPath id="ecd7ccea75"><path d="M 122.238281 27.078125 L 132.082031 30.730469 L 127.390625 43.386719 L 117.542969 39.738281 Z M 122.238281 27.078125 "/></clipPath><clipPath id="d19ee49c4c"><path d="M 122.238281 27.078125 L 132.082031 30.730469 L 127.390625 43.386719 L 117.542969 39.738281 Z M 122.238281 27.078125 "/></clipPath><clipPath id="7fbabb9158"><path d="M 122 33 L 123 33 L 123 35 L 122 35 Z M 122 33 "/></clipPath><clipPath id="58b133ca4a"><path d="M 122.238281 27.078125 L 132.082031 30.730469 L 127.390625 43.386719 L 117.542969 39.738281 Z M 122.238281 27.078125 "/></clipPath><clipPath id="c4040114f0"><path d="M 122.238281 27.078125 L 132.082031 30.730469 L 127.390625 43.386719 L 117.542969 39.738281 Z M 122.238281 27.078125 "/></clipPath><clipPath id="e96b60b322"><path d="M 122 33 L 124 33 L 124 34 L 122 34 Z M 122 33 "/></clipPath><clipPath id="4df93706ca"><path d="M 122.238281 27.078125 L 132.082031 30.730469 L 127.390625 43.386719 L 117.542969 39.738281 Z M 122.238281 27.078125 "/></clipPath><clipPath id="947a1a1af7"><path d="M 122.238281 27.078125 L 132.082031 30.730469 L 127.390625 43.386719 L 117.542969 39.738281 Z M 122.238281 27.078125 "/></clipPath><clipPath id="072353c1c2"><path d="M 122 32 L 124 32 L 124 34 L 122 34 Z M 122 32 "/></clipPath><clipPath id="c1ae7afae4"><path d="M 122.238281 27.078125 L 132.082031 30.730469 L 127.390625 43.386719 L 117.542969 39.738281 Z M 122.238281 27.078125 "/></clipPath><clipPath id="290a143592"><path d="M 122.238281 27.078125 L 132.082031 30.730469 L 127.390625 43.386719 L 117.542969 39.738281 Z M 122.238281 27.078125 "/></clipPath><clipPath id="e667b0a56e"><path d="M 122 31 L 124 31 L 124 33 L 122 33 Z M 122 31 "/></clipPath><clipPath id="8d9a44de5c"><path d="M 122.238281 27.078125 L 132.082031 30.730469 L 127.390625 43.386719 L 117.542969 39.738281 Z M 122.238281 27.078125 "/></clipPath><clipPath id="9332deac69"><path d="M 122.238281 27.078125 L 132.082031 30.730469 L 127.390625 43.386719 L 117.542969 39.738281 Z M 122.238281 27.078125 "/></clipPath><clipPath id="d842d54090"><path d="M 123 31 L 124 31 L 124 33 L 123 33 Z M 123 31 "/></clipPath><clipPath id="d2dc20cd00"><path d="M 122.238281 27.078125 L 132.082031 30.730469 L 127.390625 43.386719 L 117.542969 39.738281 Z M 122.238281 27.078125 "/></clipPath><clipPath id="f2f3c98123"><path d="M 122.238281 27.078125 L 132.082031 30.730469 L 127.390625 43.386719 L 117.542969 39.738281 Z M 122.238281 27.078125 "/></clipPath><clipPath id="ee5ebe097c"><path d="M 123 30 L 125 30 L 125 32 L 123 32 Z M 123 30 "/></clipPath><clipPath id="996f7383a3"><path d="M 122.238281 27.078125 L 132.082031 30.730469 L 127.390625 43.386719 L 117.542969 39.738281 Z M 122.238281 27.078125 "/></clipPath><clipPath id="b2c68a690f"><path d="M 122.238281 27.078125 L 132.082031 30.730469 L 127.390625 43.386719 L 117.542969 39.738281 Z M 122.238281 27.078125 "/></clipPath><clipPath id="e5e59e4367"><path d="M 123 29 L 125 29 L 125 31 L 123 31 Z M 123 29 "/></clipPath><clipPath id="0c8b210d2d"><path d="M 122.238281 27.078125 L 132.082031 30.730469 L 127.390625 43.386719 L 117.542969 39.738281 Z M 122.238281 27.078125 "/></clipPath><clipPath id="370d32bdb4"><path d="M 122.238281 27.078125 L 132.082031 30.730469 L 127.390625 43.386719 L 117.542969 39.738281 Z M 122.238281 27.078125 "/></clipPath><clipPath id="72f3b217c8"><path d="M 123 29 L 125 29 L 125 30 L 123 30 Z M 123 29 "/></clipPath><clipPath id="c148eeded4"><path d="M 122.238281 27.078125 L 132.082031 30.730469 L 127.390625 43.386719 L 117.542969 39.738281 Z M 122.238281 27.078125 "/></clipPath><clipPath id="513a8c38d6"><path d="M 122.238281 27.078125 L 132.082031 30.730469 L 127.390625 43.386719 L 117.542969 39.738281 Z M 122.238281 27.078125 "/></clipPath><clipPath id="60cbf0298a"><path d="M 124 28 L 125 28 L 125 30 L 124 30 Z M 124 28 "/></clipPath><clipPath id="abc94ce912"><path d="M 122.238281 27.078125 L 132.082031 30.730469 L 127.390625 43.386719 L 117.542969 39.738281 Z M 122.238281 27.078125 "/></clipPath><clipPath id="b04b1c0a27"><path d="M 122.238281 27.078125 L 132.082031 30.730469 L 127.390625 43.386719 L 117.542969 39.738281 Z M 122.238281 27.078125 "/></clipPath></defs><g id="d87a8fc1aa"><g clip-rule="nonzero" clip-path="url(#3243941f67)"><g clip-rule="nonzero" clip-path="url(#146385819e)"><path style="fill:none;stroke-width:4;stroke-linecap:butt;stroke-linejoin:miter;stroke:#ffffff;stroke-opacity:1;stroke-miterlimit:4;" d="M 8.997126 -0.00168675 L 158.902655 -0.00168675 C 163.87308 -0.00168675 167.89949 4.029939 167.89949 9.000364 L 167.89949 160.23586 C 167.89949 165.206285 163.87308 169.232695 158.902655 169.232695 L 8.997126 169.232695 C 4.026701 169.232695 0.000290801 165.206285 0.000290801 160.23586 L 0.000290801 9.000364 C 0.000290801 4.029939 4.026701 -0.00168675 8.997126 -0.00168675 Z M 8.997126 -0.00168675 " transform="matrix(0.748961,0,0,0.748961,13.355251,10.22392)"/></g></g><g clip-rule="nonzero" clip-path="url(#697e228fcd)"><g clip-rule="nonzero" clip-path="url(#6309c659d2)"><path style=" stroke:none;fill-rule:nonzero;fill:#ffffff;fill-opacity:1;" d="M 15 8.007812 L 137.90625 8.007812 L 137.90625 18.75 L 15 18.75 Z M 15 8.007812 "/></g></g><g clip-rule="nonzero" clip-path="url(#2b68d615d1)"><g clip-rule="nonzero" clip-path="url(#55b828a0d8)"><path style=" stroke:none;fill-rule:nonzero;fill:#ff3131;fill-opacity:1;" d="M 109.882812 10.8125 L 115.015625 10.8125 L 115.015625 15.949219 L 109.882812 15.949219 Z M 109.882812 10.8125 "/></g></g><g clip-rule="nonzero" clip-path="url(#e81dce4a48)"><g clip-rule="nonzero" clip-path="url(#18c228984a)"><path style=" stroke:none;fill-rule:nonzero;fill:#ffbd59;fill-opacity:1;" d="M 118.058594 10.8125 L 123.191406 10.8125 L 123.191406 15.949219 L 118.058594 15.949219 Z M 118.058594 10.8125 "/></g></g><g clip-rule="nonzero" clip-path="url(#f5e64a1ba1)"><g clip-rule="nonzero" clip-path="url(#87eb3f1720)"><path style=" stroke:none;fill-rule:nonzero;fill:url(#b7054db977);" d="M 126.230469 10.8125 L 126.230469 15.949219 L 131.367188 15.949219 L 131.367188 10.8125 Z M 126.230469 10.8125 "/></g></g><g clip-rule="nonzero" clip-path="url(#30e6e24b45)"><path style=" stroke:none;fill-rule:nonzero;fill:#ffffff;fill-opacity:1;" d="M 124.816406 22.5 L 130.976562 22.5 L 130.976562 28.660156 L 124.816406 28.660156 Z M 124.816406 22.5 "/></g><g clip-rule="nonzero" clip-path="url(#c131a54f0d)"><path style=" stroke:none;fill-rule:nonzero;fill:#000000;fill-opacity:1;" d="M 128.355469 25.507812 L 128.355469 24.855469 L 128.082031 24.582031 L 126.3125 24.582031 L 126.3125 26.828125 L 126.585938 27.101562 L 127.433594 27.101562 L 127.433594 26.273438 L 128.222656 26.273438 L 128.222656 25.644531 L 128.058594 25.507812 Z M 128.355469 25.507812 "/></g><path style=" stroke:none;fill-rule:nonzero;fill:#ffffff;fill-opacity:1;" d="M 126.421875 24.691406 L 127.972656 24.691406 L 127.972656 25.128906 L 127.050781 25.128906 L 127.050781 25.480469 L 127.839844 25.480469 L 127.839844 25.890625 L 127.050781 25.890625 L 127.050781 26.71875 L 126.421875 26.71875 Z M 126.421875 24.691406 "/><g clip-rule="nonzero" clip-path="url(#eb03d88c32)"><path style=" stroke:none;fill-rule:nonzero;fill:#000000;fill-opacity:1;" d="M 128.601562 25.773438 L 128.601562 24.441406 L 129.144531 24.441406 L 129.144531 25.773438 Z M 128.308594 24.199219 L 127.941406 23.65625 L 129.738281 23.65625 L 129.738281 24.199219 Z M 128.308594 24.199219 "/></g><g clip-rule="nonzero" clip-path="url(#24e8452770)"><path style=" stroke:none;fill-rule:nonzero;fill:#000000;fill-opacity:1;" d="M 127.042969 27.488281 L 127.042969 27.523438 L 126.984375 27.523438 L 126.984375 27.695312 L 126.941406 27.695312 L 126.941406 27.523438 L 126.882812 27.523438 L 126.882812 27.488281 Z M 127.042969 27.488281 "/></g><g clip-rule="nonzero" clip-path="url(#496590a92c)"><path style=" stroke:none;fill-rule:nonzero;fill:#000000;fill-opacity:1;" d="M 127.203125 27.625 L 127.101562 27.625 C 127.101562 27.640625 127.105469 27.648438 127.113281 27.65625 C 127.121094 27.660156 127.128906 27.664062 127.140625 27.664062 C 127.148438 27.664062 127.15625 27.664062 127.160156 27.660156 C 127.167969 27.65625 127.171875 27.652344 127.175781 27.644531 L 127.179688 27.644531 L 127.203125 27.660156 C 127.199219 27.671875 127.191406 27.679688 127.179688 27.6875 C 127.171875 27.695312 127.15625 27.699219 127.140625 27.699219 C 127.125 27.699219 127.109375 27.695312 127.097656 27.6875 C 127.085938 27.683594 127.078125 27.671875 127.070312 27.660156 C 127.066406 27.648438 127.0625 27.632812 127.0625 27.617188 C 127.0625 27.597656 127.066406 27.585938 127.070312 27.574219 C 127.078125 27.558594 127.085938 27.550781 127.097656 27.546875 C 127.109375 27.539062 127.125 27.535156 127.136719 27.535156 C 127.160156 27.535156 127.175781 27.542969 127.1875 27.554688 C 127.199219 27.566406 127.207031 27.582031 127.207031 27.605469 C 127.207031 27.613281 127.207031 27.621094 127.203125 27.625 Z M 127.167969 27.601562 C 127.167969 27.589844 127.164062 27.582031 127.160156 27.574219 C 127.15625 27.570312 127.148438 27.566406 127.136719 27.566406 C 127.117188 27.566406 127.105469 27.578125 127.101562 27.601562 Z M 127.167969 27.601562 "/><path style=" stroke:none;fill-rule:nonzero;fill:#000000;fill-opacity:1;" d="M 127.289062 27.699219 C 127.28125 27.699219 127.269531 27.695312 127.261719 27.695312 C 127.253906 27.691406 127.246094 27.6875 127.238281 27.683594 C 127.230469 27.679688 127.226562 27.675781 127.222656 27.667969 L 127.246094 27.644531 L 127.25 27.644531 C 127.253906 27.652344 127.261719 27.65625 127.265625 27.660156 C 127.273438 27.664062 127.28125 27.667969 127.289062 27.667969 C 127.296875 27.667969 127.304688 27.664062 127.308594 27.664062 C 127.3125 27.660156 127.3125 27.65625 127.3125 27.652344 C 127.3125 27.648438 127.3125 27.644531 127.308594 27.640625 C 127.304688 27.636719 127.300781 27.636719 127.296875 27.632812 L 127.273438 27.628906 C 127.257812 27.625 127.25 27.621094 127.242188 27.613281 C 127.234375 27.605469 127.230469 27.59375 127.230469 27.582031 C 127.230469 27.574219 127.234375 27.566406 127.238281 27.558594 C 127.242188 27.550781 127.25 27.546875 127.257812 27.542969 C 127.269531 27.539062 127.277344 27.535156 127.289062 27.535156 C 127.304688 27.535156 127.316406 27.539062 127.324219 27.542969 C 127.335938 27.546875 127.339844 27.550781 127.347656 27.558594 L 127.324219 27.582031 C 127.320312 27.578125 127.3125 27.574219 127.308594 27.570312 C 127.304688 27.566406 127.296875 27.566406 127.289062 27.566406 C 127.273438 27.566406 127.265625 27.570312 127.265625 27.582031 C 127.265625 27.585938 127.269531 27.589844 127.273438 27.589844 C 127.273438 27.59375 127.28125 27.597656 127.285156 27.597656 L 127.304688 27.601562 C 127.320312 27.605469 127.332031 27.609375 127.339844 27.617188 C 127.347656 27.625 127.351562 27.636719 127.351562 27.648438 C 127.351562 27.660156 127.347656 27.667969 127.34375 27.675781 C 127.339844 27.683594 127.332031 27.6875 127.324219 27.691406 C 127.3125 27.695312 127.304688 27.699219 127.289062 27.699219 Z M 127.289062 27.699219 "/><path style=" stroke:none;fill-rule:nonzero;fill:#000000;fill-opacity:1;" d="M 127.46875 27.65625 L 127.480469 27.6875 C 127.472656 27.691406 127.46875 27.691406 127.460938 27.695312 C 127.457031 27.695312 127.449219 27.699219 127.441406 27.699219 C 127.425781 27.699219 127.410156 27.695312 127.402344 27.683594 C 127.394531 27.675781 127.390625 27.660156 127.390625 27.644531 L 127.390625 27.570312 L 127.367188 27.570312 L 127.367188 27.539062 L 127.390625 27.539062 L 127.390625 27.507812 L 127.429688 27.503906 L 127.429688 27.539062 L 127.472656 27.539062 L 127.472656 27.570312 L 127.429688 27.570312 L 127.429688 27.640625 C 127.429688 27.648438 127.429688 27.65625 127.433594 27.660156 C 127.4375 27.660156 127.441406 27.664062 127.445312 27.664062 C 127.453125 27.664062 127.460938 27.660156 127.464844 27.65625 Z M 127.46875 27.65625 "/><path style=" stroke:none;fill-rule:nonzero;fill:#000000;fill-opacity:1;" d="M 127.585938 27.761719 C 127.578125 27.761719 127.570312 27.761719 127.566406 27.757812 C 127.5625 27.757812 127.554688 27.757812 127.554688 27.753906 L 127.558594 27.722656 L 127.5625 27.722656 C 127.5625 27.722656 127.566406 27.726562 127.570312 27.726562 C 127.574219 27.726562 127.578125 27.726562 127.582031 27.726562 C 127.585938 27.726562 127.59375 27.726562 127.597656 27.726562 C 127.601562 27.722656 127.605469 27.71875 127.609375 27.714844 C 127.609375 27.710938 127.613281 27.707031 127.617188 27.699219 L 127.554688 27.539062 L 127.59375 27.539062 L 127.632812 27.648438 L 127.636719 27.648438 L 127.675781 27.539062 L 127.714844 27.539062 L 127.652344 27.703125 C 127.644531 27.71875 127.640625 27.730469 127.636719 27.738281 C 127.628906 27.746094 127.621094 27.75 127.613281 27.753906 C 127.605469 27.757812 127.597656 27.761719 127.585938 27.761719 Z M 127.585938 27.761719 "/><path style=" stroke:none;fill-rule:nonzero;fill:#000000;fill-opacity:1;" d="M 127.808594 27.699219 C 127.792969 27.699219 127.777344 27.695312 127.765625 27.6875 C 127.757812 27.683594 127.746094 27.671875 127.742188 27.660156 C 127.734375 27.648438 127.730469 27.632812 127.730469 27.617188 C 127.730469 27.601562 127.734375 27.585938 127.742188 27.574219 C 127.746094 27.5625 127.757812 27.550781 127.765625 27.546875 C 127.777344 27.539062 127.792969 27.535156 127.808594 27.535156 C 127.824219 27.535156 127.835938 27.539062 127.847656 27.546875 C 127.859375 27.550781 127.867188 27.5625 127.875 27.574219 C 127.882812 27.585938 127.882812 27.601562 127.882812 27.617188 C 127.882812 27.632812 127.882812 27.648438 127.875 27.660156 C 127.867188 27.671875 127.859375 27.683594 127.847656 27.6875 C 127.835938 27.695312 127.824219 27.699219 127.808594 27.699219 Z M 127.808594 27.664062 C 127.832031 27.664062 127.84375 27.648438 127.84375 27.617188 C 127.84375 27.601562 127.839844 27.589844 127.835938 27.582031 C 127.828125 27.574219 127.820312 27.570312 127.808594 27.570312 C 127.785156 27.570312 127.769531 27.585938 127.769531 27.617188 C 127.769531 27.648438 127.785156 27.664062 127.808594 27.664062 Z M 127.808594 27.664062 "/></g><g clip-rule="nonzero" clip-path="url(#7aa5325d6b)"><path style=" stroke:none;fill-rule:nonzero;fill:#000000;fill-opacity:1;" d="M 127.96875 27.699219 C 127.953125 27.699219 127.9375 27.691406 127.929688 27.683594 C 127.921875 27.675781 127.917969 27.660156 127.917969 27.640625 L 127.917969 27.539062 L 127.957031 27.539062 L 127.957031 27.636719 C 127.957031 27.648438 127.960938 27.652344 127.964844 27.660156 C 127.96875 27.664062 127.972656 27.664062 127.980469 27.664062 C 127.992188 27.664062 128 27.660156 128.007812 27.65625 C 128.015625 27.648438 128.015625 27.636719 128.015625 27.621094 L 128.015625 27.539062 L 128.054688 27.539062 L 128.054688 27.695312 L 128.019531 27.695312 L 128.019531 27.671875 L 128.015625 27.671875 C 128.011719 27.679688 128.003906 27.6875 127.996094 27.691406 C 127.988281 27.695312 127.980469 27.699219 127.96875 27.699219 Z M 127.96875 27.699219 "/></g><g clip-rule="nonzero" clip-path="url(#91bf5e90c2)"><path style=" stroke:none;fill-rule:nonzero;fill:#000000;fill-opacity:1;" d="M 128.101562 27.695312 L 128.101562 27.539062 L 128.136719 27.539062 L 128.136719 27.5625 L 128.140625 27.5625 C 128.144531 27.554688 128.148438 27.546875 128.15625 27.542969 C 128.164062 27.539062 128.171875 27.539062 128.179688 27.539062 C 128.1875 27.539062 128.195312 27.539062 128.199219 27.542969 L 128.191406 27.574219 L 128.1875 27.578125 C 128.1875 27.574219 128.183594 27.574219 128.183594 27.574219 C 128.179688 27.574219 128.175781 27.574219 128.171875 27.574219 C 128.164062 27.574219 128.152344 27.578125 128.148438 27.585938 C 128.144531 27.59375 128.140625 27.605469 128.140625 27.621094 L 128.140625 27.695312 Z M 128.101562 27.695312 "/><path style=" stroke:none;fill-rule:nonzero;fill:#000000;fill-opacity:1;" d="M 128.296875 27.695312 L 128.296875 27.570312 L 128.273438 27.570312 L 128.273438 27.539062 L 128.296875 27.539062 C 128.292969 27.53125 128.292969 27.527344 128.292969 27.519531 C 128.292969 27.511719 128.296875 27.503906 128.300781 27.496094 C 128.304688 27.488281 128.3125 27.484375 128.320312 27.480469 C 128.328125 27.476562 128.339844 27.472656 128.351562 27.472656 C 128.367188 27.472656 128.378906 27.476562 128.386719 27.484375 L 128.378906 27.511719 L 128.375 27.511719 C 128.371094 27.507812 128.363281 27.507812 128.355469 27.507812 C 128.347656 27.507812 128.339844 27.507812 128.339844 27.511719 C 128.335938 27.515625 128.332031 27.519531 128.332031 27.523438 C 128.332031 27.527344 128.332031 27.53125 128.332031 27.53125 C 128.332031 27.535156 128.335938 27.535156 128.335938 27.539062 L 128.378906 27.539062 L 128.378906 27.570312 L 128.335938 27.570312 L 128.335938 27.695312 Z M 128.296875 27.695312 "/><path style=" stroke:none;fill-rule:nonzero;fill:#000000;fill-opacity:1;" d="M 128.472656 27.699219 C 128.457031 27.699219 128.441406 27.695312 128.429688 27.6875 C 128.417969 27.683594 128.410156 27.671875 128.40625 27.660156 C 128.398438 27.648438 128.394531 27.632812 128.394531 27.617188 C 128.394531 27.601562 128.398438 27.585938 128.40625 27.574219 C 128.410156 27.5625 128.417969 27.550781 128.429688 27.546875 C 128.441406 27.539062 128.457031 27.535156 128.472656 27.535156 C 128.488281 27.535156 128.5 27.539062 128.511719 27.546875 C 128.523438 27.550781 128.53125 27.5625 128.539062 27.574219 C 128.542969 27.585938 128.546875 27.601562 128.546875 27.617188 C 128.546875 27.632812 128.542969 27.648438 128.539062 27.660156 C 128.53125 27.671875 128.523438 27.683594 128.511719 27.6875 C 128.5 27.695312 128.488281 27.699219 128.472656 27.699219 Z M 128.472656 27.664062 C 128.496094 27.664062 128.507812 27.648438 128.507812 27.617188 C 128.507812 27.601562 128.503906 27.589844 128.5 27.582031 C 128.492188 27.574219 128.484375 27.570312 128.472656 27.570312 C 128.449219 27.570312 128.433594 27.585938 128.433594 27.617188 C 128.433594 27.648438 128.449219 27.664062 128.472656 27.664062 Z M 128.472656 27.664062 "/><path style=" stroke:none;fill-rule:nonzero;fill:#000000;fill-opacity:1;" d="M 128.585938 27.695312 L 128.585938 27.539062 L 128.621094 27.539062 L 128.621094 27.5625 L 128.625 27.5625 C 128.632812 27.546875 128.648438 27.535156 128.671875 27.535156 C 128.691406 27.535156 128.703125 27.542969 128.710938 27.550781 C 128.71875 27.5625 128.722656 27.574219 128.722656 27.59375 L 128.722656 27.695312 L 128.683594 27.695312 L 128.683594 27.597656 C 128.683594 27.589844 128.683594 27.582031 128.679688 27.578125 C 128.675781 27.570312 128.667969 27.570312 128.660156 27.570312 C 128.648438 27.570312 128.640625 27.574219 128.632812 27.582031 C 128.625 27.585938 128.625 27.597656 128.625 27.613281 L 128.625 27.695312 Z M 128.585938 27.695312 "/><path style=" stroke:none;fill-rule:nonzero;fill:#000000;fill-opacity:1;" d="M 128.851562 27.65625 L 128.863281 27.6875 C 128.859375 27.691406 128.851562 27.691406 128.847656 27.695312 C 128.839844 27.695312 128.832031 27.699219 128.824219 27.699219 C 128.808594 27.699219 128.792969 27.695312 128.785156 27.683594 C 128.777344 27.675781 128.773438 27.660156 128.773438 27.644531 L 128.773438 27.570312 L 128.75 27.570312 L 128.75 27.539062 L 128.773438 27.539062 L 128.773438 27.507812 L 128.8125 27.503906 L 128.8125 27.539062 L 128.855469 27.539062 L 128.855469 27.570312 L 128.8125 27.570312 L 128.8125 27.640625 C 128.8125 27.648438 128.8125 27.65625 128.816406 27.660156 C 128.820312 27.660156 128.824219 27.664062 128.832031 27.664062 C 128.835938 27.664062 128.84375 27.660156 128.847656 27.65625 Z M 128.851562 27.65625 "/><path style=" stroke:none;fill-rule:nonzero;fill:#000000;fill-opacity:1;" d="M 128.9375 27.699219 C 128.925781 27.699219 128.917969 27.695312 128.910156 27.695312 C 128.898438 27.691406 128.890625 27.6875 128.886719 27.683594 C 128.878906 27.679688 128.875 27.675781 128.871094 27.667969 L 128.894531 27.644531 L 128.898438 27.644531 C 128.902344 27.652344 128.910156 27.65625 128.914062 27.660156 C 128.921875 27.664062 128.929688 27.667969 128.9375 27.667969 C 128.945312 27.667969 128.953125 27.664062 128.957031 27.664062 C 128.960938 27.660156 128.960938 27.65625 128.960938 27.652344 C 128.960938 27.648438 128.960938 27.644531 128.957031 27.640625 C 128.953125 27.636719 128.949219 27.636719 128.945312 27.632812 L 128.921875 27.628906 C 128.90625 27.625 128.894531 27.621094 128.890625 27.613281 C 128.882812 27.605469 128.878906 27.59375 128.878906 27.582031 C 128.878906 27.574219 128.882812 27.566406 128.886719 27.558594 C 128.890625 27.550781 128.898438 27.546875 128.90625 27.542969 C 128.914062 27.539062 128.925781 27.535156 128.9375 27.535156 C 128.953125 27.535156 128.964844 27.539062 128.972656 27.542969 C 128.984375 27.546875 128.988281 27.550781 128.996094 27.558594 L 128.972656 27.582031 C 128.96875 27.578125 128.960938 27.574219 128.957031 27.570312 C 128.949219 27.566406 128.945312 27.566406 128.9375 27.566406 C 128.921875 27.566406 128.914062 27.570312 128.914062 27.582031 C 128.914062 27.585938 128.917969 27.589844 128.917969 27.589844 C 128.921875 27.59375 128.925781 27.597656 128.933594 27.597656 L 128.953125 27.601562 C 128.96875 27.605469 128.980469 27.609375 128.988281 27.617188 C 128.996094 27.625 129 27.636719 129 27.648438 C 129 27.660156 128.996094 27.667969 128.992188 27.675781 C 128.988281 27.683594 128.980469 27.6875 128.972656 27.691406 C 128.960938 27.695312 128.949219 27.699219 128.9375 27.699219 Z M 128.9375 27.699219 "/></g><g clip-rule="nonzero" clip-path="url(#af8a6271f3)"><g clip-rule="nonzero" clip-path="url(#de257aaad3)"><g clip-rule="nonzero" clip-path="url(#ddbf3a76ae)"><path style=" stroke:none;fill-rule:nonzero;fill:#ffffff;fill-opacity:1;" d="M 125.472656 28.9375 L 124.898438 28.726562 L 125.109375 28.148438 L 125.683594 28.363281 L 125.472656 28.9375 "/></g></g></g><g clip-rule="nonzero" clip-path="url(#a76606a4fd)"><g clip-rule="nonzero" clip-path="url(#690bfd6751)"><g clip-rule="nonzero" clip-path="url(#9260166d59)"><path style=" stroke:none;fill-rule:nonzero;fill:#ffffff;fill-opacity:1;" d="M 126.046875 29.152344 L 125.472656 28.9375 L 125.683594 28.363281 L 126.261719 28.578125 L 126.046875 29.152344 "/></g></g></g><g clip-rule="nonzero" clip-path="url(#8b591cdf6f)"><g clip-rule="nonzero" clip-path="url(#9bf00d152b)"><g clip-rule="nonzero" clip-path="url(#9fcdb26d6e)"><path style=" stroke:none;fill-rule:nonzero;fill:#ffffff;fill-opacity:1;" d="M 126.410156 29.941406 L 125.835938 29.726562 L 126.046875 29.152344 L 126.621094 29.363281 L 126.410156 29.941406 "/></g></g></g><g clip-rule="nonzero" clip-path="url(#3058527b24)"><g clip-rule="nonzero" clip-path="url(#dd04767f64)"><g clip-rule="nonzero" clip-path="url(#e38fc0774f)"><path style=" stroke:none;fill-rule:nonzero;fill:#ffffff;fill-opacity:1;" d="M 126.195312 30.515625 L 125.621094 30.300781 L 125.835938 29.726562 L 126.410156 29.941406 L 126.195312 30.515625 "/></g></g></g><g clip-rule="nonzero" clip-path="url(#cd5afe0dc7)"><g clip-rule="nonzero" clip-path="url(#dac394a83d)"><g clip-rule="nonzero" clip-path="url(#4e2f270361)"><path style=" stroke:none;fill-rule:nonzero;fill:#ffffff;fill-opacity:1;" d="M 125.984375 31.089844 L 125.40625 30.875 L 125.621094 30.300781 L 126.195312 30.515625 L 125.984375 31.089844 "/></g></g></g><g clip-rule="nonzero" clip-path="url(#01f7a4df91)"><g clip-rule="nonzero" clip-path="url(#0546a0aa97)"><g clip-rule="nonzero" clip-path="url(#9e4a5558c7)"><path style=" stroke:none;fill-rule:nonzero;fill:#ffffff;fill-opacity:1;" d="M 125.769531 31.664062 L 125.195312 31.453125 L 125.40625 30.875 L 125.984375 31.089844 L 125.769531 31.664062 "/></g></g></g><g clip-rule="nonzero" clip-path="url(#72a7f53004)"><g clip-rule="nonzero" clip-path="url(#c481678926)"><g clip-rule="nonzero" clip-path="url(#3905e4cf2d)"><path style=" stroke:none;fill-rule:nonzero;fill:#ffffff;fill-opacity:1;" d="M 125.554688 32.238281 L 124.980469 32.027344 L 125.195312 31.453125 L 125.769531 31.664062 L 125.554688 32.238281 "/></g></g></g><g clip-rule="nonzero" clip-path="url(#92bf787d50)"><g clip-rule="nonzero" clip-path="url(#4441a1c889)"><g clip-rule="nonzero" clip-path="url(#d9c9fca544)"><path style=" stroke:none;fill-rule:nonzero;fill:#ffffff;fill-opacity:1;" d="M 125.34375 32.8125 L 124.769531 32.601562 L 124.980469 32.027344 L 125.554688 32.238281 L 125.34375 32.8125 "/></g></g></g><g clip-rule="nonzero" clip-path="url(#311290a52e)"><g clip-rule="nonzero" clip-path="url(#d48f8d5e5b)"><g clip-rule="nonzero" clip-path="url(#8d1ce919da)"><path style=" stroke:none;fill-rule:nonzero;fill:#ffffff;fill-opacity:1;" d="M 125.128906 33.390625 L 124.554688 33.175781 L 124.769531 32.601562 L 125.34375 32.8125 L 125.128906 33.390625 "/></g></g></g><g clip-rule="nonzero" clip-path="url(#5929f53360)"><g clip-rule="nonzero" clip-path="url(#38513ed237)"><g clip-rule="nonzero" clip-path="url(#38f0e10da4)"><path style=" stroke:none;fill-rule:nonzero;fill:#ffffff;fill-opacity:1;" d="M 124.917969 33.964844 L 124.34375 33.75 L 124.554688 33.175781 L 125.128906 33.390625 L 124.917969 33.964844 "/></g></g></g><g clip-rule="nonzero" clip-path="url(#c319b1746e)"><g clip-rule="nonzero" clip-path="url(#202a913716)"><g clip-rule="nonzero" clip-path="url(#ce6b6d8d29)"><path style=" stroke:none;fill-rule:nonzero;fill:#ffffff;fill-opacity:1;" d="M 124.703125 34.539062 L 124.128906 34.324219 L 124.34375 33.75 L 124.917969 33.964844 L 124.703125 34.539062 "/></g></g></g><g clip-rule="nonzero" clip-path="url(#3124ba8405)"><g clip-rule="nonzero" clip-path="url(#0472eadd1d)"><g clip-rule="nonzero" clip-path="url(#16b74abe5c)"><path style=" stroke:none;fill-rule:nonzero;fill:#ffffff;fill-opacity:1;" d="M 126.132812 32.453125 L 125.554688 32.238281 L 125.769531 31.664062 L 126.34375 31.878906 L 126.132812 32.453125 "/></g></g></g><g clip-rule="nonzero" clip-path="url(#2fcf1f7637)"><g clip-rule="nonzero" clip-path="url(#a914ce234e)"><g clip-rule="nonzero" clip-path="url(#3b66e9afe9)"><path style=" stroke:none;fill-rule:nonzero;fill:#ffffff;fill-opacity:1;" d="M 126.707031 32.664062 L 126.132812 32.453125 L 126.34375 31.878906 L 126.917969 32.089844 L 126.707031 32.664062 "/></g></g></g><g clip-rule="nonzero" clip-path="url(#bf229e3f53)"><g clip-rule="nonzero" clip-path="url(#77334d9121)"><g clip-rule="nonzero" clip-path="url(#3991d99864)"><path style=" stroke:none;fill-rule:nonzero;fill:#ffffff;fill-opacity:1;" d="M 127.066406 33.453125 L 126.492188 33.242188 L 126.707031 32.664062 L 127.28125 32.878906 L 127.066406 33.453125 "/></g></g></g><g clip-rule="nonzero" clip-path="url(#8dd9b90fc6)"><g clip-rule="nonzero" clip-path="url(#da9103e53c)"><g clip-rule="nonzero" clip-path="url(#67bf1755f3)"><path style=" stroke:none;fill-rule:nonzero;fill:#ffffff;fill-opacity:1;" d="M 127.644531 33.667969 L 127.066406 33.453125 L 127.28125 32.878906 L 127.855469 33.09375 L 127.644531 33.667969 "/></g></g></g><g clip-rule="nonzero" clip-path="url(#4ac4cd21ac)"><g clip-rule="nonzero" clip-path="url(#40c04606f0)"><g clip-rule="nonzero" clip-path="url(#6f9c6a600e)"><path style=" stroke:none;fill-rule:nonzero;fill:#ffffff;fill-opacity:1;" d="M 128.21875 33.878906 L 127.644531 33.667969 L 127.855469 33.09375 L 128.429688 33.304688 L 128.21875 33.878906 "/></g></g></g><g clip-rule="nonzero" clip-path="url(#c3fb1bc231)"><g clip-rule="nonzero" clip-path="url(#53f8b3cfd5)"><g clip-rule="nonzero" clip-path="url(#f34f3eea0b)"><path style=" stroke:none;fill-rule:nonzero;fill:#ffffff;fill-opacity:1;" d="M 126.855469 34.027344 L 126.28125 33.816406 L 126.492188 33.242188 L 127.066406 33.453125 L 126.855469 34.027344 "/></g></g></g><g clip-rule="nonzero" clip-path="url(#82160f3814)"><g clip-rule="nonzero" clip-path="url(#ab9fbd5fa3)"><g clip-rule="nonzero" clip-path="url(#0c19524003)"><path style=" stroke:none;fill-rule:nonzero;fill:#ffffff;fill-opacity:1;" d="M 126.640625 34.605469 L 126.066406 34.390625 L 126.28125 33.816406 L 126.855469 34.027344 L 126.640625 34.605469 "/></g></g></g><g clip-rule="nonzero" clip-path="url(#050cdfa63c)"><g clip-rule="nonzero" clip-path="url(#5a184a4e27)"><g clip-rule="nonzero" clip-path="url(#d3d76f4df3)"><path style=" stroke:none;fill-rule:nonzero;fill:#ffffff;fill-opacity:1;" d="M 126.429688 35.179688 L 125.855469 34.964844 L 126.066406 34.390625 L 126.640625 34.605469 L 126.429688 35.179688 "/></g></g></g><g clip-rule="nonzero" clip-path="url(#e66081785f)"><g clip-rule="nonzero" clip-path="url(#0e33b9cb4b)"><g clip-rule="nonzero" clip-path="url(#ea256dc54d)"><path style=" stroke:none;fill-rule:nonzero;fill:#ffffff;fill-opacity:1;" d="M 128.582031 34.667969 L 128.003906 34.453125 L 128.21875 33.878906 L 128.792969 34.09375 L 128.582031 34.667969 "/></g></g></g><g clip-rule="nonzero" clip-path="url(#d04522d975)"><g clip-rule="nonzero" clip-path="url(#78d092ffcc)"><g clip-rule="nonzero" clip-path="url(#d6a0fdc153)"><path style=" stroke:none;fill-rule:nonzero;fill:#ffffff;fill-opacity:1;" d="M 129.15625 34.882812 L 128.582031 34.667969 L 128.792969 34.09375 L 129.367188 34.304688 L 129.15625 34.882812 "/></g></g></g><g clip-rule="nonzero" clip-path="url(#dcec8ada3d)"><g clip-rule="nonzero" clip-path="url(#d98caf2d08)"><g clip-rule="nonzero" clip-path="url(#6b94cd451e)"><path style=" stroke:none;fill-rule:nonzero;fill:#ffffff;fill-opacity:1;" d="M 128.367188 35.242188 L 127.792969 35.03125 L 128.003906 34.453125 L 128.582031 34.667969 L 128.367188 35.242188 "/></g></g></g><g clip-rule="nonzero" clip-path="url(#2d6102226e)"><g clip-rule="nonzero" clip-path="url(#4f50b018d3)"><g clip-rule="nonzero" clip-path="url(#d591f0dc20)"><path style=" stroke:none;fill-rule:nonzero;fill:#ffffff;fill-opacity:1;" d="M 128.152344 35.816406 L 127.578125 35.605469 L 127.792969 35.03125 L 128.367188 35.242188 L 128.152344 35.816406 "/></g></g></g><g clip-rule="nonzero" clip-path="url(#3fdca7b292)"><g clip-rule="nonzero" clip-path="url(#98c17b48ee)"><g clip-rule="nonzero" clip-path="url(#7bcccfaf9f)"><path style=" stroke:none;fill-rule:nonzero;fill:#ffffff;fill-opacity:1;" d="M 127.941406 36.394531 L 127.367188 36.179688 L 127.578125 35.605469 L 128.152344 35.816406 L 127.941406 36.394531 "/></g></g></g><g clip-rule="nonzero" clip-path="url(#b02095b879)"><g clip-rule="nonzero" clip-path="url(#a1e8c45ed9)"><g clip-rule="nonzero" clip-path="url(#01db9691e8)"><path style=" stroke:none;fill-rule:nonzero;fill:#ffffff;fill-opacity:1;" d="M 129.515625 35.667969 L 128.941406 35.457031 L 129.15625 34.882812 L 129.730469 35.09375 L 129.515625 35.667969 "/></g></g></g><g clip-rule="nonzero" clip-path="url(#694937c485)"><g clip-rule="nonzero" clip-path="url(#dfaf66d3a2)"><g clip-rule="nonzero" clip-path="url(#0baaa536c2)"><g clip-rule="nonzero" clip-path="url(#19ceb7f84b)"><path style=" stroke:none;fill-rule:nonzero;fill:#ffffff;fill-opacity:1;" d="M 129.878906 36.457031 L 129.304688 36.246094 L 129.515625 35.667969 L 130.09375 35.882812 L 129.878906 36.457031 "/></g></g></g></g><g clip-rule="nonzero" clip-path="url(#dc3154829e)"><g clip-rule="nonzero" clip-path="url(#78afae7eca)"><g clip-rule="nonzero" clip-path="url(#9704a4896b)"><g clip-rule="nonzero" clip-path="url(#3397a41d85)"><path style=" stroke:none;fill-rule:nonzero;fill:#ffffff;fill-opacity:1;" d="M 129.664062 37.03125 L 129.089844 36.820312 L 129.304688 36.246094 L 129.878906 36.457031 L 129.664062 37.03125 "/></g></g></g></g><g clip-rule="nonzero" clip-path="url(#7f91a540c5)"><g clip-rule="nonzero" clip-path="url(#1a6c063c50)"><g clip-rule="nonzero" clip-path="url(#e625ea59ce)"><g clip-rule="nonzero" clip-path="url(#99d641a300)"><path style=" stroke:none;fill-rule:nonzero;fill:#ffffff;fill-opacity:1;" d="M 129.453125 37.605469 L 128.878906 37.394531 L 129.089844 36.820312 L 129.664062 37.03125 L 129.453125 37.605469 "/></g></g></g></g><g clip-rule="nonzero" clip-path="url(#2714b7abfb)"><g clip-rule="nonzero" clip-path="url(#d43d614db2)"><g clip-rule="nonzero" clip-path="url(#22f5181974)"><g clip-rule="nonzero" clip-path="url(#620abc8cf6)"><path style=" stroke:none;fill-rule:nonzero;fill:#ffffff;fill-opacity:1;" d="M 129.238281 38.183594 L 128.664062 37.96875 L 128.878906 37.394531 L 129.453125 37.605469 L 129.238281 38.183594 "/></g></g></g></g><g clip-rule="nonzero" clip-path="url(#c7e66189ba)"><g clip-rule="nonzero" clip-path="url(#7c9736286e)"><g clip-rule="nonzero" clip-path="url(#26bc36d73f)"><g clip-rule="nonzero" clip-path="url(#0a3644b43d)"><path style=" stroke:none;fill-rule:nonzero;fill:#ffffff;fill-opacity:1;" d="M 129.027344 38.757812 L 128.453125 38.542969 L 128.664062 37.96875 L 129.238281 38.183594 L 129.027344 38.757812 "/></g></g></g></g><g clip-rule="nonzero" clip-path="url(#2909d4b77e)"><g clip-rule="nonzero" clip-path="url(#e70461a013)"><g clip-rule="nonzero" clip-path="url(#45cc76e8b8)"><g clip-rule="nonzero" clip-path="url(#cbc8fae7de)"><path style=" stroke:none;fill-rule:nonzero;fill:#ffffff;fill-opacity:1;" d="M 128.8125 39.332031 L 128.238281 39.117188 L 128.453125 38.542969 L 129.027344 38.757812 L 128.8125 39.332031 "/></g></g></g></g><g clip-rule="nonzero" clip-path="url(#48e9505f5d)"><g clip-rule="nonzero" clip-path="url(#0335f9e3de)"><g clip-rule="nonzero" clip-path="url(#78c5e17e9c)"><g clip-rule="nonzero" clip-path="url(#44cdebe2eb)"><path style=" stroke:none;fill-rule:nonzero;fill:#ffffff;fill-opacity:1;" d="M 128.601562 39.90625 L 128.023438 39.695312 L 128.238281 39.117188 L 128.8125 39.332031 L 128.601562 39.90625 "/></g></g></g></g><g clip-rule="nonzero" clip-path="url(#ce6a684347)"><g clip-rule="nonzero" clip-path="url(#b5ee663702)"><g clip-rule="nonzero" clip-path="url(#d858cdd2d3)"><path style=" stroke:none;fill-rule:nonzero;fill:#ffffff;fill-opacity:1;" d="M 127.8125 40.269531 L 127.238281 40.054688 L 127.449219 39.480469 L 128.023438 39.695312 L 127.8125 40.269531 "/></g></g></g><g clip-rule="nonzero" clip-path="url(#9553e7eda5)"><g clip-rule="nonzero" clip-path="url(#7f483515aa)"><g clip-rule="nonzero" clip-path="url(#66fc0bdf5c)"><path style=" stroke:none;fill-rule:nonzero;fill:#ffffff;fill-opacity:1;" d="M 127.597656 40.84375 L 127.023438 40.628906 L 127.238281 40.054688 L 127.8125 40.269531 L 127.597656 40.84375 "/></g></g></g><g clip-rule="nonzero" clip-path="url(#bac47962fe)"><g clip-rule="nonzero" clip-path="url(#00a64cde69)"><g clip-rule="nonzero" clip-path="url(#987f2340fb)"><path style=" stroke:none;fill-rule:nonzero;fill:#ffffff;fill-opacity:1;" d="M 127.386719 41.417969 L 126.808594 41.207031 L 127.023438 40.628906 L 127.597656 40.84375 L 127.386719 41.417969 "/></g></g></g><g clip-rule="nonzero" clip-path="url(#d8eb5bea26)"><g clip-rule="nonzero" clip-path="url(#e6dea2fda4)"><g clip-rule="nonzero" clip-path="url(#5975830685)"><path style=" stroke:none;fill-rule:nonzero;fill:#ffffff;fill-opacity:1;" d="M 126.597656 41.78125 L 126.023438 41.566406 L 126.234375 40.992188 L 126.808594 41.207031 L 126.597656 41.78125 "/></g></g></g><g clip-rule="nonzero" clip-path="url(#463b22786c)"><g clip-rule="nonzero" clip-path="url(#9dc827f825)"><g clip-rule="nonzero" clip-path="url(#2c5bfcd1cf)"><path style=" stroke:none;fill-rule:nonzero;fill:#ffffff;fill-opacity:1;" d="M 126.382812 42.355469 L 125.808594 42.140625 L 126.023438 41.566406 L 126.597656 41.78125 L 126.382812 42.355469 "/></g></g></g><g clip-rule="nonzero" clip-path="url(#6dec5dab15)"><g clip-rule="nonzero" clip-path="url(#ff89dd6f65)"><g clip-rule="nonzero" clip-path="url(#8ba269ed5a)"><path style=" stroke:none;fill-rule:nonzero;fill:#ffffff;fill-opacity:1;" d="M 126.171875 42.929688 L 125.597656 42.71875 L 125.808594 42.140625 L 126.382812 42.355469 L 126.171875 42.929688 "/></g></g></g><g clip-rule="nonzero" clip-path="url(#05240466f2)"><g clip-rule="nonzero" clip-path="url(#d12b957a66)"><g clip-rule="nonzero" clip-path="url(#1d72b56cb5)"><path style=" stroke:none;fill-rule:nonzero;fill:#ffffff;fill-opacity:1;" d="M 125.597656 42.71875 L 125.019531 42.503906 L 125.234375 41.929688 L 125.808594 42.140625 L 125.597656 42.71875 "/></g></g></g><g clip-rule="nonzero" clip-path="url(#661827b96d)"><g clip-rule="nonzero" clip-path="url(#e3eddc81fa)"><g clip-rule="nonzero" clip-path="url(#ec7386efd1)"><path style=" stroke:none;fill-rule:nonzero;fill:#ffffff;fill-opacity:1;" d="M 125.019531 42.503906 L 124.445312 42.289062 L 124.660156 41.714844 L 125.234375 41.929688 L 125.019531 42.503906 "/></g></g></g><g clip-rule="nonzero" clip-path="url(#acb811d52d)"><g clip-rule="nonzero" clip-path="url(#1dffa13966)"><g clip-rule="nonzero" clip-path="url(#49015fc4b3)"><path style=" stroke:none;fill-rule:nonzero;fill:#ffffff;fill-opacity:1;" d="M 124.445312 42.289062 L 123.871094 42.078125 L 124.085938 41.503906 L 124.660156 41.714844 L 124.445312 42.289062 "/><path style=" stroke:none;fill-rule:nonzero;fill:#ffffff;fill-opacity:1;" d="M 123.871094 42.078125 L 123.296875 41.863281 L 123.507812 41.289062 L 124.085938 41.503906 L 123.871094 42.078125 "/></g></g></g><g clip-rule="nonzero" clip-path="url(#a85e6a4735)"><g clip-rule="nonzero" clip-path="url(#5560335a98)"><g clip-rule="nonzero" clip-path="url(#050129102a)"><path style=" stroke:none;fill-rule:nonzero;fill:#ffffff;fill-opacity:1;" d="M 123.296875 41.863281 L 122.722656 41.652344 L 122.933594 41.078125 L 123.507812 41.289062 L 123.296875 41.863281 "/></g></g></g><g clip-rule="nonzero" clip-path="url(#20c9202a04)"><g clip-rule="nonzero" clip-path="url(#40337dc10d)"><g clip-rule="nonzero" clip-path="url(#d8ca851aaf)"><path style=" stroke:none;fill-rule:nonzero;fill:#ffffff;fill-opacity:1;" d="M 122.722656 41.652344 L 122.144531 41.4375 L 122.359375 40.863281 L 122.933594 41.078125 L 122.722656 41.652344 "/></g></g></g><g clip-rule="nonzero" clip-path="url(#9b76f20581)"><g clip-rule="nonzero" clip-path="url(#5ddfe5a99b)"><g clip-rule="nonzero" clip-path="url(#6a8a8df615)"><path style=" stroke:none;fill-rule:nonzero;fill:#ffffff;fill-opacity:1;" d="M 122.144531 41.4375 L 121.570312 41.226562 L 121.785156 40.648438 L 122.359375 40.863281 L 122.144531 41.4375 "/></g></g></g><g clip-rule="nonzero" clip-path="url(#3d7e7d46ee)"><g clip-rule="nonzero" clip-path="url(#20b3913b58)"><g clip-rule="nonzero" clip-path="url(#3dd804c1ce)"><path style=" stroke:none;fill-rule:nonzero;fill:#ffffff;fill-opacity:1;" d="M 121.570312 41.226562 L 120.996094 41.011719 L 121.210938 40.4375 L 121.785156 40.648438 L 121.570312 41.226562 "/><path style=" stroke:none;fill-rule:nonzero;fill:#ffffff;fill-opacity:1;" d="M 120.996094 41.011719 L 120.421875 40.796875 L 120.632812 40.222656 L 121.210938 40.4375 L 120.996094 41.011719 "/></g></g></g><g clip-rule="nonzero" clip-path="url(#25f95aa1b8)"><g clip-rule="nonzero" clip-path="url(#f9229b8c35)"><g clip-rule="nonzero" clip-path="url(#8e4f6f1e65)"><path style=" stroke:none;fill-rule:nonzero;fill:#ffffff;fill-opacity:1;" d="M 121.210938 40.4375 L 120.632812 40.222656 L 120.847656 39.648438 L 121.421875 39.863281 L 121.210938 40.4375 "/></g></g></g><g clip-rule="nonzero" clip-path="url(#411d060e75)"><g clip-rule="nonzero" clip-path="url(#91fca99981)"><g clip-rule="nonzero" clip-path="url(#b84ed6fec5)"><path style=" stroke:none;fill-rule:nonzero;fill:#ffffff;fill-opacity:1;" d="M 121.421875 39.863281 L 120.847656 39.648438 L 121.0625 39.074219 L 121.636719 39.285156 L 121.421875 39.863281 "/></g></g></g><g clip-rule="nonzero" clip-path="url(#22424b6bed)"><g clip-rule="nonzero" clip-path="url(#c38ddc6a3a)"><g clip-rule="nonzero" clip-path="url(#99a46bc9c3)"><path style=" stroke:none;fill-rule:nonzero;fill:#ffffff;fill-opacity:1;" d="M 121.0625 39.074219 L 120.484375 38.859375 L 120.699219 38.285156 L 121.273438 38.5 L 121.0625 39.074219 "/></g></g></g><g clip-rule="nonzero" clip-path="url(#a38d9fa20c)"><g clip-rule="nonzero" clip-path="url(#282aff43a8)"><g clip-rule="nonzero" clip-path="url(#ab275ca1a6)"><path style=" stroke:none;fill-rule:nonzero;fill:#ffffff;fill-opacity:1;" d="M 121.273438 38.5 L 120.699219 38.285156 L 120.910156 37.710938 L 121.488281 37.925781 L 121.273438 38.5 "/></g></g></g><g clip-rule="nonzero" clip-path="url(#352faa5cf2)"><g clip-rule="nonzero" clip-path="url(#096c56173c)"><g clip-rule="nonzero" clip-path="url(#aa2907dc7b)"><path style=" stroke:none;fill-rule:nonzero;fill:#ffffff;fill-opacity:1;" d="M 121.488281 37.925781 L 120.910156 37.710938 L 121.125 37.136719 L 121.699219 37.347656 L 121.488281 37.925781 "/></g></g></g><g clip-rule="nonzero" clip-path="url(#412b650789)"><g clip-rule="nonzero" clip-path="url(#17a42e1bdb)"><g clip-rule="nonzero" clip-path="url(#de5a7d97f4)"><path style=" stroke:none;fill-rule:nonzero;fill:#ffffff;fill-opacity:1;" d="M 121.125 37.136719 L 120.550781 36.921875 L 120.761719 36.347656 L 121.339844 36.5625 L 121.125 37.136719 "/></g></g></g><g clip-rule="nonzero" clip-path="url(#5ff4c3054b)"><g clip-rule="nonzero" clip-path="url(#95698d1acf)"><g clip-rule="nonzero" clip-path="url(#76059eebba)"><path style=" stroke:none;fill-rule:nonzero;fill:#ffffff;fill-opacity:1;" d="M 121.339844 36.5625 L 120.761719 36.347656 L 120.976562 35.773438 L 121.550781 35.984375 L 121.339844 36.5625 "/></g></g></g><g clip-rule="nonzero" clip-path="url(#49545b10d5)"><g clip-rule="nonzero" clip-path="url(#e54a7a792a)"><g clip-rule="nonzero" clip-path="url(#53e2bf9dfd)"><path style=" stroke:none;fill-rule:nonzero;fill:#ffffff;fill-opacity:1;" d="M 120.976562 35.773438 L 120.402344 35.558594 L 120.613281 34.984375 L 121.191406 35.199219 L 120.976562 35.773438 "/><path style=" stroke:none;fill-rule:nonzero;fill:#ffffff;fill-opacity:1;" d="M 121.191406 35.199219 L 120.613281 34.984375 L 120.828125 34.410156 L 121.402344 34.621094 L 121.191406 35.199219 "/></g></g></g><g clip-rule="nonzero" clip-path="url(#9e1b2b34b0)"><g clip-rule="nonzero" clip-path="url(#d6d473498c)"><g clip-rule="nonzero" clip-path="url(#df8d136335)"><path style=" stroke:none;fill-rule:nonzero;fill:#ffffff;fill-opacity:1;" d="M 120.828125 34.410156 L 120.253906 34.195312 L 120.464844 33.621094 L 121.039062 33.835938 L 120.828125 34.410156 "/></g></g></g><g clip-rule="nonzero" clip-path="url(#045511afcf)"><g clip-rule="nonzero" clip-path="url(#9206e9b8c2)"><g clip-rule="nonzero" clip-path="url(#54f805064f)"><path style=" stroke:none;fill-rule:nonzero;fill:#ffffff;fill-opacity:1;" d="M 120.464844 33.621094 L 119.890625 33.410156 L 120.105469 32.832031 L 120.679688 33.046875 L 120.464844 33.621094 "/></g></g></g><g clip-rule="nonzero" clip-path="url(#790c468ba4)"><g clip-rule="nonzero" clip-path="url(#51fe281711)"><g clip-rule="nonzero" clip-path="url(#b0a065d283)"><path style=" stroke:none;fill-rule:nonzero;fill:#ffffff;fill-opacity:1;" d="M 120.679688 33.046875 L 120.105469 32.832031 L 120.316406 32.257812 L 120.890625 32.472656 L 120.679688 33.046875 "/></g></g></g><g clip-rule="nonzero" clip-path="url(#6035fa2d64)"><g clip-rule="nonzero" clip-path="url(#9ac49cf248)"><g clip-rule="nonzero" clip-path="url(#a37743d187)"><path style=" stroke:none;fill-rule:nonzero;fill:#ffffff;fill-opacity:1;" d="M 121.253906 33.261719 L 120.679688 33.046875 L 120.890625 32.472656 L 121.46875 32.683594 L 121.253906 33.261719 "/></g></g></g><g clip-rule="nonzero" clip-path="url(#4663459df5)"><g clip-rule="nonzero" clip-path="url(#f3c3331d80)"><g clip-rule="nonzero" clip-path="url(#3278794941)"><path style=" stroke:none;fill-rule:nonzero;fill:#ffffff;fill-opacity:1;" d="M 121.828125 33.472656 L 121.253906 33.261719 L 121.46875 32.683594 L 122.042969 32.898438 L 121.828125 33.472656 "/></g></g></g><g clip-rule="nonzero" clip-path="url(#d5cd233a16)"><g clip-rule="nonzero" clip-path="url(#628336b2fd)"><g clip-rule="nonzero" clip-path="url(#63797a09c5)"><path style=" stroke:none;fill-rule:nonzero;fill:#ffffff;fill-opacity:1;" d="M 122.191406 34.261719 L 121.617188 34.046875 L 121.828125 33.472656 L 122.402344 33.6875 L 122.191406 34.261719 "/></g></g></g><g clip-rule="nonzero" clip-path="url(#8fedbbad16)"><g clip-rule="nonzero" clip-path="url(#ecd7ccea75)"><g clip-rule="nonzero" clip-path="url(#d19ee49c4c)"><path style=" stroke:none;fill-rule:nonzero;fill:#ffffff;fill-opacity:1;" d="M 122.554688 35.050781 L 121.976562 34.835938 L 122.191406 34.261719 L 122.765625 34.472656 L 122.554688 35.050781 "/></g></g></g><g clip-rule="nonzero" clip-path="url(#7fbabb9158)"><g clip-rule="nonzero" clip-path="url(#58b133ca4a)"><g clip-rule="nonzero" clip-path="url(#c4040114f0)"><path style=" stroke:none;fill-rule:nonzero;fill:#ffffff;fill-opacity:1;" d="M 122.765625 34.472656 L 122.191406 34.261719 L 122.402344 33.6875 L 122.980469 33.898438 L 122.765625 34.472656 "/></g></g></g><g clip-rule="nonzero" clip-path="url(#e96b60b322)"><g clip-rule="nonzero" clip-path="url(#4df93706ca)"><g clip-rule="nonzero" clip-path="url(#947a1a1af7)"><path style=" stroke:none;fill-rule:nonzero;fill:#ffffff;fill-opacity:1;" d="M 122.980469 33.898438 L 122.402344 33.6875 L 122.617188 33.113281 L 123.191406 33.324219 L 122.980469 33.898438 "/></g></g></g><g clip-rule="nonzero" clip-path="url(#072353c1c2)"><g clip-rule="nonzero" clip-path="url(#c1ae7afae4)"><g clip-rule="nonzero" clip-path="url(#290a143592)"><path style=" stroke:none;fill-rule:nonzero;fill:#ffffff;fill-opacity:1;" d="M 123.191406 33.324219 L 122.617188 33.113281 L 122.832031 32.535156 L 123.40625 32.75 L 123.191406 33.324219 "/></g></g></g><g clip-rule="nonzero" clip-path="url(#e667b0a56e)"><g clip-rule="nonzero" clip-path="url(#8d9a44de5c)"><g clip-rule="nonzero" clip-path="url(#9332deac69)"><path style=" stroke:none;fill-rule:nonzero;fill:#ffffff;fill-opacity:1;" d="M 123.40625 32.75 L 122.832031 32.535156 L 123.042969 31.960938 L 123.617188 32.175781 L 123.40625 32.75 "/></g></g></g><g clip-rule="nonzero" clip-path="url(#d842d54090)"><g clip-rule="nonzero" clip-path="url(#d2dc20cd00)"><g clip-rule="nonzero" clip-path="url(#f2f3c98123)"><path style=" stroke:none;fill-rule:nonzero;fill:#ffffff;fill-opacity:1;" d="M 123.617188 32.175781 L 123.042969 31.960938 L 123.257812 31.386719 L 123.832031 31.601562 L 123.617188 32.175781 "/></g></g></g><g clip-rule="nonzero" clip-path="url(#ee5ebe097c)"><g clip-rule="nonzero" clip-path="url(#996f7383a3)"><g clip-rule="nonzero" clip-path="url(#b2c68a690f)"><path style=" stroke:none;fill-rule:nonzero;fill:#ffffff;fill-opacity:1;" d="M 123.832031 31.601562 L 123.257812 31.386719 L 123.46875 30.8125 L 124.042969 31.023438 L 123.832031 31.601562 "/><path style=" stroke:none;fill-rule:nonzero;fill:#ffffff;fill-opacity:1;" d="M 124.042969 31.023438 L 123.46875 30.8125 L 123.683594 30.238281 L 124.257812 30.449219 L 124.042969 31.023438 "/></g></g></g><g clip-rule="nonzero" clip-path="url(#e5e59e4367)"><g clip-rule="nonzero" clip-path="url(#0c8b210d2d)"><g clip-rule="nonzero" clip-path="url(#370d32bdb4)"><path style=" stroke:none;fill-rule:nonzero;fill:#ffffff;fill-opacity:1;" d="M 124.257812 30.449219 L 123.683594 30.238281 L 123.894531 29.660156 L 124.472656 29.875 L 124.257812 30.449219 "/></g></g></g><g clip-rule="nonzero" clip-path="url(#72f3b217c8)"><g clip-rule="nonzero" clip-path="url(#c148eeded4)"><g clip-rule="nonzero" clip-path="url(#513a8c38d6)"><path style=" stroke:none;fill-rule:nonzero;fill:#ffffff;fill-opacity:1;" d="M 124.472656 29.875 L 123.894531 29.660156 L 124.109375 29.085938 L 124.683594 29.300781 L 124.472656 29.875 "/></g></g></g><g clip-rule="nonzero" clip-path="url(#60cbf0298a)"><g clip-rule="nonzero" clip-path="url(#abc94ce912)"><g clip-rule="nonzero" clip-path="url(#b04b1c0a27)"><path style=" stroke:none;fill-rule:nonzero;fill:#ffffff;fill-opacity:1;" d="M 124.683594 29.300781 L 124.109375 29.085938 L 124.324219 28.511719 L 124.898438 28.726562 L 124.683594 29.300781 "/></g></g></g><path style="fill:none;stroke-width:2;stroke-linecap:butt;stroke-linejoin:miter;stroke:#ffffff;stroke-opacity:1;stroke-miterlimit:4;" d="M -0.000373268 1.000171 L 132.843384 1.000171 " transform="matrix(0.75,-0.000000000000000186,0.000000000000000186,0.75,25.183874,73.691278)"/><path style="fill:none;stroke-width:2;stroke-linecap:butt;stroke-linejoin:miter;stroke:#ffffff;stroke-opacity:1;stroke-miterlimit:4;" d="M -0.000373268 1.000444 L 132.843384 1.000444 " transform="matrix(0.75,0,0,0.75,25.183874,82.780917)"/><path style="fill:none;stroke-width:2;stroke-linecap:butt;stroke-linejoin:miter;stroke:#ffffff;stroke-opacity:1;stroke-miterlimit:4;" d="M -0.000373268 1.000703 L 132.843384 1.000703 " transform="matrix(0.75,0,0,0.75,25.183874,91.870566)"/><path style="fill:none;stroke-width:2;stroke-linecap:butt;stroke-linejoin:miter;stroke:#ffffff;stroke-opacity:1;stroke-miterlimit:4;" d="M -0.000373268 1.002283 L 132.843384 1.002283 " transform="matrix(0.75,-0.000000000000000186,0.000000000000000186,0.75,25.183874,99.986569)"/><path style="fill:none;stroke-width:2;stroke-linecap:butt;stroke-linejoin:miter;stroke:#ffffff;stroke-opacity:1;stroke-miterlimit:4;" d="M -0.000373268 1.002536 L 132.843384 1.002536 " transform="matrix(0.75,0,0,0.75,25.183874,109.076223)"/><path style="fill:none;stroke-width:2;stroke-linecap:butt;stroke-linejoin:miter;stroke:#ffffff;stroke-opacity:1;stroke-miterlimit:4;" d="M -0.000373268 0.997597 L 132.843384 0.997597 " transform="matrix(0.75,0,0,0.75,25.183874,118.165865)"/></g></svg>