<svg xmlns="http://www.w3.org/2000/svg" xmlns:xlink="http://www.w3.org/1999/xlink" width="200" zoomAndPan="magnify" viewBox="0 0 150 149.999998" height="200" preserveAspectRatio="xMidYMid meet" version="1.2"><defs><clipPath id="ae965ebee5"><path d="M 13.355469 10.222656 L 139.355469 10.222656 L 139.355469 136.972656 L 13.355469 136.972656 Z M 13.355469 10.222656 "/></clipPath><clipPath id="9093fa550e"><path d="M 20.09375 10.222656 L 132.367188 10.222656 C 136.089844 10.222656 139.105469 13.242188 139.105469 16.964844 L 139.105469 130.234375 C 139.105469 133.957031 136.089844 136.972656 132.367188 136.972656 L 20.09375 136.972656 C 16.371094 136.972656 13.355469 133.957031 13.355469 130.234375 L 13.355469 16.964844 C 13.355469 13.242188 16.371094 10.222656 20.09375 10.222656 Z M 20.09375 10.222656 "/></clipPath><clipPath id="b0347522f3"><path d="M 29.097656 47.023438 L 127.847656 47.023438 L 127.847656 73.328125 L 29.097656 73.328125 Z M 29.097656 47.023438 "/></clipPath><clipPath id="67e2e24386"><path d="M 31.347656 47.023438 L 125.585938 47.023438 C 126.828125 47.023438 127.835938 48.03125 127.835938 49.273438 L 127.835938 71.078125 C 127.835938 72.320312 126.828125 73.328125 125.585938 73.328125 L 31.347656 73.328125 C 30.75 73.328125 30.179688 73.089844 29.757812 72.667969 C 29.335938 72.246094 29.097656 71.675781 29.097656 71.078125 L 29.097656 49.273438 C 29.097656 48.03125 30.105469 47.023438 31.347656 47.023438 Z M 31.347656 47.023438 "/></clipPath></defs><g id="4a10e18576"><g clip-rule="nonzero" clip-path="url(#ae965ebee5)"><g clip-rule="nonzero" clip-path="url(#9093fa550e)"><path style="fill:none;stroke-width:4;stroke-linecap:butt;stroke-linejoin:miter;stroke:#ffffff;stroke-opacity:1;stroke-miterlimit:4;" d="M 8.997126 -0.00170983 L 158.902655 -0.00170983 C 163.87308 -0.00170983 167.89949 4.029915 167.89949 9.000341 L 167.89949 160.235837 C 167.89949 165.206262 163.87308 169.232672 158.902655 169.232672 L 8.997126 169.232672 C 4.026701 169.232672 0.000290801 165.206262 0.000290801 160.235837 L 0.000290801 9.000341 C 0.000290801 4.029915 4.026701 -0.00170983 8.997126 -0.00170983 Z M 8.997126 -0.00170983 " transform="matrix(0.748961,0,0,0.748961,13.355251,10.223937)"/></g></g><g style="fill:#ffffff;fill-opacity:1;"><g transform="translate(49.560819, 38.93332)"><path style="stroke:none" d="M 0.421875 0 C 0.847656 -1.382812 1.179688 -2.847656 1.421875 -4.390625 C 1.660156 -5.929688 1.78125 -7.539062 1.78125 -9.21875 C 1.78125 -10.726562 1.675781 -12.210938 1.46875 -13.671875 C 1.257812 -15.128906 0.9375 -16.5 0.5 -17.78125 L 11.1875 -17.78125 L 11.1875 -11.9375 C 10.664062 -12.207031 10.097656 -12.488281 9.484375 -12.78125 C 8.878906 -13.070312 8.253906 -13.320312 7.609375 -13.53125 C 6.972656 -13.738281 6.347656 -13.84375 5.734375 -13.84375 C 5.398438 -13.84375 5.109375 -13.722656 4.859375 -13.484375 C 4.617188 -13.253906 4.410156 -12.945312 4.234375 -12.5625 C 4.066406 -12.1875 3.925781 -11.785156 3.8125 -11.359375 C 3.707031 -10.929688 3.628906 -10.515625 3.578125 -10.109375 C 3.535156 -9.710938 3.515625 -9.382812 3.515625 -9.125 C 3.515625 -8.757812 3.554688 -8.503906 3.640625 -8.359375 C 3.734375 -8.210938 3.867188 -8.140625 4.046875 -8.140625 C 4.210938 -8.140625 4.425781 -8.203125 4.6875 -8.328125 C 4.957031 -8.453125 5.257812 -8.601562 5.59375 -8.78125 C 6.039062 -9.007812 6.515625 -9.234375 7.015625 -9.453125 C 7.523438 -9.679688 8.035156 -9.796875 8.546875 -9.796875 C 8.617188 -9.796875 8.691406 -9.796875 8.765625 -9.796875 C 8.835938 -9.796875 8.914062 -9.785156 9 -9.765625 L 9 -6.71875 C 8.632812 -6.851562 8.175781 -6.992188 7.625 -7.140625 C 7.082031 -7.296875 6.515625 -7.429688 5.921875 -7.546875 C 5.335938 -7.660156 4.785156 -7.71875 4.265625 -7.71875 C 3.941406 -7.71875 3.632812 -7.6875 3.34375 -7.625 C 3.34375 -7.21875 3.375 -6.675781 3.4375 -6 C 3.507812 -5.332031 3.617188 -4.613281 3.765625 -3.84375 C 3.910156 -3.082031 4.09375 -2.359375 4.3125 -1.671875 C 4.539062 -0.984375 4.816406 -0.425781 5.140625 0 Z M 0.421875 0 "/></g></g><g style="fill:#ffffff;fill-opacity:1;"><g transform="translate(60.836373, 38.93332)"><path style="stroke:none" d="M 5.296875 0.234375 C 4.429688 0.234375 3.6875 0.0390625 3.0625 -0.34375 C 2.4375 -0.726562 1.921875 -1.242188 1.515625 -1.890625 C 1.109375 -2.546875 0.800781 -3.28125 0.59375 -4.09375 C 0.394531 -4.90625 0.296875 -5.738281 0.296875 -6.59375 C 0.296875 -7.46875 0.390625 -8.3125 0.578125 -9.125 C 0.773438 -9.9375 1.078125 -10.671875 1.484375 -11.328125 C 1.890625 -11.984375 2.410156 -12.503906 3.046875 -12.890625 C 3.679688 -13.285156 4.429688 -13.484375 5.296875 -13.484375 C 6.160156 -13.484375 6.90625 -13.285156 7.53125 -12.890625 C 8.164062 -12.503906 8.6875 -11.984375 9.09375 -11.328125 C 9.5 -10.671875 9.796875 -9.9375 9.984375 -9.125 C 10.179688 -8.3125 10.28125 -7.46875 10.28125 -6.59375 C 10.28125 -5.738281 10.179688 -4.90625 9.984375 -4.09375 C 9.796875 -3.28125 9.5 -2.546875 9.09375 -1.890625 C 8.6875 -1.242188 8.164062 -0.726562 7.53125 -0.34375 C 6.90625 0.0390625 6.160156 0.234375 5.296875 0.234375 Z M 8.125 -10.203125 C 7.738281 -10.203125 7.253906 -10.070312 6.671875 -9.8125 C 6.097656 -9.5625 5.5 -9.21875 4.875 -8.78125 C 4.257812 -8.351562 3.6875 -7.875 3.15625 -7.34375 C 2.625 -6.820312 2.1875 -6.285156 1.84375 -5.734375 C 1.507812 -5.179688 1.34375 -4.648438 1.34375 -4.140625 C 1.34375 -3.753906 1.445312 -3.46875 1.65625 -3.28125 C 1.875 -3.101562 2.140625 -3.015625 2.453125 -3.015625 C 2.847656 -3.015625 3.332031 -3.140625 3.90625 -3.390625 C 4.476562 -3.648438 5.066406 -3.992188 5.671875 -4.421875 C 6.285156 -4.859375 6.863281 -5.335938 7.40625 -5.859375 C 7.945312 -6.390625 8.382812 -6.929688 8.71875 -7.484375 C 9.0625 -8.035156 9.234375 -8.5625 9.234375 -9.0625 C 9.234375 -9.445312 9.125 -9.734375 8.90625 -9.921875 C 8.6875 -10.109375 8.425781 -10.203125 8.125 -10.203125 Z M 8.125 -10.203125 "/></g></g><g style="fill:#ffffff;fill-opacity:1;"><g transform="translate(71.412201, 38.93332)"><path style="stroke:none" d="M 0.34375 0 C 0.738281 -1.320312 1.035156 -2.492188 1.234375 -3.515625 C 1.441406 -4.535156 1.546875 -5.570312 1.546875 -6.625 C 1.546875 -7.675781 1.453125 -8.726562 1.265625 -9.78125 C 1.078125 -10.832031 0.789062 -11.984375 0.40625 -13.234375 L 4.265625 -13.234375 L 3.453125 -7.359375 L 3.765625 -7.359375 C 3.878906 -8.023438 4.085938 -8.710938 4.390625 -9.421875 C 4.703125 -10.140625 5.078125 -10.804688 5.515625 -11.421875 C 5.960938 -12.035156 6.445312 -12.53125 6.96875 -12.90625 C 7.5 -13.289062 8.039062 -13.484375 8.59375 -13.484375 C 9.257812 -13.484375 9.707031 -13.332031 9.9375 -13.03125 C 10.175781 -12.738281 10.296875 -12.332031 10.296875 -11.8125 C 10.296875 -11.519531 10.273438 -11.195312 10.234375 -10.84375 C 10.203125 -10.488281 10.148438 -10.113281 10.078125 -9.71875 C 10.015625 -9.238281 9.945312 -8.726562 9.875 -8.1875 C 9.8125 -7.644531 9.78125 -7.097656 9.78125 -6.546875 C 9.78125 -5.367188 9.898438 -4.222656 10.140625 -3.109375 C 10.378906 -1.992188 10.644531 -0.957031 10.9375 0 L 5.5625 0 C 5.269531 -0.71875 5.125 -1.40625 5.125 -2.0625 C 5.125 -2.820312 5.285156 -3.53125 5.609375 -4.1875 C 5.929688 -4.851562 6.328125 -5.460938 6.796875 -6.015625 C 7.273438 -6.566406 7.726562 -7.066406 8.15625 -7.515625 C 8.539062 -7.921875 8.867188 -8.289062 9.140625 -8.625 C 9.410156 -8.957031 9.546875 -9.269531 9.546875 -9.5625 C 9.546875 -9.789062 9.488281 -9.941406 9.375 -10.015625 C 9.257812 -10.097656 9.109375 -10.140625 8.921875 -10.140625 C 8.609375 -10.140625 8.21875 -10.0625 7.75 -9.90625 C 7.28125 -9.757812 6.785156 -9.523438 6.265625 -9.203125 C 5.753906 -8.878906 5.269531 -8.46875 4.8125 -7.96875 C 4.363281 -7.476562 3.992188 -6.894531 3.703125 -6.21875 C 3.421875 -5.539062 3.28125 -4.757812 3.28125 -3.875 C 3.28125 -3.28125 3.351562 -2.660156 3.5 -2.015625 C 3.644531 -1.367188 3.878906 -0.695312 4.203125 0 Z M 0.34375 0 "/></g></g><g style="fill:#ffffff;fill-opacity:1;"><g transform="translate(82.707748, 38.93332)"><path style="stroke:none" d="M 8.1875 -9.921875 C 7.738281 -9.890625 7.21875 -9.765625 6.625 -9.546875 C 6.03125 -9.328125 5.425781 -9.035156 4.8125 -8.671875 C 4.207031 -8.304688 3.640625 -7.882812 3.109375 -7.40625 C 2.578125 -6.925781 2.148438 -6.40625 1.828125 -5.84375 C 1.503906 -5.28125 1.34375 -4.695312 1.34375 -4.09375 C 1.34375 -3.707031 1.488281 -3.4375 1.78125 -3.28125 C 2.082031 -3.125 2.460938 -3.046875 2.921875 -3.046875 C 3.398438 -3.046875 3.9375 -3.097656 4.53125 -3.203125 C 5.125 -3.316406 5.695312 -3.457031 6.25 -3.625 C 6.800781 -3.789062 7.273438 -3.953125 7.671875 -4.109375 C 8.078125 -4.265625 8.335938 -4.378906 8.453125 -4.453125 L 8.453125 0 C 8.066406 0.0625 7.679688 0.113281 7.296875 0.15625 C 6.921875 0.207031 6.566406 0.234375 6.234375 0.234375 C 5.109375 0.234375 4.191406 0.132812 3.484375 -0.0625 C 2.773438 -0.257812 2.226562 -0.539062 1.84375 -0.90625 C 1.457031 -1.269531 1.1875 -1.710938 1.03125 -2.234375 C 0.882812 -2.753906 0.8125 -3.34375 0.8125 -4 C 0.8125 -4.394531 0.828125 -4.820312 0.859375 -5.28125 C 0.898438 -5.75 0.945312 -6.226562 1 -6.71875 C 1.050781 -7.289062 1.097656 -7.878906 1.140625 -8.484375 C 1.191406 -9.097656 1.21875 -9.726562 1.21875 -10.375 C 1.21875 -11.257812 1.15625 -12.144531 1.03125 -13.03125 C 0.914062 -13.925781 0.6875 -14.796875 0.34375 -15.640625 L 3.59375 -15.640625 C 3.820312 -15.398438 3.984375 -15.113281 4.078125 -14.78125 C 4.171875 -14.445312 4.21875 -14.109375 4.21875 -13.765625 C 4.21875 -13.128906 4.132812 -12.578125 3.96875 -12.109375 C 3.800781 -11.648438 3.625 -11.273438 3.4375 -10.984375 C 3.25 -10.703125 3.117188 -10.515625 3.046875 -10.421875 L 3.28125 -10.21875 C 3.5625 -10.6875 3.894531 -11.160156 4.28125 -11.640625 C 4.675781 -12.117188 5.128906 -12.519531 5.640625 -12.84375 C 6.160156 -13.175781 6.734375 -13.34375 7.359375 -13.34375 C 7.492188 -13.34375 7.628906 -13.332031 7.765625 -13.3125 C 7.910156 -13.300781 8.050781 -13.273438 8.1875 -13.234375 Z M 8.1875 -9.921875 "/></g></g><g style="fill:#ffffff;fill-opacity:1;"><g transform="translate(91.424311, 38.93332)"><path style="stroke:none" d="M 0.203125 0 L 0.203125 -4.484375 C 1.273438 -3.960938 2.242188 -3.597656 3.109375 -3.390625 C 3.972656 -3.179688 4.722656 -3.078125 5.359375 -3.078125 C 6.265625 -3.078125 6.945312 -3.238281 7.40625 -3.5625 C 7.863281 -3.894531 8.09375 -4.238281 8.09375 -4.59375 C 8.09375 -4.875 7.976562 -5.078125 7.75 -5.203125 C 7.53125 -5.335938 7.226562 -5.425781 6.84375 -5.46875 C 6.46875 -5.519531 6.046875 -5.550781 5.578125 -5.5625 C 5.003906 -5.601562 4.40625 -5.660156 3.78125 -5.734375 C 3.15625 -5.804688 2.570312 -5.945312 2.03125 -6.15625 C 1.488281 -6.375 1.050781 -6.707031 0.71875 -7.15625 C 0.382812 -7.613281 0.21875 -8.226562 0.21875 -9 C 0.21875 -9.53125 0.3125 -10.054688 0.5 -10.578125 C 0.695312 -11.109375 1.003906 -11.59375 1.421875 -12.03125 C 1.835938 -12.476562 2.382812 -12.832031 3.0625 -13.09375 C 3.738281 -13.351562 4.566406 -13.484375 5.546875 -13.484375 C 5.972656 -13.484375 6.390625 -13.457031 6.796875 -13.40625 C 7.210938 -13.363281 7.609375 -13.304688 7.984375 -13.234375 L 7.984375 -9 C 7.742188 -9.175781 7.445312 -9.351562 7.09375 -9.53125 C 6.75 -9.707031 6.316406 -9.859375 5.796875 -9.984375 C 5.273438 -10.117188 4.632812 -10.1875 3.875 -10.1875 C 3.414062 -10.1875 2.941406 -10.097656 2.453125 -9.921875 C 1.960938 -9.742188 1.554688 -9.507812 1.234375 -9.21875 C 0.921875 -8.9375 0.765625 -8.617188 0.765625 -8.265625 C 0.765625 -7.910156 0.863281 -7.679688 1.0625 -7.578125 C 1.269531 -7.472656 1.503906 -7.421875 1.765625 -7.421875 C 2.148438 -7.421875 2.523438 -7.445312 2.890625 -7.5 C 3.265625 -7.550781 3.640625 -7.578125 4.015625 -7.578125 C 4.609375 -7.578125 5.179688 -7.523438 5.734375 -7.421875 C 6.296875 -7.316406 6.8125 -7.128906 7.28125 -6.859375 C 7.75 -6.585938 8.117188 -6.207031 8.390625 -5.71875 C 8.660156 -5.226562 8.796875 -4.585938 8.796875 -3.796875 C 8.796875 -2.972656 8.640625 -2.296875 8.328125 -1.765625 C 8.015625 -1.242188 7.597656 -0.832031 7.078125 -0.53125 C 6.554688 -0.238281 5.972656 -0.0390625 5.328125 0.0625 C 4.691406 0.175781 4.039062 0.234375 3.375 0.234375 C 3.082031 0.234375 2.734375 0.21875 2.328125 0.1875 C 1.929688 0.164062 1.539062 0.140625 1.15625 0.109375 C 0.78125 0.078125 0.460938 0.0390625 0.203125 0 Z M 0.203125 0 "/></g></g><g clip-rule="nonzero" clip-path="url(#b0347522f3)"><g clip-rule="nonzero" clip-path="url(#67e2e24386)"><path style=" stroke:none;fill-rule:nonzero;fill:#ffffff;fill-opacity:1;" d="M 29.097656 47.023438 L 127.847656 47.023438 L 127.847656 73.328125 L 29.097656 73.328125 Z M 29.097656 47.023438 "/></g></g><g style="fill:#171717;fill-opacity:1;"><g transform="translate(43.771364, 68.97194)"><path style="stroke:none" d="M 0.980469 -0.195312 C 1.21875 -0.152344 1.417969 -0.128906 1.546875 -0.128906 L 2.375 -0.0859375 C 3.203125 -0.0429688 3.640625 -0.0234375 3.640625 0 C 3.640625 0 3.617188 0 3.617188 0 L 3.921875 0 C 3.921875 0 3.902344 0 3.902344 0 C 3.902344 -0.0234375 4.292969 -0.0429688 5.078125 -0.0859375 L 5.863281 -0.128906 C 6.339844 -0.152344 6.582031 -0.285156 6.582031 -0.5 L 6.582031 -1.308594 C 6.558594 -1.328125 6.472656 -1.351562 6.296875 -1.371094 C 5.359375 -1.527344 4.882812 -1.941406 4.882812 -2.613281 L 4.882812 -8.5625 L 5.078125 -8.5625 C 5.121094 -8.585938 5.1875 -8.585938 5.25 -8.585938 C 7.125 -8.105469 7.257812 -7.757812 7.320312 -6.582031 C 7.320312 -6.296875 7.582031 -6.144531 8.0625 -6.144531 C 8.300781 -6.144531 8.410156 -6.144531 8.433594 -6.167969 L 8.628906 -6.710938 L 8.628906 -7.125 C 8.628906 -7.191406 8.628906 -7.257812 8.652344 -7.367188 L 8.652344 -8.171875 C 8.652344 -9.980469 8.585938 -11.179688 8.433594 -11.765625 C 8.238281 -11.941406 7.867188 -12.027344 7.34375 -12.027344 C 7.34375 -11.441406 7.167969 -10.917969 6.800781 -10.589844 C 6.058594 -9.9375 5.449219 -9.480469 5.078125 -9.175781 L 4.882812 -9.347656 C 4.859375 -9.675781 4.683594 -10.589844 4.335938 -12.136719 L 4.164062 -12.136719 C 4.164062 -12.464844 4.75 -13.511719 4.75 -13.835938 C 4.75 -14.078125 4.730469 -14.273438 4.683594 -14.382812 C 4.664062 -14.382812 4.664062 -14.382812 4.640625 -14.359375 L 4.578125 -14.359375 C 4.378906 -14.359375 4.292969 -14.558594 4.292969 -14.925781 C 4.292969 -15.015625 4.316406 -15.078125 4.335938 -15.125 L 4.25 -15.078125 C 4.140625 -15.058594 4.054688 -15.015625 3.964844 -14.949219 L 3.878906 -14.949219 C 3.855469 -14.972656 3.855469 -14.972656 3.835938 -14.972656 C 3.835938 -15.558594 4.421875 -15.863281 5.578125 -15.863281 C 7.996094 -15.863281 8.300781 -15.625 9.175781 -13.730469 C 9.542969 -12.921875 9.851562 -12.53125 10.113281 -12.53125 C 10.4375 -12.53125 10.679688 -12.640625 10.851562 -12.878906 L 10.722656 -14.972656 C 10.699219 -15.167969 10.679688 -15.363281 10.679688 -15.515625 L 10.632812 -16.628906 C 10.546875 -16.996094 10.308594 -17.238281 9.9375 -17.367188 L 5.382812 -17.367188 L 2.351562 -17.238281 C 1.175781 -17.238281 0.589844 -16.996094 0.589844 -16.410156 C 0.589844 -16.300781 0.652344 -16.214844 0.804688 -16.148438 C 1.65625 -15.734375 2.136719 -15.253906 2.265625 -14.753906 L 2.265625 -14.121094 C 2.265625 -14.011719 2.265625 -13.902344 2.289062 -13.773438 L 2.289062 -11.722656 C 2.265625 -11.570312 2.265625 -11.460938 2.265625 -11.351562 L 2.265625 -9.804688 C 2.265625 -9.347656 2.265625 -8.847656 2.246094 -8.300781 L 2.09375 -2.570312 C 2.070312 -2.136719 1.503906 -1.65625 1.285156 -1.503906 C 0.894531 -1.175781 0.761719 -0.914062 0.761719 -0.632812 C 0.761719 -0.347656 0.828125 -0.21875 0.980469 -0.195312 Z M 3.398438 -11.765625 C 3.507812 -11.765625 3.550781 -11.703125 3.550781 -11.59375 C 3.550781 -11.484375 3.507812 -11.417969 3.398438 -11.417969 C 3.289062 -11.417969 3.246094 -11.484375 3.246094 -11.59375 C 3.246094 -11.703125 3.289062 -11.765625 3.398438 -11.765625 Z M 4.335938 -14.207031 C 4.445312 -14.207031 4.488281 -14.144531 4.488281 -14.035156 C 4.488281 -13.902344 4.445312 -13.835938 4.335938 -13.835938 C 4.226562 -13.835938 4.183594 -13.902344 4.183594 -14.035156 C 4.183594 -14.144531 4.226562 -14.207031 4.335938 -14.207031 Z M 4.164062 -11.222656 C 4.164062 -11.09375 4.097656 -11.027344 3.988281 -11.027344 C 3.921875 -11.027344 3.902344 -11.046875 3.902344 -11.070312 C 3.902344 -11.136719 3.964844 -11.179688 4.074219 -11.246094 C 4.117188 -11.246094 4.140625 -11.246094 4.164062 -11.222656 Z M 4.335938 -8.976562 L 4.53125 -8.976562 L 4.335938 -8.585938 Z M 3.964844 -13.835938 C 3.945312 -13.773438 3.902344 -13.730469 3.855469 -13.730469 C 3.792969 -13.730469 3.75 -13.773438 3.75 -13.859375 C 3.75 -13.902344 3.792969 -13.925781 3.855469 -13.925781 C 3.921875 -13.925781 3.964844 -13.902344 3.964844 -13.835938 Z M 3.769531 -11.941406 C 3.75 -11.875 3.726562 -11.855469 3.660156 -11.855469 C 3.617188 -11.855469 3.59375 -11.875 3.574219 -11.941406 C 3.574219 -12.007812 3.59375 -12.050781 3.660156 -12.050781 C 3.726562 -12.050781 3.769531 -12.007812 3.769531 -11.941406 Z M 4.335938 -13.445312 C 4.378906 -13.445312 4.402344 -13.421875 4.402344 -13.359375 C 4.402344 -13.292969 4.359375 -13.25 4.292969 -13.25 C 4.269531 -13.25 4.25 -13.292969 4.25 -13.359375 C 4.25 -13.421875 4.269531 -13.445312 4.335938 -13.445312 Z M 4.335938 -13.445312 "/></g></g><g style="fill:#171717;fill-opacity:1;"><g transform="translate(55.210382, 68.97194)"><path style="stroke:none" d="M 17.171875 -16.582031 L 17.171875 -2.441406 L 3.007812 -2.441406 L 3.007812 -16.582031 Z M 17.390625 0 C 18.851562 0 19.589844 -0.742188 19.589844 -2.222656 L 19.589844 -16.800781 C 19.589844 -18.285156 18.851562 -19.023438 17.390625 -19.023438 L 2.789062 -19.023438 C 1.328125 -19.023438 0.589844 -18.285156 0.589844 -16.800781 L 0.589844 -2.222656 C 0.589844 -0.742188 1.328125 0 2.789062 0 Z M 17.390625 0 "/></g></g><g style="fill:#171717;fill-opacity:1;"><g transform="translate(75.386633, 68.97194)"><path style="stroke:none" d="M 0.589844 -16.214844 L 0.589844 0 L 3.3125 0 L 3.3125 -13.53125 L 6.015625 -13.53125 L 6.015625 0 L 8.695312 0 L 8.695312 -13.730469 C 8.695312 -15.210938 7.34375 -16.167969 5.46875 -16.167969 C 4.511719 -16.167969 3.769531 -15.972656 3.226562 -15.558594 L 3.226562 -16.214844 Z M 0.589844 -16.214844 "/></g></g><g style="fill:#171717;fill-opacity:1;"><g transform="translate(84.668576, 68.97194)"><path style="stroke:none" d="M 0.589844 -8.042969 L 2.289062 -8.042969 C 2.289062 -9.675781 3.050781 -10.960938 4.226562 -11.460938 L 4.226562 -13.074219 L 0.589844 -13.074219 Z M 4.164062 0 L 11.527344 0 L 11.527344 -1.613281 C 10.742188 -1.851562 10.199219 -2.570312 10.199219 -3.378906 L 10.199219 -13.074219 L 5.40625 -13.074219 L 5.40625 -2.964844 C 5.40625 -2.09375 4.992188 -1.503906 4.164062 -1.199219 Z M 11.527344 -10.851562 C 12.574219 -10.351562 13.164062 -9.414062 13.292969 -8.042969 L 15.167969 -8.042969 L 15.167969 -13.074219 L 11.527344 -13.074219 Z M 11.527344 -10.851562 "/></g></g><g style="fill:#171717;fill-opacity:1;"><g transform="translate(100.421743, 68.97194)"><path style="stroke:none" d="M 6.863281 -15.601562 C 2.703125 -15.601562 0.589844 -13.882812 0.589844 -10.589844 C 0.589844 -8.300781 1.765625 -6.953125 5.078125 -5.730469 C 5.972656 -5.40625 6.429688 -4.902344 6.429688 -4.226562 C 6.429688 -3.507812 5.992188 -3.136719 5.121094 -3.136719 C 4.269531 -3.136719 3.074219 -3.441406 1.570312 -4.074219 C 1.242188 -3.398438 1.089844 -2.722656 1.089844 -2.003906 C 1.089844 -1.285156 1.242188 -0.589844 1.570312 0.0429688 C 2.722656 0.238281 3.878906 0.347656 5.054688 0.347656 C 9.304688 0.347656 11.441406 -1.199219 11.441406 -4.269531 C 11.441406 -6.449219 10.308594 -7.886719 8.0625 -8.585938 C 6.929688 -8.933594 6.339844 -9.4375 6.339844 -9.914062 C 6.339844 -10.503906 6.710938 -10.785156 7.453125 -10.785156 C 8.390625 -10.785156 9.804688 -10.371094 11.679688 -9.523438 C 11.984375 -10.503906 12.136719 -11.441406 12.136719 -12.355469 C 12.136719 -13.25 11.984375 -14.097656 11.679688 -14.90625 C 10.199219 -15.363281 8.585938 -15.601562 6.863281 -15.601562 Z M 6.863281 -15.601562 "/></g></g><g style="fill:#ffffff;fill-opacity:1;"><g transform="translate(46.231613, 96.095036)"><path style="stroke:none" d="M 0.4375 0 L 0.4375 -0.203125 L 0.796875 -0.3125 C 1.066406 -0.40625 1.25 -0.53125 1.34375 -0.6875 C 1.4375 -0.851562 1.484375 -1.070312 1.484375 -1.34375 C 1.492188 -2.144531 1.5 -2.953125 1.5 -3.765625 C 1.5 -4.578125 1.5 -5.390625 1.5 -6.203125 L 1.5 -7 C 1.5 -7.800781 1.5 -8.601562 1.5 -9.40625 C 1.5 -10.21875 1.492188 -11.019531 1.484375 -11.8125 C 1.484375 -12.082031 1.445312 -12.296875 1.375 -12.453125 C 1.300781 -12.617188 1.132812 -12.75 0.875 -12.84375 L 0.4375 -13 L 0.4375 -13.203125 L 10.125 -13.203125 L 10.265625 -9.875 L 10.0625 -9.875 L 8.921875 -11.984375 C 8.785156 -12.234375 8.628906 -12.429688 8.453125 -12.578125 C 8.285156 -12.722656 8.046875 -12.796875 7.734375 -12.796875 L 4.515625 -12.796875 C 4.503906 -11.847656 4.5 -10.878906 4.5 -9.890625 C 4.5 -8.910156 4.5 -7.929688 4.5 -6.953125 L 6.578125 -6.953125 C 6.890625 -6.953125 7.117188 -7.019531 7.265625 -7.15625 C 7.410156 -7.289062 7.550781 -7.484375 7.6875 -7.734375 L 8.09375 -8.5 L 8.296875 -8.5 L 8.296875 -5 L 8.09375 -5 L 7.65625 -5.765625 C 7.519531 -6.003906 7.382812 -6.195312 7.25 -6.34375 C 7.113281 -6.488281 6.890625 -6.5625 6.578125 -6.5625 L 4.5 -6.5625 C 4.5 -5.625 4.5 -4.734375 4.5 -3.890625 C 4.5 -3.046875 4.503906 -2.21875 4.515625 -1.40625 C 4.515625 -0.882812 4.769531 -0.539062 5.28125 -0.375 L 5.875 -0.203125 L 5.875 0 Z M 0.4375 0 "/></g></g><g style="fill:#ffffff;fill-opacity:1;"><g transform="translate(56.987365, 96.095036)"><path style="stroke:none" d="M 6.703125 0.359375 C 5.890625 0.359375 5.101562 0.210938 4.34375 -0.078125 C 3.59375 -0.367188 2.921875 -0.804688 2.328125 -1.390625 C 1.734375 -1.972656 1.265625 -2.695312 0.921875 -3.5625 C 0.578125 -4.425781 0.40625 -5.4375 0.40625 -6.59375 C 0.40625 -7.738281 0.578125 -8.742188 0.921875 -9.609375 C 1.265625 -10.484375 1.734375 -11.207031 2.328125 -11.78125 C 2.929688 -12.363281 3.609375 -12.804688 4.359375 -13.109375 C 5.117188 -13.410156 5.898438 -13.5625 6.703125 -13.5625 C 7.515625 -13.5625 8.296875 -13.414062 9.046875 -13.125 C 9.804688 -12.84375 10.476562 -12.410156 11.0625 -11.828125 C 11.65625 -11.242188 12.125 -10.515625 12.46875 -9.640625 C 12.820312 -8.773438 13 -7.757812 13 -6.59375 C 13 -5.46875 12.820312 -4.46875 12.46875 -3.59375 C 12.125 -2.71875 11.65625 -1.988281 11.0625 -1.40625 C 10.476562 -0.832031 9.804688 -0.394531 9.046875 -0.09375 C 8.296875 0.207031 7.515625 0.359375 6.703125 0.359375 Z M 6.703125 -0.0625 C 7.429688 -0.0625 8.019531 -0.253906 8.46875 -0.640625 C 8.925781 -1.035156 9.257812 -1.707031 9.46875 -2.65625 C 9.675781 -3.613281 9.78125 -4.925781 9.78125 -6.59375 C 9.78125 -8.28125 9.675781 -9.597656 9.46875 -10.546875 C 9.257812 -11.503906 8.925781 -12.175781 8.46875 -12.5625 C 8.019531 -12.957031 7.429688 -13.15625 6.703125 -13.15625 C 5.984375 -13.15625 5.394531 -12.957031 4.9375 -12.5625 C 4.488281 -12.175781 4.160156 -11.503906 3.953125 -10.546875 C 3.742188 -9.597656 3.640625 -8.28125 3.640625 -6.59375 C 3.640625 -4.925781 3.742188 -3.613281 3.953125 -2.65625 C 4.160156 -1.707031 4.488281 -1.035156 4.9375 -0.640625 C 5.394531 -0.253906 5.984375 -0.0625 6.703125 -0.0625 Z M 6.703125 -0.0625 "/></g></g><g style="fill:#ffffff;fill-opacity:1;"><g transform="translate(70.382079, 96.095036)"><path style="stroke:none" d="M 0.703125 0 L 0.703125 -0.203125 L 1.359375 -0.40625 C 1.597656 -0.46875 1.769531 -0.59375 1.875 -0.78125 C 1.988281 -0.976562 2.046875 -1.210938 2.046875 -1.484375 L 2.046875 -11.09375 C 1.890625 -11.414062 1.769531 -11.65625 1.6875 -11.8125 C 1.601562 -11.976562 1.503906 -12.117188 1.390625 -12.234375 C 1.285156 -12.347656 1.140625 -12.488281 0.953125 -12.65625 L 0.625 -13 L 0.625 -13.203125 L 4.15625 -13.203125 L 10.796875 -4.140625 L 10.796875 -11.6875 C 10.796875 -11.945312 10.753906 -12.179688 10.671875 -12.390625 C 10.585938 -12.609375 10.410156 -12.75 10.140625 -12.8125 L 9.484375 -13 L 9.484375 -13.203125 L 12.34375 -13.203125 L 12.34375 -13 L 11.796875 -12.8125 C 11.554688 -12.738281 11.410156 -12.597656 11.359375 -12.390625 C 11.304688 -12.191406 11.28125 -11.960938 11.28125 -11.703125 L 11.28125 0.0625 L 10.15625 0.0625 L 2.515625 -10.4375 L 2.515625 -1.484375 C 2.515625 -1.210938 2.554688 -0.984375 2.640625 -0.796875 C 2.722656 -0.609375 2.890625 -0.476562 3.140625 -0.40625 L 3.734375 -0.203125 L 3.734375 0 Z M 0.703125 0 "/></g></g><g style="fill:#ffffff;fill-opacity:1;"><g transform="translate(83.436926, 96.095036)"><path style="stroke:none" d="M 3.125 0 L 3.125 -0.203125 L 3.9375 -0.40625 C 4.488281 -0.519531 4.765625 -0.851562 4.765625 -1.40625 L 4.765625 -12.796875 L 3.0625 -12.796875 C 2.5625 -12.796875 2.207031 -12.664062 2 -12.40625 C 1.789062 -12.144531 1.5625 -11.789062 1.3125 -11.34375 L 0.59375 -9.9375 L 0.40625 -9.9375 L 0.5 -13.203125 L 12.046875 -13.203125 L 12.125 -9.9375 L 11.921875 -9.9375 L 11.203125 -11.34375 C 10.972656 -11.789062 10.75 -12.144531 10.53125 -12.40625 C 10.320312 -12.664062 9.972656 -12.796875 9.484375 -12.796875 L 7.78125 -12.796875 L 7.78125 -1.40625 C 7.78125 -0.851562 8.050781 -0.519531 8.59375 -0.40625 L 9.421875 -0.203125 L 9.421875 0 Z M 3.125 0 "/></g></g><g style="fill:#ffffff;fill-opacity:1;"><g transform="translate(95.971982, 96.095036)"><path style="stroke:none" d="M 4.734375 0.359375 C 4.003906 0.359375 3.257812 0.265625 2.5 0.078125 C 1.738281 -0.0976562 1.101562 -0.332031 0.59375 -0.625 L 0.703125 -3.34375 L 0.90625 -3.34375 L 1.515625 -2.046875 C 1.703125 -1.671875 1.898438 -1.335938 2.109375 -1.046875 C 2.328125 -0.765625 2.625 -0.539062 3 -0.375 C 3.269531 -0.25 3.523438 -0.160156 3.765625 -0.109375 C 4.015625 -0.0664062 4.289062 -0.046875 4.59375 -0.046875 C 5.40625 -0.046875 6.046875 -0.265625 6.515625 -0.703125 C 6.992188 -1.140625 7.234375 -1.707031 7.234375 -2.40625 C 7.234375 -3.050781 7.070312 -3.554688 6.75 -3.921875 C 6.4375 -4.296875 5.925781 -4.65625 5.21875 -5 L 4.40625 -5.359375 C 3.257812 -5.867188 2.359375 -6.453125 1.703125 -7.109375 C 1.054688 -7.765625 0.734375 -8.640625 0.734375 -9.734375 C 0.734375 -10.523438 0.9375 -11.207031 1.34375 -11.78125 C 1.75 -12.351562 2.316406 -12.789062 3.046875 -13.09375 C 3.773438 -13.40625 4.625 -13.5625 5.59375 -13.5625 C 6.300781 -13.5625 6.972656 -13.46875 7.609375 -13.28125 C 8.242188 -13.09375 8.796875 -12.835938 9.265625 -12.515625 L 9.140625 -10.125 L 8.9375 -10.125 L 8.125 -11.625 C 7.894531 -12.082031 7.664062 -12.410156 7.4375 -12.609375 C 7.207031 -12.804688 6.945312 -12.941406 6.65625 -13.015625 C 6.488281 -13.066406 6.328125 -13.101562 6.171875 -13.125 C 6.023438 -13.144531 5.84375 -13.15625 5.625 -13.15625 C 4.9375 -13.15625 4.359375 -12.957031 3.890625 -12.5625 C 3.429688 -12.175781 3.203125 -11.648438 3.203125 -10.984375 C 3.203125 -10.296875 3.378906 -9.75 3.734375 -9.34375 C 4.097656 -8.9375 4.625 -8.578125 5.3125 -8.265625 L 6.234375 -7.859375 C 7.515625 -7.296875 8.4375 -6.695312 9 -6.0625 C 9.5625 -5.4375 9.84375 -4.625 9.84375 -3.625 C 9.84375 -2.445312 9.398438 -1.488281 8.515625 -0.75 C 7.628906 -0.0078125 6.367188 0.359375 4.734375 0.359375 Z M 4.734375 0.359375 "/></g></g><g style="fill:#ffffff;fill-opacity:1;"><g transform="translate(47.708681, 119.092437)"><path style="stroke:none" d="M 10.496094 -5.238281 L 10.496094 -8.179688 L 3.859375 -8.179688 L 3.859375 -10.277344 L 10.496094 -10.277344 L 10.496094 -13.335938 L 0.519531 -13.335938 L 0.519531 0 L 3.859375 0 L 3.859375 -5.238281 Z M 10.496094 -5.238281 "/></g></g><g style="fill:#ffffff;fill-opacity:1;"><g transform="translate(58.72434, 119.092437)"><path style="stroke:none" d="M 10.539062 0 L 10.539062 -13.335938 L 0.519531 -13.335938 L 0.519531 0 Z M 7.199219 -3.039062 L 3.859375 -3.039062 L 3.859375 -10.277344 L 7.199219 -10.277344 Z M 7.199219 -3.039062 "/></g></g><g style="fill:#ffffff;fill-opacity:1;"><g transform="translate(69.779973, 119.092437)"><path style="stroke:none" d="M 10.316406 0 L 10.316406 -13.335938 L 0.300781 -13.335938 L 0.300781 -10.277344 L 0.960938 -10.277344 L 0.960938 0 L 3.640625 0 L 3.640625 -10.277344 L 6.976562 -10.277344 L 6.976562 0 Z M 10.316406 0 "/></g></g><g style="fill:#ffffff;fill-opacity:1;"><g transform="translate(80.615696, 119.092437)"><path style="stroke:none" d="M 10.316406 -10.277344 L 10.316406 -13.335938 L 0.300781 -13.335938 L 0.300781 -10.277344 L 3.660156 -10.277344 L 3.660156 0 L 7 0 L 7 -10.277344 Z M 10.316406 -10.277344 "/></g></g><g style="fill:#ffffff;fill-opacity:1;"><g transform="translate(91.23151, 119.092437)"><path style="stroke:none" d="M 10.539062 0 L 10.539062 -8.179688 L 3.859375 -8.179688 L 3.859375 -10.277344 L 10.539062 -10.277344 L 10.539062 -13.335938 L 0.519531 -13.335938 L 0.519531 -5.238281 L 7.199219 -5.238281 L 7.199219 -3.039062 L 0.519531 -3.039062 L 0.519531 0 Z M 10.539062 0 "/></g></g></g></svg>