<svg xmlns="http://www.w3.org/2000/svg" xmlns:xlink="http://www.w3.org/1999/xlink" width="200" zoomAndPan="magnify" viewBox="0 0 150 149.999998" height="200" preserveAspectRatio="xMidYMid meet" version="1.0"><defs><g/><clipPath id="19e9e2d773"><path d="M 15 19.039062 L 60.75 19.039062 L 60.75 62.949219 L 15 62.949219 Z M 15 19.039062 " clip-rule="nonzero"/></clipPath></defs><path stroke-linecap="butt" transform="matrix(0.75, 0, 0, 0.75, 66.447391, 29.360012)" fill="none" stroke-linejoin="miter" d="M 0.00243703 1.999151 L 91.403484 1.999151 " stroke="#ffffff" stroke-width="4" stroke-opacity="1" stroke-miterlimit="4"/><path stroke-linecap="butt" transform="matrix(0.75, 0, 0, 0.75, 66.447391, 48.564352)" fill="none" stroke-linejoin="miter" d="M 0.00243703 1.997531 L 91.752442 1.997531 " stroke="#ffffff" stroke-width="4" stroke-opacity="1" stroke-miterlimit="4"/><path stroke-linecap="butt" transform="matrix(0.75, 0, 0, 0.75, 15, 67.768702)" fill="none" stroke-linejoin="miter" d="M -0.0000005 2.001106 L 160.348967 2.001106 " stroke="#ffffff" stroke-width="4" stroke-opacity="1" stroke-miterlimit="4"/><path stroke-linecap="butt" transform="matrix(0.75, 0, 0, 0.75, 15, 84.268701)" fill="none" stroke-linejoin="miter" d="M -0.0000005 2.001107 L 160.348967 2.001107 " stroke="#ffffff" stroke-width="4" stroke-opacity="1" stroke-miterlimit="4"/><path stroke-linecap="butt" transform="matrix(0.75, 0, 0, 0.75, 15, 100.768693)" fill="none" stroke-linejoin="miter" d="M -0.0000005 2.001118 L 160.348967 2.001118 " stroke="#ffffff" stroke-width="4" stroke-opacity="1" stroke-miterlimit="4"/><path stroke-linecap="butt" transform="matrix(0.75, 0, 0, 0.75, 15, 117.268692)" fill="none" stroke-linejoin="miter" d="M -0.0000005 2.001119 L 160.348967 2.001119 " stroke="#ffffff" stroke-width="4" stroke-opacity="1" stroke-miterlimit="4"/><g clip-path="url(#19e9e2d773)"><path fill="#ffffff" d="M 25.5 17.539062 L 34.5 17.539062 L 34.5 20.539062 L 25.5 20.539062 Z M 36 17.539062 L 45 17.539062 L 45 20.539062 L 36 20.539062 Z M 46.5 17.539062 L 55.5 17.539062 L 55.5 20.539062 L 46.5 20.539062 Z M 57 17.539062 L 62.355469 17.539062 L 62.355469 24.1875 L 59.355469 24.1875 L 59.355469 19.039062 L 60.855469 19.039062 L 60.855469 20.539062 L 57 20.539062 Z M 62.355469 25.6875 L 62.355469 34.6875 L 59.355469 34.6875 L 59.355469 25.6875 Z M 62.355469 36.1875 L 62.355469 45.1875 L 59.355469 45.1875 L 59.355469 36.1875 Z M 62.355469 46.6875 L 62.355469 55.6875 L 59.355469 55.6875 L 59.355469 46.6875 Z M 62.355469 57.1875 L 62.355469 64.449219 L 57.617188 64.449219 L 57.617188 61.449219 L 60.855469 61.449219 L 60.855469 62.949219 L 59.355469 62.949219 L 59.355469 57.1875 Z M 56.117188 64.449219 L 47.117188 64.449219 L 47.117188 61.449219 L 56.117188 61.449219 Z M 45.617188 64.449219 L 36.617188 64.449219 L 36.617188 61.449219 L 45.617188 61.449219 Z M 35.117188 64.449219 L 26.117188 64.449219 L 26.117188 61.449219 L 35.117188 61.449219 Z M 24.617188 64.449219 L 15.617188 64.449219 L 15.617188 61.449219 L 24.617188 61.449219 Z M 13.5 62.066406 L 13.5 53.066406 L 16.5 53.066406 L 16.5 62.066406 Z M 13.5 51.566406 L 13.5 42.566406 L 16.5 42.566406 L 16.5 51.566406 Z M 13.5 41.066406 L 13.5 32.066406 L 16.5 32.066406 L 16.5 41.066406 Z M 13.5 30.566406 L 13.5 21.566406 L 16.5 21.566406 L 16.5 30.566406 Z M 13.5 20.066406 L 13.5 17.539062 L 24 17.539062 L 24 20.539062 L 15 20.539062 L 15 19.039062 L 16.5 19.039062 L 16.5 20.066406 Z M 13.5 20.066406 " fill-opacity="1" fill-rule="nonzero"/></g><g fill="#ffffff" fill-opacity="1"><g transform="translate(22.513372, 55.629427)"><g><path d="M 8.828125 -10.4375 L 7.171875 -5.84375 C 7.046875 -5.5 6.945312 -5.160156 6.875 -4.828125 C 6.800781 -4.492188 6.765625 -4.207031 6.765625 -3.96875 C 6.765625 -3.226562 7 -2.6875 7.46875 -2.34375 C 7.945312 -2 8.679688 -1.828125 9.671875 -1.828125 L 10.671875 -1.828125 L 10.671875 0 L 0 0 L 0 -1.828125 L 0.828125 -1.828125 C 1.253906 -1.828125 1.617188 -1.875 1.921875 -1.96875 C 2.222656 -2.0625 2.492188 -2.234375 2.734375 -2.484375 C 2.972656 -2.742188 3.203125 -3.09375 3.421875 -3.53125 C 3.640625 -3.976562 3.882812 -4.550781 4.15625 -5.25 L 13.84375 -31.203125 L 17.265625 -31.203125 L 27.140625 -4.15625 C 27.316406 -3.707031 27.492188 -3.332031 27.671875 -3.03125 C 27.847656 -2.726562 28.054688 -2.488281 28.296875 -2.3125 C 28.535156 -2.132812 28.8125 -2.007812 29.125 -1.9375 C 29.4375 -1.863281 29.804688 -1.828125 30.234375 -1.828125 L 30.8125 -1.828125 L 30.8125 0 L 18.796875 0 L 18.796875 -1.828125 L 19.796875 -1.828125 C 21.546875 -1.828125 22.421875 -2.523438 22.421875 -3.921875 C 22.421875 -4.171875 22.390625 -4.421875 22.328125 -4.671875 C 22.265625 -4.929688 22.175781 -5.222656 22.0625 -5.546875 L 20.3125 -10.4375 Z M 16.8125 -20.265625 C 16.351562 -21.566406 15.9375 -22.78125 15.5625 -23.90625 C 15.1875 -25.039062 14.878906 -26.132812 14.640625 -27.1875 C 14.535156 -26.65625 14.414062 -26.144531 14.28125 -25.65625 C 14.144531 -25.164062 14 -24.664062 13.84375 -24.15625 C 13.6875 -23.644531 13.507812 -23.109375 13.3125 -22.546875 C 13.113281 -21.984375 12.890625 -21.359375 12.640625 -20.671875 L 9.671875 -12.640625 L 19.53125 -12.640625 Z M 16.8125 -20.265625 "/></g></g></g></svg>