<svg xmlns="http://www.w3.org/2000/svg" xmlns:xlink="http://www.w3.org/1999/xlink" width="200" zoomAndPan="magnify" viewBox="0 0 150 149.999998" height="200" preserveAspectRatio="xMidYMid meet" version="1.0"><defs><g/></defs><g fill="#ffffff" fill-opacity="1"><g transform="translate(36.687598, 41.514298)"><g><path d="M 7.421875 0.9375 C 6.492188 0.789062 5.191406 0.765625 3.515625 0.859375 C 1.566406 0.972656 0.175781 1 -0.65625 0.9375 C -0.84375 0.90625 -1.003906 0.8125 -1.140625 0.65625 C -1.273438 0.519531 -1.332031 0.347656 -1.3125 0.140625 C -1.289062 -0.0234375 -1.222656 -0.175781 -1.109375 -0.3125 C -1.265625 -0.445312 -1.34375 -0.617188 -1.34375 -0.828125 C -1.34375 -3.097656 -1.425781 -6.507812 -1.59375 -11.0625 C -1.75 -15.613281 -1.828125 -19.03125 -1.828125 -21.3125 C -1.828125 -21.613281 -1.847656 -22.003906 -1.890625 -22.484375 C -1.890625 -22.554688 -1.90625 -22.738281 -1.9375 -23.03125 C -1.976562 -23.332031 -2.007812 -23.5625 -2.03125 -23.71875 C -2.125 -24.820312 -2.066406 -25.734375 -1.859375 -26.453125 C -1.816406 -26.628906 -1.703125 -26.773438 -1.515625 -26.890625 C -1.328125 -26.984375 -1.144531 -27 -0.96875 -26.9375 L -0.9375 -26.9375 C -0.90625 -27.144531 -0.890625 -27.304688 -0.890625 -27.421875 C -0.890625 -27.484375 -0.878906 -27.539062 -0.859375 -27.59375 C -0.859375 -27.726562 -0.8125 -27.851562 -0.71875 -27.96875 C -0.445312 -28.332031 -0.0351562 -28.550781 0.515625 -28.625 C 2.097656 -28.738281 3.375 -28.785156 4.34375 -28.765625 C 5.289062 -28.734375 6.578125 -28.675781 8.203125 -28.59375 C 9.816406 -28.5 11.046875 -28.453125 11.890625 -28.453125 C 11.941406 -28.453125 12.140625 -28.460938 12.484375 -28.484375 C 12.804688 -28.503906 13.082031 -28.515625 13.3125 -28.515625 C 13.695312 -28.515625 14.019531 -28.503906 14.28125 -28.484375 C 14.4375 -28.460938 14.582031 -28.425781 14.71875 -28.375 C 14.945312 -28.289062 15.132812 -28.15625 15.28125 -27.96875 C 15.644531 -27.414062 15.929688 -26.425781 16.140625 -25 C 16.296875 -23.914062 16.421875 -22.515625 16.515625 -20.796875 C 16.566406 -20.335938 16.632812 -18.890625 16.71875 -16.453125 C 16.8125 -14.910156 16.894531 -13.863281 16.96875 -13.3125 C 17.007812 -12.851562 17.085938 -12.1875 17.203125 -11.3125 C 17.296875 -10.4375 17.367188 -9.863281 17.421875 -9.59375 C 17.578125 -8.113281 17.757812 -6.90625 17.96875 -5.96875 C 18.03125 -5.71875 18.210938 -5.097656 18.515625 -4.109375 C 18.742188 -3.273438 18.894531 -2.582031 18.96875 -2.03125 C 19.007812 -1.613281 19.03125 -1.347656 19.03125 -1.234375 C 19.03125 -0.828125 18.914062 -0.507812 18.6875 -0.28125 C 18.800781 -0.132812 18.859375 0.0234375 18.859375 0.203125 C 18.859375 0.410156 18.789062 0.582031 18.65625 0.71875 C 18.519531 0.863281 18.347656 0.9375 18.140625 0.9375 C 17.953125 0.9375 17.078125 1.023438 15.515625 1.203125 C 14.273438 1.367188 13.300781 1.335938 12.59375 1.109375 C 12.269531 1.015625 12.003906 0.769531 11.796875 0.375 C 11.660156 0.125 11.535156 -0.207031 11.421875 -0.625 C 11.273438 -1.144531 11.113281 -1.972656 10.9375 -3.109375 C 10.675781 -4.640625 10.523438 -5.507812 10.484375 -5.71875 C 10.347656 -6.457031 10.222656 -6.960938 10.109375 -7.234375 C 9.828125 -7.210938 9.570312 -7.179688 9.34375 -7.140625 C 8.90625 -7.066406 8.550781 -7 8.28125 -6.9375 C 8.25 -6.90625 8.222656 -6.890625 8.203125 -6.890625 C 8.179688 -6.503906 8.21875 -5.875 8.3125 -5 C 8.3125 -4.863281 8.332031 -4.632812 8.375 -4.3125 C 8.40625 -3.96875 8.429688 -3.710938 8.453125 -3.546875 C 8.492188 -3.023438 8.515625 -2.632812 8.515625 -2.375 L 8.515625 -1.546875 C 8.472656 -1.066406 8.289062 -0.675781 7.96875 -0.375 L 7.9375 -0.375 C 8.1875 -0.195312 8.285156 0.03125 8.234375 0.3125 C 8.210938 0.519531 8.125 0.679688 7.96875 0.796875 C 7.800781 0.910156 7.617188 0.957031 7.421875 0.9375 Z M 7.03125 -15.0625 C 6.6875 -15.113281 6.484375 -15.3125 6.421875 -15.65625 C 6.367188 -15.976562 6.332031 -16.40625 6.3125 -16.9375 C 6.257812 -17.4375 6.222656 -17.789062 6.203125 -18 C 6.203125 -18.09375 6.171875 -18.273438 6.109375 -18.546875 C 6.035156 -18.867188 5.988281 -19.125 5.96875 -19.3125 C 5.851562 -20.09375 5.910156 -20.675781 6.140625 -21.0625 C 6.273438 -21.300781 6.515625 -21.441406 6.859375 -21.484375 C 7.023438 -21.503906 7.210938 -21.515625 7.421875 -21.515625 C 7.765625 -21.492188 8.1875 -21.4375 8.6875 -21.34375 C 9.144531 -21.25 9.5625 -21.144531 9.9375 -21.03125 C 10.132812 -20.96875 10.296875 -20.910156 10.421875 -20.859375 C 10.671875 -20.742188 10.84375 -20.617188 10.9375 -20.484375 C 11.257812 -20.023438 11.40625 -19.347656 11.375 -18.453125 C 11.375 -18.335938 11.351562 -18.035156 11.3125 -17.546875 L 11.3125 -16.859375 C 11.3125 -16.835938 11.332031 -16.734375 11.375 -16.546875 L 11.484375 -15.9375 C 11.523438 -15.632812 11.523438 -15.390625 11.484375 -15.203125 C 11.410156 -14.742188 11.191406 -14.445312 10.828125 -14.3125 C 10.460938 -14.175781 9.898438 -14.128906 9.140625 -14.171875 C 9.046875 -14.171875 8.78125 -14.191406 8.34375 -14.234375 C 8.070312 -14.265625 7.878906 -14.28125 7.765625 -14.28125 C 7.554688 -14.28125 7.378906 -14.347656 7.234375 -14.484375 C 7.097656 -14.617188 7.03125 -14.789062 7.03125 -15 Z M 7.515625 -18.96875 L 7.515625 -18.828125 C 7.585938 -18.523438 7.632812 -18.316406 7.65625 -18.203125 C 7.675781 -17.953125 7.710938 -17.550781 7.765625 -17 C 7.785156 -16.519531 7.816406 -16.164062 7.859375 -15.9375 L 7.859375 -15.71875 C 8.023438 -15.71875 8.234375 -15.707031 8.484375 -15.6875 C 8.503906 -15.6875 8.570312 -15.6875 8.6875 -15.6875 C 8.800781 -15.664062 8.894531 -15.65625 8.96875 -15.65625 C 8.800781 -16.039062 8.707031 -16.453125 8.6875 -16.890625 C 8.644531 -17.304688 8.644531 -17.710938 8.6875 -18.109375 L 8.71875 -18.65625 L 8.6875 -18.828125 L 8.6875 -18.796875 C 8.507812 -18.910156 8.117188 -18.96875 7.515625 -18.96875 Z M 0.546875 -27.171875 C 0.546875 -27.078125 0.535156 -26.960938 0.515625 -26.828125 L 0.515625 -25.203125 C 0.515625 -24.015625 0.539062 -22.382812 0.59375 -20.3125 C 0.59375 -19.226562 0.601562 -18.078125 0.625 -16.859375 C 0.644531 -15.640625 0.664062 -14.609375 0.6875 -13.765625 C 0.707031 -12.910156 0.71875 -12.4375 0.71875 -12.34375 C 0.71875 -11.882812 0.71875 -10.757812 0.71875 -8.96875 C 0.695312 -7.175781 0.722656 -5.71875 0.796875 -4.59375 C 0.859375 -3.457031 1.003906 -2.375 1.234375 -1.34375 C 2.523438 -1.320312 3.515625 -1.3125 4.203125 -1.3125 C 5.054688 -1.3125 5.734375 -1.332031 6.234375 -1.375 C 6.515625 -1.394531 6.734375 -1.429688 6.890625 -1.484375 C 6.941406 -1.484375 6.988281 -1.492188 7.03125 -1.515625 C 7.050781 -1.535156 7.0625 -1.59375 7.0625 -1.6875 C 7.09375 -1.6875 7.109375 -1.789062 7.109375 -2 C 7.078125 -2.1875 7.0625 -2.3125 7.0625 -2.375 C 7.0625 -2.582031 7.039062 -2.925781 7 -3.40625 C 6.976562 -3.570312 6.957031 -3.828125 6.9375 -4.171875 C 6.90625 -4.492188 6.878906 -4.722656 6.859375 -4.859375 C 6.742188 -6.191406 6.734375 -7.054688 6.828125 -7.453125 C 6.867188 -7.703125 7.03125 -7.90625 7.3125 -8.0625 C 7.46875 -8.15625 7.648438 -8.238281 7.859375 -8.3125 C 8.179688 -8.40625 8.609375 -8.5 9.140625 -8.59375 C 10.171875 -8.726562 10.914062 -8.769531 11.375 -8.71875 C 12.039062 -8.65625 12.523438 -8.128906 12.828125 -7.140625 C 12.984375 -6.660156 13.132812 -5.867188 13.28125 -4.765625 C 13.4375 -3.515625 13.550781 -2.726562 13.625 -2.40625 C 13.757812 -1.769531 13.894531 -1.394531 14.03125 -1.28125 C 14.101562 -1.226562 14.289062 -1.179688 14.59375 -1.140625 C 14.84375 -1.085938 15.128906 -1.0625 15.453125 -1.0625 C 16.597656 -1.0625 17.3125 -1.117188 17.59375 -1.234375 L 17.59375 -1.28125 C 17.59375 -1.320312 17.566406 -1.523438 17.515625 -1.890625 C 17.472656 -2.328125 17.335938 -2.925781 17.109375 -3.6875 C 16.804688 -4.695312 16.632812 -5.34375 16.59375 -5.625 C 16.351562 -6.632812 16.144531 -7.898438 15.96875 -9.421875 C 15.914062 -9.691406 15.847656 -10.265625 15.765625 -11.140625 C 15.671875 -11.992188 15.585938 -12.648438 15.515625 -13.109375 C 15.453125 -13.703125 15.382812 -14.789062 15.3125 -16.375 C 15.195312 -18.789062 15.113281 -20.226562 15.0625 -20.6875 C 14.976562 -22.394531 14.851562 -23.765625 14.6875 -24.796875 C 14.53125 -25.960938 14.378906 -26.695312 14.234375 -27 C 14.210938 -27.019531 14.171875 -27.03125 14.109375 -27.03125 C 13.921875 -27.050781 13.664062 -27.0625 13.34375 -27.0625 C 13.113281 -27.0625 12.828125 -27.050781 12.484375 -27.03125 C 12.140625 -27.007812 11.941406 -27 11.890625 -27 C 10.953125 -27 9.691406 -27.046875 8.109375 -27.140625 C 6.492188 -27.234375 5.238281 -27.289062 4.34375 -27.3125 C 3.445312 -27.332031 2.21875 -27.285156 0.65625 -27.171875 Z M 0.484375 -27.140625 L 0.453125 -27.140625 Z M 0.484375 -27.140625 "/></g></g></g><g fill="#ffffff" fill-opacity="1"><g transform="translate(59.137385, 41.514298)"><g><path d="M 15.515625 1.40625 C 15.054688 1.40625 13.789062 1.394531 11.71875 1.375 C 9.632812 1.375 8.164062 1.375 7.3125 1.375 C 6.457031 1.394531 5.257812 1.429688 3.71875 1.484375 C 2.175781 1.523438 0.785156 1.601562 -0.453125 1.71875 C -0.660156 1.75 -0.832031 1.691406 -0.96875 1.546875 C -1.125 1.410156 -1.210938 1.25 -1.234375 1.0625 C -1.234375 0.945312 -1.222656 0.847656 -1.203125 0.765625 C -1.367188 0.617188 -1.453125 0.429688 -1.453125 0.203125 C -1.453125 -2.367188 -1.378906 -5.21875 -1.234375 -8.34375 C -1.835938 -14.53125 -1.957031 -19.414062 -1.59375 -23 C -1.5625 -23.207031 -1.46875 -23.367188 -1.3125 -23.484375 C -1.332031 -24.359375 -1.34375 -25.207031 -1.34375 -26.03125 C -1.34375 -26.195312 -1.296875 -26.335938 -1.203125 -26.453125 C -1.109375 -26.742188 -0.914062 -26.914062 -0.625 -26.96875 C -0.644531 -27.238281 -0.65625 -27.457031 -0.65625 -27.625 C -0.675781 -27.832031 -0.6875 -27.976562 -0.6875 -28.0625 L -0.6875 -28.453125 C -0.644531 -28.566406 -0.578125 -28.679688 -0.484375 -28.796875 C -0.367188 -28.890625 -0.242188 -28.957031 -0.109375 -29 C -0.0351562 -29.019531 0.0351562 -29.03125 0.109375 -29.03125 C 0.222656 -29.0625 0.359375 -29.078125 0.515625 -29.078125 C 0.816406 -29.078125 1.21875 -29.050781 1.71875 -29 C 2.613281 -28.957031 3.753906 -28.863281 5.140625 -28.71875 C 8.285156 -28.40625 10.191406 -28.15625 10.859375 -27.96875 C 11.253906 -27.875 11.566406 -27.570312 11.796875 -27.0625 C 11.929688 -26.75 12.046875 -26.328125 12.140625 -25.796875 C 12.296875 -24.941406 12.410156 -23.800781 12.484375 -22.375 C 12.597656 -20.351562 12.617188 -18.390625 12.546875 -16.484375 C 12.546875 -16.460938 12.503906 -16.1875 12.421875 -15.65625 C 12.390625 -15.539062 12.375 -15.445312 12.375 -15.375 C 12.425781 -15.351562 12.472656 -15.34375 12.515625 -15.34375 C 12.679688 -15.300781 12.945312 -15.253906 13.3125 -15.203125 C 13.789062 -15.160156 14.144531 -15.113281 14.375 -15.0625 C 14.863281 -14.925781 15.222656 -14.710938 15.453125 -14.421875 C 15.679688 -14.140625 15.875 -13.644531 16.03125 -12.9375 C 16.125 -12.425781 16.21875 -11.789062 16.3125 -11.03125 C 16.351562 -10.53125 16.410156 -9.898438 16.484375 -9.140625 C 16.523438 -8.359375 16.5625 -7.882812 16.59375 -7.71875 C 16.863281 -5.164062 17.09375 -3.5 17.28125 -2.71875 L 17.3125 -2.6875 L 17.34375 -2.546875 C 17.414062 -2.367188 17.460938 -2.222656 17.484375 -2.109375 C 17.554688 -1.921875 17.601562 -1.75 17.625 -1.59375 C 17.664062 -1.269531 17.597656 -1.003906 17.421875 -0.796875 C 17.304688 -0.628906 17.117188 -0.488281 16.859375 -0.375 L 16.859375 -0.171875 C 16.796875 0.210938 16.578125 0.421875 16.203125 0.453125 C 16.222656 0.515625 16.234375 0.59375 16.234375 0.6875 C 16.234375 0.894531 16.164062 1.066406 16.03125 1.203125 C 15.894531 1.335938 15.722656 1.40625 15.515625 1.40625 Z M 0.890625 -7.9375 L 0.96875 -6.71875 C 0.96875 -6.5625 0.929688 -6.425781 0.859375 -6.3125 L 0.859375 -5.765625 C 0.878906 -4.171875 0.945312 -2.90625 1.0625 -1.96875 C 1.09375 -1.625 1.140625 -1.320312 1.203125 -1.0625 C 2.242188 -1.269531 3.335938 -1.382812 4.484375 -1.40625 C 5.609375 -1.40625 6.988281 -1.363281 8.625 -1.28125 C 10.25 -1.164062 11.28125 -1.09375 11.71875 -1.0625 L 12.859375 -1.0625 C 13.316406 -1.113281 13.742188 -1.171875 14.140625 -1.234375 C 14.847656 -1.328125 15.398438 -1.429688 15.796875 -1.546875 C 15.910156 -1.578125 16.015625 -1.613281 16.109375 -1.65625 L 16.109375 -1.71875 C 16.078125 -1.8125 16.03125 -1.925781 15.96875 -2.0625 L 15.9375 -2.234375 C 15.90625 -2.304688 15.890625 -2.351562 15.890625 -2.375 C 15.691406 -3.207031 15.441406 -4.945312 15.140625 -7.59375 C 15.117188 -7.726562 15.082031 -8.1875 15.03125 -8.96875 C 14.96875 -9.75 14.910156 -10.378906 14.859375 -10.859375 C 14.796875 -11.597656 14.71875 -12.195312 14.625 -12.65625 C 14.507812 -13.113281 14.414062 -13.398438 14.34375 -13.515625 C 14.300781 -13.566406 14.195312 -13.613281 14.03125 -13.65625 C 13.875 -13.695312 13.585938 -13.734375 13.171875 -13.765625 C 12.710938 -13.804688 12.367188 -13.863281 12.140625 -13.9375 C 11.660156 -14.070312 11.316406 -14.3125 11.109375 -14.65625 C 10.941406 -14.925781 10.90625 -15.328125 11 -15.859375 C 11 -15.972656 11.007812 -16.085938 11.03125 -16.203125 C 11.050781 -16.296875 11.078125 -16.367188 11.109375 -16.421875 C 11.109375 -16.460938 11.109375 -16.503906 11.109375 -16.546875 C 11.171875 -18.410156 11.144531 -20.332031 11.03125 -22.3125 C 10.96875 -23.664062 10.863281 -24.734375 10.71875 -25.515625 C 10.632812 -25.953125 10.546875 -26.273438 10.453125 -26.484375 C 10.429688 -26.523438 10.421875 -26.5625 10.421875 -26.59375 C 9.566406 -26.769531 7.757812 -27 5 -27.28125 C 3.625 -27.414062 2.5 -27.519531 1.625 -27.59375 C 1.28125 -27.59375 1.003906 -27.601562 0.796875 -27.625 C 0.816406 -27.34375 0.835938 -26.953125 0.859375 -26.453125 L 0.96875 -25.109375 C 1.007812 -24.671875 1.03125 -24.40625 1.03125 -24.3125 C 1.03125 -22.976562 1.019531 -21 1 -18.375 C 0.957031 -15.738281 0.9375 -13.753906 0.9375 -12.421875 C 0.9375 -12.253906 0.921875 -11.617188 0.890625 -10.515625 C 0.960938 -9.484375 1.019531 -8.816406 1.0625 -8.515625 C 1.09375 -8.285156 1.035156 -8.09375 0.890625 -7.9375 Z M 8.234375 -8.765625 L 8.171875 -8.6875 C 8.035156 -8.570312 7.863281 -8.515625 7.65625 -8.515625 C 7.769531 -7.617188 7.828125 -6.882812 7.828125 -6.3125 L 7.828125 -6 C 7.804688 -5.882812 7.796875 -5.78125 7.796875 -5.6875 L 7.796875 -5.65625 C 7.929688 -5.632812 8.101562 -5.613281 8.3125 -5.59375 C 9.09375 -5.5625 9.53125 -5.546875 9.625 -5.546875 L 9.65625 -5.515625 L 9.65625 -5.890625 C 9.5625 -5.984375 9.503906 -6.097656 9.484375 -6.234375 C 9.441406 -6.378906 9.328125 -7.023438 9.140625 -8.171875 L 9.03125 -8.9375 C 8.9375 -8.882812 8.847656 -8.847656 8.765625 -8.828125 C 8.554688 -8.804688 8.378906 -8.785156 8.234375 -8.765625 Z M 6.140625 -23.65625 C 6.273438 -24.019531 6.523438 -24.179688 6.890625 -24.140625 C 7.992188 -24.023438 8.660156 -23.453125 8.890625 -22.421875 C 8.960938 -22.160156 9 -21.421875 9 -20.203125 L 9.03125 -20 C 9.050781 -19.8125 9.0625 -19.660156 9.0625 -19.546875 C 9.09375 -19.347656 9.09375 -19.175781 9.0625 -19.03125 C 9.019531 -18.664062 8.875 -18.40625 8.625 -18.25 C 8.363281 -18.082031 8.039062 -18.019531 7.65625 -18.0625 C 7.5625 -18.09375 7.484375 -18.117188 7.421875 -18.140625 C 7.328125 -18.140625 7.253906 -18.140625 7.203125 -18.140625 C 6.742188 -18.140625 6.378906 -18.21875 6.109375 -18.375 C 5.785156 -18.5625 5.578125 -18.835938 5.484375 -19.203125 C 5.429688 -19.410156 5.40625 -19.6875 5.40625 -20.03125 C 5.40625 -20.082031 5.421875 -20.15625 5.453125 -20.25 C 5.453125 -20.332031 5.453125 -20.421875 5.453125 -20.515625 L 5.453125 -20.765625 C 5.453125 -21.035156 5.378906 -21.742188 5.234375 -22.890625 C 5.210938 -23.078125 5.269531 -23.253906 5.40625 -23.421875 C 5.53125 -23.578125 5.691406 -23.664062 5.890625 -23.6875 C 5.960938 -23.6875 6.046875 -23.675781 6.140625 -23.65625 Z M 6.6875 -11.234375 L 9 -11.234375 C 9.800781 -11.210938 10.398438 -11.066406 10.796875 -10.796875 C 11.296875 -10.472656 11.628906 -9.941406 11.796875 -9.203125 C 11.910156 -8.609375 11.957031 -7.710938 11.9375 -6.515625 C 11.90625 -5.921875 11.878906 -5.519531 11.859375 -5.3125 C 11.835938 -5.007812 11.804688 -4.753906 11.765625 -4.546875 C 11.648438 -4.179688 11.488281 -3.921875 11.28125 -3.765625 C 10.863281 -3.410156 10.367188 -3.429688 9.796875 -3.828125 L 9.34375 -4.109375 L 8.28125 -4.171875 C 7.5625 -4.191406 7.039062 -4.332031 6.71875 -4.59375 C 6.5625 -4.75 6.445312 -4.953125 6.375 -5.203125 C 6.351562 -5.335938 6.34375 -5.5 6.34375 -5.6875 C 6.34375 -5.800781 6.351562 -5.941406 6.375 -6.109375 L 6.375 -6.3125 C 6.375 -6.84375 6.328125 -7.519531 6.234375 -8.34375 C 6.117188 -9.289062 6.050781 -9.878906 6.03125 -10.109375 C 5.9375 -10.222656 5.890625 -10.359375 5.890625 -10.515625 C 5.890625 -10.722656 5.960938 -10.894531 6.109375 -11.03125 C 6.242188 -11.164062 6.414062 -11.234375 6.625 -11.234375 Z M 7.796875 -5.65625 C 7.773438 -5.726562 7.738281 -5.738281 7.6875 -5.6875 C 7.707031 -5.664062 7.742188 -5.65625 7.796875 -5.65625 Z M 7.796875 -5.625 C 7.796875 -5.570312 7.804688 -5.535156 7.828125 -5.515625 Z M 7.796875 -5.625 "/></g></g></g><g fill="#ffffff" fill-opacity="1"><g transform="translate(80.20777, 41.514298)"><g><path d="M 10.234375 -12.34375 L 10.421875 -12.625 C 10.484375 -12.757812 10.570312 -12.863281 10.6875 -12.9375 C 10.738281 -12.976562 10.820312 -13.035156 10.9375 -13.109375 L 11.28125 -13.3125 C 11.4375 -13.425781 11.609375 -13.472656 11.796875 -13.453125 C 12.023438 -13.546875 12.300781 -13.625 12.625 -13.6875 C 12.71875 -13.6875 12.9375 -13.722656 13.28125 -13.796875 C 13.488281 -13.816406 13.632812 -13.835938 13.71875 -13.859375 C 13.75 -13.859375 13.832031 -13.882812 13.96875 -13.9375 C 14.125 -14 14.257812 -14.039062 14.375 -14.0625 C 14.5625 -14.132812 14.734375 -14.171875 14.890625 -14.171875 C 15.210938 -14.171875 15.476562 -14.078125 15.6875 -13.890625 C 15.894531 -13.691406 15.976562 -13.414062 15.9375 -13.0625 L 15.890625 -12.96875 C 15.890625 -11.675781 15.960938 -10.078125 16.109375 -8.171875 C 16.128906 -7.753906 16.171875 -6.847656 16.234375 -5.453125 C 16.304688 -4.023438 16.390625 -2.921875 16.484375 -2.140625 C 16.484375 -2.117188 16.550781 -1.832031 16.6875 -1.28125 C 16.757812 -1 16.804688 -0.789062 16.828125 -0.65625 C 16.847656 -0.539062 16.859375 -0.4375 16.859375 -0.34375 C 16.878906 -0.1875 16.867188 -0.0351562 16.828125 0.109375 L 16.6875 0.3125 C 16.707031 0.375 16.734375 0.453125 16.765625 0.546875 C 16.785156 0.734375 16.738281 0.90625 16.625 1.0625 C 16.488281 1.226562 16.316406 1.320312 16.109375 1.34375 C 14.472656 1.53125 12.75 1.632812 10.9375 1.65625 C 9.09375 1.675781 7.019531 1.640625 4.71875 1.546875 C 2.394531 1.484375 0.6875 1.453125 -0.40625 1.453125 C -0.613281 1.453125 -0.789062 1.378906 -0.9375 1.234375 C -1.070312 1.097656 -1.140625 0.925781 -1.140625 0.71875 C -1.140625 0.601562 -1.101562 0.488281 -1.03125 0.375 C -1.082031 0.3125 -1.117188 0.234375 -1.140625 0.140625 C -1.203125 -0.429688 -1.25 -1.078125 -1.28125 -1.796875 C -1.300781 -2.503906 -1.300781 -3.078125 -1.28125 -3.515625 C -1.28125 -3.929688 -1.242188 -4.585938 -1.171875 -5.484375 C -1.128906 -6.378906 -1.09375 -6.941406 -1.0625 -7.171875 C -1.039062 -7.796875 -1.019531 -8.796875 -1 -10.171875 C -1 -11.066406 -0.988281 -11.78125 -0.96875 -12.3125 C -1.007812 -13.019531 -1.039062 -13.6875 -1.0625 -14.3125 C -1.09375 -14.75 -1.117188 -15.804688 -1.140625 -17.484375 C -1.179688 -19.160156 -1.238281 -20.457031 -1.3125 -21.375 C -1.3125 -21.46875 -1.320312 -22.226562 -1.34375 -23.65625 C -1.34375 -24.476562 -1.410156 -25.144531 -1.546875 -25.65625 C -1.617188 -25.863281 -1.597656 -26.0625 -1.484375 -26.25 C -1.390625 -26.40625 -1.25 -26.503906 -1.0625 -26.546875 L -1.03125 -26.546875 C -1.03125 -26.984375 -1 -27.332031 -0.9375 -27.59375 C -0.863281 -27.84375 -0.675781 -28.046875 -0.375 -28.203125 C -0.238281 -28.273438 -0.0546875 -28.332031 0.171875 -28.375 C 0.359375 -28.519531 0.566406 -28.554688 0.796875 -28.484375 C 1.066406 -28.503906 1.375 -28.523438 1.71875 -28.546875 C 2.664062 -28.597656 4.128906 -28.585938 6.109375 -28.515625 C 8.859375 -28.421875 10.421875 -28.375 10.796875 -28.375 C 12.359375 -28.351562 13.367188 -28.390625 13.828125 -28.484375 C 14.191406 -28.578125 14.421875 -28.625 14.515625 -28.625 C 15.066406 -28.664062 15.46875 -28.503906 15.71875 -28.140625 L 15.859375 -27.828125 C 15.859375 -27.785156 15.867188 -27.738281 15.890625 -27.6875 C 15.890625 -27.59375 15.90625 -27.46875 15.9375 -27.3125 C 15.957031 -27.007812 15.988281 -26.617188 16.03125 -26.140625 C 16.101562 -25.128906 16.171875 -23.976562 16.234375 -22.6875 C 16.304688 -21.289062 16.351562 -20.117188 16.375 -19.171875 C 16.40625 -18.640625 16.421875 -18.226562 16.421875 -17.9375 C 16.390625 -17.75 16.375 -17.609375 16.375 -17.515625 C 16.351562 -17.304688 16.320312 -17.15625 16.28125 -17.0625 C 16.132812 -16.789062 15.878906 -16.597656 15.515625 -16.484375 C 15.835938 -16.367188 16 -16.140625 16 -15.796875 C 16 -15.585938 15.929688 -15.414062 15.796875 -15.28125 C 15.660156 -15.132812 15.488281 -15.0625 15.28125 -15.0625 C 15.226562 -15.0625 15.007812 -15.050781 14.625 -15.03125 C 14.1875 -14.988281 13.828125 -14.96875 13.546875 -14.96875 C 13.066406 -14.96875 12.675781 -14.988281 12.375 -15.03125 C 11.851562 -15.125 11.5 -15.34375 11.3125 -15.6875 C 11.101562 -16.03125 11.078125 -16.582031 11.234375 -17.34375 C 11.285156 -17.570312 11.3125 -17.742188 11.3125 -17.859375 C 11.238281 -17.878906 11.144531 -17.90625 11.03125 -17.9375 C 10.664062 -17.957031 10.195312 -17.941406 9.625 -17.890625 C 8.445312 -17.828125 7.648438 -17.710938 7.234375 -17.546875 C 7.210938 -17.546875 7.179688 -17.535156 7.140625 -17.515625 C 7.117188 -16.804688 7.109375 -15.898438 7.109375 -14.796875 C 7.128906 -12.679688 7.160156 -11.1875 7.203125 -10.3125 L 7.34375 -10.234375 C 7.644531 -10.148438 8.035156 -10.082031 8.515625 -10.03125 C 8.910156 -10.007812 9.289062 -10 9.65625 -10 L 9.65625 -10.6875 C 9.632812 -11.050781 9.632812 -11.363281 9.65625 -11.625 C 9.675781 -11.988281 9.859375 -12.207031 10.203125 -12.28125 C 10.222656 -12.300781 10.234375 -12.320312 10.234375 -12.34375 Z M 0.890625 -3.6875 C 0.921875 -2.832031 0.945312 -2.015625 0.96875 -1.234375 C 1.726562 -1.285156 2.804688 -1.242188 4.203125 -1.109375 C 5.585938 -0.960938 6.40625 -0.890625 6.65625 -0.890625 C 7.28125 -0.867188 9.203125 -0.859375 12.421875 -0.859375 C 12.503906 -0.859375 12.773438 -0.835938 13.234375 -0.796875 C 13.742188 -0.742188 14.148438 -0.707031 14.453125 -0.6875 C 14.816406 -0.664062 15.113281 -0.664062 15.34375 -0.6875 L 15.3125 -0.890625 L 15.03125 -2 C 14.96875 -2.78125 14.898438 -3.882812 14.828125 -5.3125 C 14.734375 -6.738281 14.675781 -7.671875 14.65625 -8.109375 C 14.539062 -9.847656 14.472656 -11.34375 14.453125 -12.59375 L 14.421875 -12.59375 C 14.253906 -12.519531 14.160156 -12.484375 14.140625 -12.484375 C 13.972656 -12.441406 13.753906 -12.394531 13.484375 -12.34375 C 13.160156 -12.300781 12.960938 -12.265625 12.890625 -12.234375 C 12.523438 -12.171875 12.296875 -12.09375 12.203125 -12 C 12.085938 -11.90625 12.03125 -11.523438 12.03125 -10.859375 C 12.03125 -10.421875 12.007812 -10.078125 11.96875 -9.828125 C 11.832031 -9.347656 11.554688 -9.003906 11.140625 -8.796875 C 10.890625 -8.679688 10.488281 -8.597656 9.9375 -8.546875 C 9.445312 -8.523438 8.925781 -8.539062 8.375 -8.59375 C 7.800781 -8.65625 7.320312 -8.742188 6.9375 -8.859375 C 6.675781 -8.953125 6.457031 -9.046875 6.28125 -9.140625 C 6 -9.347656 5.835938 -9.597656 5.796875 -9.890625 C 5.722656 -10.535156 5.675781 -12.171875 5.65625 -14.796875 C 5.65625 -15.992188 5.664062 -16.96875 5.6875 -17.71875 C 5.707031 -18.15625 5.734375 -18.503906 5.765625 -18.765625 C 5.765625 -18.921875 5.773438 -19.046875 5.796875 -19.140625 C 5.816406 -19.328125 5.863281 -19.460938 5.9375 -19.546875 C 6 -19.710938 6.125 -19.84375 6.3125 -19.9375 C 6.40625 -19.976562 6.507812 -20.019531 6.625 -20.0625 C 6.832031 -20.113281 7.082031 -20.175781 7.375 -20.25 C 7.945312 -20.363281 8.628906 -20.460938 9.421875 -20.546875 C 10.222656 -20.640625 10.910156 -20.6875 11.484375 -20.6875 C 11.804688 -20.6875 12.082031 -20.675781 12.3125 -20.65625 C 12.675781 -20.582031 12.941406 -20.457031 13.109375 -20.28125 C 13.359375 -20.019531 13.492188 -19.648438 13.515625 -19.171875 L 13.515625 -19.03125 C 13.722656 -18.738281 13.710938 -18.453125 13.484375 -18.171875 C 13.484375 -18.148438 13.472656 -18.140625 13.453125 -18.140625 C 13.429688 -17.910156 13.429688 -17.75 13.453125 -17.65625 L 13.59375 -17.65625 C 13.820312 -17.65625 14.0625 -17.664062 14.3125 -17.6875 C 14.5625 -17.707031 14.769531 -17.742188 14.9375 -17.796875 C 14.9375 -17.835938 14.945312 -17.894531 14.96875 -17.96875 C 14.96875 -18.238281 14.957031 -18.628906 14.9375 -19.140625 C 14.90625 -20.054688 14.859375 -21.21875 14.796875 -22.625 C 14.722656 -23.882812 14.65625 -25.019531 14.59375 -26.03125 C 14.539062 -26.519531 14.503906 -26.898438 14.484375 -27.171875 C 14.460938 -27.171875 14.414062 -27.160156 14.34375 -27.140625 C 14.269531 -27.117188 14.210938 -27.109375 14.171875 -27.109375 C 13.578125 -26.960938 12.453125 -26.90625 10.796875 -26.9375 C 10.398438 -26.9375 8.820312 -26.976562 6.0625 -27.0625 C 4.113281 -27.132812 2.691406 -27.148438 1.796875 -27.109375 C 1.535156 -27.109375 1.316406 -27.09375 1.140625 -27.0625 C 0.953125 -26.28125 0.835938 -25.28125 0.796875 -24.0625 L 0.796875 -22.9375 C 1.066406 -20.75 1.210938 -19.519531 1.234375 -19.25 C 1.347656 -17.40625 1.328125 -14.976562 1.171875 -11.96875 C 1.015625 -8.269531 0.9375 -5.867188 0.9375 -4.765625 C 0.9375 -4.484375 0.921875 -4.125 0.890625 -3.6875 Z M 14.890625 -12.71875 L 14.96875 -12.71875 Z M 14.890625 -12.71875 "/></g></g></g><g fill="#ffffff" fill-opacity="1"><g transform="translate(100.519483, 41.514298)"><g><path d="M 14.0625 -0.28125 L 13.203125 0.40625 C 12.878906 0.664062 12.628906 0.898438 12.453125 1.109375 C 12.429688 1.128906 12.394531 1.148438 12.34375 1.171875 L 12.34375 1.203125 C 12.25 1.390625 12.113281 1.519531 11.9375 1.59375 C 11.75 1.65625 11.5625 1.640625 11.375 1.546875 C 10.800781 1.273438 9.914062 1.207031 8.71875 1.34375 C 8.539062 1.363281 8.003906 1.429688 7.109375 1.546875 C 6.441406 1.660156 5.921875 1.71875 5.546875 1.71875 C 5.046875 1.75 4.566406 1.738281 4.109375 1.6875 C 3.617188 1.664062 2.992188 1.597656 2.234375 1.484375 C 1.453125 1.390625 1.003906 1.34375 0.890625 1.34375 C 0.804688 1.320312 0.671875 1.320312 0.484375 1.34375 L -0.109375 1.34375 C -0.703125 1.300781 -1.171875 1.082031 -1.515625 0.6875 C -1.910156 0.226562 -2.109375 -0.492188 -2.109375 -1.484375 C -2.109375 -1.691406 -2.035156 -1.863281 -1.890625 -2 C -1.753906 -2.132812 -1.582031 -2.203125 -1.375 -2.203125 L -1.34375 -2.203125 C -1.34375 -2.390625 -1.363281 -3.390625 -1.40625 -5.203125 C -1.457031 -7.023438 -1.472656 -8.414062 -1.453125 -9.375 C -1.421875 -10.300781 -1.316406 -11.488281 -1.140625 -12.9375 L -1.140625 -15.765625 C -1.140625 -16.148438 -1.160156 -16.914062 -1.203125 -18.0625 C -1.253906 -19.21875 -1.253906 -20.21875 -1.203125 -21.0625 C -1.179688 -21.914062 -1.101562 -22.734375 -0.96875 -23.515625 C -1.125 -25.148438 -1.210938 -26.09375 -1.234375 -26.34375 C -1.234375 -26.507812 -1.203125 -26.648438 -1.140625 -26.765625 C -1.160156 -26.960938 -1.160156 -27.144531 -1.140625 -27.3125 C -1.140625 -27.445312 -1.113281 -27.570312 -1.0625 -27.6875 C -0.976562 -27.914062 -0.84375 -28.085938 -0.65625 -28.203125 C -0.375 -28.347656 0.015625 -28.421875 0.515625 -28.421875 C 0.585938 -28.441406 0.644531 -28.453125 0.6875 -28.453125 L 0.828125 -28.453125 C 1.171875 -28.453125 1.570312 -28.425781 2.03125 -28.375 C 2.332031 -28.351562 2.769531 -28.320312 3.34375 -28.28125 C 3.894531 -28.207031 4.265625 -28.171875 4.453125 -28.171875 C 4.585938 -28.171875 4.847656 -28.179688 5.234375 -28.203125 C 5.628906 -28.203125 6.113281 -28.21875 6.6875 -28.25 C 7.257812 -28.25 7.765625 -28.25 8.203125 -28.25 C 9.148438 -28.25 9.910156 -28.234375 10.484375 -28.203125 C 10.828125 -28.179688 11.113281 -28.148438 11.34375 -28.109375 C 11.6875 -28.035156 11.953125 -27.941406 12.140625 -27.828125 C 12.390625 -27.617188 12.6875 -27.320312 13.03125 -26.9375 C 13.445312 -26.476562 13.710938 -26.097656 13.828125 -25.796875 C 14.242188 -24.765625 14.453125 -23.363281 14.453125 -21.59375 C 14.453125 -21.445312 14.425781 -20.753906 14.375 -19.515625 C 14.351562 -18.710938 14.351562 -18.082031 14.375 -17.625 C 14.40625 -17.132812 14.476562 -16.46875 14.59375 -15.625 C 14.675781 -14.75 14.734375 -14.160156 14.765625 -13.859375 C 14.785156 -13.566406 14.828125 -13.144531 14.890625 -12.59375 C 14.960938 -12.039062 15.054688 -11.375 15.171875 -10.59375 C 15.285156 -9.8125 15.378906 -9.128906 15.453125 -8.546875 C 15.609375 -7.285156 15.710938 -6.265625 15.765625 -5.484375 C 15.828125 -4.421875 15.800781 -3.671875 15.6875 -3.234375 C 15.570312 -2.679688 15.132812 -1.898438 14.375 -0.890625 L 14.34375 -0.828125 C 14.34375 -0.597656 14.25 -0.414062 14.0625 -0.28125 Z M 5.375 -8.109375 C 5.238281 -8.628906 5.160156 -9.210938 5.140625 -9.859375 C 5.117188 -10.503906 5.117188 -11.21875 5.140625 -12 C 5.160156 -12.757812 5.171875 -13.289062 5.171875 -13.59375 C 5.171875 -14.09375 5.132812 -14.816406 5.0625 -15.765625 C 5 -16.703125 4.96875 -17.273438 4.96875 -17.484375 C 4.96875 -17.617188 4.941406 -17.894531 4.890625 -18.3125 C 4.847656 -18.726562 4.828125 -19.050781 4.828125 -19.28125 C 4.804688 -19.488281 4.804688 -19.785156 4.828125 -20.171875 C 4.898438 -20.722656 5.082031 -21.179688 5.375 -21.546875 C 5.71875 -21.960938 6.203125 -22.238281 6.828125 -22.375 C 6.847656 -22.40625 6.941406 -22.441406 7.109375 -22.484375 C 7.285156 -22.523438 7.445312 -22.5625 7.59375 -22.59375 C 7.789062 -22.65625 7.972656 -22.6875 8.140625 -22.6875 C 8.441406 -22.707031 8.679688 -22.660156 8.859375 -22.546875 C 9.023438 -22.460938 9.140625 -22.328125 9.203125 -22.140625 C 9.222656 -22.066406 9.25 -21.984375 9.28125 -21.890625 C 9.300781 -21.753906 9.332031 -21.5625 9.375 -21.3125 C 9.445312 -20.945312 9.519531 -20.441406 9.59375 -19.796875 C 9.632812 -19.453125 9.722656 -18.613281 9.859375 -17.28125 C 9.910156 -16.789062 10.035156 -15.132812 10.234375 -12.3125 C 10.328125 -11.070312 10.398438 -10.0625 10.453125 -9.28125 C 10.472656 -8.84375 10.492188 -8.507812 10.515625 -8.28125 L 10.515625 -7.796875 C 10.515625 -7.703125 10.492188 -7.617188 10.453125 -7.546875 C 10.265625 -7.109375 9.875 -6.820312 9.28125 -6.6875 C 8.9375 -6.59375 8.488281 -6.5625 7.9375 -6.59375 C 7.351562 -6.613281 6.613281 -6.691406 5.71875 -6.828125 C 5.539062 -6.867188 5.394531 -6.972656 5.28125 -7.140625 C 5.164062 -7.296875 5.117188 -7.476562 5.140625 -7.6875 C 5.179688 -7.851562 5.257812 -7.976562 5.375 -8.0625 Z M 7.34375 -19.828125 C 7.300781 -19.847656 7.253906 -19.859375 7.203125 -19.859375 L 6.421875 -19.859375 C 6.367188 -19.859375 6.320312 -19.867188 6.28125 -19.890625 C 6.25 -19.640625 6.269531 -19.238281 6.34375 -18.6875 C 6.394531 -18.132812 6.421875 -17.753906 6.421875 -17.546875 C 6.421875 -17.347656 6.453125 -16.773438 6.515625 -15.828125 C 6.585938 -14.859375 6.625 -14.113281 6.625 -13.59375 C 6.625 -13.175781 6.613281 -12.597656 6.59375 -11.859375 C 6.5625 -11.128906 6.5625 -10.5 6.59375 -9.96875 C 6.59375 -9.4375 6.648438 -8.929688 6.765625 -8.453125 C 6.804688 -8.359375 6.816406 -8.253906 6.796875 -8.140625 C 7.234375 -8.066406 7.632812 -8.03125 8 -8.03125 C 7.976562 -8.976562 7.863281 -10.40625 7.65625 -12.3125 C 7.40625 -14.445312 7.28125 -16.054688 7.28125 -17.140625 C 7.28125 -17.210938 7.289062 -17.335938 7.3125 -17.515625 C 7.3125 -17.679688 7.320312 -17.898438 7.34375 -18.171875 C 7.34375 -18.421875 7.34375 -18.640625 7.34375 -18.828125 Z M 7.890625 -21.171875 L 7.9375 -21.171875 L 7.9375 -21.203125 Z M 1.3125 -20.421875 C 1.332031 -19.796875 1.320312 -18.921875 1.28125 -17.796875 C 1.226562 -16.640625 1.203125 -15.992188 1.203125 -15.859375 C 1.179688 -14.253906 1.046875 -11.679688 0.796875 -8.140625 C 0.566406 -5.171875 0.4375 -2.894531 0.40625 -1.3125 C 1.21875 -1.332031 1.875 -1.332031 2.375 -1.3125 C 2.863281 -1.289062 3.679688 -1.253906 4.828125 -1.203125 C 5.972656 -1.140625 6.847656 -1.09375 7.453125 -1.0625 C 9.109375 -1 10.40625 -1.023438 11.34375 -1.140625 C 12.375 -1.253906 12.992188 -1.445312 13.203125 -1.71875 C 13.847656 -2.59375 14.21875 -3.21875 14.3125 -3.59375 C 14.382812 -3.882812 14.382812 -4.476562 14.3125 -5.375 C 14.257812 -6.132812 14.15625 -7.132812 14 -8.375 C 13.925781 -8.925781 13.847656 -9.609375 13.765625 -10.421875 C 13.648438 -11.222656 13.554688 -11.910156 13.484375 -12.484375 C 13.390625 -13.035156 13.332031 -13.445312 13.3125 -13.71875 C 13.289062 -14.019531 13.234375 -14.617188 13.140625 -15.515625 C 13.023438 -16.390625 12.957031 -17.066406 12.9375 -17.546875 C 12.90625 -18.054688 12.90625 -18.722656 12.9375 -19.546875 C 12.976562 -20.796875 13 -21.476562 13 -21.59375 C 13 -23.175781 12.835938 -24.394531 12.515625 -25.25 C 12.453125 -25.382812 12.269531 -25.625 11.96875 -25.96875 C 11.6875 -26.269531 11.457031 -26.488281 11.28125 -26.625 C 11.226562 -26.644531 11.171875 -26.664062 11.109375 -26.6875 C 10.921875 -26.707031 10.675781 -26.734375 10.375 -26.765625 C 9.851562 -26.785156 9.128906 -26.796875 8.203125 -26.796875 C 7.765625 -26.796875 7.257812 -26.796875 6.6875 -26.796875 C 6.09375 -26.773438 5.597656 -26.765625 5.203125 -26.765625 C 4.816406 -26.734375 4.539062 -26.71875 4.375 -26.71875 C 4.21875 -26.71875 3.851562 -26.753906 3.28125 -26.828125 C 2.675781 -26.867188 2.226562 -26.90625 1.9375 -26.9375 C 1.75 -26.957031 1.570312 -26.96875 1.40625 -26.96875 C 1.40625 -26.226562 1.394531 -25.132812 1.375 -23.6875 C 1.332031 -22.21875 1.3125 -21.128906 1.3125 -20.421875 Z M 1.3125 -20.421875 "/></g></g></g><g fill="#ffffff" fill-opacity="1"><g transform="translate(33.184449, 88.40657)"><g><path d="M 9.109375 -0.171875 C 9.035156 -0.128906 8.921875 -0.09375 8.765625 -0.0625 C 8.578125 -0.0195312 8.390625 0.0078125 8.203125 0.03125 C 8.023438 0.0507812 7.851562 0.0625 7.6875 0.0625 L 7.28125 0.0625 C 7.207031 0.0625 7.078125 0.0390625 6.890625 0 C 6.691406 -0.0195312 6.488281 -0.0390625 6.28125 -0.0625 C 6.050781 -0.09375 5.84375 -0.117188 5.65625 -0.140625 C 5.46875 -0.140625 5.34375 -0.140625 5.28125 -0.140625 C 5.226562 -0.140625 5.210938 -0.148438 5.234375 -0.171875 C 5.234375 -0.171875 5.222656 -0.171875 5.203125 -0.171875 L 4.9375 -0.171875 C 4.789062 -0.171875 4.648438 -0.160156 4.515625 -0.140625 C 4.359375 -0.117188 4.222656 -0.09375 4.109375 -0.0625 C 3.960938 -0.0390625 3.859375 -0.03125 3.796875 -0.03125 C 3.609375 -0.0078125 3.4375 0.0078125 3.28125 0.03125 C 3.113281 0.0507812 2.941406 0.0625 2.765625 0.0625 C 2.347656 0.0625 1.96875 -0.00390625 1.625 -0.140625 C 1.4375 -0.179688 1.226562 -0.332031 1 -0.59375 C 0.769531 -0.84375 0.632812 -1.054688 0.59375 -1.234375 C 0.519531 -1.554688 0.519531 -1.878906 0.59375 -2.203125 C 0.65625 -2.503906 0.722656 -2.804688 0.796875 -3.109375 C 0.890625 -3.472656 0.921875 -3.835938 0.890625 -4.203125 C 0.867188 -4.578125 0.8125 -4.9375 0.71875 -5.28125 C 0.65625 -5.644531 0.632812 -6.023438 0.65625 -6.421875 C 0.65625 -6.804688 0.769531 -7.140625 1 -7.421875 C 1.1875 -7.597656 1.453125 -7.742188 1.796875 -7.859375 C 2.117188 -7.972656 2.40625 -8.03125 2.65625 -8.03125 C 2.90625 -8.03125 3.15625 -8.019531 3.40625 -8 C 3.644531 -7.957031 3.878906 -7.910156 4.109375 -7.859375 C 4.796875 -9.441406 5.484375 -11.019531 6.171875 -12.59375 C 6.859375 -14.15625 7.5625 -15.726562 8.28125 -17.3125 C 7.882812 -17.238281 7.503906 -17.15625 7.140625 -17.0625 C 6.773438 -16.945312 6.394531 -16.914062 6 -16.96875 C 5.90625 -16.988281 5.789062 -17.019531 5.65625 -17.0625 C 5.488281 -17.09375 5.335938 -17.140625 5.203125 -17.203125 C 5.046875 -17.253906 4.910156 -17.328125 4.796875 -17.421875 C 4.660156 -17.484375 4.566406 -17.550781 4.515625 -17.625 C 4.210938 -18.082031 4.085938 -18.597656 4.140625 -19.171875 C 4.160156 -19.265625 4.207031 -19.472656 4.28125 -19.796875 C 4.34375 -20.117188 4.375 -20.328125 4.375 -20.421875 C 4.445312 -20.941406 4.4375 -21.429688 4.34375 -21.890625 C 4.25 -22.210938 4.171875 -22.523438 4.109375 -22.828125 C 4.035156 -23.128906 4.035156 -23.441406 4.109375 -23.765625 C 4.148438 -23.992188 4.265625 -24.195312 4.453125 -24.375 C 4.609375 -24.539062 4.78125 -24.691406 4.96875 -24.828125 C 5.03125 -24.867188 5.144531 -24.914062 5.3125 -24.96875 C 5.46875 -24.988281 5.640625 -25.007812 5.828125 -25.03125 C 6.015625 -25.050781 6.195312 -25.0625 6.375 -25.0625 L 6.765625 -25.0625 C 6.828125 -25.0625 6.960938 -25.050781 7.171875 -25.03125 C 7.359375 -24.988281 7.566406 -24.957031 7.796875 -24.9375 C 8.003906 -24.90625 8.210938 -24.890625 8.421875 -24.890625 C 8.597656 -24.867188 8.722656 -24.859375 8.796875 -24.859375 C 8.816406 -24.859375 8.828125 -24.859375 8.828125 -24.859375 C 8.804688 -24.835938 8.804688 -24.828125 8.828125 -24.828125 L 9.140625 -24.828125 C 9.203125 -24.828125 9.296875 -24.835938 9.421875 -24.859375 C 9.941406 -24.929688 10.46875 -24.988281 11 -25.03125 C 11.507812 -25.050781 12.023438 -25.039062 12.546875 -25 C 12.617188 -25 12.734375 -24.988281 12.890625 -24.96875 C 13.035156 -24.945312 13.195312 -24.921875 13.375 -24.890625 L 13.9375 -24.828125 C 14.113281 -24.804688 14.25 -24.796875 14.34375 -24.796875 L 14.546875 -24.796875 C 14.734375 -24.796875 14.976562 -24.816406 15.28125 -24.859375 C 15.570312 -24.878906 15.765625 -24.90625 15.859375 -24.9375 C 16.023438 -24.957031 16.1875 -24.976562 16.34375 -25 C 16.507812 -25 16.679688 -25 16.859375 -25 C 17.066406 -25 17.273438 -24.988281 17.484375 -24.96875 C 17.691406 -24.945312 17.882812 -24.898438 18.0625 -24.828125 C 18.25 -24.753906 18.457031 -24.59375 18.6875 -24.34375 C 18.894531 -24.09375 19.019531 -23.875 19.0625 -23.6875 C 19.132812 -23.363281 19.132812 -23.054688 19.0625 -22.765625 C 19 -22.460938 18.929688 -22.148438 18.859375 -21.828125 C 18.765625 -21.484375 18.742188 -21.128906 18.796875 -20.765625 C 18.816406 -20.390625 18.863281 -20.019531 18.9375 -19.65625 C 19.019531 -19.3125 19.0625 -18.941406 19.0625 -18.546875 C 19.039062 -18.140625 18.914062 -17.804688 18.6875 -17.546875 C 18.664062 -17.503906 18.617188 -17.472656 18.546875 -17.453125 C 18.484375 -17.398438 18.441406 -17.363281 18.421875 -17.34375 C 18.160156 -17.15625 17.882812 -17.039062 17.59375 -17 C 17.289062 -16.925781 16.988281 -16.90625 16.6875 -16.9375 C 16.382812 -16.9375 16.097656 -16.976562 15.828125 -17.0625 C 15.523438 -17.132812 15.226562 -17.195312 14.9375 -17.25 L 19.0625 -7.828125 C 19.320312 -7.867188 19.585938 -7.925781 19.859375 -8 C 20.140625 -8.039062 20.40625 -8.0625 20.65625 -8.0625 C 20.90625 -8.0625 21.238281 -8.003906 21.65625 -7.890625 C 22.070312 -7.773438 22.335938 -7.628906 22.453125 -7.453125 C 22.742188 -6.992188 22.867188 -6.472656 22.828125 -5.890625 C 22.804688 -5.804688 22.757812 -5.601562 22.6875 -5.28125 C 22.625 -4.957031 22.59375 -4.75 22.59375 -4.65625 C 22.519531 -4.125 22.53125 -3.628906 22.625 -3.171875 C 22.6875 -2.847656 22.753906 -2.535156 22.828125 -2.234375 C 22.898438 -1.921875 22.898438 -1.613281 22.828125 -1.3125 C 22.785156 -1.082031 22.679688 -0.882812 22.515625 -0.71875 C 22.359375 -0.539062 22.1875 -0.378906 22 -0.234375 C 21.84375 -0.117188 21.554688 -0.0507812 21.140625 -0.03125 C 20.703125 0.0078125 20.378906 0.0195312 20.171875 0 C 19.734375 -0.0390625 19.296875 -0.0976562 18.859375 -0.171875 C 18.421875 -0.210938 17.984375 -0.210938 17.546875 -0.171875 C 17.222656 -0.128906 16.914062 -0.0820312 16.625 -0.03125 C 16.300781 0.0078125 15.976562 0.03125 15.65625 0.03125 C 15.21875 0.03125 14.835938 -0.0234375 14.515625 -0.140625 C 14.328125 -0.203125 14.132812 -0.363281 13.9375 -0.625 C 13.707031 -0.875 13.566406 -1.09375 13.515625 -1.28125 C 13.453125 -1.601562 13.453125 -1.910156 13.515625 -2.203125 C 13.585938 -2.503906 13.65625 -2.816406 13.71875 -3.140625 C 13.8125 -3.503906 13.847656 -3.867188 13.828125 -4.234375 C 13.785156 -4.609375 13.726562 -4.96875 13.65625 -5.3125 C 13.582031 -5.65625 13.546875 -6.035156 13.546875 -6.453125 C 13.546875 -6.835938 13.675781 -7.171875 13.9375 -7.453125 C 13.957031 -7.492188 14.023438 -7.550781 14.140625 -7.625 C 14.234375 -7.664062 14.300781 -7.695312 14.34375 -7.71875 C 14.226562 -8.039062 14.125 -8.363281 14.03125 -8.6875 C 13.9375 -8.988281 13.847656 -9.300781 13.765625 -9.625 L 9.421875 -9.625 C 9.328125 -9.300781 9.242188 -9 9.171875 -8.71875 C 9.078125 -8.425781 8.972656 -8.117188 8.859375 -7.796875 C 8.929688 -7.773438 9.046875 -7.71875 9.203125 -7.625 C 9.367188 -7.53125 9.472656 -7.445312 9.515625 -7.375 C 9.835938 -6.875 9.960938 -6.359375 9.890625 -5.828125 C 9.867188 -5.734375 9.835938 -5.523438 9.796875 -5.203125 C 9.722656 -4.878906 9.675781 -4.675781 9.65625 -4.59375 C 9.613281 -4.332031 9.601562 -4.085938 9.625 -3.859375 C 9.625 -3.609375 9.65625 -3.359375 9.71875 -3.109375 C 9.789062 -2.785156 9.863281 -2.472656 9.9375 -2.171875 C 10 -1.867188 10 -1.554688 9.9375 -1.234375 C 9.882812 -1.003906 9.78125 -0.8125 9.625 -0.65625 C 9.457031 -0.46875 9.285156 -0.304688 9.109375 -0.171875 Z M 12.796875 -12.6875 C 12.609375 -13.351562 12.410156 -14.019531 12.203125 -14.6875 C 11.992188 -15.332031 11.789062 -15.988281 11.59375 -16.65625 C 11.40625 -16.007812 11.207031 -15.363281 11 -14.71875 C 10.789062 -14.082031 10.597656 -13.441406 10.421875 -12.796875 Z M 12.796875 -12.6875 "/></g></g></g><g fill="#ffffff" fill-opacity="1"><g transform="translate(56.628517, 88.40657)"><g><path d="M 14.6875 -1.109375 C 13.769531 -0.578125 12.78125 -0.21875 11.71875 -0.03125 C 10.644531 0.175781 9.585938 0.253906 8.546875 0.203125 C 8.460938 0.203125 8.289062 0.171875 8.03125 0.109375 C 7.78125 0.0546875 7.515625 0 7.234375 -0.0625 C 6.960938 -0.113281 6.703125 -0.160156 6.453125 -0.203125 C 6.191406 -0.222656 6.019531 -0.234375 5.9375 -0.234375 C 5.46875 -0.171875 5.03125 -0.0820312 4.625 0.03125 C 4.1875 0.144531 3.738281 0.179688 3.28125 0.140625 C 3.09375 0.117188 2.828125 0.0507812 2.484375 -0.0625 C 2.140625 -0.175781 1.910156 -0.316406 1.796875 -0.484375 C 1.492188 -0.941406 1.363281 -1.457031 1.40625 -2.03125 C 1.40625 -2.082031 1.429688 -2.164062 1.484375 -2.28125 C 1.503906 -2.394531 1.523438 -2.519531 1.546875 -2.65625 C 1.578125 -2.789062 1.601562 -2.925781 1.625 -3.0625 C 1.644531 -3.175781 1.65625 -3.25 1.65625 -3.28125 C 1.695312 -3.53125 1.71875 -3.78125 1.71875 -4.03125 C 1.695312 -4.28125 1.65625 -4.535156 1.59375 -4.796875 C 1.519531 -5.085938 1.445312 -5.394531 1.375 -5.71875 C 1.3125 -6.019531 1.3125 -6.332031 1.375 -6.65625 C 1.425781 -6.863281 1.53125 -7.054688 1.6875 -7.234375 C 1.851562 -7.398438 2.023438 -7.550781 2.203125 -7.6875 C 2.367188 -7.800781 2.644531 -7.882812 3.03125 -7.9375 C 3.425781 -7.957031 3.710938 -7.957031 3.890625 -7.9375 L 3.890625 -17.140625 C 3.660156 -17.140625 3.429688 -17.148438 3.203125 -17.171875 C 2.972656 -17.171875 2.742188 -17.21875 2.515625 -17.3125 C 2.328125 -17.382812 2.132812 -17.546875 1.9375 -17.796875 C 1.707031 -18.023438 1.566406 -18.242188 1.515625 -18.453125 C 1.441406 -18.742188 1.441406 -19.050781 1.515625 -19.375 C 1.585938 -19.675781 1.65625 -19.988281 1.71875 -20.3125 C 1.8125 -20.65625 1.847656 -21.007812 1.828125 -21.375 C 1.785156 -21.75 1.726562 -22.117188 1.65625 -22.484375 C 1.582031 -22.828125 1.546875 -23.195312 1.546875 -23.59375 C 1.546875 -23.976562 1.675781 -24.3125 1.9375 -24.59375 C 2.070312 -24.769531 2.332031 -24.925781 2.71875 -25.0625 C 3.09375 -25.1875 3.382812 -25.25 3.59375 -25.25 C 4 -25.21875 4.410156 -25.15625 4.828125 -25.0625 C 5.242188 -24.976562 5.644531 -24.910156 6.03125 -24.859375 C 6.125 -24.835938 6.273438 -24.847656 6.484375 -24.890625 C 6.691406 -24.921875 6.910156 -24.957031 7.140625 -25 C 7.347656 -25.019531 7.554688 -25.054688 7.765625 -25.109375 C 7.960938 -25.148438 8.109375 -25.179688 8.203125 -25.203125 C 8.316406 -25.253906 8.445312 -25.28125 8.59375 -25.28125 L 8.96875 -25.28125 C 9.90625 -25.300781 10.847656 -25.226562 11.796875 -25.0625 C 12.710938 -24.882812 13.597656 -24.585938 14.453125 -24.171875 C 15.160156 -23.804688 15.828125 -23.335938 16.453125 -22.765625 C 17.046875 -22.160156 17.46875 -21.492188 17.71875 -20.765625 C 17.90625 -20.210938 18.007812 -19.632812 18.03125 -19.03125 C 18.050781 -18.4375 17.972656 -17.863281 17.796875 -17.3125 C 17.609375 -16.664062 17.296875 -16.066406 16.859375 -15.515625 C 16.421875 -14.960938 15.941406 -14.476562 15.421875 -14.0625 C 14.984375 -13.71875 14.519531 -13.421875 14.03125 -13.171875 C 13.53125 -12.921875 13.015625 -12.703125 12.484375 -12.515625 C 13.191406 -12.265625 13.878906 -11.941406 14.546875 -11.546875 C 15.191406 -11.160156 15.769531 -10.691406 16.28125 -10.140625 C 16.625 -9.742188 16.929688 -9.316406 17.203125 -8.859375 C 17.484375 -8.378906 17.679688 -7.875 17.796875 -7.34375 C 17.929688 -6.675781 17.941406 -5.988281 17.828125 -5.28125 C 17.710938 -4.5625 17.472656 -3.914062 17.109375 -3.34375 C 16.804688 -2.863281 16.445312 -2.4375 16.03125 -2.0625 C 15.59375 -1.675781 15.144531 -1.359375 14.6875 -1.109375 Z M 8.421875 -16.96875 C 8.421875 -16.550781 8.429688 -16.132812 8.453125 -15.71875 C 8.453125 -15.3125 8.453125 -14.890625 8.453125 -14.453125 C 8.773438 -14.453125 9.097656 -14.472656 9.421875 -14.515625 C 9.734375 -14.535156 10.03125 -14.628906 10.3125 -14.796875 C 10.695312 -15.046875 10.960938 -15.390625 11.109375 -15.828125 C 11.222656 -16.242188 11.109375 -16.597656 10.765625 -16.890625 C 10.648438 -17.003906 10.519531 -17.085938 10.375 -17.140625 C 10.21875 -17.179688 10.054688 -17.21875 9.890625 -17.25 C 9.640625 -17.25 9.398438 -17.222656 9.171875 -17.171875 C 8.921875 -17.097656 8.671875 -17.03125 8.421875 -16.96875 Z M 8.625 -8 L 9.375 -7.859375 C 9.632812 -7.816406 9.890625 -7.828125 10.140625 -7.890625 C 10.410156 -7.960938 10.617188 -8.101562 10.765625 -8.3125 C 10.898438 -8.5 10.96875 -8.71875 10.96875 -8.96875 C 10.96875 -9.195312 10.910156 -9.425781 10.796875 -9.65625 C 10.660156 -9.882812 10.460938 -10.078125 10.203125 -10.234375 C 9.953125 -10.398438 9.691406 -10.503906 9.421875 -10.546875 C 9.117188 -10.597656 8.828125 -10.625 8.546875 -10.625 C 8.578125 -10.1875 8.59375 -9.757812 8.59375 -9.34375 C 8.59375 -8.90625 8.601562 -8.457031 8.625 -8 Z M 8.625 -8 "/></g></g></g><g fill="#ffffff" fill-opacity="1"><g transform="translate(75.935396, 88.40657)"><g><path d="M 12.375 0.0625 C 12.164062 0.09375 11.960938 0.109375 11.765625 0.109375 C 11.554688 0.128906 11.335938 0.140625 11.109375 0.140625 C 10.347656 0.140625 9.566406 0.0546875 8.765625 -0.109375 C 7.929688 -0.265625 7.148438 -0.515625 6.421875 -0.859375 C 5.660156 -1.179688 4.976562 -1.609375 4.375 -2.140625 C 3.757812 -2.671875 3.289062 -3.3125 2.96875 -4.0625 C 2.320312 -5.507812 1.875 -7.019531 1.625 -8.59375 C 1.34375 -10.15625 1.210938 -11.726562 1.234375 -13.3125 C 1.265625 -14.644531 1.40625 -15.976562 1.65625 -17.3125 C 1.90625 -18.625 2.296875 -19.898438 2.828125 -21.140625 C 3.148438 -21.898438 3.617188 -22.554688 4.234375 -23.109375 C 4.835938 -23.628906 5.53125 -24.066406 6.3125 -24.421875 C 7.070312 -24.734375 7.875 -24.972656 8.71875 -25.140625 C 9.550781 -25.296875 10.347656 -25.375 11.109375 -25.375 C 11.546875 -25.375 11.96875 -25.34375 12.375 -25.28125 C 12.445312 -25.257812 12.578125 -25.234375 12.765625 -25.203125 C 12.941406 -25.160156 13.132812 -25.128906 13.34375 -25.109375 L 13.9375 -25 C 14.113281 -24.957031 14.257812 -24.9375 14.375 -24.9375 C 14.8125 -24.976562 15.238281 -25.054688 15.65625 -25.171875 C 16.070312 -25.285156 16.5 -25.332031 16.9375 -25.3125 C 17.019531 -25.3125 17.144531 -25.289062 17.3125 -25.25 C 17.445312 -25.195312 17.597656 -25.132812 17.765625 -25.0625 C 17.898438 -25 18.035156 -24.929688 18.171875 -24.859375 C 18.304688 -24.796875 18.410156 -24.726562 18.484375 -24.65625 C 18.671875 -24.46875 18.785156 -24.25 18.828125 -24 C 18.867188 -23.75 18.878906 -23.5 18.859375 -23.25 C 18.816406 -22.875 18.757812 -22.515625 18.6875 -22.171875 C 18.625 -21.828125 18.59375 -21.472656 18.59375 -21.109375 C 18.613281 -20.785156 18.671875 -20.484375 18.765625 -20.203125 C 18.828125 -19.910156 18.882812 -19.601562 18.9375 -19.28125 C 18.957031 -19.09375 18.96875 -18.921875 18.96875 -18.765625 C 18.945312 -18.597656 18.898438 -18.4375 18.828125 -18.28125 C 18.597656 -17.863281 18.3125 -17.585938 17.96875 -17.453125 C 17.601562 -17.285156 17.203125 -17.203125 16.765625 -17.203125 C 16.441406 -17.203125 16.128906 -17.226562 15.828125 -17.28125 C 15.503906 -17.320312 15.179688 -17.367188 14.859375 -17.421875 C 14.609375 -17.441406 14.367188 -17.453125 14.140625 -17.453125 C 13.890625 -17.429688 13.632812 -17.394531 13.375 -17.34375 C 13.164062 -17.09375 12.890625 -16.96875 12.546875 -16.96875 C 12.316406 -16.945312 12.097656 -16.976562 11.890625 -17.0625 C 11.660156 -17.132812 11.429688 -17.195312 11.203125 -17.25 C 10.878906 -17.3125 10.546875 -17.3125 10.203125 -17.25 C 10.046875 -17.21875 9.863281 -17.132812 9.65625 -17 C 9.445312 -16.84375 9.25 -16.660156 9.0625 -16.453125 C 8.863281 -16.242188 8.679688 -16.035156 8.515625 -15.828125 C 8.359375 -15.597656 8.234375 -15.414062 8.140625 -15.28125 C 7.566406 -14.289062 7.382812 -13.21875 7.59375 -12.0625 C 7.707031 -11.351562 7.957031 -10.6875 8.34375 -10.0625 C 8.738281 -9.425781 9.1875 -8.84375 9.6875 -8.3125 C 9.820312 -8.175781 10.003906 -8.070312 10.234375 -8 C 10.441406 -7.925781 10.648438 -7.90625 10.859375 -7.9375 C 11.109375 -7.9375 11.375 -7.96875 11.65625 -8.03125 C 11.90625 -8.101562 12.160156 -8.160156 12.421875 -8.203125 C 12.734375 -8.296875 13.019531 -8.25 13.28125 -8.0625 C 13.320312 -8.039062 13.367188 -8.007812 13.421875 -7.96875 C 13.460938 -7.894531 13.503906 -7.859375 13.546875 -7.859375 C 13.828125 -7.816406 14.101562 -7.796875 14.375 -7.796875 C 14.65625 -7.796875 14.929688 -7.816406 15.203125 -7.859375 C 15.484375 -7.910156 15.757812 -7.957031 16.03125 -8 C 16.3125 -8.019531 16.585938 -8.03125 16.859375 -8.03125 C 17.316406 -8.03125 17.765625 -7.941406 18.203125 -7.765625 C 18.617188 -7.578125 18.894531 -7.226562 19.03125 -6.71875 C 19.125 -6.394531 19.125 -6.0625 19.03125 -5.71875 C 18.914062 -5.375 18.835938 -5.039062 18.796875 -4.71875 C 18.722656 -4.394531 18.695312 -4.085938 18.71875 -3.796875 C 18.75 -3.492188 18.785156 -3.179688 18.828125 -2.859375 C 18.867188 -2.585938 18.914062 -2.3125 18.96875 -2.03125 C 18.988281 -1.757812 18.976562 -1.492188 18.9375 -1.234375 C 18.882812 -1.078125 18.828125 -0.929688 18.765625 -0.796875 C 18.691406 -0.628906 18.585938 -0.5 18.453125 -0.40625 C 17.941406 -0.0390625 17.363281 0.113281 16.71875 0.0625 C 16.332031 0.0390625 15.96875 -0.015625 15.625 -0.109375 C 15.25 -0.191406 14.867188 -0.257812 14.484375 -0.3125 C 14.410156 -0.3125 14.269531 -0.300781 14.0625 -0.28125 C 13.863281 -0.226562 13.648438 -0.179688 13.421875 -0.140625 C 13.179688 -0.0859375 12.972656 -0.0390625 12.796875 0 C 12.585938 0.0390625 12.445312 0.0625 12.375 0.0625 Z M 12.375 0.0625 "/></g></g></g><g fill="#ffffff" fill-opacity="1"><g transform="translate(96.311052, 88.40657)"><g><path d="M 10.65625 0.03125 C 10.175781 0.0820312 9.691406 0.117188 9.203125 0.140625 C 8.722656 0.160156 8.253906 0.113281 7.796875 0 C 7.722656 0 7.597656 -0.0195312 7.421875 -0.0625 C 7.234375 -0.09375 7.046875 -0.128906 6.859375 -0.171875 C 6.648438 -0.191406 6.46875 -0.226562 6.3125 -0.28125 C 6.125 -0.300781 6 -0.3125 5.9375 -0.3125 C 5.539062 -0.257812 5.171875 -0.191406 4.828125 -0.109375 C 4.484375 -0.015625 4.128906 0.0390625 3.765625 0.0625 C 3.460938 0.09375 3.09375 0.0351562 2.65625 -0.109375 C 2.195312 -0.222656 1.882812 -0.40625 1.71875 -0.65625 C 1.539062 -0.925781 1.453125 -1.25 1.453125 -1.625 C 1.421875 -1.988281 1.441406 -2.34375 1.515625 -2.6875 C 1.585938 -3.007812 1.644531 -3.34375 1.6875 -3.6875 C 1.707031 -4.007812 1.6875 -4.332031 1.625 -4.65625 C 1.570312 -5 1.5 -5.34375 1.40625 -5.6875 C 1.320312 -6.03125 1.3125 -6.375 1.375 -6.71875 C 1.425781 -6.90625 1.566406 -7.125 1.796875 -7.375 C 2.023438 -7.601562 2.226562 -7.753906 2.40625 -7.828125 C 2.644531 -7.941406 2.890625 -8.007812 3.140625 -8.03125 C 3.390625 -8.03125 3.640625 -8.019531 3.890625 -8 L 3.890625 -17.203125 C 3.503906 -17.160156 3.113281 -17.195312 2.71875 -17.3125 C 2.394531 -17.40625 2.117188 -17.578125 1.890625 -17.828125 C 1.660156 -18.078125 1.523438 -18.363281 1.484375 -18.6875 C 1.429688 -18.96875 1.441406 -19.253906 1.515625 -19.546875 C 1.585938 -19.828125 1.65625 -20.101562 1.71875 -20.375 C 1.789062 -20.695312 1.828125 -21.03125 1.828125 -21.375 C 1.804688 -21.71875 1.757812 -22.050781 1.6875 -22.375 C 1.644531 -22.632812 1.613281 -22.898438 1.59375 -23.171875 C 1.539062 -23.453125 1.539062 -23.726562 1.59375 -24 C 1.65625 -24.34375 1.8125 -24.609375 2.0625 -24.796875 C 2.320312 -24.972656 2.597656 -25.109375 2.890625 -25.203125 C 3.191406 -25.273438 3.503906 -25.3125 3.828125 -25.3125 C 4.210938 -25.289062 4.59375 -25.234375 4.96875 -25.140625 C 5.3125 -25.023438 5.664062 -24.957031 6.03125 -24.9375 C 6.101562 -24.9375 6.242188 -24.945312 6.453125 -24.96875 C 6.660156 -24.988281 6.878906 -25.019531 7.109375 -25.0625 C 7.335938 -25.113281 7.554688 -25.160156 7.765625 -25.203125 C 7.960938 -25.253906 8.097656 -25.28125 8.171875 -25.28125 C 9.160156 -25.394531 10.160156 -25.382812 11.171875 -25.25 C 12.179688 -25.082031 13.144531 -24.804688 14.0625 -24.421875 C 14.800781 -24.097656 15.492188 -23.660156 16.140625 -23.109375 C 16.785156 -22.535156 17.269531 -21.878906 17.59375 -21.140625 C 17.90625 -20.378906 18.179688 -19.597656 18.421875 -18.796875 C 18.617188 -17.992188 18.773438 -17.1875 18.890625 -16.375 C 19.210938 -14.351562 19.269531 -12.304688 19.0625 -10.234375 C 18.832031 -8.171875 18.328125 -6.207031 17.546875 -4.34375 C 17.160156 -3.375 16.539062 -2.546875 15.6875 -1.859375 C 15 -1.285156 14.21875 -0.847656 13.34375 -0.546875 C 12.445312 -0.253906 11.550781 -0.0625 10.65625 0.03125 Z M 8.625 -8.109375 C 8.832031 -8.054688 9.050781 -8.007812 9.28125 -7.96875 C 9.507812 -7.894531 9.738281 -7.882812 9.96875 -7.9375 C 10.101562 -7.976562 10.238281 -8.019531 10.375 -8.0625 C 10.488281 -8.113281 10.59375 -8.195312 10.6875 -8.3125 C 11.195312 -8.8125 11.644531 -9.375 12.03125 -10 C 12.40625 -10.625 12.671875 -11.28125 12.828125 -11.96875 C 12.921875 -12.425781 12.941406 -12.894531 12.890625 -13.375 C 12.847656 -13.832031 12.734375 -14.269531 12.546875 -14.6875 C 12.335938 -15.175781 12.078125 -15.632812 11.765625 -16.0625 C 11.410156 -16.476562 11.019531 -16.828125 10.59375 -17.109375 C 10.476562 -17.171875 10.347656 -17.21875 10.203125 -17.25 C 10.066406 -17.269531 9.941406 -17.289062 9.828125 -17.3125 C 9.578125 -17.3125 9.335938 -17.273438 9.109375 -17.203125 C 8.878906 -17.140625 8.648438 -17.082031 8.421875 -17.03125 C 8.460938 -15.539062 8.492188 -14.0625 8.515625 -12.59375 C 8.535156 -11.09375 8.570312 -9.597656 8.625 -8.109375 Z M 8.625 -8.109375 "/></g></g></g><g fill="#ffffff" fill-opacity="1"><g transform="translate(28.562674, 128.528441)"><g><path d="M 12.375 -6.4375 C 13.164062 -6.457031 13.8125 -6.578125 14.3125 -6.796875 C 14.8125 -7.015625 15.097656 -7.472656 15.171875 -8.171875 L 16.359375 -17.953125 C 16.441406 -18.710938 16.320312 -19.304688 16 -19.734375 C 15.6875 -20.171875 15.234375 -20.332031 14.640625 -20.21875 C 14.253906 -20.144531 13.890625 -19.90625 13.546875 -19.5 C 13.203125 -19.09375 12.90625 -18.65625 12.65625 -18.1875 C 12.414062 -17.71875 12.222656 -17.335938 12.078125 -17.046875 L 8.734375 -10.1875 C 8.429688 -9.582031 8.078125 -9.125 7.671875 -8.8125 C 7.273438 -8.5 6.863281 -8.285156 6.4375 -8.171875 C 6.007812 -8.066406 5.625 -8.015625 5.28125 -8.015625 C 4.46875 -8.015625 3.769531 -8.3125 3.1875 -8.90625 C 2.613281 -9.507812 2.328125 -10.234375 2.328125 -11.078125 C 2.328125 -11.671875 2.519531 -12.238281 2.90625 -12.78125 C 3.289062 -13.320312 3.796875 -13.847656 4.421875 -14.359375 L 9.96875 -18.78125 C 10.78125 -19.425781 11.457031 -19.9375 12 -20.3125 C 12.539062 -20.695312 13.054688 -20.972656 13.546875 -21.140625 C 14.035156 -21.316406 14.578125 -21.40625 15.171875 -21.40625 C 15.992188 -21.40625 16.675781 -21.128906 17.21875 -20.578125 C 17.769531 -20.023438 18.132812 -19.28125 18.3125 -18.34375 L 20.828125 -5.0625 C 21.035156 -4.03125 21.054688 -3.097656 20.890625 -2.265625 C 20.734375 -1.429688 20.390625 -0.773438 19.859375 -0.296875 C 19.328125 0.179688 18.582031 0.421875 17.625 0.421875 C 16.5 0.421875 15.660156 0.113281 15.109375 -0.5 C 14.554688 -1.125 14.28125 -1.859375 14.28125 -2.703125 L 14.28125 -4.140625 C 14.28125 -4.898438 14.101562 -5.34375 13.75 -5.46875 C 13.40625 -5.59375 12.992188 -5.445312 12.515625 -5.03125 L 9.8125 -2.703125 C 9.382812 -2.359375 8.878906 -1.9375 8.296875 -1.4375 C 7.722656 -0.9375 7.085938 -0.5 6.390625 -0.125 C 5.703125 0.238281 4.984375 0.421875 4.234375 0.421875 C 3.691406 0.421875 3.15625 0.304688 2.625 0.078125 C 2.101562 -0.140625 1.671875 -0.503906 1.328125 -1.015625 C 0.992188 -1.535156 0.828125 -2.226562 0.828125 -3.09375 C 0.828125 -3.832031 1.023438 -4.429688 1.421875 -4.890625 C 1.816406 -5.347656 2.347656 -5.6875 3.015625 -5.90625 C 3.691406 -6.132812 4.4375 -6.253906 5.25 -6.265625 Z M 12.375 -6.4375 "/></g></g></g><g fill="#ffffff" fill-opacity="1"><g transform="translate(50.654582, 128.528441)"><g><path d="M 15.90625 -13.375 C 15.5 -13.382812 15.1875 -13.289062 14.96875 -13.09375 C 14.75 -12.894531 14.640625 -12.664062 14.640625 -12.40625 C 14.640625 -12.21875 14.703125 -12.023438 14.828125 -11.828125 C 14.960938 -11.640625 15.160156 -11.523438 15.421875 -11.484375 L 18.421875 -11.015625 C 19.640625 -10.835938 20.554688 -10.5 21.171875 -10 C 21.785156 -9.5 22.203125 -8.941406 22.421875 -8.328125 C 22.648438 -7.710938 22.765625 -7.109375 22.765625 -6.515625 C 22.765625 -5.140625 22.375 -3.929688 21.59375 -2.890625 C 20.8125 -1.847656 19.734375 -1.035156 18.359375 -0.453125 C 16.984375 0.128906 15.394531 0.421875 13.59375 0.421875 C 10.789062 0.421875 8.476562 -0.046875 6.65625 -0.984375 C 4.832031 -1.929688 3.472656 -3.21875 2.578125 -4.84375 C 1.691406 -6.476562 1.25 -8.328125 1.25 -10.390625 C 1.25 -12.648438 1.671875 -14.566406 2.515625 -16.140625 C 3.359375 -17.722656 4.5625 -18.925781 6.125 -19.75 C 7.695312 -20.582031 9.5625 -21 11.71875 -21 L 15.1875 -21 C 17.789062 -21 19.675781 -20.722656 20.84375 -20.171875 C 22.007812 -19.617188 22.59375 -18.613281 22.59375 -17.15625 C 22.59375 -16.320312 22.378906 -15.601562 21.953125 -15 C 21.535156 -14.40625 20.992188 -13.957031 20.328125 -13.65625 C 19.671875 -13.351562 18.972656 -13.222656 18.234375 -13.265625 Z M 17.921875 -4.578125 C 18.941406 -4.597656 19.710938 -4.820312 20.234375 -5.25 C 20.753906 -5.6875 21.015625 -6.179688 21.015625 -6.734375 C 21.015625 -7.585938 20.691406 -8.179688 20.046875 -8.515625 C 19.410156 -8.859375 18.507812 -8.910156 17.34375 -8.671875 L 7.375 -6.6875 C 6.863281 -6.59375 6.453125 -6.613281 6.140625 -6.75 C 5.835938 -6.894531 5.640625 -7.09375 5.546875 -7.34375 C 5.347656 -8.03125 5.644531 -8.613281 6.4375 -9.09375 L 14.8125 -14.0625 C 15.613281 -14.539062 16.15625 -15.054688 16.4375 -15.609375 C 16.726562 -16.160156 16.828125 -16.707031 16.734375 -17.25 C 16.648438 -17.789062 16.421875 -18.285156 16.046875 -18.734375 C 15.628906 -19.242188 15.0625 -19.570312 14.34375 -19.71875 C 13.632812 -19.863281 12.875 -19.753906 12.0625 -19.390625 C 11.257812 -19.023438 10.476562 -18.328125 9.71875 -17.296875 L 4.109375 -9.671875 C 3.722656 -9.140625 3.503906 -8.585938 3.453125 -8.015625 C 3.410156 -7.441406 3.484375 -6.914062 3.671875 -6.4375 C 3.910156 -5.84375 4.3125 -5.367188 4.875 -5.015625 C 5.4375 -4.671875 6.140625 -4.5 6.984375 -4.5 Z M 17.921875 -4.578125 "/></g></g></g><g fill="#ffffff" fill-opacity="1"><g transform="translate(74.513843, 128.528441)"><g><path d="M 11.1875 0.421875 C 9.007812 0.421875 7.21875 -0.0390625 5.8125 -0.96875 C 4.40625 -1.90625 3.359375 -3.171875 2.671875 -4.765625 C 1.992188 -6.359375 1.65625 -8.140625 1.65625 -10.109375 C 1.65625 -11.742188 1.914062 -13.253906 2.4375 -14.640625 C 2.96875 -16.023438 3.710938 -17.222656 4.671875 -18.234375 C 5.628906 -19.242188 6.769531 -20.023438 8.09375 -20.578125 C 9.414062 -21.128906 10.867188 -21.40625 12.453125 -21.40625 C 14.222656 -21.40625 15.738281 -21.082031 17 -20.4375 C 18.257812 -19.789062 19.222656 -18.941406 19.890625 -17.890625 C 20.554688 -16.847656 20.890625 -15.726562 20.890625 -14.53125 C 20.890625 -13.882812 20.78125 -13.28125 20.5625 -12.71875 C 20.351562 -12.15625 19.976562 -11.722656 19.4375 -11.421875 C 18.90625 -11.117188 18.171875 -11.015625 17.234375 -11.109375 C 16.660156 -11.160156 16.210938 -11.332031 15.890625 -11.625 C 15.578125 -11.925781 15.359375 -12.289062 15.234375 -12.71875 C 15.117188 -13.15625 15.0625 -13.601562 15.0625 -14.0625 C 15.070312 -14.519531 15.113281 -14.941406 15.1875 -15.328125 L 15.65625 -17.953125 C 15.769531 -18.578125 15.671875 -19.046875 15.359375 -19.359375 C 15.046875 -19.671875 14.566406 -19.632812 13.921875 -19.25 L 5 -13.84375 C 4.46875 -13.507812 4.195312 -13.132812 4.1875 -12.71875 C 4.175781 -12.300781 4.457031 -12.007812 5.03125 -11.84375 L 10 -10.46875 C 10.5 -10.34375 10.910156 -10.109375 11.234375 -9.765625 C 11.554688 -9.421875 11.757812 -9.035156 11.84375 -8.609375 C 11.925781 -8.191406 11.859375 -7.769531 11.640625 -7.34375 C 11.429688 -6.925781 11.03125 -6.5625 10.4375 -6.25 L 8.921875 -5.4375 C 8.273438 -5.101562 7.847656 -4.710938 7.640625 -4.265625 C 7.441406 -3.816406 7.40625 -3.367188 7.53125 -2.921875 C 7.664062 -2.484375 7.910156 -2.085938 8.265625 -1.734375 C 8.628906 -1.390625 9.050781 -1.132812 9.53125 -0.96875 C 10.007812 -0.800781 10.5 -0.769531 11 -0.875 C 11.507812 -0.988281 11.976562 -1.285156 12.40625 -1.765625 L 16.46875 -6.515625 C 17 -7.140625 17.546875 -7.539062 18.109375 -7.71875 C 18.671875 -7.894531 19.191406 -7.898438 19.671875 -7.734375 C 20.148438 -7.566406 20.535156 -7.285156 20.828125 -6.890625 C 21.117188 -6.492188 21.265625 -6.046875 21.265625 -5.546875 C 21.265625 -4.941406 20.988281 -4.289062 20.4375 -3.59375 C 19.882812 -2.90625 19.132812 -2.257812 18.1875 -1.65625 C 17.238281 -1.050781 16.160156 -0.550781 14.953125 -0.15625 C 13.753906 0.226562 12.5 0.421875 11.1875 0.421875 Z M 11.1875 0.421875 "/></g></g></g><g fill="#ffffff" fill-opacity="1"><g transform="translate(97.710342, 128.528441)"><g><path d="M 13.890625 -21 C 15.898438 -21 17.507812 -20.582031 18.71875 -19.75 C 19.9375 -18.925781 20.828125 -17.71875 21.390625 -16.125 C 21.953125 -14.539062 22.234375 -12.617188 22.234375 -10.359375 C 22.234375 -6.804688 21.210938 -4.117188 19.171875 -2.296875 C 17.128906 -0.484375 14 0.410156 9.78125 0.390625 C 8.363281 0.390625 7.160156 0.144531 6.171875 -0.34375 C 5.191406 -0.832031 4.421875 -1.488281 3.859375 -2.3125 C 3.296875 -3.144531 2.929688 -4.085938 2.765625 -5.140625 C 2.597656 -6.191406 2.613281 -7.289062 2.8125 -8.4375 C 3.019531 -9.59375 3.398438 -10.722656 3.953125 -11.828125 L 4.96875 -13.890625 C 5.207031 -14.367188 5.222656 -14.726562 5.015625 -14.96875 C 4.816406 -15.207031 4.40625 -15.382812 3.78125 -15.5 C 3.007812 -15.644531 2.4375 -15.957031 2.0625 -16.4375 C 1.695312 -16.914062 1.515625 -17.46875 1.515625 -18.09375 C 1.515625 -18.570312 1.617188 -19.03125 1.828125 -19.46875 C 2.046875 -19.914062 2.359375 -20.28125 2.765625 -20.5625 C 3.179688 -20.851562 3.695312 -21 4.3125 -21 Z M 18.671875 -14.203125 C 19.046875 -15.097656 19.125 -15.84375 18.90625 -16.4375 C 18.695312 -17.03125 18.3125 -17.445312 17.75 -17.6875 C 17.1875 -17.9375 16.554688 -17.988281 15.859375 -17.84375 L 8.953125 -16.515625 C 7.773438 -16.296875 6.976562 -15.878906 6.5625 -15.265625 C 6.144531 -14.660156 6.066406 -13.890625 6.328125 -12.953125 L 9.171875 -2.953125 C 9.367188 -2.234375 9.679688 -1.71875 10.109375 -1.40625 C 10.535156 -1.09375 11 -0.945312 11.5 -0.96875 C 12.007812 -1 12.476562 -1.160156 12.90625 -1.453125 C 13.34375 -1.753906 13.671875 -2.160156 13.890625 -2.671875 Z M 18.671875 -14.203125 "/></g></g></g></svg>