<svg xmlns="http://www.w3.org/2000/svg" xmlns:xlink="http://www.w3.org/1999/xlink" width="200" zoomAndPan="magnify" viewBox="0 0 150 149.999998" height="200" preserveAspectRatio="xMidYMid meet" version="1.0"><defs><g/></defs><g fill="#ffffff" fill-opacity="1"><g transform="translate(18.142402, 108.757525)"><g><path d="M 2.578125 -9.359375 C 2.578125 -12.046875 3.234375 -14.347656 4.546875 -16.265625 C 5.859375 -18.179688 7.546875 -19.820312 9.609375 -21.1875 C 11.671875 -22.5625 13.898438 -23.78125 16.296875 -24.84375 C 18.703125 -25.90625 21.019531 -26.90625 23.25 -27.84375 C 25.488281 -28.789062 27.394531 -29.789062 28.96875 -30.84375 C 30.539062 -31.90625 31.523438 -33.125 31.921875 -34.5 C 31.523438 -35.988281 30.851562 -37.175781 29.90625 -38.0625 C 28.957031 -38.945312 27.65625 -39.390625 26 -39.390625 C 24.113281 -39.390625 22.8125 -39.046875 22.09375 -38.359375 C 21.382812 -37.671875 21.015625 -36.8125 20.984375 -35.78125 C 20.953125 -34.75 21.050781 -33.75 21.28125 -32.78125 C 21.507812 -31.8125 21.625 -31.007812 21.625 -30.375 C 19.332031 -29.175781 17.242188 -28.332031 15.359375 -27.84375 C 13.472656 -27.351562 11.972656 -27.050781 10.859375 -26.9375 C 9.742188 -26.832031 9.1875 -26.78125 9.1875 -26.78125 C 7.40625 -26.78125 5.859375 -27.207031 4.546875 -28.0625 C 3.234375 -28.914062 2.578125 -30.546875 2.578125 -32.953125 C 2.578125 -35.523438 3.789062 -37.828125 6.21875 -39.859375 C 8.65625 -41.890625 12.472656 -42.90625 17.671875 -42.90625 L 28.921875 -42.90625 C 32.578125 -42.90625 35.734375 -42.128906 38.390625 -40.578125 C 41.054688 -39.035156 43.117188 -36.9375 44.578125 -34.28125 C 46.035156 -31.625 46.765625 -28.578125 46.765625 -25.140625 C 46.765625 -21.367188 46.894531 -18.222656 47.15625 -15.703125 C 47.414062 -13.179688 47.710938 -11.0625 48.046875 -9.34375 C 48.390625 -7.632812 48.691406 -6.117188 48.953125 -4.796875 C 49.210938 -3.484375 49.34375 -2.140625 49.34375 -0.765625 L 49.34375 0 L 36.640625 0 C 34.066406 0 32.304688 -0.613281 31.359375 -1.84375 C 30.421875 -3.070312 29.953125 -4.660156 29.953125 -6.609375 C 29.953125 -8.097656 30.179688 -10.140625 30.640625 -12.734375 C 31.097656 -15.335938 31.550781 -18.15625 32 -21.1875 C 32.457031 -24.226562 32.660156 -27.0625 32.609375 -29.6875 C 32.035156 -28.257812 31.21875 -26.84375 30.15625 -25.4375 C 29.101562 -24.039062 28.03125 -22.566406 26.9375 -21.015625 C 25.851562 -19.472656 24.9375 -17.800781 24.1875 -16 C 23.445312 -14.195312 23.078125 -12.210938 23.078125 -10.046875 C 23.078125 -8.097656 23.503906 -6.550781 24.359375 -5.40625 C 25.222656 -4.257812 26.066406 -3.441406 26.890625 -2.953125 C 27.722656 -2.472656 28.140625 -2.234375 28.140625 -2.234375 C 28.140625 -2.234375 27.695312 -1.972656 26.8125 -1.453125 C 25.925781 -0.941406 24.492188 -0.429688 22.515625 0.078125 C 20.546875 0.597656 17.90625 0.859375 14.59375 0.859375 C 10.8125 0.859375 7.863281 -0.113281 5.75 -2.0625 C 3.632812 -4.007812 2.578125 -6.441406 2.578125 -9.359375 Z M 2.578125 -9.359375 "/></g></g></g><g fill="#ffffff" fill-opacity="1"><g transform="translate(72.370749, 108.749996)"><g><path d="M 27.625 -12.359375 L 26 0 L -1.03125 0 L 19.390625 -60.0625 L 43.765625 -60.0625 L 64.1875 0 L 37.328125 0 L 35.703125 -12.359375 Z M 32.34375 -37.5 L 30.890625 -37.5 L 28.75 -18.875 L 34.40625 -18.875 Z M 32.34375 -37.5 "/></g></g></g></svg>