<svg xmlns="http://www.w3.org/2000/svg" xmlns:xlink="http://www.w3.org/1999/xlink" width="200" zoomAndPan="magnify" viewBox="0 0 150 149.999998" height="200" preserveAspectRatio="xMidYMid meet" version="1.0"><defs><g/><clipPath id="089f898f62"><path d="M 10.503906 13.820312 L 71.253906 13.820312 L 71.253906 68.394531 L 10.503906 68.394531 Z M 10.503906 13.820312 " clip-rule="nonzero"/></clipPath><clipPath id="846ccec72e"><path d="M 80.871094 13.820312 L 141.621094 13.820312 L 141.621094 68.394531 L 80.871094 68.394531 Z M 80.871094 13.820312 " clip-rule="nonzero"/></clipPath><clipPath id="74fa9afb7a"><path d="M 10.503906 76.855469 L 71.253906 76.855469 L 71.253906 131.429688 L 10.503906 131.429688 Z M 10.503906 76.855469 " clip-rule="nonzero"/></clipPath><clipPath id="f1f92f3cea"><path d="M 81.050781 76.855469 L 141.800781 76.855469 L 141.800781 131.429688 L 81.050781 131.429688 Z M 81.050781 76.855469 " clip-rule="nonzero"/></clipPath></defs><g clip-path="url(#089f898f62)"><path fill="#ffffff" d="M 21.003906 12.320312 L 30.003906 12.320312 L 30.003906 15.320312 L 21.003906 15.320312 Z M 31.503906 12.320312 L 40.503906 12.320312 L 40.503906 15.320312 L 31.503906 15.320312 Z M 42.003906 12.320312 L 51.003906 12.320312 L 51.003906 15.320312 L 42.003906 15.320312 Z M 52.503906 12.320312 L 61.503906 12.320312 L 61.503906 15.320312 L 52.503906 15.320312 Z M 63.003906 12.320312 L 73.070312 12.320312 L 73.070312 14.253906 L 70.070312 14.253906 L 70.070312 13.820312 L 71.570312 13.820312 L 71.570312 15.320312 L 63.003906 15.320312 Z M 73.070312 15.753906 L 73.070312 24.753906 L 70.070312 24.753906 L 70.070312 15.753906 Z M 73.070312 26.253906 L 73.070312 35.253906 L 70.070312 35.253906 L 70.070312 26.253906 Z M 73.070312 36.753906 L 73.070312 45.753906 L 70.070312 45.753906 L 70.070312 36.753906 Z M 73.070312 47.253906 L 73.070312 56.253906 L 70.070312 56.253906 L 70.070312 47.253906 Z M 73.070312 57.753906 L 73.070312 66.753906 L 70.070312 66.753906 L 70.070312 57.753906 Z M 73.070312 68.253906 L 73.070312 69.894531 L 62.707031 69.894531 L 62.707031 66.894531 L 71.570312 66.894531 L 71.570312 68.394531 L 70.070312 68.394531 L 70.070312 68.253906 Z M 61.207031 69.894531 L 52.207031 69.894531 L 52.207031 66.894531 L 61.207031 66.894531 Z M 50.707031 69.894531 L 41.707031 69.894531 L 41.707031 66.894531 L 50.707031 66.894531 Z M 40.207031 69.894531 L 31.207031 69.894531 L 31.207031 66.894531 L 40.207031 66.894531 Z M 29.707031 69.894531 L 20.707031 69.894531 L 20.707031 66.894531 L 29.707031 66.894531 Z M 19.207031 69.894531 L 9.003906 69.894531 L 9.003906 68.097656 L 12.003906 68.097656 L 12.003906 68.394531 L 10.503906 68.394531 L 10.503906 66.894531 L 19.207031 66.894531 Z M 9.003906 66.597656 L 9.003906 57.597656 L 12.003906 57.597656 L 12.003906 66.597656 Z M 9.003906 56.097656 L 9.003906 47.097656 L 12.003906 47.097656 L 12.003906 56.097656 Z M 9.003906 45.597656 L 9.003906 36.597656 L 12.003906 36.597656 L 12.003906 45.597656 Z M 9.003906 35.097656 L 9.003906 26.097656 L 12.003906 26.097656 L 12.003906 35.097656 Z M 9.003906 24.597656 L 9.003906 15.597656 L 12.003906 15.597656 L 12.003906 24.597656 Z M 9.003906 14.097656 L 9.003906 12.320312 L 19.503906 12.320312 L 19.503906 15.320312 L 10.503906 15.320312 L 10.503906 13.820312 L 12.003906 13.820312 L 12.003906 14.097656 Z M 9.003906 14.097656 " fill-opacity="1" fill-rule="nonzero"/></g><g fill="#ffffff" fill-opacity="1"><g transform="translate(17.819778, 53.227965)"><g><path d="M 5.328125 -5.25 C 5.328125 -4.113281 5.5625 -3.265625 6.03125 -2.703125 C 6.507812 -2.148438 7.25 -1.875 8.25 -1.875 C 8.976562 -1.875 9.640625 -1.988281 10.234375 -2.21875 C 10.835938 -2.457031 11.347656 -2.796875 11.765625 -3.234375 C 12.179688 -3.671875 12.5 -4.203125 12.71875 -4.828125 C 12.945312 -5.453125 13.0625 -6.144531 13.0625 -6.90625 L 13.0625 -9.84375 L 10.75 -9.734375 C 9.71875 -9.691406 8.859375 -9.566406 8.171875 -9.359375 C 7.484375 -9.148438 6.925781 -8.859375 6.5 -8.484375 C 6.082031 -8.117188 5.78125 -7.664062 5.59375 -7.125 C 5.414062 -6.582031 5.328125 -5.957031 5.328125 -5.25 Z M 9.703125 -17.953125 C 9.003906 -17.953125 8.441406 -17.851562 8.015625 -17.65625 C 7.585938 -17.46875 7.25 -17.195312 7 -16.84375 C 6.757812 -16.488281 6.597656 -16.066406 6.515625 -15.578125 C 6.441406 -15.097656 6.40625 -14.578125 6.40625 -14.015625 C 5.394531 -14.015625 4.628906 -14.1875 4.109375 -14.53125 C 3.585938 -14.875 3.328125 -15.460938 3.328125 -16.296875 C 3.328125 -16.921875 3.492188 -17.453125 3.828125 -17.890625 C 4.171875 -18.328125 4.640625 -18.679688 5.234375 -18.953125 C 5.835938 -19.234375 6.53125 -19.4375 7.3125 -19.5625 C 8.101562 -19.695312 8.945312 -19.765625 9.84375 -19.765625 C 10.957031 -19.765625 11.925781 -19.65625 12.75 -19.4375 C 13.570312 -19.21875 14.257812 -18.859375 14.8125 -18.359375 C 15.363281 -17.867188 15.773438 -17.222656 16.046875 -16.421875 C 16.328125 -15.628906 16.46875 -14.65625 16.46875 -13.5 L 16.46875 -4.125 C 16.46875 -3.613281 16.507812 -3.191406 16.59375 -2.859375 C 16.675781 -2.535156 16.804688 -2.269531 16.984375 -2.0625 C 17.160156 -1.863281 17.394531 -1.722656 17.6875 -1.640625 C 17.976562 -1.554688 18.320312 -1.515625 18.71875 -1.515625 L 18.828125 -1.515625 L 18.828125 0 L 13.9375 0 L 13.359375 -3.109375 L 13.0625 -3.109375 C 12.6875 -2.597656 12.320312 -2.128906 11.96875 -1.703125 C 11.613281 -1.285156 11.222656 -0.921875 10.796875 -0.609375 C 10.378906 -0.304688 9.898438 -0.0703125 9.359375 0.09375 C 8.828125 0.269531 8.179688 0.359375 7.421875 0.359375 C 6.617188 0.359375 5.875 0.242188 5.1875 0.015625 C 4.5 -0.210938 3.90625 -0.566406 3.40625 -1.046875 C 2.90625 -1.523438 2.507812 -2.125 2.21875 -2.84375 C 1.9375 -3.570312 1.796875 -4.429688 1.796875 -5.421875 C 1.796875 -7.347656 2.476562 -8.773438 3.84375 -9.703125 C 5.21875 -10.628906 7.289062 -11.132812 10.0625 -11.21875 L 13.0625 -11.328125 L 13.0625 -13.5 C 13.0625 -14.15625 13.023438 -14.753906 12.953125 -15.296875 C 12.878906 -15.847656 12.722656 -16.320312 12.484375 -16.71875 C 12.253906 -17.113281 11.914062 -17.414062 11.46875 -17.625 C 11.03125 -17.84375 10.441406 -17.953125 9.703125 -17.953125 Z M 9.703125 -17.953125 "/></g></g></g><g fill="#ffffff" fill-opacity="1"><g transform="translate(42.281278, 53.227965)"><g><path d="M 0.296875 0 L 0.296875 -0.359375 L 1.1875 -0.6875 C 1.675781 -0.882812 2.050781 -1.117188 2.3125 -1.390625 C 2.582031 -1.671875 2.800781 -2.066406 2.96875 -2.578125 L 10.421875 -23.96875 L 13.5 -23.96875 L 20.859375 -2.421875 C 21.046875 -1.890625 21.257812 -1.484375 21.5 -1.203125 C 21.738281 -0.929688 22.113281 -0.695312 22.625 -0.5 L 23.0625 -0.359375 L 23.0625 0 L 13.859375 0 L 13.859375 -0.359375 L 14.40625 -0.546875 C 14.914062 -0.734375 15.222656 -1 15.328125 -1.34375 C 15.441406 -1.695312 15.425781 -2.117188 15.28125 -2.609375 L 13.578125 -7.8125 L 5.546875 -7.8125 L 3.796875 -2.71875 C 3.628906 -2.1875 3.578125 -1.765625 3.640625 -1.453125 C 3.703125 -1.140625 3.984375 -0.882812 4.484375 -0.6875 L 5.28125 -0.359375 L 5.28125 0 Z M 5.796875 -8.546875 L 13.359375 -8.546875 L 9.703125 -19.796875 Z M 5.796875 -8.546875 "/></g></g></g><g clip-path="url(#846ccec72e)"><path fill="#ffffff" d="M 91.371094 12.320312 L 100.371094 12.320312 L 100.371094 15.320312 L 91.371094 15.320312 Z M 101.871094 12.320312 L 110.871094 12.320312 L 110.871094 15.320312 L 101.871094 15.320312 Z M 112.371094 12.320312 L 121.371094 12.320312 L 121.371094 15.320312 L 112.371094 15.320312 Z M 122.871094 12.320312 L 131.871094 12.320312 L 131.871094 15.320312 L 122.871094 15.320312 Z M 133.371094 12.320312 L 143.4375 12.320312 L 143.4375 14.253906 L 140.4375 14.253906 L 140.4375 13.820312 L 141.9375 13.820312 L 141.9375 15.320312 L 133.371094 15.320312 Z M 143.4375 15.753906 L 143.4375 24.753906 L 140.4375 24.753906 L 140.4375 15.753906 Z M 143.4375 26.253906 L 143.4375 35.253906 L 140.4375 35.253906 L 140.4375 26.253906 Z M 143.4375 36.753906 L 143.4375 45.753906 L 140.4375 45.753906 L 140.4375 36.753906 Z M 143.4375 47.253906 L 143.4375 56.253906 L 140.4375 56.253906 L 140.4375 47.253906 Z M 143.4375 57.753906 L 143.4375 66.753906 L 140.4375 66.753906 L 140.4375 57.753906 Z M 143.4375 68.253906 L 143.4375 69.894531 L 133.078125 69.894531 L 133.078125 66.894531 L 141.9375 66.894531 L 141.9375 68.394531 L 140.4375 68.394531 L 140.4375 68.253906 Z M 131.578125 69.894531 L 122.578125 69.894531 L 122.578125 66.894531 L 131.578125 66.894531 Z M 121.078125 69.894531 L 112.078125 69.894531 L 112.078125 66.894531 L 121.078125 66.894531 Z M 110.578125 69.894531 L 101.578125 69.894531 L 101.578125 66.894531 L 110.578125 66.894531 Z M 100.078125 69.894531 L 91.078125 69.894531 L 91.078125 66.894531 L 100.078125 66.894531 Z M 89.578125 69.894531 L 79.371094 69.894531 L 79.371094 68.097656 L 82.371094 68.097656 L 82.371094 68.394531 L 80.871094 68.394531 L 80.871094 66.894531 L 89.578125 66.894531 Z M 79.371094 66.597656 L 79.371094 57.597656 L 82.371094 57.597656 L 82.371094 66.597656 Z M 79.371094 56.097656 L 79.371094 47.097656 L 82.371094 47.097656 L 82.371094 56.097656 Z M 79.371094 45.597656 L 79.371094 36.597656 L 82.371094 36.597656 L 82.371094 45.597656 Z M 79.371094 35.097656 L 79.371094 26.097656 L 82.371094 26.097656 L 82.371094 35.097656 Z M 79.371094 24.597656 L 79.371094 15.597656 L 82.371094 15.597656 L 82.371094 24.597656 Z M 79.371094 14.097656 L 79.371094 12.320312 L 89.871094 12.320312 L 89.871094 15.320312 L 80.871094 15.320312 L 80.871094 13.820312 L 82.371094 13.820312 L 82.371094 14.097656 Z M 79.371094 14.097656 " fill-opacity="1" fill-rule="nonzero"/></g><g fill="#ffffff" fill-opacity="1"><g transform="translate(86.823992, 53.401007)"><g><path d="M 12.46875 -6.984375 C 12.125 -7.035156 11.785156 -7.03125 11.453125 -6.96875 C 11.117188 -6.90625 10.800781 -6.8125 10.5 -6.6875 C 10.175781 -6.539062 9.816406 -6.34375 9.421875 -6.09375 C 9.035156 -5.851562 8.78125 -5.644531 8.65625 -5.46875 C 8.382812 -5.125 8.191406 -4.722656 8.078125 -4.265625 C 7.972656 -3.816406 7.976562 -3.429688 8.09375 -3.109375 C 8.164062 -2.859375 8.351562 -2.6875 8.65625 -2.59375 C 9.375 -2.25 10.101562 -2.171875 10.84375 -2.359375 C 11.226562 -2.441406 11.609375 -2.554688 11.984375 -2.703125 L 12.53125 -2.921875 L 12.578125 -4.0625 C 12.578125 -4.289062 12.578125 -4.578125 12.578125 -4.921875 C 12.578125 -5.265625 12.585938 -5.660156 12.609375 -6.109375 L 12.6875 -6.953125 Z M 10.421875 -18.453125 C 10.546875 -18.503906 11.101562 -18.503906 12.09375 -18.453125 C 13.03125 -18.453125 13.742188 -18.390625 14.234375 -18.265625 C 14.660156 -18.140625 15.050781 -18.007812 15.40625 -17.875 C 15.757812 -17.738281 16.046875 -17.597656 16.265625 -17.453125 C 17.703125 -16.515625 18.675781 -15.421875 19.1875 -14.171875 C 19.363281 -13.722656 19.488281 -13.203125 19.5625 -12.609375 C 19.664062 -11.597656 19.53125 -9.882812 19.15625 -7.46875 C 18.957031 -6.238281 18.820312 -5.253906 18.75 -4.515625 C 18.675781 -3.773438 18.664062 -3.242188 18.71875 -2.921875 C 18.789062 -2.398438 18.9375 -1.941406 19.15625 -1.546875 C 19.207031 -1.503906 19.25 -1.453125 19.28125 -1.390625 C 19.320312 -1.328125 19.367188 -1.28125 19.421875 -1.25 C 19.617188 -1.15625 19.894531 -1.222656 20.25 -1.453125 C 20.601562 -1.691406 20.851562 -1.957031 21 -2.25 C 21.082031 -2.40625 21.132812 -2.488281 21.15625 -2.5 C 21.175781 -2.507812 21.210938 -2.476562 21.265625 -2.40625 C 21.316406 -2.300781 21.351562 -2.265625 21.375 -2.296875 L 21.40625 -2.21875 C 21.382812 -2.144531 21.375 -2.007812 21.375 -1.8125 C 21.351562 -1.664062 21.347656 -1.570312 21.359375 -1.53125 C 21.367188 -1.5 21.425781 -1.484375 21.53125 -1.484375 C 21.644531 -1.484375 21.664062 -1.457031 21.59375 -1.40625 C 21.550781 -1.351562 21.488281 -1.273438 21.40625 -1.171875 C 21.332031 -1.078125 21.257812 -0.929688 21.1875 -0.734375 C 20.988281 -0.335938 20.8125 0.015625 20.65625 0.328125 C 20.5 0.648438 20.320312 0.9375 20.125 1.1875 C 19.820312 1.550781 19.460938 1.847656 19.046875 2.078125 C 18.628906 2.316406 18.25 2.460938 17.90625 2.515625 C 17.707031 2.535156 17.578125 2.582031 17.515625 2.65625 C 17.453125 2.738281 17.394531 2.78125 17.34375 2.78125 C 17.269531 2.78125 17.21875 2.800781 17.1875 2.84375 C 17.164062 2.894531 16.957031 2.929688 16.5625 2.953125 C 16.175781 3.003906 15.859375 2.957031 15.609375 2.8125 C 14.691406 2.363281 13.988281 1.597656 13.5 0.515625 L 13.234375 0.078125 L 12.578125 0.703125 C 12.109375 1.148438 11.703125 1.5 11.359375 1.75 C 11.015625 2.007812 10.703125 2.203125 10.421875 2.328125 C 9.640625 2.722656 8.765625 2.921875 7.796875 2.921875 C 7.234375 2.941406 6.726562 2.878906 6.28125 2.734375 C 5.539062 2.515625 4.847656 2.175781 4.203125 1.71875 C 3.566406 1.257812 3.066406 0.734375 2.703125 0.140625 C 2.398438 -0.328125 2.191406 -0.742188 2.078125 -1.109375 C 1.953125 -1.523438 1.875 -2.101562 1.84375 -2.84375 C 1.820312 -3.613281 1.859375 -4.234375 1.953125 -4.703125 C 2.222656 -5.859375 2.90625 -6.96875 4 -8.03125 C 4.21875 -8.25 4.40625 -8.429688 4.5625 -8.578125 C 4.726562 -8.722656 4.890625 -8.851562 5.046875 -8.96875 C 5.203125 -9.082031 5.378906 -9.191406 5.578125 -9.296875 C 5.773438 -9.410156 6.035156 -9.539062 6.359375 -9.6875 C 7.171875 -10.101562 8.15625 -10.414062 9.3125 -10.625 C 10.476562 -10.84375 11.59375 -10.914062 12.65625 -10.84375 L 13.125 -10.796875 L 13.171875 -11.25 C 13.191406 -11.9375 13.09375 -12.613281 12.875 -13.28125 C 12.75 -13.550781 12.597656 -13.734375 12.421875 -13.828125 C 12.253906 -13.929688 11.984375 -14.003906 11.609375 -14.046875 C 11.117188 -14.097656 10.535156 -14.050781 9.859375 -13.90625 C 9.179688 -13.757812 8.582031 -13.550781 8.0625 -13.28125 C 7.96875 -13.226562 7.859375 -13.148438 7.734375 -13.046875 C 7.609375 -12.953125 7.472656 -12.84375 7.328125 -12.71875 C 7.003906 -12.425781 6.84375 -12.265625 6.84375 -12.234375 C 6.84375 -12.191406 6.75 -12.085938 6.5625 -11.921875 C 6.375 -11.765625 6.207031 -11.625 6.0625 -11.5 C 5.59375 -11.207031 5.1875 -11.125 4.84375 -11.25 C 4.394531 -11.414062 4.050781 -11.757812 3.8125 -12.28125 C 3.757812 -12.375 3.703125 -12.460938 3.640625 -12.546875 C 3.578125 -12.640625 3.519531 -12.710938 3.46875 -12.765625 C 3.351562 -12.910156 3.269531 -13.132812 3.21875 -13.4375 C 3.164062 -13.75 3.113281 -13.96875 3.0625 -14.09375 C 2.914062 -14.363281 2.96875 -14.742188 3.21875 -15.234375 C 3.488281 -15.804688 3.804688 -16.191406 4.171875 -16.390625 C 4.273438 -16.429688 4.367188 -16.476562 4.453125 -16.53125 C 4.546875 -16.582031 4.628906 -16.644531 4.703125 -16.71875 C 4.847656 -16.84375 5.09375 -16.988281 5.4375 -17.15625 C 5.78125 -17.332031 6.195312 -17.503906 6.6875 -17.671875 C 7.582031 -17.941406 8.582031 -18.164062 9.6875 -18.34375 C 9.8125 -18.363281 9.957031 -18.382812 10.125 -18.40625 C 10.300781 -18.4375 10.398438 -18.453125 10.421875 -18.453125 Z M 10.421875 -18.453125 "/></g></g></g><g fill="#ffffff" fill-opacity="1"><g transform="translate(113.417098, 54.526627)"><g><path d="M 9.296875 -0.171875 C 9.222656 -0.128906 9.109375 -0.0976562 8.953125 -0.078125 C 8.753906 -0.0234375 8.5625 0.0078125 8.375 0.03125 C 8.1875 0.0625 8.015625 0.078125 7.859375 0.078125 L 7.4375 0.078125 C 7.363281 0.078125 7.234375 0.0507812 7.046875 0 C 6.835938 -0.0195312 6.625 -0.046875 6.40625 -0.078125 C 6.175781 -0.0976562 5.96875 -0.117188 5.78125 -0.140625 C 5.59375 -0.140625 5.460938 -0.140625 5.390625 -0.140625 C 5.335938 -0.140625 5.328125 -0.148438 5.359375 -0.171875 C 5.359375 -0.171875 5.34375 -0.171875 5.3125 -0.171875 L 5.03125 -0.171875 C 4.894531 -0.171875 4.753906 -0.160156 4.609375 -0.140625 C 4.441406 -0.117188 4.300781 -0.0976562 4.1875 -0.078125 C 4.050781 -0.046875 3.945312 -0.03125 3.875 -0.03125 C 3.6875 -0.0078125 3.507812 0.0078125 3.34375 0.03125 C 3.175781 0.0625 3 0.078125 2.8125 0.078125 C 2.394531 0.078125 2.007812 0.00390625 1.65625 -0.140625 C 1.46875 -0.191406 1.253906 -0.34375 1.015625 -0.59375 C 0.785156 -0.851562 0.644531 -1.078125 0.59375 -1.265625 C 0.53125 -1.597656 0.53125 -1.925781 0.59375 -2.25 C 0.664062 -2.5625 0.738281 -2.867188 0.8125 -3.171875 C 0.90625 -3.546875 0.941406 -3.921875 0.921875 -4.296875 C 0.890625 -4.671875 0.828125 -5.035156 0.734375 -5.390625 C 0.671875 -5.765625 0.648438 -6.148438 0.671875 -6.546875 C 0.671875 -6.953125 0.785156 -7.296875 1.015625 -7.578125 C 1.203125 -7.765625 1.472656 -7.914062 1.828125 -8.03125 C 2.160156 -8.144531 2.457031 -8.203125 2.71875 -8.203125 C 2.96875 -8.203125 3.222656 -8.191406 3.484375 -8.171875 C 3.722656 -8.117188 3.957031 -8.070312 4.1875 -8.03125 C 4.894531 -9.644531 5.597656 -11.253906 6.296875 -12.859375 C 7.003906 -14.453125 7.722656 -16.0625 8.453125 -17.6875 C 8.054688 -17.613281 7.671875 -17.53125 7.296875 -17.4375 C 6.921875 -17.3125 6.53125 -17.273438 6.125 -17.328125 C 6.03125 -17.347656 5.914062 -17.382812 5.78125 -17.4375 C 5.613281 -17.457031 5.457031 -17.503906 5.3125 -17.578125 C 5.15625 -17.617188 5.015625 -17.6875 4.890625 -17.78125 C 4.753906 -17.851562 4.660156 -17.925781 4.609375 -18 C 4.304688 -18.46875 4.175781 -18.992188 4.21875 -19.578125 C 4.25 -19.671875 4.296875 -19.882812 4.359375 -20.21875 C 4.429688 -20.539062 4.46875 -20.75 4.46875 -20.84375 C 4.539062 -21.382812 4.53125 -21.890625 4.4375 -22.359375 C 4.34375 -22.691406 4.257812 -23.007812 4.1875 -23.3125 C 4.113281 -23.613281 4.113281 -23.929688 4.1875 -24.265625 C 4.238281 -24.503906 4.359375 -24.71875 4.546875 -24.90625 C 4.710938 -25.0625 4.890625 -25.210938 5.078125 -25.359375 C 5.140625 -25.398438 5.253906 -25.445312 5.421875 -25.5 C 5.585938 -25.519531 5.765625 -25.539062 5.953125 -25.5625 C 6.140625 -25.59375 6.328125 -25.609375 6.515625 -25.609375 L 6.90625 -25.609375 C 6.976562 -25.609375 7.117188 -25.59375 7.328125 -25.5625 C 7.515625 -25.519531 7.722656 -25.488281 7.953125 -25.46875 C 8.171875 -25.4375 8.382812 -25.421875 8.59375 -25.421875 C 8.78125 -25.398438 8.910156 -25.390625 8.984375 -25.390625 C 9.003906 -25.390625 9.015625 -25.390625 9.015625 -25.390625 C 8.992188 -25.367188 8.992188 -25.359375 9.015625 -25.359375 L 9.328125 -25.359375 C 9.398438 -25.359375 9.492188 -25.367188 9.609375 -25.390625 C 10.148438 -25.460938 10.691406 -25.519531 11.234375 -25.5625 C 11.753906 -25.59375 12.28125 -25.582031 12.8125 -25.53125 C 12.882812 -25.53125 13.003906 -25.519531 13.171875 -25.5 C 13.316406 -25.476562 13.484375 -25.453125 13.671875 -25.421875 L 14.234375 -25.359375 C 14.421875 -25.335938 14.5625 -25.328125 14.65625 -25.328125 L 14.859375 -25.328125 C 15.046875 -25.328125 15.296875 -25.347656 15.609375 -25.390625 C 15.910156 -25.410156 16.109375 -25.4375 16.203125 -25.46875 C 16.367188 -25.488281 16.53125 -25.507812 16.6875 -25.53125 C 16.851562 -25.53125 17.03125 -25.53125 17.21875 -25.53125 C 17.425781 -25.53125 17.640625 -25.519531 17.859375 -25.5 C 18.066406 -25.476562 18.265625 -25.429688 18.453125 -25.359375 C 18.640625 -25.285156 18.851562 -25.117188 19.09375 -24.859375 C 19.300781 -24.609375 19.425781 -24.382812 19.46875 -24.1875 C 19.539062 -23.863281 19.539062 -23.550781 19.46875 -23.25 C 19.40625 -22.9375 19.335938 -22.617188 19.265625 -22.296875 C 19.171875 -21.941406 19.144531 -21.578125 19.1875 -21.203125 C 19.21875 -20.828125 19.265625 -20.453125 19.328125 -20.078125 C 19.421875 -19.722656 19.46875 -19.347656 19.46875 -18.953125 C 19.445312 -18.523438 19.320312 -18.179688 19.09375 -17.921875 C 19.0625 -17.878906 19.015625 -17.847656 18.953125 -17.828125 C 18.878906 -17.773438 18.832031 -17.738281 18.8125 -17.71875 C 18.550781 -17.53125 18.269531 -17.410156 17.96875 -17.359375 C 17.65625 -17.285156 17.347656 -17.265625 17.046875 -17.296875 C 16.742188 -17.296875 16.453125 -17.34375 16.171875 -17.4375 C 15.859375 -17.5 15.550781 -17.554688 15.25 -17.609375 L 19.46875 -8 C 19.726562 -8.039062 20 -8.097656 20.28125 -8.171875 C 20.5625 -8.210938 20.832031 -8.234375 21.09375 -8.234375 C 21.351562 -8.234375 21.695312 -8.175781 22.125 -8.0625 C 22.539062 -7.945312 22.804688 -7.796875 22.921875 -7.609375 C 23.234375 -7.140625 23.363281 -6.609375 23.3125 -6.015625 C 23.289062 -5.921875 23.242188 -5.710938 23.171875 -5.390625 C 23.097656 -5.054688 23.0625 -4.84375 23.0625 -4.75 C 23 -4.207031 23.015625 -3.703125 23.109375 -3.234375 C 23.171875 -2.910156 23.238281 -2.597656 23.3125 -2.296875 C 23.382812 -1.960938 23.382812 -1.644531 23.3125 -1.34375 C 23.269531 -1.101562 23.164062 -0.898438 23 -0.734375 C 22.832031 -0.546875 22.65625 -0.382812 22.46875 -0.25 C 22.300781 -0.132812 22.007812 -0.0625 21.59375 -0.03125 C 21.144531 0.0078125 20.816406 0.0195312 20.609375 0 C 20.160156 -0.0507812 19.710938 -0.109375 19.265625 -0.171875 C 18.816406 -0.222656 18.367188 -0.222656 17.921875 -0.171875 C 17.597656 -0.128906 17.28125 -0.0820312 16.96875 -0.03125 C 16.644531 0.0078125 16.316406 0.03125 15.984375 0.03125 C 15.535156 0.03125 15.148438 -0.0234375 14.828125 -0.140625 C 14.640625 -0.210938 14.441406 -0.378906 14.234375 -0.640625 C 13.992188 -0.890625 13.851562 -1.109375 13.8125 -1.296875 C 13.738281 -1.628906 13.738281 -1.945312 13.8125 -2.25 C 13.875 -2.5625 13.941406 -2.878906 14.015625 -3.203125 C 14.109375 -3.578125 14.144531 -3.953125 14.125 -4.328125 C 14.070312 -4.703125 14.015625 -5.066406 13.953125 -5.421875 C 13.878906 -5.773438 13.84375 -6.160156 13.84375 -6.578125 C 13.84375 -6.984375 13.972656 -7.328125 14.234375 -7.609375 C 14.253906 -7.648438 14.320312 -7.707031 14.4375 -7.78125 C 14.53125 -7.832031 14.601562 -7.867188 14.65625 -7.890625 C 14.53125 -8.210938 14.421875 -8.539062 14.328125 -8.875 C 14.234375 -9.175781 14.140625 -9.492188 14.046875 -9.828125 L 9.609375 -9.828125 C 9.515625 -9.492188 9.4375 -9.1875 9.375 -8.90625 C 9.28125 -8.601562 9.171875 -8.285156 9.046875 -7.953125 C 9.117188 -7.929688 9.238281 -7.875 9.40625 -7.78125 C 9.570312 -7.6875 9.675781 -7.601562 9.71875 -7.53125 C 10.050781 -7.019531 10.179688 -6.492188 10.109375 -5.953125 C 10.085938 -5.859375 10.050781 -5.644531 10 -5.3125 C 9.925781 -4.988281 9.878906 -4.78125 9.859375 -4.6875 C 9.816406 -4.425781 9.804688 -4.175781 9.828125 -3.9375 C 9.828125 -3.6875 9.863281 -3.429688 9.9375 -3.171875 C 10 -2.835938 10.066406 -2.519531 10.140625 -2.21875 C 10.210938 -1.914062 10.210938 -1.597656 10.140625 -1.265625 C 10.097656 -1.035156 9.992188 -0.835938 9.828125 -0.671875 C 9.660156 -0.484375 9.484375 -0.316406 9.296875 -0.171875 Z M 13.0625 -12.953125 C 12.875 -13.640625 12.675781 -14.320312 12.46875 -15 C 12.257812 -15.65625 12.046875 -16.328125 11.828125 -17.015625 C 11.640625 -16.359375 11.441406 -15.695312 11.234375 -15.03125 C 11.023438 -14.375 10.828125 -13.71875 10.640625 -13.0625 Z M 13.0625 -12.953125 "/></g></g></g><g clip-path="url(#74fa9afb7a)"><path fill="#ffffff" d="M 21.003906 75.355469 L 30.003906 75.355469 L 30.003906 78.355469 L 21.003906 78.355469 Z M 31.503906 75.355469 L 40.503906 75.355469 L 40.503906 78.355469 L 31.503906 78.355469 Z M 42.003906 75.355469 L 51.003906 75.355469 L 51.003906 78.355469 L 42.003906 78.355469 Z M 52.503906 75.355469 L 61.503906 75.355469 L 61.503906 78.355469 L 52.503906 78.355469 Z M 63.003906 75.355469 L 73.070312 75.355469 L 73.070312 77.289062 L 70.070312 77.289062 L 70.070312 76.855469 L 71.570312 76.855469 L 71.570312 78.355469 L 63.003906 78.355469 Z M 73.070312 78.789062 L 73.070312 87.789062 L 70.070312 87.789062 L 70.070312 78.789062 Z M 73.070312 89.289062 L 73.070312 98.289062 L 70.070312 98.289062 L 70.070312 89.289062 Z M 73.070312 99.789062 L 73.070312 108.789062 L 70.070312 108.789062 L 70.070312 99.789062 Z M 73.070312 110.289062 L 73.070312 119.289062 L 70.070312 119.289062 L 70.070312 110.289062 Z M 73.070312 120.789062 L 73.070312 129.789062 L 70.070312 129.789062 L 70.070312 120.789062 Z M 73.070312 131.289062 L 73.070312 132.929688 L 62.707031 132.929688 L 62.707031 129.929688 L 71.570312 129.929688 L 71.570312 131.429688 L 70.070312 131.429688 L 70.070312 131.289062 Z M 61.207031 132.929688 L 52.207031 132.929688 L 52.207031 129.929688 L 61.207031 129.929688 Z M 50.707031 132.929688 L 41.707031 132.929688 L 41.707031 129.929688 L 50.707031 129.929688 Z M 40.207031 132.929688 L 31.207031 132.929688 L 31.207031 129.929688 L 40.207031 129.929688 Z M 29.707031 132.929688 L 20.707031 132.929688 L 20.707031 129.929688 L 29.707031 129.929688 Z M 19.207031 132.929688 L 9.003906 132.929688 L 9.003906 131.136719 L 12.003906 131.136719 L 12.003906 131.429688 L 10.503906 131.429688 L 10.503906 129.929688 L 19.207031 129.929688 Z M 9.003906 129.636719 L 9.003906 120.636719 L 12.003906 120.636719 L 12.003906 129.636719 Z M 9.003906 119.136719 L 9.003906 110.136719 L 12.003906 110.136719 L 12.003906 119.136719 Z M 9.003906 108.636719 L 9.003906 99.636719 L 12.003906 99.636719 L 12.003906 108.636719 Z M 9.003906 98.136719 L 9.003906 89.136719 L 12.003906 89.136719 L 12.003906 98.136719 Z M 9.003906 87.636719 L 9.003906 78.636719 L 12.003906 78.636719 L 12.003906 87.636719 Z M 9.003906 77.136719 L 9.003906 75.355469 L 19.503906 75.355469 L 19.503906 78.355469 L 10.503906 78.355469 L 10.503906 76.855469 L 12.003906 76.855469 L 12.003906 77.136719 Z M 9.003906 77.136719 " fill-opacity="1" fill-rule="nonzero"/></g><g fill="#ffffff" fill-opacity="1"><g transform="translate(17.325851, 114.433369)"><g><path d="M 7.03125 -0.0625 C 5.019531 -0.101562 3.566406 -0.992188 2.671875 -2.734375 C 1.992188 -4.054688 1.65625 -5.820312 1.65625 -8.03125 C 1.65625 -10.25 2 -12.007812 2.6875 -13.3125 C 3.59375 -15.050781 5.066406 -15.929688 7.109375 -15.953125 L 13.140625 -14.6875 L 14.359375 -15.90625 L 17.90625 -15.953125 L 17.90625 -2.21875 L 18.609375 -2.21875 C 19.023438 -2.21875 19.566406 -2.273438 20.234375 -2.390625 L 20.203125 -0.15625 L 15.609375 -0.21875 L 14.390625 -2.3125 L 14.375 -2.3125 L 13.625 -3.625 L 13.625 -12.875 L 9.546875 -13.5625 L 9.5 -13.5625 C 8.019531 -13.5625 6.988281 -12.9375 6.40625 -11.6875 C 6 -10.832031 5.796875 -9.613281 5.796875 -8.03125 C 5.796875 -5.84375 6.195312 -4.253906 7 -3.265625 C 7.625 -2.523438 8.457031 -2.15625 9.5 -2.15625 L 9.578125 -2.15625 L 13.140625 -2.78125 Z M 7.03125 -0.0625 "/></g></g></g><g fill="#ffffff" fill-opacity="1"><g transform="translate(43.452049, 114.208975)"><g><path d="M 6.859375 0.859375 C 6.003906 0.734375 4.800781 0.710938 3.25 0.796875 C 1.445312 0.898438 0.160156 0.921875 -0.609375 0.859375 C -0.773438 0.835938 -0.921875 0.753906 -1.046875 0.609375 C -1.179688 0.484375 -1.238281 0.320312 -1.21875 0.125 C -1.195312 -0.0195312 -1.128906 -0.15625 -1.015625 -0.28125 C -1.171875 -0.414062 -1.25 -0.578125 -1.25 -0.765625 C -1.25 -2.867188 -1.320312 -6.023438 -1.46875 -10.234375 C -1.613281 -14.441406 -1.6875 -17.597656 -1.6875 -19.703125 C -1.6875 -19.984375 -1.707031 -20.347656 -1.75 -20.796875 C -1.75 -20.859375 -1.757812 -21.023438 -1.78125 -21.296875 C -1.820312 -21.578125 -1.851562 -21.789062 -1.875 -21.9375 C -1.96875 -22.957031 -1.914062 -23.796875 -1.71875 -24.453125 C -1.675781 -24.628906 -1.570312 -24.769531 -1.40625 -24.875 C -1.226562 -24.957031 -1.054688 -24.96875 -0.890625 -24.90625 L -0.859375 -24.90625 C -0.835938 -25.09375 -0.828125 -25.242188 -0.828125 -25.359375 C -0.828125 -25.421875 -0.816406 -25.472656 -0.796875 -25.515625 C -0.796875 -25.640625 -0.753906 -25.753906 -0.671875 -25.859375 C -0.410156 -26.203125 -0.0234375 -26.40625 0.484375 -26.46875 C 1.941406 -26.570312 3.117188 -26.613281 4.015625 -26.59375 C 4.890625 -26.570312 6.082031 -26.519531 7.59375 -26.4375 C 9.082031 -26.351562 10.21875 -26.3125 11 -26.3125 C 11.039062 -26.3125 11.222656 -26.320312 11.546875 -26.34375 C 11.835938 -26.363281 12.09375 -26.375 12.3125 -26.375 C 12.675781 -26.375 12.972656 -26.363281 13.203125 -26.34375 C 13.347656 -26.320312 13.488281 -26.289062 13.625 -26.25 C 13.832031 -26.164062 14 -26.035156 14.125 -25.859375 C 14.46875 -25.347656 14.734375 -24.4375 14.921875 -23.125 C 15.066406 -22.125 15.1875 -20.828125 15.28125 -19.234375 C 15.320312 -18.804688 15.382812 -17.46875 15.46875 -15.21875 C 15.550781 -13.789062 15.625 -12.820312 15.6875 -12.3125 C 15.726562 -11.882812 15.800781 -11.265625 15.90625 -10.453125 C 16 -9.648438 16.066406 -9.117188 16.109375 -8.859375 C 16.253906 -7.503906 16.421875 -6.390625 16.609375 -5.515625 C 16.671875 -5.285156 16.84375 -4.710938 17.125 -3.796875 C 17.332031 -3.023438 17.472656 -2.382812 17.546875 -1.875 C 17.585938 -1.5 17.609375 -1.253906 17.609375 -1.140625 C 17.609375 -0.765625 17.5 -0.46875 17.28125 -0.25 C 17.382812 -0.125 17.4375 0.0195312 17.4375 0.1875 C 17.4375 0.382812 17.375 0.546875 17.25 0.671875 C 17.125 0.796875 16.96875 0.859375 16.78125 0.859375 C 16.601562 0.859375 15.789062 0.941406 14.34375 1.109375 C 13.195312 1.265625 12.296875 1.234375 11.640625 1.015625 C 11.335938 0.929688 11.09375 0.707031 10.90625 0.34375 C 10.78125 0.113281 10.664062 -0.191406 10.5625 -0.578125 C 10.425781 -1.066406 10.273438 -1.832031 10.109375 -2.875 C 9.878906 -4.289062 9.738281 -5.097656 9.6875 -5.296875 C 9.5625 -5.972656 9.445312 -6.441406 9.34375 -6.703125 C 9.09375 -6.679688 8.859375 -6.644531 8.640625 -6.59375 C 8.234375 -6.53125 7.90625 -6.46875 7.65625 -6.40625 C 7.632812 -6.382812 7.613281 -6.375 7.59375 -6.375 C 7.570312 -6.019531 7.601562 -5.4375 7.6875 -4.625 C 7.6875 -4.5 7.707031 -4.285156 7.75 -3.984375 C 7.769531 -3.671875 7.789062 -3.4375 7.8125 -3.28125 C 7.851562 -2.789062 7.875 -2.429688 7.875 -2.203125 L 7.875 -1.4375 C 7.832031 -0.988281 7.660156 -0.625 7.359375 -0.34375 L 7.328125 -0.34375 C 7.566406 -0.175781 7.664062 0.03125 7.625 0.28125 C 7.601562 0.476562 7.515625 0.628906 7.359375 0.734375 C 7.210938 0.835938 7.046875 0.878906 6.859375 0.859375 Z M 6.5 -13.9375 C 6.1875 -13.976562 6 -14.160156 5.9375 -14.484375 C 5.894531 -14.773438 5.863281 -15.164062 5.84375 -15.65625 C 5.789062 -16.125 5.753906 -16.453125 5.734375 -16.640625 C 5.734375 -16.734375 5.703125 -16.90625 5.640625 -17.15625 C 5.578125 -17.457031 5.535156 -17.691406 5.515625 -17.859375 C 5.410156 -18.578125 5.460938 -19.117188 5.671875 -19.484375 C 5.804688 -19.691406 6.03125 -19.820312 6.34375 -19.875 C 6.488281 -19.894531 6.660156 -19.90625 6.859375 -19.90625 C 7.171875 -19.882812 7.5625 -19.828125 8.03125 -19.734375 C 8.457031 -19.648438 8.84375 -19.554688 9.1875 -19.453125 C 9.375 -19.390625 9.519531 -19.335938 9.625 -19.296875 C 9.863281 -19.191406 10.023438 -19.070312 10.109375 -18.9375 C 10.410156 -18.519531 10.550781 -17.894531 10.53125 -17.0625 C 10.53125 -16.957031 10.503906 -16.679688 10.453125 -16.234375 L 10.453125 -15.59375 C 10.453125 -15.570312 10.476562 -15.476562 10.53125 -15.3125 L 10.625 -14.734375 C 10.664062 -14.453125 10.664062 -14.226562 10.625 -14.0625 C 10.5625 -13.632812 10.359375 -13.359375 10.015625 -13.234375 C 9.671875 -13.109375 9.148438 -13.066406 8.453125 -13.109375 C 8.367188 -13.109375 8.125 -13.128906 7.71875 -13.171875 C 7.457031 -13.191406 7.273438 -13.203125 7.171875 -13.203125 C 6.984375 -13.203125 6.828125 -13.265625 6.703125 -13.390625 C 6.566406 -13.515625 6.5 -13.675781 6.5 -13.875 Z M 6.953125 -17.546875 L 6.953125 -17.40625 C 7.015625 -17.132812 7.054688 -16.945312 7.078125 -16.84375 C 7.097656 -16.601562 7.128906 -16.226562 7.171875 -15.71875 C 7.191406 -15.269531 7.222656 -14.941406 7.265625 -14.734375 L 7.265625 -14.546875 C 7.421875 -14.546875 7.613281 -14.535156 7.84375 -14.515625 C 7.863281 -14.515625 7.925781 -14.515625 8.03125 -14.515625 C 8.144531 -14.492188 8.234375 -14.484375 8.296875 -14.484375 C 8.140625 -14.835938 8.050781 -15.21875 8.03125 -15.625 C 7.988281 -16.007812 7.988281 -16.382812 8.03125 -16.75 L 8.0625 -17.25 L 8.03125 -17.40625 L 8.03125 -17.375 C 7.863281 -17.488281 7.503906 -17.546875 6.953125 -17.546875 Z M 0.515625 -25.125 C 0.515625 -25.039062 0.503906 -24.9375 0.484375 -24.8125 L 0.484375 -23.3125 C 0.484375 -22.207031 0.503906 -20.695312 0.546875 -18.78125 C 0.546875 -17.78125 0.554688 -16.71875 0.578125 -15.59375 C 0.597656 -14.46875 0.617188 -13.507812 0.640625 -12.71875 C 0.660156 -11.9375 0.671875 -11.503906 0.671875 -11.421875 C 0.671875 -10.992188 0.671875 -9.953125 0.671875 -8.296875 C 0.648438 -6.628906 0.671875 -5.273438 0.734375 -4.234375 C 0.796875 -3.191406 0.929688 -2.195312 1.140625 -1.25 C 2.335938 -1.226562 3.253906 -1.21875 3.890625 -1.21875 C 4.679688 -1.21875 5.304688 -1.238281 5.765625 -1.28125 C 6.023438 -1.300781 6.226562 -1.332031 6.375 -1.375 C 6.414062 -1.375 6.457031 -1.382812 6.5 -1.40625 C 6.519531 -1.425781 6.53125 -1.476562 6.53125 -1.5625 C 6.550781 -1.5625 6.5625 -1.65625 6.5625 -1.84375 C 6.539062 -2.019531 6.53125 -2.140625 6.53125 -2.203125 C 6.53125 -2.390625 6.507812 -2.707031 6.46875 -3.15625 C 6.445312 -3.300781 6.425781 -3.535156 6.40625 -3.859375 C 6.382812 -4.160156 6.363281 -4.375 6.34375 -4.5 C 6.238281 -5.726562 6.226562 -6.523438 6.3125 -6.890625 C 6.351562 -7.117188 6.503906 -7.3125 6.765625 -7.46875 C 6.910156 -7.550781 7.078125 -7.625 7.265625 -7.6875 C 7.566406 -7.769531 7.960938 -7.851562 8.453125 -7.9375 C 9.410156 -8.0625 10.101562 -8.101562 10.53125 -8.0625 C 11.144531 -8 11.585938 -7.507812 11.859375 -6.59375 C 12.015625 -6.15625 12.15625 -5.425781 12.28125 -4.40625 C 12.425781 -3.25 12.53125 -2.523438 12.59375 -2.234375 C 12.71875 -1.640625 12.847656 -1.289062 12.984375 -1.1875 C 13.046875 -1.132812 13.210938 -1.085938 13.484375 -1.046875 C 13.722656 -1.003906 13.988281 -0.984375 14.28125 -0.984375 C 15.34375 -0.984375 16.003906 -1.035156 16.265625 -1.140625 L 16.265625 -1.1875 C 16.265625 -1.226562 16.242188 -1.414062 16.203125 -1.75 C 16.160156 -2.15625 16.03125 -2.707031 15.8125 -3.40625 C 15.539062 -4.34375 15.382812 -4.941406 15.34375 -5.203125 C 15.125 -6.128906 14.929688 -7.296875 14.765625 -8.703125 C 14.722656 -8.960938 14.660156 -9.492188 14.578125 -10.296875 C 14.492188 -11.085938 14.414062 -11.695312 14.34375 -12.125 C 14.28125 -12.675781 14.21875 -13.679688 14.15625 -15.140625 C 14.050781 -17.378906 13.976562 -18.710938 13.9375 -19.140625 C 13.851562 -20.710938 13.734375 -21.972656 13.578125 -22.921875 C 13.429688 -24.015625 13.296875 -24.695312 13.171875 -24.96875 C 13.148438 -24.988281 13.109375 -25 13.046875 -25 C 12.867188 -25.019531 12.632812 -25.03125 12.34375 -25.03125 C 12.125 -25.03125 11.859375 -25.019531 11.546875 -25 C 11.222656 -24.976562 11.039062 -24.96875 11 -24.96875 C 10.125 -24.96875 8.957031 -25.007812 7.5 -25.09375 C 6.007812 -25.175781 4.847656 -25.226562 4.015625 -25.25 C 3.191406 -25.28125 2.054688 -25.238281 0.609375 -25.125 Z M 0.453125 -25.09375 L 0.421875 -25.09375 Z M 0.453125 -25.09375 "/></g></g></g><g clip-path="url(#f1f92f3cea)"><path fill="#ffffff" d="M 91.550781 75.355469 L 100.550781 75.355469 L 100.550781 78.355469 L 91.550781 78.355469 Z M 102.050781 75.355469 L 111.050781 75.355469 L 111.050781 78.355469 L 102.050781 78.355469 Z M 112.550781 75.355469 L 121.550781 75.355469 L 121.550781 78.355469 L 112.550781 78.355469 Z M 123.050781 75.355469 L 132.050781 75.355469 L 132.050781 78.355469 L 123.050781 78.355469 Z M 133.550781 75.355469 L 143.617188 75.355469 L 143.617188 77.289062 L 140.617188 77.289062 L 140.617188 76.855469 L 142.117188 76.855469 L 142.117188 78.355469 L 133.550781 78.355469 Z M 143.617188 78.789062 L 143.617188 87.789062 L 140.617188 87.789062 L 140.617188 78.789062 Z M 143.617188 89.289062 L 143.617188 98.289062 L 140.617188 98.289062 L 140.617188 89.289062 Z M 143.617188 99.789062 L 143.617188 108.789062 L 140.617188 108.789062 L 140.617188 99.789062 Z M 143.617188 110.289062 L 143.617188 119.289062 L 140.617188 119.289062 L 140.617188 110.289062 Z M 143.617188 120.789062 L 143.617188 129.789062 L 140.617188 129.789062 L 140.617188 120.789062 Z M 143.617188 131.289062 L 143.617188 132.929688 L 133.257812 132.929688 L 133.257812 129.929688 L 142.117188 129.929688 L 142.117188 131.429688 L 140.617188 131.429688 L 140.617188 131.289062 Z M 131.757812 132.929688 L 122.757812 132.929688 L 122.757812 129.929688 L 131.757812 129.929688 Z M 121.257812 132.929688 L 112.257812 132.929688 L 112.257812 129.929688 L 121.257812 129.929688 Z M 110.757812 132.929688 L 101.757812 132.929688 L 101.757812 129.929688 L 110.757812 129.929688 Z M 100.257812 132.929688 L 91.257812 132.929688 L 91.257812 129.929688 L 100.257812 129.929688 Z M 89.757812 132.929688 L 79.550781 132.929688 L 79.550781 131.136719 L 82.550781 131.136719 L 82.550781 131.429688 L 81.050781 131.429688 L 81.050781 129.929688 L 89.757812 129.929688 Z M 79.550781 129.636719 L 79.550781 120.636719 L 82.550781 120.636719 L 82.550781 129.636719 Z M 79.550781 119.136719 L 79.550781 110.136719 L 82.550781 110.136719 L 82.550781 119.136719 Z M 79.550781 108.636719 L 79.550781 99.636719 L 82.550781 99.636719 L 82.550781 108.636719 Z M 79.550781 98.136719 L 79.550781 89.136719 L 82.550781 89.136719 L 82.550781 98.136719 Z M 79.550781 87.636719 L 79.550781 78.636719 L 82.550781 78.636719 L 82.550781 87.636719 Z M 79.550781 77.136719 L 79.550781 75.355469 L 90.050781 75.355469 L 90.050781 78.355469 L 81.050781 78.355469 L 81.050781 76.855469 L 82.550781 76.855469 L 82.550781 77.136719 Z M 79.550781 77.136719 " fill-opacity="1" fill-rule="nonzero"/></g><g fill="#ffffff" fill-opacity="1"><g transform="translate(88.400342, 116.204132)"><g><path d="M 15.171875 -1.15625 C 15.378906 -1.15625 15.535156 -1.101562 15.640625 -1 C 15.753906 -0.863281 15.8125 -0.726562 15.8125 -0.59375 C 15.8125 -0.4375 15.753906 -0.304688 15.640625 -0.203125 C 15.515625 -0.0664062 15.359375 0 15.171875 0 L 11.125 0 C 10.96875 0 10.820312 -0.0507812 10.6875 -0.15625 C 10.550781 -0.257812 10.46875 -0.40625 10.4375 -0.59375 L 10.4375 -1.359375 C 9.9375 -0.910156 9.351562 -0.523438 8.6875 -0.203125 C 7.988281 0.117188 7.082031 0.28125 5.96875 0.28125 C 5.375 0.28125 4.769531 0.171875 4.15625 -0.046875 C 3.539062 -0.253906 2.992188 -0.570312 2.515625 -1 C 2.015625 -1.394531 1.601562 -1.914062 1.28125 -2.5625 C 0.957031 -3.175781 0.796875 -3.882812 0.796875 -4.6875 C 0.796875 -5.644531 1.023438 -6.484375 1.484375 -7.203125 C 1.910156 -7.898438 2.492188 -8.472656 3.234375 -8.921875 C 3.960938 -9.378906 4.789062 -9.710938 5.71875 -9.921875 C 6.65625 -10.140625 7.601562 -10.25 8.5625 -10.25 C 8.957031 -10.25 9.316406 -10.234375 9.640625 -10.203125 C 9.960938 -10.171875 10.226562 -10.144531 10.4375 -10.125 L 10.4375 -12.96875 C 10.4375 -13.582031 10.453125 -14.207031 10.484375 -14.84375 C 10.484375 -15.457031 10.429688 -16.019531 10.328125 -16.53125 C 10.210938 -17.007812 10.023438 -17.410156 9.765625 -17.734375 C 9.492188 -18.046875 9.078125 -18.203125 8.515625 -18.203125 C 7.960938 -18.203125 7.414062 -18.125 6.875 -17.96875 C 6.320312 -17.78125 5.882812 -17.539062 5.5625 -17.25 C 5.21875 -16.925781 5.03125 -16.550781 5 -16.125 C 4.976562 -15.675781 5.191406 -15.179688 5.640625 -14.640625 C 5.984375 -14.210938 6.195312 -13.785156 6.28125 -13.359375 C 6.332031 -12.929688 6.289062 -12.546875 6.15625 -12.203125 C 6 -11.859375 5.757812 -11.578125 5.4375 -11.359375 C 5.09375 -11.117188 4.722656 -10.988281 4.328125 -10.96875 C 3.492188 -10.914062 2.851562 -11.113281 2.40625 -11.5625 C 1.945312 -12.019531 1.71875 -12.609375 1.71875 -13.328125 C 1.71875 -13.859375 1.835938 -14.441406 2.078125 -15.078125 C 2.316406 -15.722656 2.703125 -16.328125 3.234375 -16.890625 C 3.773438 -17.421875 4.484375 -17.875 5.359375 -18.25 C 6.210938 -18.59375 7.265625 -18.765625 8.515625 -18.765625 C 10.523438 -18.765625 11.984375 -18.296875 12.890625 -17.359375 C 13.765625 -16.398438 14.203125 -14.910156 14.203125 -12.890625 L 14.25 -4 C 14.25 -3.675781 14.257812 -3.359375 14.28125 -3.046875 C 14.3125 -2.691406 14.367188 -2.382812 14.453125 -2.125 C 14.503906 -1.832031 14.59375 -1.601562 14.71875 -1.4375 C 14.832031 -1.25 14.984375 -1.15625 15.171875 -1.15625 Z M 7.40625 -0.796875 C 8.09375 -0.796875 8.691406 -0.941406 9.203125 -1.234375 C 9.710938 -1.535156 10.125 -1.859375 10.4375 -2.203125 L 10.4375 -9.328125 C 10.28125 -9.398438 10.054688 -9.492188 9.765625 -9.609375 C 9.472656 -9.679688 9.070312 -9.71875 8.5625 -9.71875 C 7.226562 -9.71875 6.242188 -9.265625 5.609375 -8.359375 C 4.941406 -7.453125 4.609375 -6.226562 4.609375 -4.6875 C 4.609375 -3.320312 4.859375 -2.332031 5.359375 -1.71875 C 5.867188 -1.101562 6.550781 -0.796875 7.40625 -0.796875 Z M 7.40625 -0.796875 "/></g></g></g><g fill="#ffffff" fill-opacity="1"><g transform="translate(107.02651, 116.9008)"><g><path d="M 11.4375 0 L 1.203125 0 L 1.203125 -1.28125 C 1.203125 -2.800781 1.476562 -4.082031 2.03125 -5.125 C 2.59375 -6.164062 3.328125 -7.023438 4.234375 -7.703125 C 5.148438 -8.378906 6.15625 -8.925781 7.25 -9.34375 C 8.34375 -9.757812 9.4375 -10.078125 10.53125 -10.296875 C 11.625 -10.523438 12.625 -10.707031 13.53125 -10.84375 C 14.4375 -10.976562 15.164062 -11.117188 15.71875 -11.265625 C 16.28125 -11.410156 16.5625 -11.617188 16.5625 -11.890625 C 16.5625 -12.179688 16.367188 -12.363281 15.984375 -12.4375 C 15.597656 -12.519531 15.097656 -12.5625 14.484375 -12.5625 C 14.191406 -12.5625 13.867188 -12.554688 13.515625 -12.546875 C 13.171875 -12.535156 12.8125 -12.53125 12.4375 -12.53125 C 11.613281 -12.53125 10.757812 -12.585938 9.875 -12.703125 C 9 -12.828125 8.1875 -13.066406 7.4375 -13.421875 C 6.695312 -13.785156 6.097656 -14.347656 5.640625 -15.109375 C 5.191406 -15.867188 4.96875 -16.898438 4.96875 -18.203125 C 4.96875 -19.617188 5.3125 -20.921875 6 -22.109375 C 6.695312 -23.296875 7.582031 -24.328125 8.65625 -25.203125 C 9.738281 -26.085938 10.875 -26.773438 12.0625 -27.265625 C 13.25 -27.765625 14.320312 -28.015625 15.28125 -28.015625 L 16 -28.015625 C 17.875 -28.015625 19.488281 -27.515625 20.84375 -26.515625 C 22.207031 -25.515625 23.351562 -24.171875 24.28125 -22.484375 C 25.21875 -20.804688 25.976562 -18.945312 26.5625 -16.90625 C 27.15625 -14.863281 27.601562 -12.785156 27.90625 -10.671875 C 28.21875 -8.566406 28.429688 -6.585938 28.546875 -4.734375 C 28.671875 -2.878906 28.734375 -1.300781 28.734375 0 L 19.328125 0 C 19.328125 -2.75 19.300781 -5.414062 19.25 -8 C 19.195312 -10.59375 19.101562 -13 18.96875 -15.21875 C 18.832031 -17.445312 18.625 -19.394531 18.34375 -21.0625 C 18.0625 -22.726562 17.691406 -24.035156 17.234375 -24.984375 C 16.785156 -25.929688 16.226562 -26.40625 15.5625 -26.40625 C 15.21875 -26.40625 14.878906 -26.1875 14.546875 -25.75 C 14.210938 -25.3125 13.910156 -24.742188 13.640625 -24.046875 C 13.378906 -23.359375 13.164062 -22.648438 13 -21.921875 C 12.84375 -21.203125 12.765625 -20.566406 12.765625 -20.015625 C 12.765625 -19.046875 12.941406 -18.25 13.296875 -17.625 C 13.660156 -17 14.113281 -16.457031 14.65625 -16 C 15.207031 -15.550781 15.75 -15.132812 16.28125 -14.75 C 16.820312 -14.363281 17.269531 -13.945312 17.625 -13.5 C 17.988281 -13.0625 18.171875 -12.535156 18.171875 -11.921875 C 18.171875 -11.117188 17.941406 -10.488281 17.484375 -10.03125 C 17.035156 -9.582031 16.476562 -9.203125 15.8125 -8.890625 C 15.144531 -8.585938 14.476562 -8.242188 13.8125 -7.859375 C 13.144531 -7.472656 12.582031 -6.9375 12.125 -6.25 C 11.664062 -5.570312 11.4375 -4.648438 11.4375 -3.484375 Z M 11.4375 0 "/></g></g></g></svg>