<svg xmlns="http://www.w3.org/2000/svg" xmlns:xlink="http://www.w3.org/1999/xlink" width="200" zoomAndPan="magnify" viewBox="0 0 150 149.999998" height="200" preserveAspectRatio="xMidYMid meet" version="1.0"><defs><g/><clipPath id="e4588c42c6"><path d="M 5.992188 18.148438 L 143.992188 18.148438 L 143.992188 128.398438 L 5.992188 128.398438 Z M 5.992188 18.148438 " clip-rule="nonzero"/></clipPath></defs><g clip-path="url(#e4588c42c6)"><path fill="#ffffff" d="M 61.199219 18.148438 L 19.796875 18.148438 C 12.171875 18.148438 6.066406 24.324219 6.066406 31.949219 L 5.996094 114.75 C 5.996094 122.375 12.171875 128.550781 19.796875 128.550781 L 130.199219 128.550781 C 137.824219 128.550781 144 122.375 144 114.75 L 144 45.75 C 144 38.125 137.824219 31.949219 130.199219 31.949219 L 75 31.949219 Z M 61.199219 18.148438 " fill-opacity="1" fill-rule="nonzero"/></g><g fill="#171717" fill-opacity="1"><g transform="translate(33.873533, 85.356856)"><g><path d="M 16.3125 0 L 1.71875 0 L 1.71875 -1.828125 C 1.71875 -3.992188 2.113281 -5.816406 2.90625 -7.296875 C 3.707031 -8.785156 4.753906 -10.015625 6.046875 -10.984375 C 7.335938 -11.953125 8.765625 -12.726562 10.328125 -13.3125 C 11.890625 -13.90625 13.445312 -14.363281 15 -14.6875 C 16.5625 -15.007812 17.988281 -15.265625 19.28125 -15.453125 C 20.570312 -15.648438 21.617188 -15.851562 22.421875 -16.0625 C 23.222656 -16.269531 23.625 -16.5625 23.625 -16.9375 C 23.625 -17.363281 23.347656 -17.628906 22.796875 -17.734375 C 22.242188 -17.847656 21.53125 -17.90625 20.65625 -17.90625 C 20.238281 -17.90625 19.78125 -17.894531 19.28125 -17.875 C 18.789062 -17.863281 18.273438 -17.859375 17.734375 -17.859375 C 16.554688 -17.859375 15.335938 -17.941406 14.078125 -18.109375 C 12.828125 -18.285156 11.671875 -18.628906 10.609375 -19.140625 C 9.546875 -19.648438 8.691406 -20.445312 8.046875 -21.53125 C 7.398438 -22.613281 7.078125 -24.085938 7.078125 -25.953125 C 7.078125 -27.972656 7.570312 -29.828125 8.5625 -31.515625 C 9.550781 -33.210938 10.8125 -34.6875 12.34375 -35.9375 C 13.882812 -37.195312 15.5 -38.175781 17.1875 -38.875 C 18.882812 -39.582031 20.421875 -39.9375 21.796875 -39.9375 L 22.8125 -39.9375 C 25.476562 -39.9375 27.78125 -39.222656 29.71875 -37.796875 C 31.65625 -36.367188 33.289062 -34.457031 34.625 -32.0625 C 35.957031 -29.664062 37.039062 -27.007812 37.875 -24.09375 C 38.71875 -21.1875 39.359375 -18.226562 39.796875 -15.21875 C 40.234375 -12.21875 40.535156 -9.394531 40.703125 -6.75 C 40.867188 -4.113281 40.953125 -1.863281 40.953125 0 L 27.546875 0 C 27.546875 -3.914062 27.507812 -7.71875 27.4375 -11.40625 C 27.363281 -15.09375 27.226562 -18.523438 27.03125 -21.703125 C 26.84375 -24.878906 26.550781 -27.65625 26.15625 -30.03125 C 25.757812 -32.40625 25.238281 -34.269531 24.59375 -35.625 C 23.945312 -36.976562 23.144531 -37.65625 22.1875 -37.65625 C 21.695312 -37.65625 21.210938 -37.335938 20.734375 -36.703125 C 20.265625 -36.078125 19.835938 -35.269531 19.453125 -34.28125 C 19.066406 -33.289062 18.757812 -32.28125 18.53125 -31.25 C 18.3125 -30.226562 18.203125 -29.320312 18.203125 -28.53125 C 18.203125 -27.15625 18.457031 -26.019531 18.96875 -25.125 C 19.476562 -24.226562 20.125 -23.457031 20.90625 -22.8125 C 21.6875 -22.164062 22.457031 -21.566406 23.21875 -21.015625 C 23.976562 -20.460938 24.613281 -19.875 25.125 -19.25 C 25.644531 -18.625 25.90625 -17.875 25.90625 -17 C 25.90625 -15.851562 25.578125 -14.957031 24.921875 -14.3125 C 24.273438 -13.664062 23.476562 -13.125 22.53125 -12.6875 C 21.582031 -12.25 20.628906 -11.753906 19.671875 -11.203125 C 18.722656 -10.648438 17.925781 -9.890625 17.28125 -8.921875 C 16.632812 -7.953125 16.3125 -6.632812 16.3125 -4.96875 Z M 16.3125 0 "/></g></g></g><g fill="#171717" fill-opacity="1"><g transform="translate(74.941953, 102.280897)"><g><path d="M 0.578125 0 L 0.578125 -0.734375 L 2.421875 -1.390625 C 3.390625 -1.773438 4.140625 -2.25 4.671875 -2.8125 C 5.210938 -3.375 5.65625 -4.171875 6 -5.203125 L 21.078125 -48.453125 L 27.296875 -48.453125 L 42.15625 -4.90625 C 42.539062 -3.832031 42.976562 -3.015625 43.46875 -2.453125 C 43.957031 -1.890625 44.71875 -1.414062 45.75 -1.03125 L 46.625 -0.734375 L 46.625 0 L 28.03125 0 L 28.03125 -0.734375 L 29.125 -1.09375 C 30.15625 -1.488281 30.78125 -2.039062 31 -2.75 C 31.21875 -3.457031 31.179688 -4.296875 30.890625 -5.265625 L 27.453125 -15.8125 L 11.203125 -15.8125 L 7.6875 -5.484375 C 7.34375 -4.410156 7.226562 -3.554688 7.34375 -2.921875 C 7.46875 -2.285156 8.046875 -1.773438 9.078125 -1.390625 L 10.6875 -0.734375 L 10.6875 0 Z M 11.703125 -17.265625 L 27 -17.265625 L 19.609375 -40.03125 Z M 11.703125 -17.265625 "/></g></g></g></svg>