<svg xmlns="http://www.w3.org/2000/svg" xmlns:xlink="http://www.w3.org/1999/xlink" width="200" zoomAndPan="magnify" viewBox="0 0 150 149.999998" height="200" preserveAspectRatio="xMidYMid meet" version="1.0"><defs><g/></defs><g fill="#ffffff" fill-opacity="1"><g transform="translate(6.471355, 64.502591)"><g><path d="M 21.78125 -9.796875 C 22.726562 -9.796875 23.347656 -9.445312 23.640625 -8.75 C 23.929688 -8.0625 23.921875 -7.222656 23.609375 -6.234375 C 23.296875 -5.253906 22.691406 -4.269531 21.796875 -3.28125 C 20.910156 -2.300781 19.738281 -1.5 18.28125 -0.875 C 16.3125 -0.0703125 14.660156 0.21875 13.328125 0 C 11.992188 -0.21875 10.859375 -0.800781 9.921875 -1.75 C 8.992188 -2.695312 8.128906 -3.847656 7.328125 -5.203125 C 6.960938 -5.890625 6.585938 -6.539062 6.203125 -7.15625 C 5.828125 -7.78125 5.4375 -8.273438 5.03125 -8.640625 C 4.664062 -8.972656 4.289062 -9.070312 3.90625 -8.9375 C 3.53125 -8.8125 3.160156 -8.273438 2.796875 -7.328125 C 2.535156 -6.710938 2.269531 -6.550781 2 -6.84375 C 1.726562 -7.132812 1.484375 -7.679688 1.265625 -8.484375 C 1.046875 -9.285156 0.867188 -10.164062 0.734375 -11.125 C 0.609375 -12.09375 0.566406 -12.960938 0.609375 -13.734375 C 0.710938 -15.816406 1.25 -17.785156 2.21875 -19.640625 C 3.1875 -21.503906 4.570312 -23.019531 6.375 -24.1875 C 8.175781 -25.351562 10.410156 -25.9375 13.078125 -25.9375 C 16.546875 -25.96875 19.117188 -25.207031 20.796875 -23.65625 C 22.472656 -22.113281 23.328125 -20.117188 23.359375 -17.671875 C 23.359375 -17.671875 23.09375 -17.597656 22.5625 -17.453125 C 22.039062 -17.304688 21.378906 -17.125 20.578125 -16.90625 C 19.773438 -16.6875 18.914062 -16.476562 18 -16.28125 C 17.09375 -16.082031 16.253906 -15.925781 15.484375 -15.8125 C 15.410156 -15.957031 15.363281 -16.054688 15.34375 -16.109375 C 15.332031 -16.171875 15.289062 -16.253906 15.21875 -16.359375 C 16.050781 -17.890625 16.484375 -19.320312 16.515625 -20.65625 C 16.554688 -21.988281 16.285156 -23.09375 15.703125 -23.96875 C 15.117188 -24.84375 14.242188 -25.296875 13.078125 -25.328125 C 11.941406 -25.398438 10.984375 -24.863281 10.203125 -23.71875 C 9.421875 -22.570312 8.828125 -21.078125 8.421875 -19.234375 C 8.023438 -17.390625 7.804688 -15.445312 7.765625 -13.40625 C 7.765625 -12.019531 7.835938 -10.550781 7.984375 -9 C 8.128906 -7.445312 8.46875 -6.023438 9 -4.734375 C 9.53125 -3.441406 10.320312 -2.4375 11.375 -1.71875 C 12.4375 -1.007812 13.878906 -0.785156 15.703125 -1.046875 C 16.910156 -1.222656 17.992188 -1.6875 18.953125 -2.4375 C 19.921875 -3.1875 20.40625 -4.34375 20.40625 -5.90625 C 20.40625 -6.601562 19.921875 -7.210938 18.953125 -7.734375 C 17.992188 -8.265625 16.800781 -8.664062 15.375 -8.9375 C 13.945312 -9.21875 12.503906 -9.320312 11.046875 -9.25 C 11.046875 -9.25 11.007812 -9.253906 10.9375 -9.265625 C 10.863281 -9.285156 10.828125 -9.367188 10.828125 -9.515625 C 10.828125 -9.628906 10.863281 -9.703125 10.9375 -9.734375 C 11.007812 -9.773438 11.046875 -9.796875 11.046875 -9.796875 C 11.191406 -9.796875 11.726562 -9.796875 12.65625 -9.796875 C 13.59375 -9.796875 14.679688 -9.796875 15.921875 -9.796875 C 17.160156 -9.796875 18.335938 -9.796875 19.453125 -9.796875 C 20.566406 -9.796875 21.34375 -9.796875 21.78125 -9.796875 Z M 21.78125 -9.796875 "/></g></g></g><g fill="#ffffff" fill-opacity="1"><g transform="translate(30.868944, 64.502591)"><g><path d="M 19.59375 -8.484375 C 19.84375 -7.203125 20.050781 -5.941406 20.21875 -4.703125 C 20.382812 -3.460938 20.394531 -2.429688 20.25 -1.609375 C 20.101562 -0.796875 19.644531 -0.316406 18.875 -0.171875 C 15.925781 0.0546875 13.273438 0.171875 10.921875 0.171875 C 8.566406 0.171875 6.664062 0.113281 5.21875 0 C 3.78125 -0.113281 2.9375 -0.171875 2.6875 -0.171875 C 1.914062 -0.316406 1.457031 -0.796875 1.3125 -1.609375 C 1.164062 -2.429688 1.179688 -3.460938 1.359375 -4.703125 C 1.546875 -5.941406 1.75 -7.203125 1.96875 -8.484375 C 2.445312 -11.066406 2.738281 -13.160156 2.84375 -14.765625 C 2.957031 -16.378906 2.941406 -17.804688 2.796875 -19.046875 C 2.648438 -21.046875 2.8125 -22.53125 3.28125 -23.5 C 3.757812 -24.46875 4.414062 -25.101562 5.25 -25.40625 C 6.09375 -25.71875 6.96875 -25.859375 7.875 -25.828125 C 8.425781 -25.828125 9.21875 -25.828125 10.25 -25.828125 C 11.289062 -25.828125 12.421875 -25.828125 13.640625 -25.828125 C 14.867188 -25.828125 16.039062 -25.828125 17.15625 -25.828125 C 18.269531 -25.828125 19.191406 -25.828125 19.921875 -25.828125 C 20.648438 -25.828125 21.015625 -25.828125 21.015625 -25.828125 C 21.191406 -25.785156 21.257812 -25.679688 21.21875 -25.515625 C 21.1875 -25.359375 21.117188 -25.28125 21.015625 -25.28125 C 20.097656 -24.84375 19.507812 -24.296875 19.25 -23.640625 C 19 -22.984375 18.898438 -22.195312 18.953125 -21.28125 C 19.015625 -20.375 19.023438 -19.316406 18.984375 -18.109375 C 18.984375 -18.109375 18.972656 -17.625 18.953125 -16.65625 C 18.941406 -15.695312 18.976562 -14.484375 19.0625 -13.015625 C 19.15625 -11.554688 19.332031 -10.046875 19.59375 -8.484375 Z M 3.5 -14.828125 C 3.425781 -11.941406 3.734375 -9.457031 4.421875 -7.375 C 5.117188 -5.300781 6.039062 -3.679688 7.1875 -2.515625 C 8.34375 -1.347656 9.554688 -0.679688 10.828125 -0.515625 C 12.109375 -0.359375 13.320312 -0.753906 14.46875 -1.703125 C 15.625 -2.648438 16.546875 -4.207031 17.234375 -6.375 C 17.929688 -8.539062 18.242188 -11.359375 18.171875 -14.828125 C 18.171875 -16.691406 17.773438 -18.25 16.984375 -19.5 C 16.203125 -20.757812 15.207031 -21.679688 14 -22.265625 C 12.800781 -22.847656 11.535156 -23.09375 10.203125 -23 C 8.867188 -22.914062 7.675781 -22.488281 6.625 -21.71875 C 5.707031 -21.0625 4.957031 -20.164062 4.375 -19.03125 C 3.789062 -17.90625 3.5 -16.503906 3.5 -14.828125 Z M 10.390625 -14.34375 C 10.898438 -14.34375 11.375 -14.078125 11.8125 -13.546875 C 12.25 -13.015625 12.46875 -12.492188 12.46875 -11.984375 C 12.46875 -11.472656 12.457031 -10.976562 12.4375 -10.5 C 12.425781 -10.03125 12.164062 -9.796875 11.65625 -9.796875 C 11.144531 -9.796875 10.6875 -10.03125 10.28125 -10.5 C 9.882812 -10.976562 9.6875 -11.472656 9.6875 -11.984375 C 9.6875 -12.492188 9.675781 -13.015625 9.65625 -13.546875 C 9.632812 -14.078125 9.878906 -14.34375 10.390625 -14.34375 Z M 10.390625 -14.34375 "/></g></g></g><g fill="#ffffff" fill-opacity="1"><g transform="translate(51.984345, 64.502591)"><g><path d="M 19.59375 -8.484375 C 19.84375 -7.203125 20.050781 -5.941406 20.21875 -4.703125 C 20.382812 -3.460938 20.394531 -2.429688 20.25 -1.609375 C 20.101562 -0.796875 19.644531 -0.316406 18.875 -0.171875 C 15.925781 0.0546875 13.273438 0.171875 10.921875 0.171875 C 8.566406 0.171875 6.664062 0.113281 5.21875 0 C 3.78125 -0.113281 2.9375 -0.171875 2.6875 -0.171875 C 1.914062 -0.316406 1.457031 -0.796875 1.3125 -1.609375 C 1.164062 -2.429688 1.179688 -3.460938 1.359375 -4.703125 C 1.546875 -5.941406 1.75 -7.203125 1.96875 -8.484375 C 2.445312 -11.066406 2.738281 -13.160156 2.84375 -14.765625 C 2.957031 -16.378906 2.941406 -17.804688 2.796875 -19.046875 C 2.648438 -21.046875 2.8125 -22.53125 3.28125 -23.5 C 3.757812 -24.46875 4.414062 -25.101562 5.25 -25.40625 C 6.09375 -25.71875 6.96875 -25.859375 7.875 -25.828125 C 8.425781 -25.828125 9.21875 -25.828125 10.25 -25.828125 C 11.289062 -25.828125 12.421875 -25.828125 13.640625 -25.828125 C 14.867188 -25.828125 16.039062 -25.828125 17.15625 -25.828125 C 18.269531 -25.828125 19.191406 -25.828125 19.921875 -25.828125 C 20.648438 -25.828125 21.015625 -25.828125 21.015625 -25.828125 C 21.191406 -25.785156 21.257812 -25.679688 21.21875 -25.515625 C 21.1875 -25.359375 21.117188 -25.28125 21.015625 -25.28125 C 20.097656 -24.84375 19.507812 -24.296875 19.25 -23.640625 C 19 -22.984375 18.898438 -22.195312 18.953125 -21.28125 C 19.015625 -20.375 19.023438 -19.316406 18.984375 -18.109375 C 18.984375 -18.109375 18.972656 -17.625 18.953125 -16.65625 C 18.941406 -15.695312 18.976562 -14.484375 19.0625 -13.015625 C 19.15625 -11.554688 19.332031 -10.046875 19.59375 -8.484375 Z M 3.5 -14.828125 C 3.425781 -11.941406 3.734375 -9.457031 4.421875 -7.375 C 5.117188 -5.300781 6.039062 -3.679688 7.1875 -2.515625 C 8.34375 -1.347656 9.554688 -0.679688 10.828125 -0.515625 C 12.109375 -0.359375 13.320312 -0.753906 14.46875 -1.703125 C 15.625 -2.648438 16.546875 -4.207031 17.234375 -6.375 C 17.929688 -8.539062 18.242188 -11.359375 18.171875 -14.828125 C 18.171875 -16.691406 17.773438 -18.25 16.984375 -19.5 C 16.203125 -20.757812 15.207031 -21.679688 14 -22.265625 C 12.800781 -22.847656 11.535156 -23.09375 10.203125 -23 C 8.867188 -22.914062 7.675781 -22.488281 6.625 -21.71875 C 5.707031 -21.0625 4.957031 -20.164062 4.375 -19.03125 C 3.789062 -17.90625 3.5 -16.503906 3.5 -14.828125 Z M 10.390625 -14.34375 C 10.898438 -14.34375 11.375 -14.078125 11.8125 -13.546875 C 12.25 -13.015625 12.46875 -12.492188 12.46875 -11.984375 C 12.46875 -11.472656 12.457031 -10.976562 12.4375 -10.5 C 12.425781 -10.03125 12.164062 -9.796875 11.65625 -9.796875 C 11.144531 -9.796875 10.6875 -10.03125 10.28125 -10.5 C 9.882812 -10.976562 9.6875 -11.472656 9.6875 -11.984375 C 9.6875 -12.492188 9.675781 -13.015625 9.65625 -13.546875 C 9.632812 -14.078125 9.878906 -14.34375 10.390625 -14.34375 Z M 10.390625 -14.34375 "/></g></g></g><g fill="#ffffff" fill-opacity="1"><g transform="translate(73.099746, 64.502591)"><g><path d="M 21.78125 -9.796875 C 22.726562 -9.796875 23.347656 -9.445312 23.640625 -8.75 C 23.929688 -8.0625 23.921875 -7.222656 23.609375 -6.234375 C 23.296875 -5.253906 22.691406 -4.269531 21.796875 -3.28125 C 20.910156 -2.300781 19.738281 -1.5 18.28125 -0.875 C 16.3125 -0.0703125 14.660156 0.21875 13.328125 0 C 11.992188 -0.21875 10.859375 -0.800781 9.921875 -1.75 C 8.992188 -2.695312 8.128906 -3.847656 7.328125 -5.203125 C 6.960938 -5.890625 6.585938 -6.539062 6.203125 -7.15625 C 5.828125 -7.78125 5.4375 -8.273438 5.03125 -8.640625 C 4.664062 -8.972656 4.289062 -9.070312 3.90625 -8.9375 C 3.53125 -8.8125 3.160156 -8.273438 2.796875 -7.328125 C 2.535156 -6.710938 2.269531 -6.550781 2 -6.84375 C 1.726562 -7.132812 1.484375 -7.679688 1.265625 -8.484375 C 1.046875 -9.285156 0.867188 -10.164062 0.734375 -11.125 C 0.609375 -12.09375 0.566406 -12.960938 0.609375 -13.734375 C 0.710938 -15.816406 1.25 -17.785156 2.21875 -19.640625 C 3.1875 -21.503906 4.570312 -23.019531 6.375 -24.1875 C 8.175781 -25.351562 10.410156 -25.9375 13.078125 -25.9375 C 16.546875 -25.96875 19.117188 -25.207031 20.796875 -23.65625 C 22.472656 -22.113281 23.328125 -20.117188 23.359375 -17.671875 C 23.359375 -17.671875 23.09375 -17.597656 22.5625 -17.453125 C 22.039062 -17.304688 21.378906 -17.125 20.578125 -16.90625 C 19.773438 -16.6875 18.914062 -16.476562 18 -16.28125 C 17.09375 -16.082031 16.253906 -15.925781 15.484375 -15.8125 C 15.410156 -15.957031 15.363281 -16.054688 15.34375 -16.109375 C 15.332031 -16.171875 15.289062 -16.253906 15.21875 -16.359375 C 16.050781 -17.890625 16.484375 -19.320312 16.515625 -20.65625 C 16.554688 -21.988281 16.285156 -23.09375 15.703125 -23.96875 C 15.117188 -24.84375 14.242188 -25.296875 13.078125 -25.328125 C 11.941406 -25.398438 10.984375 -24.863281 10.203125 -23.71875 C 9.421875 -22.570312 8.828125 -21.078125 8.421875 -19.234375 C 8.023438 -17.390625 7.804688 -15.445312 7.765625 -13.40625 C 7.765625 -12.019531 7.835938 -10.550781 7.984375 -9 C 8.128906 -7.445312 8.46875 -6.023438 9 -4.734375 C 9.53125 -3.441406 10.320312 -2.4375 11.375 -1.71875 C 12.4375 -1.007812 13.878906 -0.785156 15.703125 -1.046875 C 16.910156 -1.222656 17.992188 -1.6875 18.953125 -2.4375 C 19.921875 -3.1875 20.40625 -4.34375 20.40625 -5.90625 C 20.40625 -6.601562 19.921875 -7.210938 18.953125 -7.734375 C 17.992188 -8.265625 16.800781 -8.664062 15.375 -8.9375 C 13.945312 -9.21875 12.503906 -9.320312 11.046875 -9.25 C 11.046875 -9.25 11.007812 -9.253906 10.9375 -9.265625 C 10.863281 -9.285156 10.828125 -9.367188 10.828125 -9.515625 C 10.828125 -9.628906 10.863281 -9.703125 10.9375 -9.734375 C 11.007812 -9.773438 11.046875 -9.796875 11.046875 -9.796875 C 11.191406 -9.796875 11.726562 -9.796875 12.65625 -9.796875 C 13.59375 -9.796875 14.679688 -9.796875 15.921875 -9.796875 C 17.160156 -9.796875 18.335938 -9.796875 19.453125 -9.796875 C 20.566406 -9.796875 21.34375 -9.796875 21.78125 -9.796875 Z M 21.78125 -9.796875 "/></g></g></g><g fill="#ffffff" fill-opacity="1"><g transform="translate(97.497336, 64.502591)"><g><path d="M 24.234375 -0.21875 C 24.347656 -0.03125 24.3125 0.0625 24.125 0.0625 C 23.4375 0.0625 22.679688 0.0625 21.859375 0.0625 C 21.035156 0.0625 20.03125 0.0625 18.84375 0.0625 C 17.664062 0.0625 16.160156 0.0625 14.328125 0.0625 C 12.503906 0.0625 10.207031 0.0625 7.4375 0.0625 C 6.78125 0.0625 6.269531 -0.226562 5.90625 -0.8125 C 5.539062 -1.40625 5.335938 -2.117188 5.296875 -2.953125 C 5.265625 -3.796875 5.414062 -4.5625 5.75 -5.25 C 6.363281 -6.632812 6.789062 -8.15625 7.03125 -9.8125 C 7.269531 -11.476562 7.390625 -13.097656 7.390625 -14.671875 C 7.421875 -16.421875 7.234375 -18.113281 6.828125 -19.75 C 6.429688 -21.394531 5.757812 -22.734375 4.8125 -23.765625 C 3.863281 -24.804688 2.550781 -25.328125 0.875 -25.328125 C 0.726562 -25.328125 0.65625 -25.425781 0.65625 -25.625 C 0.65625 -25.832031 0.75 -25.9375 0.9375 -25.9375 L 15.109375 -25.9375 C 15.285156 -25.894531 15.351562 -25.789062 15.3125 -25.625 C 15.28125 -25.46875 15.210938 -25.390625 15.109375 -25.390625 C 13.460938 -24.984375 12.132812 -24.25 11.125 -23.1875 C 10.125 -22.132812 9.40625 -20.878906 8.96875 -19.421875 C 8.53125 -17.960938 8.273438 -16.429688 8.203125 -14.828125 C 8.128906 -12.929688 8.375 -11.023438 8.9375 -9.109375 C 9.507812 -7.191406 10.304688 -5.523438 11.328125 -4.109375 C 11.835938 -3.378906 12.539062 -2.601562 13.4375 -1.78125 C 14.332031 -0.957031 15.289062 -0.546875 16.3125 -0.546875 C 17.1875 -0.585938 17.957031 -0.953125 18.625 -1.640625 C 19.300781 -2.335938 19.878906 -3.195312 20.359375 -4.21875 C 20.941406 -5.488281 21.394531 -6.851562 21.71875 -8.3125 C 22.050781 -9.769531 22.289062 -11.03125 22.4375 -12.09375 C 22.46875 -12.238281 22.609375 -12.316406 22.859375 -12.328125 C 23.117188 -12.347656 23.269531 -12.269531 23.3125 -12.09375 C 23.3125 -12.050781 23.28125 -11.691406 23.21875 -11.015625 C 23.164062 -10.347656 23.117188 -9.539062 23.078125 -8.59375 C 23.046875 -7.644531 23.019531 -6.695312 23 -5.75 C 22.988281 -4.800781 22.984375 -4 22.984375 -3.34375 C 22.984375 -2.832031 23.128906 -2.265625 23.421875 -1.640625 C 23.710938 -1.023438 23.984375 -0.550781 24.234375 -0.21875 Z M 24.234375 -0.21875 "/></g></g></g><g fill="#ffffff" fill-opacity="1"><g transform="translate(122.551358, 64.502591)"><g><path d="M 18.5 -3.34375 C 18.53125 -2.832031 18.691406 -2.265625 18.984375 -1.640625 C 19.273438 -1.023438 19.53125 -0.550781 19.75 -0.21875 C 19.9375 -0.03125 19.898438 0.0625 19.640625 0.0625 C 19.640625 0.0625 19.210938 0.0625 18.359375 0.0625 C 17.503906 0.0625 16.398438 0.0625 15.046875 0.0625 C 13.691406 0.0625 12.238281 0.0507812 10.6875 0.03125 C 9.144531 0.0078125 7.679688 0 6.296875 0 C 4.910156 0 3.75 -0.0078125 2.8125 -0.03125 C 1.882812 -0.0507812 1.367188 -0.0625 1.265625 -0.0625 C 1.117188 -0.0625 1.050781 -0.148438 1.0625 -0.328125 C 1.082031 -0.515625 1.148438 -0.625 1.265625 -0.65625 C 1.660156 -0.65625 2.015625 -0.742188 2.328125 -0.921875 C 2.640625 -1.109375 2.867188 -1.441406 3.015625 -1.921875 C 3.117188 -2.359375 3.171875 -3.03125 3.171875 -3.9375 L 3.171875 -22.109375 C 3.171875 -22.984375 2.988281 -23.75 2.625 -24.40625 C 2.257812 -25.0625 1.660156 -25.390625 0.828125 -25.390625 C 0.679688 -25.390625 0.609375 -25.476562 0.609375 -25.65625 C 0.609375 -25.84375 0.679688 -25.9375 0.828125 -25.9375 C 0.828125 -25.9375 1.28125 -25.9375 2.1875 -25.9375 C 3.101562 -25.9375 4.269531 -25.9375 5.6875 -25.9375 C 7.113281 -25.9375 8.628906 -25.941406 10.234375 -25.953125 C 11.835938 -25.972656 13.347656 -25.984375 14.765625 -25.984375 C 16.191406 -25.984375 17.359375 -25.984375 18.265625 -25.984375 C 19.179688 -25.984375 19.640625 -25.984375 19.640625 -25.984375 C 19.898438 -25.984375 19.9375 -25.894531 19.75 -25.71875 C 19.53125 -25.382812 19.273438 -24.90625 18.984375 -24.28125 C 18.691406 -23.664062 18.53125 -23.101562 18.5 -22.59375 C 18.457031 -21.320312 18.5 -20.140625 18.625 -19.046875 C 18.757812 -17.953125 18.828125 -17.347656 18.828125 -17.234375 C 18.828125 -17.085938 18.695312 -17.015625 18.4375 -17.015625 C 18.1875 -17.015625 18.039062 -17.085938 18 -17.234375 C 17.707031 -19.347656 17.140625 -21.078125 16.296875 -22.421875 C 15.460938 -23.773438 14.488281 -24.660156 13.375 -25.078125 C 12.257812 -25.503906 11.09375 -25.378906 9.875 -24.703125 C 8.65625 -24.023438 7.515625 -22.722656 6.453125 -20.796875 C 5.691406 -19.410156 5.21875 -18.125 5.03125 -16.9375 C 4.851562 -15.75 5.109375 -14.78125 5.796875 -14.03125 C 6.492188 -13.28125 7.789062 -12.851562 9.6875 -12.75 C 10.957031 -12.675781 12.148438 -13.050781 13.265625 -13.875 C 14.378906 -14.695312 15.03125 -15.945312 15.21875 -17.625 C 15.21875 -17.625 15.234375 -17.660156 15.265625 -17.734375 C 15.304688 -17.804688 15.378906 -17.84375 15.484375 -17.84375 C 15.554688 -17.84375 15.601562 -17.804688 15.625 -17.734375 C 15.644531 -17.660156 15.65625 -17.625 15.65625 -17.625 L 15.765625 -7.328125 C 15.765625 -7.328125 15.753906 -7.289062 15.734375 -7.21875 C 15.710938 -7.144531 15.664062 -7.109375 15.59375 -7.109375 C 15.445312 -7.109375 15.363281 -7.144531 15.34375 -7.21875 C 15.332031 -7.289062 15.328125 -7.328125 15.328125 -7.328125 C 15.066406 -8.859375 14.378906 -9.976562 13.265625 -10.6875 C 12.148438 -11.40625 10.957031 -11.726562 9.6875 -11.65625 C 8.332031 -11.582031 7.375 -11.222656 6.8125 -10.578125 C 6.25 -9.941406 5.984375 -9.160156 6.015625 -8.234375 C 6.054688 -7.304688 6.320312 -6.359375 6.8125 -5.390625 C 7.300781 -4.421875 7.945312 -3.550781 8.75 -2.78125 C 9.550781 -2.019531 10.40625 -1.457031 11.3125 -1.09375 C 12.226562 -0.726562 13.132812 -0.703125 14.03125 -1.015625 C 14.925781 -1.328125 15.726562 -2.09375 16.4375 -3.3125 C 17.15625 -4.53125 17.675781 -6.328125 18 -8.703125 C 18.039062 -8.847656 18.1875 -8.921875 18.4375 -8.921875 C 18.695312 -8.921875 18.828125 -8.847656 18.828125 -8.703125 C 18.828125 -8.585938 18.757812 -7.984375 18.625 -6.890625 C 18.5 -5.796875 18.457031 -4.613281 18.5 -3.34375 Z M 18.5 -3.34375 "/></g></g></g><g fill="#ffffff" fill-opacity="1"><g transform="translate(18.565104, 111.002588)"><g><path d="M 18.875 -25.65625 C 18.65625 -25.332031 18.398438 -24.859375 18.109375 -24.234375 C 17.816406 -23.617188 17.65625 -23.054688 17.625 -22.546875 C 17.582031 -21.304688 17.625 -20.128906 17.75 -19.015625 C 17.882812 -17.898438 17.953125 -17.289062 17.953125 -17.1875 C 17.953125 -17.039062 17.820312 -16.96875 17.5625 -16.96875 C 17.3125 -16.96875 17.164062 -17.039062 17.125 -17.1875 C 16.832031 -19.300781 16.265625 -21.03125 15.421875 -22.375 C 14.585938 -23.726562 13.613281 -24.613281 12.5 -25.03125 C 11.382812 -25.445312 10.21875 -25.316406 9 -24.640625 C 7.78125 -23.972656 6.640625 -22.671875 5.578125 -20.734375 C 4.816406 -19.347656 4.34375 -18.0625 4.15625 -16.875 C 3.976562 -15.695312 4.242188 -14.734375 4.953125 -13.984375 C 5.660156 -13.234375 6.945312 -12.800781 8.8125 -12.6875 C 10.082031 -12.613281 11.273438 -12.988281 12.390625 -13.8125 C 13.503906 -14.632812 14.15625 -15.90625 14.34375 -17.625 C 14.34375 -17.625 14.359375 -17.648438 14.390625 -17.703125 C 14.429688 -17.753906 14.503906 -17.78125 14.609375 -17.78125 C 14.679688 -17.78125 14.726562 -17.753906 14.75 -17.703125 C 14.769531 -17.648438 14.78125 -17.625 14.78125 -17.625 L 14.890625 -7.28125 C 14.890625 -7.28125 14.878906 -7.242188 14.859375 -7.171875 C 14.835938 -7.097656 14.789062 -7.0625 14.71875 -7.0625 C 14.570312 -7.0625 14.488281 -7.097656 14.46875 -7.171875 C 14.457031 -7.242188 14.453125 -7.28125 14.453125 -7.28125 C 14.191406 -8.8125 13.492188 -9.929688 12.359375 -10.640625 C 11.234375 -11.347656 10.03125 -11.664062 8.75 -11.59375 C 7.1875 -11.488281 6.09375 -11.171875 5.46875 -10.640625 C 4.851562 -10.109375 4.585938 -9.453125 4.671875 -8.671875 C 4.765625 -7.890625 5.082031 -7.0625 5.625 -6.1875 C 6.175781 -5.3125 6.828125 -4.472656 7.578125 -3.671875 C 8.328125 -2.867188 9.046875 -2.179688 9.734375 -1.609375 C 10.429688 -1.046875 10.976562 -0.691406 11.375 -0.546875 C 11.375 -0.546875 11.425781 -0.507812 11.53125 -0.4375 C 11.644531 -0.363281 11.703125 -0.289062 11.703125 -0.21875 C 11.703125 -0.113281 11.664062 -0.0390625 11.59375 0 C 11.519531 0.0390625 11.484375 0.0625 11.484375 0.0625 C 11.484375 0.0625 10.914062 0.0625 9.78125 0.0625 C 8.65625 0.0625 7.234375 0.0507812 5.515625 0.03125 C 3.804688 0.0078125 2.097656 0 0.390625 0 C 0.242188 0 0.175781 -0.0859375 0.1875 -0.265625 C 0.207031 -0.453125 0.273438 -0.566406 0.390625 -0.609375 C 0.785156 -0.609375 1.140625 -0.695312 1.453125 -0.875 C 1.765625 -1.0625 1.992188 -1.390625 2.140625 -1.859375 C 2.242188 -2.296875 2.296875 -2.972656 2.296875 -3.890625 L 2.296875 -22.046875 C 2.296875 -22.921875 2.113281 -23.6875 1.75 -24.34375 C 1.382812 -25 0.78125 -25.328125 -0.0625 -25.328125 C -0.207031 -25.328125 -0.28125 -25.414062 -0.28125 -25.59375 C -0.28125 -25.78125 -0.207031 -25.875 -0.0625 -25.875 C -0.0625 -25.875 0.394531 -25.875 1.3125 -25.875 C 2.226562 -25.875 3.394531 -25.875 4.8125 -25.875 C 6.238281 -25.875 7.753906 -25.882812 9.359375 -25.90625 C 10.960938 -25.925781 12.472656 -25.9375 13.890625 -25.9375 C 15.316406 -25.9375 16.484375 -25.9375 17.390625 -25.9375 C 18.304688 -25.9375 18.765625 -25.9375 18.765625 -25.9375 C 19.023438 -25.9375 19.0625 -25.84375 18.875 -25.65625 Z M 18.875 -25.65625 "/></g></g></g><g fill="#ffffff" fill-opacity="1"><g transform="translate(38.312925, 111.002588)"><g><path d="M 19.59375 -8.484375 C 19.84375 -7.203125 20.050781 -5.941406 20.21875 -4.703125 C 20.382812 -3.460938 20.394531 -2.429688 20.25 -1.609375 C 20.101562 -0.796875 19.644531 -0.316406 18.875 -0.171875 C 15.925781 0.0546875 13.273438 0.171875 10.921875 0.171875 C 8.566406 0.171875 6.664062 0.113281 5.21875 0 C 3.78125 -0.113281 2.9375 -0.171875 2.6875 -0.171875 C 1.914062 -0.316406 1.457031 -0.796875 1.3125 -1.609375 C 1.164062 -2.429688 1.179688 -3.460938 1.359375 -4.703125 C 1.546875 -5.941406 1.75 -7.203125 1.96875 -8.484375 C 2.445312 -11.066406 2.738281 -13.160156 2.84375 -14.765625 C 2.957031 -16.378906 2.941406 -17.804688 2.796875 -19.046875 C 2.648438 -21.046875 2.8125 -22.53125 3.28125 -23.5 C 3.757812 -24.46875 4.414062 -25.101562 5.25 -25.40625 C 6.09375 -25.71875 6.96875 -25.859375 7.875 -25.828125 C 8.425781 -25.828125 9.21875 -25.828125 10.25 -25.828125 C 11.289062 -25.828125 12.421875 -25.828125 13.640625 -25.828125 C 14.867188 -25.828125 16.039062 -25.828125 17.15625 -25.828125 C 18.269531 -25.828125 19.191406 -25.828125 19.921875 -25.828125 C 20.648438 -25.828125 21.015625 -25.828125 21.015625 -25.828125 C 21.191406 -25.785156 21.257812 -25.679688 21.21875 -25.515625 C 21.1875 -25.359375 21.117188 -25.28125 21.015625 -25.28125 C 20.097656 -24.84375 19.507812 -24.296875 19.25 -23.640625 C 19 -22.984375 18.898438 -22.195312 18.953125 -21.28125 C 19.015625 -20.375 19.023438 -19.316406 18.984375 -18.109375 C 18.984375 -18.109375 18.972656 -17.625 18.953125 -16.65625 C 18.941406 -15.695312 18.976562 -14.484375 19.0625 -13.015625 C 19.15625 -11.554688 19.332031 -10.046875 19.59375 -8.484375 Z M 3.5 -14.828125 C 3.425781 -11.941406 3.734375 -9.457031 4.421875 -7.375 C 5.117188 -5.300781 6.039062 -3.679688 7.1875 -2.515625 C 8.34375 -1.347656 9.554688 -0.679688 10.828125 -0.515625 C 12.109375 -0.359375 13.320312 -0.753906 14.46875 -1.703125 C 15.625 -2.648438 16.546875 -4.207031 17.234375 -6.375 C 17.929688 -8.539062 18.242188 -11.359375 18.171875 -14.828125 C 18.171875 -16.691406 17.773438 -18.25 16.984375 -19.5 C 16.203125 -20.757812 15.207031 -21.679688 14 -22.265625 C 12.800781 -22.847656 11.535156 -23.09375 10.203125 -23 C 8.867188 -22.914062 7.675781 -22.488281 6.625 -21.71875 C 5.707031 -21.0625 4.957031 -20.164062 4.375 -19.03125 C 3.789062 -17.90625 3.5 -16.503906 3.5 -14.828125 Z M 10.390625 -14.34375 C 10.898438 -14.34375 11.375 -14.078125 11.8125 -13.546875 C 12.25 -13.015625 12.46875 -12.492188 12.46875 -11.984375 C 12.46875 -11.472656 12.457031 -10.976562 12.4375 -10.5 C 12.425781 -10.03125 12.164062 -9.796875 11.65625 -9.796875 C 11.144531 -9.796875 10.6875 -10.03125 10.28125 -10.5 C 9.882812 -10.976562 9.6875 -11.472656 9.6875 -11.984375 C 9.6875 -12.492188 9.675781 -13.015625 9.65625 -13.546875 C 9.632812 -14.078125 9.878906 -14.34375 10.390625 -14.34375 Z M 10.390625 -14.34375 "/></g></g></g><g fill="#ffffff" fill-opacity="1"><g transform="translate(59.428326, 111.002588)"><g><path d="M 24.078125 -25.765625 C 24.222656 -25.765625 24.300781 -25.703125 24.3125 -25.578125 C 24.332031 -25.453125 24.253906 -25.351562 24.078125 -25.28125 C 23.566406 -24.769531 23.179688 -23.972656 22.921875 -22.890625 C 22.671875 -21.816406 22.476562 -20.367188 22.34375 -18.546875 C 22.21875 -16.722656 22.082031 -14.390625 21.9375 -11.546875 C 21.9375 -11.359375 21.9375 -10.84375 21.9375 -10 C 21.9375 -9.164062 21.9375 -8.179688 21.9375 -7.046875 C 21.9375 -5.921875 21.945312 -4.820312 21.96875 -3.75 C 21.988281 -2.675781 22 -1.773438 22 -1.046875 C 22 -0.609375 21.894531 -0.285156 21.6875 -0.078125 C 21.488281 0.117188 21.207031 -0.0195312 20.84375 -0.5 C 20.738281 -0.644531 20.335938 -1.15625 19.640625 -2.03125 C 18.953125 -2.90625 18.085938 -3.976562 17.046875 -5.25 C 16.003906 -6.53125 14.914062 -7.867188 13.78125 -9.265625 C 12.65625 -10.671875 11.585938 -11.984375 10.578125 -13.203125 C 9.578125 -14.429688 8.765625 -15.425781 8.140625 -16.1875 C 7.523438 -16.957031 7.21875 -17.34375 7.21875 -17.34375 C 6.3125 -18.4375 5.628906 -18.863281 5.171875 -18.625 C 4.710938 -18.394531 4.484375 -17.785156 4.484375 -16.796875 C 4.484375 -16.429688 4.492188 -15.894531 4.515625 -15.1875 C 4.535156 -14.476562 4.5625 -13.789062 4.59375 -13.125 C 4.632812 -12.46875 4.65625 -12.03125 4.65625 -11.8125 C 4.945312 -9.476562 5.679688 -7.5625 6.859375 -6.0625 C 8.046875 -4.570312 9.40625 -3.390625 10.9375 -2.515625 C 12.46875 -1.640625 13.910156 -0.945312 15.265625 -0.4375 C 15.265625 -0.4375 15.300781 -0.414062 15.375 -0.375 C 15.445312 -0.34375 15.484375 -0.289062 15.484375 -0.21875 C 15.484375 -0.144531 15.445312 -0.0859375 15.375 -0.046875 C 15.300781 -0.015625 15.265625 0 15.265625 0 C 15.265625 0 14.796875 0 13.859375 0 C 12.929688 0 11.765625 0 10.359375 0 C 8.960938 0 7.5625 0 6.15625 0 C 4.75 0 3.550781 0 2.5625 0 C 1.582031 0 1.054688 0 0.984375 0 C 0.804688 -0.0390625 0.742188 -0.140625 0.796875 -0.296875 C 0.847656 -0.460938 0.929688 -0.566406 1.046875 -0.609375 C 1.734375 -1.046875 2.273438 -1.863281 2.671875 -3.0625 C 3.078125 -4.269531 3.390625 -5.65625 3.609375 -7.21875 C 3.828125 -8.789062 3.957031 -10.304688 4 -11.765625 C 4 -11.941406 4 -12.421875 4 -13.203125 C 4 -13.992188 4 -14.828125 4 -15.703125 C 4 -16.578125 4 -17.21875 4 -17.625 C 4 -17.625 3.988281 -17.988281 3.96875 -18.71875 C 3.945312 -19.445312 3.875 -20.300781 3.75 -21.28125 C 3.625 -22.269531 3.394531 -23.15625 3.0625 -23.9375 C 2.738281 -24.71875 2.25 -25.179688 1.59375 -25.328125 C 1.375 -25.398438 1.28125 -25.5 1.3125 -25.625 C 1.351562 -25.757812 1.445312 -25.828125 1.59375 -25.828125 C 1.8125 -25.828125 2.265625 -25.816406 2.953125 -25.796875 C 3.648438 -25.773438 4.4375 -25.71875 5.3125 -25.625 C 6.1875 -25.539062 7.023438 -25.367188 7.828125 -25.109375 C 8.628906 -24.859375 9.25 -24.457031 9.6875 -23.90625 C 10.226562 -23.25 10.878906 -22.164062 11.640625 -20.65625 C 12.410156 -19.144531 13.234375 -17.445312 14.109375 -15.5625 C 14.992188 -13.6875 15.851562 -11.84375 16.6875 -10.03125 C 17.53125 -8.226562 18.296875 -6.707031 18.984375 -5.46875 C 19.566406 -4.445312 20.03125 -3.742188 20.375 -3.359375 C 20.726562 -2.984375 20.976562 -3.050781 21.125 -3.5625 C 21.269531 -4.070312 21.320312 -5.144531 21.28125 -6.78125 C 21.351562 -7.988281 21.398438 -9.238281 21.421875 -10.53125 C 21.441406 -11.820312 21.414062 -12.757812 21.34375 -13.34375 C 21.125 -15.6875 20.765625 -17.550781 20.265625 -18.9375 C 19.773438 -20.320312 19.164062 -21.382812 18.4375 -22.125 C 17.707031 -22.875 16.882812 -23.46875 15.96875 -23.90625 C 15.0625 -24.34375 14.0625 -24.800781 12.96875 -25.28125 C 12.75 -25.351562 12.65625 -25.453125 12.6875 -25.578125 C 12.726562 -25.703125 12.820312 -25.765625 12.96875 -25.765625 C 13.070312 -25.765625 13.441406 -25.765625 14.078125 -25.765625 C 14.722656 -25.765625 15.5 -25.765625 16.40625 -25.765625 C 17.320312 -25.765625 18.253906 -25.765625 19.203125 -25.765625 C 20.148438 -25.765625 20.972656 -25.765625 21.671875 -25.765625 C 22.722656 -25.765625 23.394531 -25.765625 23.6875 -25.765625 C 23.976562 -25.765625 24.101562 -25.765625 24.0625 -25.765625 C 24.03125 -25.765625 24.035156 -25.765625 24.078125 -25.765625 Z M 24.078125 -25.765625 "/></g></g></g><g fill="#ffffff" fill-opacity="1"><g transform="translate(84.701159, 111.002588)"><g><path d="M 24.015625 -25.609375 C 23.796875 -25.242188 23.539062 -24.75 23.25 -24.125 C 22.957031 -23.507812 22.796875 -22.945312 22.765625 -22.4375 C 22.722656 -21.195312 22.765625 -20.03125 22.890625 -18.9375 C 23.023438 -17.84375 23.09375 -17.238281 23.09375 -17.125 C 23.09375 -16.976562 22.960938 -16.90625 22.703125 -16.90625 C 22.453125 -16.90625 22.304688 -16.976562 22.265625 -17.125 C 21.898438 -19.53125 21.328125 -21.367188 20.546875 -22.640625 C 19.765625 -23.921875 18.890625 -24.6875 17.921875 -24.9375 C 16.953125 -25.195312 16.03125 -24.988281 15.15625 -24.3125 C 14.28125 -23.644531 13.578125 -22.546875 13.046875 -21.015625 C 12.515625 -19.484375 12.304688 -17.585938 12.421875 -15.328125 C 12.523438 -13.242188 12.890625 -11.144531 13.515625 -9.03125 C 14.140625 -6.914062 14.96875 -5.070312 16 -3.5 C 17.039062 -1.9375 18.203125 -0.914062 19.484375 -0.4375 L 19.421875 0.109375 C 19.421875 0.109375 18.898438 0.109375 17.859375 0.109375 C 16.828125 0.109375 15.503906 0.109375 13.890625 0.109375 C 12.285156 0.109375 10.644531 0.109375 8.96875 0.109375 C 7.289062 0.109375 5.816406 0.109375 4.546875 0.109375 C 4.546875 0.0351562 4.546875 -0.0703125 4.546875 -0.21875 C 4.546875 -0.363281 4.5625 -0.457031 4.59375 -0.5 C 6.09375 -0.96875 7.359375 -1.992188 8.390625 -3.578125 C 9.429688 -5.171875 10.222656 -7.023438 10.765625 -9.140625 C 11.316406 -11.253906 11.613281 -13.351562 11.65625 -15.4375 C 11.726562 -18.53125 11.363281 -20.867188 10.5625 -22.453125 C 9.757812 -24.046875 8.789062 -24.90625 7.65625 -25.03125 C 6.53125 -25.15625 5.457031 -24.550781 4.4375 -23.21875 C 3.414062 -21.894531 2.703125 -19.863281 2.296875 -17.125 C 2.265625 -16.976562 2.117188 -16.90625 1.859375 -16.90625 C 1.609375 -16.90625 1.484375 -16.976562 1.484375 -17.125 C 1.484375 -17.238281 1.535156 -17.84375 1.640625 -18.9375 C 1.753906 -20.03125 1.8125 -21.195312 1.8125 -22.4375 C 1.769531 -22.945312 1.601562 -23.507812 1.3125 -24.125 C 1.019531 -24.75 0.75 -25.242188 0.5 -25.609375 C 0.425781 -25.753906 0.460938 -25.828125 0.609375 -25.828125 C 0.753906 -25.828125 1.378906 -25.828125 2.484375 -25.828125 C 3.597656 -25.828125 5.003906 -25.828125 6.703125 -25.828125 C 8.398438 -25.828125 10.195312 -25.828125 12.09375 -25.828125 C 13.988281 -25.828125 15.800781 -25.828125 17.53125 -25.828125 C 19.269531 -25.828125 20.722656 -25.828125 21.890625 -25.828125 C 23.054688 -25.828125 23.726562 -25.828125 23.90625 -25.828125 C 24.125 -25.828125 24.160156 -25.753906 24.015625 -25.609375 Z M 24.015625 -25.609375 "/></g></g></g><g fill="#ffffff" fill-opacity="1"><g transform="translate(109.317559, 111.002588)"><g><path d="M 18.65625 -13.296875 C 19.789062 -12.378906 20.582031 -11.273438 21.03125 -9.984375 C 21.488281 -8.691406 21.625 -7.40625 21.4375 -6.125 C 21.257812 -4.851562 20.71875 -3.742188 19.8125 -2.796875 C 19.113281 -2.097656 18.117188 -1.53125 16.828125 -1.09375 C 15.535156 -0.65625 14.101562 -0.363281 12.53125 -0.21875 C 10.957031 -0.0703125 9.382812 -0.0820312 7.8125 -0.25 C 6.25 -0.414062 4.835938 -0.757812 3.578125 -1.28125 C 2.328125 -1.8125 1.390625 -2.515625 0.765625 -3.390625 C 0.398438 -3.941406 0.269531 -4.5625 0.375 -5.25 C 0.488281 -5.945312 0.726562 -6.675781 1.09375 -7.4375 C 1.457031 -8.207031 1.847656 -8.9375 2.265625 -9.625 C 2.691406 -10.320312 3.03125 -10.925781 3.28125 -11.4375 C 3.351562 -11.582031 3.453125 -11.632812 3.578125 -11.59375 C 3.710938 -11.5625 3.78125 -11.507812 3.78125 -11.4375 C 3.226562 -9.0625 3.132812 -7.125 3.5 -5.625 C 3.863281 -4.132812 4.5 -3.003906 5.40625 -2.234375 C 6.320312 -1.472656 7.363281 -1.007812 8.53125 -0.84375 C 9.695312 -0.6875 10.84375 -0.742188 11.96875 -1.015625 C 13.101562 -1.285156 14.054688 -1.722656 14.828125 -2.328125 C 15.597656 -2.929688 16.046875 -3.625 16.171875 -4.40625 C 16.296875 -5.1875 15.921875 -5.976562 15.046875 -6.78125 C 14.828125 -7 14.414062 -7.328125 13.8125 -7.765625 C 13.207031 -8.203125 12.539062 -8.675781 11.8125 -9.1875 C 11.082031 -9.695312 10.378906 -10.179688 9.703125 -10.640625 C 9.035156 -11.097656 8.5 -11.453125 8.09375 -11.703125 C 7 -12.472656 5.867188 -13.195312 4.703125 -13.875 C 3.535156 -14.550781 2.5625 -15.328125 1.78125 -16.203125 C 1 -17.078125 0.609375 -18.148438 0.609375 -19.421875 C 0.609375 -20.628906 1 -21.707031 1.78125 -22.65625 C 2.5625 -23.601562 3.597656 -24.382812 4.890625 -25 C 6.191406 -25.625 7.613281 -26.070312 9.15625 -26.34375 C 10.707031 -26.613281 12.238281 -26.691406 13.75 -26.578125 C 15.269531 -26.472656 16.648438 -26.144531 17.890625 -25.59375 C 19.128906 -25.050781 20.078125 -24.253906 20.734375 -23.203125 C 21.242188 -22.503906 21.332031 -21.707031 21 -20.8125 C 20.675781 -19.925781 20.222656 -19.046875 19.640625 -18.171875 C 19.054688 -17.296875 18.601562 -16.507812 18.28125 -15.8125 C 18.164062 -15.664062 18.050781 -15.609375 17.9375 -15.640625 C 17.832031 -15.679688 17.765625 -15.722656 17.734375 -15.765625 C 17.472656 -18.097656 17 -20.082031 16.3125 -21.71875 C 15.65625 -23.25 14.878906 -24.351562 13.984375 -25.03125 C 13.085938 -25.707031 12.15625 -26.046875 11.1875 -26.046875 C 10.21875 -26.046875 9.320312 -25.789062 8.5 -25.28125 C 7.6875 -24.769531 7.023438 -24.09375 6.515625 -23.25 C 6.003906 -22.414062 5.75 -21.488281 5.75 -20.46875 C 5.75 -19.445312 5.898438 -18.332031 6.203125 -17.125 C 6.515625 -15.925781 7.023438 -14.785156 7.734375 -13.703125 C 8.453125 -12.628906 9.410156 -11.742188 10.609375 -11.046875 C 11.085938 -10.796875 11.597656 -10.769531 12.140625 -10.96875 C 12.691406 -11.164062 13.238281 -11.472656 13.78125 -11.890625 C 14.332031 -12.316406 14.878906 -12.710938 15.421875 -13.078125 C 15.972656 -13.441406 16.519531 -13.675781 17.0625 -13.78125 C 17.613281 -13.894531 18.144531 -13.734375 18.65625 -13.296875 Z M 18.65625 -13.296875 "/></g></g></g></svg>