<svg xmlns="http://www.w3.org/2000/svg" xmlns:xlink="http://www.w3.org/1999/xlink" width="200" zoomAndPan="magnify" viewBox="0 0 150 149.999998" height="200" preserveAspectRatio="xMidYMid meet" version="1.0"><defs><g/><clipPath id="9b2316920d"><path d="M 7.609375 11.0625 L 93.859375 11.0625 L 93.859375 139 L 7.609375 139 Z M 7.609375 11.0625 " clip-rule="nonzero"/></clipPath><clipPath id="78dfb92242"><path d="M 21.859375 11.0625 L 79.796875 11.0625 C 87.664062 11.0625 94.046875 17.441406 94.046875 25.3125 L 94.046875 124.6875 C 94.046875 132.554688 87.664062 138.9375 79.796875 138.9375 L 21.859375 138.9375 C 13.988281 138.9375 7.609375 132.554688 7.609375 124.6875 L 7.609375 25.3125 C 7.609375 17.441406 13.988281 11.0625 21.859375 11.0625 Z M 21.859375 11.0625 " clip-rule="nonzero"/></clipPath><clipPath id="8b3f2869e3"><path d="M 72.234375 11.0625 L 142.390625 11.0625 L 142.390625 138.9375 L 72.234375 138.9375 Z M 72.234375 11.0625 " clip-rule="nonzero"/></clipPath></defs><g clip-path="url(#9b2316920d)"><g clip-path="url(#78dfb92242)"><path fill="#ffffff" d="M 32.359375 9.5625 L 41.359375 9.5625 L 41.359375 12.5625 L 32.359375 12.5625 Z M 42.859375 9.5625 L 51.859375 9.5625 L 51.859375 12.5625 L 42.859375 12.5625 Z M 53.359375 9.5625 L 62.359375 9.5625 L 62.359375 12.5625 L 53.359375 12.5625 Z M 63.859375 9.5625 L 72.859375 9.5625 L 72.859375 12.5625 L 63.859375 12.5625 Z M 74.359375 9.5625 L 79.796875 9.5625 C 81.144531 9.5625 82.464844 9.730469 83.757812 10.0625 L 83.003906 12.96875 C 81.957031 12.695312 80.886719 12.5625 79.796875 12.5625 L 74.359375 12.5625 Z M 85.324219 10.558594 C 88.542969 11.765625 91.09375 13.8125 92.984375 16.699219 L 90.472656 18.339844 C 88.941406 16.003906 86.875 14.34375 84.269531 13.367188 Z M 93.824219 18.140625 C 94.972656 20.386719 95.546875 22.773438 95.546875 25.3125 L 95.546875 27.628906 L 92.546875 27.628906 L 92.546875 25.3125 C 92.546875 23.257812 92.082031 21.324219 91.152344 19.507812 Z M 95.546875 29.128906 L 95.546875 38.128906 L 92.546875 38.128906 L 92.546875 29.128906 Z M 95.546875 39.628906 L 95.546875 48.628906 L 92.546875 48.628906 L 92.546875 39.628906 Z M 95.546875 50.128906 L 95.546875 59.128906 L 92.546875 59.128906 L 92.546875 50.128906 Z M 95.546875 60.628906 L 95.546875 69.628906 L 92.546875 69.628906 L 92.546875 60.628906 Z M 95.546875 71.128906 L 95.546875 80.128906 L 92.546875 80.128906 L 92.546875 71.128906 Z M 95.546875 81.628906 L 95.546875 90.628906 L 92.546875 90.628906 L 92.546875 81.628906 Z M 95.546875 92.128906 L 95.546875 101.128906 L 92.546875 101.128906 L 92.546875 92.128906 Z M 95.546875 102.628906 L 95.546875 111.628906 L 92.546875 111.628906 L 92.546875 102.628906 Z M 95.546875 113.128906 L 95.546875 122.128906 L 92.546875 122.128906 L 92.546875 113.128906 Z M 95.546875 123.628906 L 95.546875 124.6875 C 95.546875 127.722656 94.738281 130.519531 93.125 133.078125 L 90.585938 131.476562 C 91.894531 129.410156 92.546875 127.144531 92.546875 124.6875 L 92.546875 123.628906 Z M 92.164062 134.4375 C 90.03125 137.140625 87.3125 138.949219 84.007812 139.867188 L 83.207031 136.976562 C 85.878906 136.234375 88.082031 134.769531 89.808594 132.578125 Z M 82.386719 140.222656 C 81.53125 140.367188 80.667969 140.4375 79.796875 140.4375 L 73.09375 140.4375 L 73.09375 137.4375 L 79.796875 137.4375 C 80.503906 137.4375 81.203125 137.378906 81.898438 137.265625 Z M 71.59375 140.4375 L 62.59375 140.4375 L 62.59375 137.4375 L 71.59375 137.4375 Z M 61.09375 140.4375 L 52.09375 140.4375 L 52.09375 137.4375 L 61.09375 137.4375 Z M 50.59375 140.4375 L 41.59375 140.4375 L 41.59375 137.4375 L 50.59375 137.4375 Z M 40.09375 140.4375 L 31.09375 140.4375 L 31.09375 137.4375 L 40.09375 137.4375 Z M 29.59375 140.4375 L 21.859375 140.4375 C 21.375 140.4375 20.894531 140.414062 20.417969 140.371094 L 20.691406 137.382812 C 21.078125 137.417969 21.464844 137.4375 21.859375 137.4375 L 29.59375 137.4375 Z M 18.757812 140.128906 C 15.394531 139.460938 12.554688 137.851562 10.230469 135.308594 L 12.445312 133.285156 C 14.328125 135.34375 16.625 136.644531 19.34375 137.1875 Z M 9.175781 134.027344 C 7.128906 131.253906 6.109375 128.140625 6.109375 124.6875 L 6.109375 124.664062 L 9.109375 124.664062 L 9.109375 124.6875 C 9.109375 127.484375 9.933594 130.003906 11.589844 132.246094 Z M 6.109375 123.164062 L 6.109375 114.164062 L 9.109375 114.164062 L 9.109375 123.164062 Z M 6.109375 112.664062 L 6.109375 103.664062 L 9.109375 103.664062 L 9.109375 112.664062 Z M 6.109375 102.164062 L 6.109375 93.164062 L 9.109375 93.164062 L 9.109375 102.164062 Z M 6.109375 91.664062 L 6.109375 82.664062 L 9.109375 82.664062 L 9.109375 91.664062 Z M 6.109375 81.164062 L 6.109375 72.164062 L 9.109375 72.164062 L 9.109375 81.164062 Z M 6.109375 70.664062 L 6.109375 61.664062 L 9.109375 61.664062 L 9.109375 70.664062 Z M 6.109375 60.164062 L 6.109375 51.164062 L 9.109375 51.164062 L 9.109375 60.164062 Z M 6.109375 49.664062 L 6.109375 40.664062 L 9.109375 40.664062 L 9.109375 49.664062 Z M 6.109375 39.164062 L 6.109375 30.164062 L 9.109375 30.164062 L 9.109375 39.164062 Z M 6.109375 28.664062 L 6.109375 25.3125 C 6.109375 23.179688 6.519531 21.140625 7.339844 19.191406 L 10.105469 20.359375 C 9.441406 21.933594 9.109375 23.585938 9.109375 25.3125 L 9.109375 28.664062 Z M 8.074219 17.683594 C 9.746094 14.667969 12.148438 12.4375 15.277344 11 L 16.53125 13.722656 C 13.996094 14.890625 12.054688 16.695312 10.699219 19.136719 Z M 16.808594 10.390625 C 18.4375 9.835938 20.121094 9.5625 21.859375 9.5625 L 30.859375 9.5625 L 30.859375 12.5625 L 21.859375 12.5625 C 20.449219 12.5625 19.085938 12.785156 17.769531 13.230469 Z M 16.808594 10.390625 " fill-opacity="1" fill-rule="nonzero"/></g></g><g clip-path="url(#8b3f2869e3)"><path fill="#ffffff" d="M 72.234375 11.0625 L 142.390625 11.0625 L 142.390625 139.039062 L 72.234375 139.039062 Z M 72.234375 11.0625 " fill-opacity="1" fill-rule="nonzero"/></g><g fill="#ffffff" fill-opacity="1"><g transform="translate(15, 73.859485)"><g><path d="M 13.234375 -1.1875 C 13.335938 -1.25 13.421875 -1.238281 13.484375 -1.15625 C 13.546875 -1.070312 13.546875 -0.988281 13.484375 -0.90625 C 13.066406 -0.507812 12.617188 -0.25 12.140625 -0.125 C 11.660156 0 11.128906 0.0507812 10.546875 0.03125 C 9.710938 -0.0078125 9.039062 -0.191406 8.53125 -0.515625 C 8.019531 -0.835938 7.722656 -1.394531 7.640625 -2.1875 C 7.535156 -3.289062 7.359375 -4.117188 7.109375 -4.671875 C 6.859375 -5.234375 6.585938 -5.601562 6.296875 -5.78125 C 6.003906 -5.957031 5.742188 -5.992188 5.515625 -5.890625 C 5.472656 -5.867188 5.4375 -5.847656 5.40625 -5.828125 C 5.375 -5.804688 5.335938 -5.785156 5.296875 -5.765625 C 4.992188 -5.410156 4.773438 -5.253906 4.640625 -5.296875 C 4.503906 -5.335938 4.476562 -5.441406 4.5625 -5.609375 C 4.625 -5.710938 4.75 -5.878906 4.9375 -6.109375 C 5.132812 -6.335938 5.367188 -6.578125 5.640625 -6.828125 C 5.660156 -6.828125 5.671875 -6.828125 5.671875 -6.828125 C 5.753906 -6.929688 5.835938 -7.015625 5.921875 -7.078125 C 6.003906 -7.140625 6.085938 -7.210938 6.171875 -7.296875 C 6.628906 -7.671875 7.0625 -7.988281 7.46875 -8.25 C 7.875 -8.507812 8.21875 -8.84375 8.5 -9.25 C 8.78125 -9.65625 8.953125 -10.234375 9.015625 -10.984375 C 9.054688 -11.609375 8.953125 -12.175781 8.703125 -12.6875 C 8.453125 -13.195312 8.144531 -13.613281 7.78125 -13.9375 C 7.414062 -14.257812 7.054688 -14.429688 6.703125 -14.453125 C 6.410156 -14.492188 6.035156 -14.390625 5.578125 -14.140625 C 5.128906 -13.890625 4.691406 -13.554688 4.265625 -13.140625 C 3.835938 -12.722656 3.5 -12.273438 3.25 -11.796875 C 2.726562 -10.859375 2.429688 -9.796875 2.359375 -8.609375 C 2.285156 -7.421875 2.410156 -6.253906 2.734375 -5.109375 C 3.054688 -3.972656 3.546875 -2.96875 4.203125 -2.09375 C 4.859375 -1.21875 5.640625 -0.613281 6.546875 -0.28125 C 6.546875 -0.28125 6.578125 -0.257812 6.640625 -0.21875 C 6.703125 -0.175781 6.734375 -0.125 6.734375 -0.0625 C 6.734375 -0.0195312 6.707031 0.0078125 6.65625 0.03125 C 6.601562 0.0507812 6.578125 0.0625 6.578125 0.0625 C 6.578125 0.0625 6.28125 0.0625 5.6875 0.0625 C 5.101562 0.0625 4.351562 0.0625 3.4375 0.0625 C 2.519531 0.0625 1.570312 0.0625 0.59375 0.0625 C 0.507812 0.0625 0.46875 0.00390625 0.46875 -0.109375 C 0.46875 -0.222656 0.507812 -0.28125 0.59375 -0.28125 C 1.09375 -0.28125 1.414062 -0.53125 1.5625 -1.03125 C 1.644531 -1.257812 1.6875 -1.632812 1.6875 -2.15625 L 1.6875 -12.546875 C 1.6875 -13.023438 1.582031 -13.453125 1.375 -13.828125 C 1.164062 -14.203125 0.820312 -14.398438 0.34375 -14.421875 C 0.238281 -14.421875 0.191406 -14.472656 0.203125 -14.578125 C 0.210938 -14.679688 0.257812 -14.734375 0.34375 -14.734375 C 3.007812 -14.734375 5.132812 -14.742188 6.71875 -14.765625 C 8.3125 -14.785156 9.523438 -14.679688 10.359375 -14.453125 C 10.960938 -14.304688 11.445312 -13.972656 11.8125 -13.453125 C 12.175781 -12.929688 12.375 -12.34375 12.40625 -11.6875 C 12.4375 -11.03125 12.257812 -10.382812 11.875 -9.75 C 11.488281 -9.113281 10.828125 -8.597656 9.890625 -8.203125 C 9.265625 -7.929688 8.613281 -7.675781 7.9375 -7.4375 C 7.257812 -7.195312 6.648438 -6.898438 6.109375 -6.546875 C 7.128906 -6.734375 7.972656 -6.710938 8.640625 -6.484375 C 9.304688 -6.253906 9.835938 -5.898438 10.234375 -5.421875 C 10.628906 -4.953125 10.9375 -4.4375 11.15625 -3.875 C 11.375 -3.3125 11.550781 -2.789062 11.6875 -2.3125 C 11.820312 -1.832031 11.960938 -1.476562 12.109375 -1.25 C 12.234375 -1.0625 12.40625 -0.960938 12.625 -0.953125 C 12.84375 -0.941406 13.046875 -1.019531 13.234375 -1.1875 Z M 13.234375 -1.1875 "/></g></g></g><g fill="#ffffff" fill-opacity="1"><g transform="translate(28.980087, 73.859485)"><g><path d="M 10.546875 -1.90625 C 10.566406 -1.613281 10.660156 -1.289062 10.828125 -0.9375 C 10.992188 -0.582031 11.140625 -0.3125 11.265625 -0.125 C 11.367188 -0.0195312 11.347656 0.03125 11.203125 0.03125 C 11.203125 0.03125 10.957031 0.03125 10.46875 0.03125 C 9.976562 0.03125 9.347656 0.03125 8.578125 0.03125 C 7.804688 0.03125 6.976562 0.0234375 6.09375 0.015625 C 5.21875 0.00390625 4.382812 0 3.59375 0 C 2.800781 0 2.140625 -0.00390625 1.609375 -0.015625 C 1.078125 -0.0234375 0.78125 -0.03125 0.71875 -0.03125 C 0.632812 -0.03125 0.597656 -0.0820312 0.609375 -0.1875 C 0.617188 -0.289062 0.65625 -0.351562 0.71875 -0.375 C 0.945312 -0.375 1.148438 -0.425781 1.328125 -0.53125 C 1.503906 -0.632812 1.632812 -0.820312 1.71875 -1.09375 C 1.78125 -1.34375 1.8125 -1.726562 1.8125 -2.25 L 1.8125 -12.609375 C 1.8125 -13.109375 1.707031 -13.546875 1.5 -13.921875 C 1.289062 -14.296875 0.945312 -14.484375 0.46875 -14.484375 C 0.382812 -14.484375 0.34375 -14.535156 0.34375 -14.640625 C 0.34375 -14.742188 0.382812 -14.796875 0.46875 -14.796875 C 0.46875 -14.796875 0.726562 -14.796875 1.25 -14.796875 C 1.769531 -14.796875 2.4375 -14.796875 3.25 -14.796875 C 4.0625 -14.796875 4.921875 -14.800781 5.828125 -14.8125 C 6.742188 -14.820312 7.609375 -14.828125 8.421875 -14.828125 C 9.234375 -14.828125 9.898438 -14.828125 10.421875 -14.828125 C 10.941406 -14.828125 11.203125 -14.828125 11.203125 -14.828125 C 11.347656 -14.828125 11.367188 -14.773438 11.265625 -14.671875 C 11.140625 -14.484375 10.992188 -14.210938 10.828125 -13.859375 C 10.660156 -13.503906 10.566406 -13.179688 10.546875 -12.890625 C 10.523438 -12.160156 10.550781 -11.484375 10.625 -10.859375 C 10.695312 -10.234375 10.734375 -9.890625 10.734375 -9.828125 C 10.734375 -9.742188 10.660156 -9.703125 10.515625 -9.703125 C 10.367188 -9.703125 10.285156 -9.742188 10.265625 -9.828125 C 10.097656 -11.035156 9.773438 -12.023438 9.296875 -12.796875 C 8.816406 -13.566406 8.257812 -14.070312 7.625 -14.3125 C 6.988281 -14.550781 6.320312 -14.476562 5.625 -14.09375 C 4.9375 -13.707031 4.289062 -12.960938 3.6875 -11.859375 C 3.25 -11.066406 2.976562 -10.332031 2.875 -9.65625 C 2.769531 -8.976562 2.914062 -8.425781 3.3125 -8 C 3.707031 -7.570312 4.441406 -7.328125 5.515625 -7.265625 C 6.242188 -7.222656 6.925781 -7.4375 7.5625 -7.90625 C 8.195312 -8.375 8.566406 -9.085938 8.671875 -10.046875 C 8.671875 -10.046875 8.679688 -10.066406 8.703125 -10.109375 C 8.722656 -10.148438 8.765625 -10.171875 8.828125 -10.171875 C 8.867188 -10.171875 8.894531 -10.148438 8.90625 -10.109375 C 8.914062 -10.066406 8.921875 -10.046875 8.921875 -10.046875 L 8.984375 -4.1875 C 8.984375 -4.1875 8.976562 -4.164062 8.96875 -4.125 C 8.957031 -4.082031 8.929688 -4.0625 8.890625 -4.0625 C 8.804688 -4.0625 8.757812 -4.082031 8.75 -4.125 C 8.738281 -4.164062 8.734375 -4.1875 8.734375 -4.1875 C 8.585938 -5.050781 8.195312 -5.6875 7.5625 -6.09375 C 6.925781 -6.5 6.242188 -6.679688 5.515625 -6.640625 C 4.753906 -6.597656 4.210938 -6.394531 3.890625 -6.03125 C 3.566406 -5.664062 3.414062 -5.21875 3.4375 -4.6875 C 3.457031 -4.164062 3.609375 -3.628906 3.890625 -3.078125 C 4.171875 -2.523438 4.535156 -2.03125 4.984375 -1.59375 C 5.441406 -1.15625 5.929688 -0.832031 6.453125 -0.625 C 6.972656 -0.414062 7.488281 -0.398438 8 -0.578125 C 8.507812 -0.753906 8.96875 -1.191406 9.375 -1.890625 C 9.78125 -2.585938 10.078125 -3.613281 10.265625 -4.96875 C 10.285156 -5.050781 10.367188 -5.09375 10.515625 -5.09375 C 10.660156 -5.09375 10.734375 -5.050781 10.734375 -4.96875 C 10.734375 -4.90625 10.695312 -4.5625 10.625 -3.9375 C 10.550781 -3.3125 10.523438 -2.632812 10.546875 -1.90625 Z M 10.546875 -1.90625 "/></g></g></g><g fill="#ffffff" fill-opacity="1"><g transform="translate(40.931812, 73.859485)"><g><path d="M 7.984375 -7.671875 C 9.628906 -7.523438 10.890625 -7.148438 11.765625 -6.546875 C 12.640625 -5.941406 13.078125 -5.03125 13.078125 -3.8125 C 13.078125 -2.976562 12.765625 -2.296875 12.140625 -1.765625 C 11.515625 -1.234375 10.804688 -0.832031 10.015625 -0.5625 C 9.554688 -0.414062 8.988281 -0.300781 8.3125 -0.21875 C 7.632812 -0.132812 6.921875 -0.0703125 6.171875 -0.03125 C 5.222656 0.0078125 4.285156 0.0234375 3.359375 0.015625 C 2.429688 0.00390625 1.664062 -0.015625 1.0625 -0.046875 C 0.457031 -0.078125 0.15625 -0.09375 0.15625 -0.09375 C 0.15625 -0.09375 0.132812 -0.101562 0.09375 -0.125 C 0.0507812 -0.144531 0.03125 -0.175781 0.03125 -0.21875 C 0.03125 -0.257812 0.0507812 -0.289062 0.09375 -0.3125 C 0.132812 -0.332031 0.15625 -0.34375 0.15625 -0.34375 C 1.050781 -0.675781 1.816406 -1.257812 2.453125 -2.09375 C 3.085938 -2.925781 3.578125 -3.890625 3.921875 -4.984375 C 4.265625 -6.085938 4.414062 -7.203125 4.375 -8.328125 C 4.351562 -9.265625 4.191406 -10.148438 3.890625 -10.984375 C 3.585938 -11.816406 3.128906 -12.546875 2.515625 -13.171875 C 1.898438 -13.796875 1.113281 -14.222656 0.15625 -14.453125 C 0.09375 -14.453125 0.0546875 -14.492188 0.046875 -14.578125 C 0.0351562 -14.660156 0.0703125 -14.710938 0.15625 -14.734375 C 0.195312 -14.734375 0.4375 -14.738281 0.875 -14.75 C 1.3125 -14.757812 1.851562 -14.769531 2.5 -14.78125 C 3.144531 -14.789062 3.816406 -14.796875 4.515625 -14.796875 C 5.222656 -14.796875 5.867188 -14.785156 6.453125 -14.765625 C 7.492188 -14.765625 8.441406 -14.707031 9.296875 -14.59375 C 10.148438 -14.476562 10.851562 -14.191406 11.40625 -13.734375 C 11.957031 -13.273438 12.273438 -12.523438 12.359375 -11.484375 C 12.421875 -10.710938 12.109375 -9.960938 11.421875 -9.234375 C 10.734375 -8.503906 9.585938 -7.984375 7.984375 -7.671875 Z M 9.015625 -11.140625 C 9.078125 -11.804688 8.960938 -12.394531 8.671875 -12.90625 C 8.378906 -13.414062 8.019531 -13.8125 7.59375 -14.09375 C 7.164062 -14.375 6.742188 -14.503906 6.328125 -14.484375 C 5.972656 -14.460938 5.671875 -14.300781 5.421875 -14 C 5.179688 -13.695312 5.0625 -13.234375 5.0625 -12.609375 C 5.0625 -12.609375 5.0625 -12.390625 5.0625 -11.953125 C 5.0625 -11.515625 5.0625 -10.988281 5.0625 -10.375 C 5.0625 -9.757812 5.0625 -9.171875 5.0625 -8.609375 C 5.0625 -8.046875 5.0625 -7.628906 5.0625 -7.359375 C 5.0625 -6.835938 5.109375 -6.578125 5.203125 -6.578125 C 5.304688 -6.578125 5.390625 -6.609375 5.453125 -6.671875 C 5.867188 -7.109375 6.273438 -7.460938 6.671875 -7.734375 C 7.066406 -8.003906 7.429688 -8.273438 7.765625 -8.546875 C 8.097656 -8.816406 8.378906 -9.148438 8.609375 -9.546875 C 8.835938 -9.941406 8.972656 -10.472656 9.015625 -11.140625 Z M 8.421875 -1.40625 C 9.148438 -2.007812 9.515625 -2.875 9.515625 -4 C 9.515625 -4.96875 9.222656 -5.734375 8.640625 -6.296875 C 7.867188 -7.066406 7.191406 -7.335938 6.609375 -7.109375 C 6.023438 -6.878906 5.507812 -6.367188 5.0625 -5.578125 L 5.0625 -2.25 C 5.0625 -1.726562 5.09375 -1.34375 5.15625 -1.09375 C 5.289062 -0.65625 5.546875 -0.414062 5.921875 -0.375 C 6.296875 -0.332031 6.710938 -0.421875 7.171875 -0.640625 C 7.628906 -0.859375 8.046875 -1.113281 8.421875 -1.40625 Z M 8.421875 -1.40625 "/></g></g></g><g fill="#ffffff" fill-opacity="1"><g transform="translate(54.25658, 73.859485)"><g><path d="M 13.234375 -1.1875 C 13.335938 -1.25 13.421875 -1.238281 13.484375 -1.15625 C 13.546875 -1.070312 13.546875 -0.988281 13.484375 -0.90625 C 13.066406 -0.507812 12.617188 -0.25 12.140625 -0.125 C 11.660156 0 11.128906 0.0507812 10.546875 0.03125 C 9.710938 -0.0078125 9.039062 -0.191406 8.53125 -0.515625 C 8.019531 -0.835938 7.722656 -1.394531 7.640625 -2.1875 C 7.535156 -3.289062 7.359375 -4.117188 7.109375 -4.671875 C 6.859375 -5.234375 6.585938 -5.601562 6.296875 -5.78125 C 6.003906 -5.957031 5.742188 -5.992188 5.515625 -5.890625 C 5.472656 -5.867188 5.4375 -5.847656 5.40625 -5.828125 C 5.375 -5.804688 5.335938 -5.785156 5.296875 -5.765625 C 4.992188 -5.410156 4.773438 -5.253906 4.640625 -5.296875 C 4.503906 -5.335938 4.476562 -5.441406 4.5625 -5.609375 C 4.625 -5.710938 4.75 -5.878906 4.9375 -6.109375 C 5.132812 -6.335938 5.367188 -6.578125 5.640625 -6.828125 C 5.660156 -6.828125 5.671875 -6.828125 5.671875 -6.828125 C 5.753906 -6.929688 5.835938 -7.015625 5.921875 -7.078125 C 6.003906 -7.140625 6.085938 -7.210938 6.171875 -7.296875 C 6.628906 -7.671875 7.0625 -7.988281 7.46875 -8.25 C 7.875 -8.507812 8.21875 -8.84375 8.5 -9.25 C 8.78125 -9.65625 8.953125 -10.234375 9.015625 -10.984375 C 9.054688 -11.609375 8.953125 -12.175781 8.703125 -12.6875 C 8.453125 -13.195312 8.144531 -13.613281 7.78125 -13.9375 C 7.414062 -14.257812 7.054688 -14.429688 6.703125 -14.453125 C 6.410156 -14.492188 6.035156 -14.390625 5.578125 -14.140625 C 5.128906 -13.890625 4.691406 -13.554688 4.265625 -13.140625 C 3.835938 -12.722656 3.5 -12.273438 3.25 -11.796875 C 2.726562 -10.859375 2.429688 -9.796875 2.359375 -8.609375 C 2.285156 -7.421875 2.410156 -6.253906 2.734375 -5.109375 C 3.054688 -3.972656 3.546875 -2.96875 4.203125 -2.09375 C 4.859375 -1.21875 5.640625 -0.613281 6.546875 -0.28125 C 6.546875 -0.28125 6.578125 -0.257812 6.640625 -0.21875 C 6.703125 -0.175781 6.734375 -0.125 6.734375 -0.0625 C 6.734375 -0.0195312 6.707031 0.0078125 6.65625 0.03125 C 6.601562 0.0507812 6.578125 0.0625 6.578125 0.0625 C 6.578125 0.0625 6.28125 0.0625 5.6875 0.0625 C 5.101562 0.0625 4.351562 0.0625 3.4375 0.0625 C 2.519531 0.0625 1.570312 0.0625 0.59375 0.0625 C 0.507812 0.0625 0.46875 0.00390625 0.46875 -0.109375 C 0.46875 -0.222656 0.507812 -0.28125 0.59375 -0.28125 C 1.09375 -0.28125 1.414062 -0.53125 1.5625 -1.03125 C 1.644531 -1.257812 1.6875 -1.632812 1.6875 -2.15625 L 1.6875 -12.546875 C 1.6875 -13.023438 1.582031 -13.453125 1.375 -13.828125 C 1.164062 -14.203125 0.820312 -14.398438 0.34375 -14.421875 C 0.238281 -14.421875 0.191406 -14.472656 0.203125 -14.578125 C 0.210938 -14.679688 0.257812 -14.734375 0.34375 -14.734375 C 3.007812 -14.734375 5.132812 -14.742188 6.71875 -14.765625 C 8.3125 -14.785156 9.523438 -14.679688 10.359375 -14.453125 C 10.960938 -14.304688 11.445312 -13.972656 11.8125 -13.453125 C 12.175781 -12.929688 12.375 -12.34375 12.40625 -11.6875 C 12.4375 -11.03125 12.257812 -10.382812 11.875 -9.75 C 11.488281 -9.113281 10.828125 -8.597656 9.890625 -8.203125 C 9.265625 -7.929688 8.613281 -7.675781 7.9375 -7.4375 C 7.257812 -7.195312 6.648438 -6.898438 6.109375 -6.546875 C 7.128906 -6.734375 7.972656 -6.710938 8.640625 -6.484375 C 9.304688 -6.253906 9.835938 -5.898438 10.234375 -5.421875 C 10.628906 -4.953125 10.9375 -4.4375 11.15625 -3.875 C 11.375 -3.3125 11.550781 -2.789062 11.6875 -2.3125 C 11.820312 -1.832031 11.960938 -1.476562 12.109375 -1.25 C 12.234375 -1.0625 12.40625 -0.960938 12.625 -0.953125 C 12.84375 -0.941406 13.046875 -1.019531 13.234375 -1.1875 Z M 13.234375 -1.1875 "/></g></g></g><g fill="#171717" fill-opacity="1"><g transform="translate(77.30859, 74.464363)"><g><path d="M 7.703125 -13.21875 L 6.0625 -13.21875 L 0.5 0 L 2.421875 0 L 3.78125 -3.3125 L 9.140625 -5.109375 L 11.25 0 L 13.1875 0 Z M 4.6875 -5.5 L 6.875 -10.625 L 8.421875 -6.78125 Z M 4.6875 -5.5 "/></g></g></g><g fill="#171717" fill-opacity="1"><g transform="translate(90.985218, 74.464363)"><g><path d="M 0.5 -13.734375 L 0.5 0 L 2.8125 0 L 2.8125 -11.46875 L 5.09375 -11.46875 L 5.09375 0 L 7.375 0 L 7.375 -11.640625 C 7.375 -12.890625 6.21875 -13.703125 4.640625 -13.703125 C 3.828125 -13.703125 3.1875 -13.53125 2.734375 -13.1875 L 2.734375 -13.734375 Z M 0.5 -13.734375 "/></g></g></g><g fill="#171717" fill-opacity="1"><g transform="translate(98.847892, 74.464363)"><g><path d="M 3.59375 -13.8125 C 3.078125 -13.8125 2.828125 -13.5625 2.828125 -13.03125 C 2.828125 -12.5 3.078125 -12.25 3.59375 -12.25 L 5.515625 -12.25 C 6.015625 -12.25 6.28125 -12.5 6.28125 -13.03125 C 6.28125 -13.5625 6.015625 -13.8125 5.515625 -13.8125 Z M 3.59375 -1.5625 C 3.078125 -1.5625 2.828125 -1.3125 2.828125 -0.78125 C 2.828125 -0.265625 3.078125 0 3.59375 0 L 7.609375 0 C 8.109375 0 8.359375 -0.265625 8.359375 -0.78125 C 8.359375 -1.3125 8.109375 -1.5625 7.609375 -1.5625 Z M 0.5 -8.125 C 0.5 -7.59375 0.75 -7.328125 1.28125 -7.328125 C 1.8125 -7.328125 2.0625 -7.59375 2.0625 -8.125 L 2.0625 -13.0625 C 2.0625 -13.578125 1.8125 -13.828125 1.28125 -13.828125 C 0.75 -13.828125 0.5 -13.578125 0.5 -13.0625 Z M 6.453125 -11.671875 C 6.453125 -11.53125 6.5 -11.375 6.609375 -11.234375 L 9.203125 -7.71875 C 9.359375 -7.5 9.5625 -7.390625 9.8125 -7.390625 C 10.234375 -7.390625 10.640625 -7.734375 10.640625 -8.15625 C 10.640625 -8.359375 10.578125 -8.515625 10.484375 -8.625 L 7.890625 -12.140625 C 7.71875 -12.34375 7.484375 -12.453125 7.265625 -12.453125 C 6.8125 -12.453125 6.453125 -12.109375 6.453125 -11.671875 Z M 0.5 -0.78125 C 0.5 -0.265625 0.75 0 1.28125 0 C 1.8125 0 2.0625 -0.265625 2.0625 -0.78125 L 2.0625 -5.71875 C 2.0625 -6.25 1.8125 -6.5 1.28125 -6.5 C 0.75 -6.5 0.5 -6.25 0.5 -5.71875 Z M 9.03125 -0.78125 C 9.03125 -0.265625 9.296875 0 9.8125 0 C 10.34375 0 10.59375 -0.265625 10.59375 -0.78125 L 10.59375 -5.71875 C 10.59375 -6.25 10.34375 -6.5 9.8125 -6.5 C 9.296875 -6.5 9.03125 -6.25 9.03125 -5.71875 Z M 9.03125 -0.78125 "/></g></g></g><g fill="#171717" fill-opacity="1"><g transform="translate(109.977465, 74.464363)"><g><path d="M 0.921875 -0.4375 L 0.921875 -13.09375 L 7.328125 -13.09375 L 7.328125 -0.4375 Z M 7.78125 -13.53125 L 0.5 -13.53125 L 0.5 0 L 7.78125 0 Z M 1.359375 -1.03125 L 6.875 -1.03125 L 6.875 -1.84375 L 1.359375 -1.84375 Z M 3.484375 -3.15625 L 3.484375 -3.140625 C 3.46875 -3.15625 3.46875 -3.421875 3.46875 -3.875 C 3.46875 -4.078125 3.53125 -4.296875 3.625 -4.578125 C 3.75 -4.671875 3.96875 -5.46875 3.96875 -5.609375 L 3.953125 -5.765625 L 4.140625 -5.75 C 4.34375 -5.5 4.46875 -5.375 4.5 -5.359375 L 4.4375 -5.765625 L 4.578125 -5.671875 L 4.59375 -5.609375 L 4.984375 -5.390625 L 5.046875 -5.28125 C 5.046875 -5.375 5 -5.515625 4.953125 -5.703125 L 5.03125 -5.671875 C 5.171875 -5.5625 5.296875 -5.46875 5.4375 -5.390625 L 5.5625 -5.28125 L 5.5625 -5.296875 C 5.59375 -5.296875 5.5625 -5.28125 5.59375 -5.28125 L 5.5 -5.59375 L 5.703125 -5.484375 L 5.703125 -5.4375 L 5.953125 -5.375 L 6.125 -5.4375 L 6 -5.5 C 5.359375 -5.875 4.953125 -6.109375 4.828125 -6.21875 L 5.1875 -6.25 L 5.296875 -6.15625 L 5.03125 -6.484375 L 5.390625 -6.5 C 5.5 -6.5 5.609375 -6.484375 5.75 -6.46875 C 5.75 -6.484375 5.765625 -6.484375 5.78125 -6.484375 L 5.515625 -6.703125 L 5.78125 -6.703125 L 6.015625 -6.78125 L 6.125 -6.90625 L 6 -6.875 L 6 -6.90625 C 5.546875 -6.8125 5.140625 -6.78125 4.828125 -6.78125 C 4.671875 -6.78125 4.578125 -6.78125 4.546875 -6.796875 L 4.484375 -6.796875 L 4.5625 -6.828125 L 4.140625 -6.78125 L 4.25 -6.921875 L 4.296875 -6.921875 L 4.5625 -7.296875 L 4.6875 -7.328125 L 4.671875 -7.328125 C 4.546875 -7.328125 4.390625 -7.3125 4.25 -7.296875 L 4.703125 -7.875 L 4.6875 -7.875 C 4.6875 -7.890625 4.6875 -7.890625 4.703125 -7.90625 L 4.375 -7.8125 L 4.5625 -8.03125 L 4.640625 -8.25 L 4.59375 -8.453125 L 4.546875 -8.3125 L 4 -7.578125 C 3.75 -7.21875 3.640625 -7 3.640625 -6.875 L 3.65625 -6.671875 L 3.453125 -6.984375 C 3.328125 -7.078125 3.0625 -7.234375 2.671875 -7.34375 L 1.8125 -7.578125 L 1.6875 -7.625 L 1.75 -7.46875 L 1.96875 -7.328125 L 2 -7.34375 L 2.234375 -7.28125 L 1.9375 -7.140625 C 1.953125 -7.140625 1.96875 -7.125 1.96875 -7.109375 L 2.15625 -7.078125 C 2.171875 -7.078125 2.171875 -7.09375 2.21875 -7.09375 C 2.3125 -7.09375 2.578125 -6.984375 2.640625 -6.984375 L 2.671875 -6.96875 C 2.578125 -6.90625 2.453125 -6.828125 2.328125 -6.71875 L 2.453125 -6.796875 C 2.5625 -6.78125 2.640625 -6.734375 2.65625 -6.71875 L 2.0625 -6.65625 C 1.859375 -6.625 1.640625 -6.609375 1.4375 -6.609375 L 1.3125 -6.625 L 1.4375 -6.5 L 1.703125 -6.484375 L 1.953125 -6.5 L 1.703125 -6.265625 C 1.71875 -6.265625 1.734375 -6.265625 1.75 -6.25 L 1.921875 -6.28125 C 2.046875 -6.328125 2.21875 -6.359375 2.421875 -6.359375 L 2.453125 -6.328125 L 2.203125 -5.984375 L 2.3125 -6.09375 L 2.75 -6.109375 L 2.78125 -6.15625 L 2.953125 -6.15625 L 2.9375 -6.09375 C 2.421875 -6.015625 1.640625 -5.09375 1.484375 -4.90625 L 1.390625 -4.796875 L 1.5625 -4.796875 L 1.75 -4.9375 L 1.75 -4.984375 L 1.953125 -5.15625 L 1.9375 -4.796875 L 2.0625 -4.984375 C 2.15625 -5.140625 2.265625 -5.265625 2.40625 -5.359375 L 2.4375 -5.390625 C 2.453125 -5.1875 2.453125 -5.046875 2.46875 -4.953125 L 2.46875 -5.078125 L 2.8125 -5.40625 L 2.8125 -5.46875 L 2.9375 -5.59375 L 2.953125 -5.171875 L 3.234375 -5.65625 L 3.421875 -5.71875 L 3.4375 -5.546875 L 3.515625 -5.546875 C 3.515625 -5.390625 3.3125 -5.03125 3.3125 -4.875 L 3.3125 -4.765625 L 3.28125 -4.828125 C 2.96875 -4.4375 2.828125 -3.875 2.8125 -3.15625 L 1.359375 -3.15625 L 1.359375 -2.34375 L 6.875 -2.34375 L 6.875 -3.15625 Z M 3.484375 -3.15625 "/></g></g></g><g fill="#171717" fill-opacity="1"><g transform="translate(118.246199, 74.464363)"><g><path d="M 0.625 0 L 3.171875 0 L 3.171875 -6.125 L 0.625 -11.0625 Z M 7.515625 0 L 10.484375 0 L 3.578125 -13.515625 L 0.5 -13.515625 Z M 7.515625 -7.75 L 10.265625 -2.75 L 10.265625 -13.515625 L 7.515625 -13.515625 Z M 7.515625 -7.75 "/></g></g></g><g fill="#171717" fill-opacity="1"><g transform="translate(129.228109, 74.464363)"><g><path d="M 3.265625 -13.28125 C 1.796875 -13.28125 0.5 -12.046875 0.5 -10.546875 L 0.5 -2.703125 C 0.5 -1.203125 1.71875 0 3.234375 0 C 3.875 0 4.390625 -0.140625 4.828125 -0.421875 L 5.96875 0.03125 L 5.96875 -7.78125 L 3.28125 -7.78125 L 3.28125 -5.78125 L 4.046875 -5.78125 L 4.046875 -2.78125 C 4.046875 -2.296875 3.640625 -1.90625 3.140625 -1.90625 C 2.5625 -1.90625 2.296875 -2.203125 2.296875 -2.765625 L 2.296875 -10.671875 C 2.296875 -11.1875 2.671875 -11.59375 3.1875 -11.59375 C 3.71875 -11.59375 4.078125 -11.1875 4.078125 -10.671875 L 4.078125 -9.671875 L 5.90625 -9.671875 L 5.90625 -10.59375 C 5.90625 -12.28125 4.953125 -13.28125 3.265625 -13.28125 Z M 3.265625 -13.28125 "/></g></g></g></svg>