<svg xmlns="http://www.w3.org/2000/svg" xmlns:xlink="http://www.w3.org/1999/xlink" width="200" zoomAndPan="magnify" viewBox="0 0 150 149.999998" height="200" preserveAspectRatio="xMidYMid meet" version="1.0"><defs><g/><clipPath id="f14d61ea62"><path d="M 10.503906 17.703125 L 71.253906 17.703125 L 71.253906 72.277344 L 10.503906 72.277344 Z M 10.503906 17.703125 " clip-rule="nonzero"/></clipPath><clipPath id="55a173485d"><path d="M 76.460938 17.703125 L 137.210938 17.703125 L 137.210938 72.277344 L 76.460938 72.277344 Z M 76.460938 17.703125 " clip-rule="nonzero"/></clipPath><clipPath id="75377d7020"><path d="M 10.503906 81.804688 L 71.253906 81.804688 L 71.253906 136.378906 L 10.503906 136.378906 Z M 10.503906 81.804688 " clip-rule="nonzero"/></clipPath><clipPath id="10b467153e"><path d="M 76.460938 81.804688 L 137.210938 81.804688 L 137.210938 136.378906 L 76.460938 136.378906 Z M 76.460938 81.804688 " clip-rule="nonzero"/></clipPath></defs><g clip-path="url(#f14d61ea62)"><path fill="#ffffff" d="M 21.003906 16.203125 L 30.003906 16.203125 L 30.003906 19.203125 L 21.003906 19.203125 Z M 31.503906 16.203125 L 40.503906 16.203125 L 40.503906 19.203125 L 31.503906 19.203125 Z M 42.003906 16.203125 L 51.003906 16.203125 L 51.003906 19.203125 L 42.003906 19.203125 Z M 52.503906 16.203125 L 61.503906 16.203125 L 61.503906 19.203125 L 52.503906 19.203125 Z M 63.003906 16.203125 L 73.070312 16.203125 L 73.070312 18.136719 L 70.070312 18.136719 L 70.070312 17.703125 L 71.570312 17.703125 L 71.570312 19.203125 L 63.003906 19.203125 Z M 73.070312 19.636719 L 73.070312 28.636719 L 70.070312 28.636719 L 70.070312 19.636719 Z M 73.070312 30.136719 L 73.070312 39.136719 L 70.070312 39.136719 L 70.070312 30.136719 Z M 73.070312 40.636719 L 73.070312 49.636719 L 70.070312 49.636719 L 70.070312 40.636719 Z M 73.070312 51.136719 L 73.070312 60.136719 L 70.070312 60.136719 L 70.070312 51.136719 Z M 73.070312 61.636719 L 73.070312 70.636719 L 70.070312 70.636719 L 70.070312 61.636719 Z M 73.070312 72.136719 L 73.070312 73.777344 L 62.707031 73.777344 L 62.707031 70.777344 L 71.570312 70.777344 L 71.570312 72.277344 L 70.070312 72.277344 L 70.070312 72.136719 Z M 61.207031 73.777344 L 52.207031 73.777344 L 52.207031 70.777344 L 61.207031 70.777344 Z M 50.707031 73.777344 L 41.707031 73.777344 L 41.707031 70.777344 L 50.707031 70.777344 Z M 40.207031 73.777344 L 31.207031 73.777344 L 31.207031 70.777344 L 40.207031 70.777344 Z M 29.707031 73.777344 L 20.707031 73.777344 L 20.707031 70.777344 L 29.707031 70.777344 Z M 19.207031 73.777344 L 9.003906 73.777344 L 9.003906 71.984375 L 12.003906 71.984375 L 12.003906 72.277344 L 10.503906 72.277344 L 10.503906 70.777344 L 19.207031 70.777344 Z M 9.003906 70.484375 L 9.003906 61.484375 L 12.003906 61.484375 L 12.003906 70.484375 Z M 9.003906 59.984375 L 9.003906 50.984375 L 12.003906 50.984375 L 12.003906 59.984375 Z M 9.003906 49.484375 L 9.003906 40.484375 L 12.003906 40.484375 L 12.003906 49.484375 Z M 9.003906 38.984375 L 9.003906 29.984375 L 12.003906 29.984375 L 12.003906 38.984375 Z M 9.003906 28.484375 L 9.003906 19.484375 L 12.003906 19.484375 L 12.003906 28.484375 Z M 9.003906 17.984375 L 9.003906 16.203125 L 19.503906 16.203125 L 19.503906 19.203125 L 10.503906 19.203125 L 10.503906 17.703125 L 12.003906 17.703125 L 12.003906 17.984375 Z M 9.003906 17.984375 " fill-opacity="1" fill-rule="nonzero"/></g><g fill="#ffffff" fill-opacity="1"><g transform="translate(16.754818, 42.040082)"><g><path d="M 0.203125 0 L 0.203125 -0.265625 L 0.859375 -0.5 C 1.210938 -0.632812 1.484375 -0.800781 1.671875 -1 C 1.867188 -1.207031 2.023438 -1.492188 2.140625 -1.859375 L 7.53125 -17.328125 L 9.765625 -17.328125 L 15.078125 -1.75 C 15.210938 -1.363281 15.367188 -1.070312 15.546875 -0.875 C 15.722656 -0.675781 15.992188 -0.503906 16.359375 -0.359375 L 16.671875 -0.265625 L 16.671875 0 L 10.03125 0 L 10.03125 -0.265625 L 10.421875 -0.390625 C 10.785156 -0.535156 11.003906 -0.734375 11.078125 -0.984375 C 11.160156 -1.234375 11.148438 -1.535156 11.046875 -1.890625 L 9.8125 -5.65625 L 4 -5.65625 L 2.75 -1.96875 C 2.625 -1.582031 2.582031 -1.273438 2.625 -1.046875 C 2.675781 -0.816406 2.882812 -0.632812 3.25 -0.5 L 3.828125 -0.265625 L 3.828125 0 Z M 4.1875 -6.171875 L 9.65625 -6.171875 L 7.015625 -14.3125 Z M 4.1875 -6.171875 "/></g></g></g><path stroke-linecap="butt" transform="matrix(0.75, -0.000000000000000186, 0.000000000000000186, 0.75, 40.014751, 32.527676)" fill="none" stroke-linejoin="miter" d="M 0.00116523 0.999557 L 32.350125 0.999557 " stroke="#ffffff" stroke-width="2" stroke-opacity="1" stroke-miterlimit="4"/><path stroke-linecap="butt" transform="matrix(0.75, -0.000000000000000186, 0.000000000000000186, 0.75, 40.014751, 39.995273)" fill="none" stroke-linejoin="miter" d="M 0.00116523 1.001094 L 32.350125 1.001094 " stroke="#ffffff" stroke-width="2" stroke-opacity="1" stroke-miterlimit="4"/><path stroke-linecap="butt" transform="matrix(0.75, -0.000000000000000093, 0.000000000000000093, 0.75, 18.859058, 48.101366)" fill="none" stroke-linejoin="miter" d="M 0.000422894 1.000263 L 60.557718 1.000263 " stroke="#ffffff" stroke-width="2" stroke-opacity="1" stroke-miterlimit="4"/><path stroke-linecap="butt" transform="matrix(0.75, 0, 0, 0.75, 18.859058, 55.601365)" fill="none" stroke-linejoin="miter" d="M 0.000422894 1.000263 L 60.557718 1.000263 " stroke="#ffffff" stroke-width="2" stroke-opacity="1" stroke-miterlimit="4"/><path stroke-linecap="butt" transform="matrix(0.75, 0, 0, 0.75, 18.859058, 63.101365)" fill="none" stroke-linejoin="miter" d="M 0.000422894 1.000264 L 60.557718 1.000264 " stroke="#ffffff" stroke-width="2" stroke-opacity="1" stroke-miterlimit="4"/><g clip-path="url(#55a173485d)"><path fill="#ffffff" d="M 86.960938 16.203125 L 95.960938 16.203125 L 95.960938 19.203125 L 86.960938 19.203125 Z M 97.460938 16.203125 L 106.460938 16.203125 L 106.460938 19.203125 L 97.460938 19.203125 Z M 107.960938 16.203125 L 116.960938 16.203125 L 116.960938 19.203125 L 107.960938 19.203125 Z M 118.460938 16.203125 L 127.460938 16.203125 L 127.460938 19.203125 L 118.460938 19.203125 Z M 128.960938 16.203125 L 139.023438 16.203125 L 139.023438 18.136719 L 136.023438 18.136719 L 136.023438 17.703125 L 137.523438 17.703125 L 137.523438 19.203125 L 128.960938 19.203125 Z M 139.023438 19.636719 L 139.023438 28.636719 L 136.023438 28.636719 L 136.023438 19.636719 Z M 139.023438 30.136719 L 139.023438 39.136719 L 136.023438 39.136719 L 136.023438 30.136719 Z M 139.023438 40.636719 L 139.023438 49.636719 L 136.023438 49.636719 L 136.023438 40.636719 Z M 139.023438 51.136719 L 139.023438 60.136719 L 136.023438 60.136719 L 136.023438 51.136719 Z M 139.023438 61.636719 L 139.023438 70.636719 L 136.023438 70.636719 L 136.023438 61.636719 Z M 139.023438 72.136719 L 139.023438 73.777344 L 128.664062 73.777344 L 128.664062 70.777344 L 137.523438 70.777344 L 137.523438 72.277344 L 136.023438 72.277344 L 136.023438 72.136719 Z M 127.164062 73.777344 L 118.164062 73.777344 L 118.164062 70.777344 L 127.164062 70.777344 Z M 116.664062 73.777344 L 107.664062 73.777344 L 107.664062 70.777344 L 116.664062 70.777344 Z M 106.164062 73.777344 L 97.164062 73.777344 L 97.164062 70.777344 L 106.164062 70.777344 Z M 95.664062 73.777344 L 86.664062 73.777344 L 86.664062 70.777344 L 95.664062 70.777344 Z M 85.164062 73.777344 L 74.960938 73.777344 L 74.960938 71.984375 L 77.960938 71.984375 L 77.960938 72.277344 L 76.460938 72.277344 L 76.460938 70.777344 L 85.164062 70.777344 Z M 74.960938 70.484375 L 74.960938 61.484375 L 77.960938 61.484375 L 77.960938 70.484375 Z M 74.960938 59.984375 L 74.960938 50.984375 L 77.960938 50.984375 L 77.960938 59.984375 Z M 74.960938 49.484375 L 74.960938 40.484375 L 77.960938 40.484375 L 77.960938 49.484375 Z M 74.960938 38.984375 L 74.960938 29.984375 L 77.960938 29.984375 L 77.960938 38.984375 Z M 74.960938 28.484375 L 74.960938 19.484375 L 77.960938 19.484375 L 77.960938 28.484375 Z M 74.960938 17.984375 L 74.960938 16.203125 L 85.460938 16.203125 L 85.460938 19.203125 L 76.460938 19.203125 L 76.460938 17.703125 L 77.960938 17.703125 L 77.960938 17.984375 Z M 74.960938 17.984375 " fill-opacity="1" fill-rule="nonzero"/></g><g fill="#ffffff" fill-opacity="1"><g transform="translate(83.980265, 42.836074)"><g><path d="M 13.796875 0 L 13.796875 -17.453125 L 0.6875 -17.453125 L 0.6875 0 L 5.046875 0 L 5.046875 -4.875 L 9.421875 -4.875 L 9.421875 0 Z M 9.421875 -8.84375 L 5.046875 -8.84375 L 5.046875 -13.453125 L 9.421875 -13.453125 Z M 9.421875 -8.84375 "/></g></g></g><path stroke-linecap="butt" transform="matrix(0.75, -0.000000000000000186, 0.000000000000000186, 0.75, 105.971575, 32.527676)" fill="none" stroke-linejoin="miter" d="M 0.00144158 0.999557 L 32.350402 0.999557 " stroke="#ffffff" stroke-width="2" stroke-opacity="1" stroke-miterlimit="4"/><path stroke-linecap="butt" transform="matrix(0.75, -0.000000000000000186, 0.000000000000000186, 0.75, 105.971575, 39.995273)" fill="none" stroke-linejoin="miter" d="M 0.00144158 1.001094 L 32.350402 1.001094 " stroke="#ffffff" stroke-width="2" stroke-opacity="1" stroke-miterlimit="4"/><path stroke-linecap="butt" transform="matrix(0.75, -0.000000000000000093, 0.000000000000000093, 0.75, 84.815886, 48.101366)" fill="none" stroke-linejoin="miter" d="M 0.000693797 1.000263 L 60.557989 1.000263 " stroke="#ffffff" stroke-width="2" stroke-opacity="1" stroke-miterlimit="4"/><path stroke-linecap="butt" transform="matrix(0.75, 0, 0, 0.75, 84.815886, 55.601365)" fill="none" stroke-linejoin="miter" d="M 0.000693797 1.000263 L 60.557989 1.000263 " stroke="#ffffff" stroke-width="2" stroke-opacity="1" stroke-miterlimit="4"/><path stroke-linecap="butt" transform="matrix(0.75, 0, 0, 0.75, 84.815886, 63.101365)" fill="none" stroke-linejoin="miter" d="M 0.000693797 1.000264 L 60.557989 1.000264 " stroke="#ffffff" stroke-width="2" stroke-opacity="1" stroke-miterlimit="4"/><g clip-path="url(#75377d7020)"><path fill="#ffffff" d="M 21.003906 80.304688 L 30.003906 80.304688 L 30.003906 83.304688 L 21.003906 83.304688 Z M 31.503906 80.304688 L 40.503906 80.304688 L 40.503906 83.304688 L 31.503906 83.304688 Z M 42.003906 80.304688 L 51.003906 80.304688 L 51.003906 83.304688 L 42.003906 83.304688 Z M 52.503906 80.304688 L 61.503906 80.304688 L 61.503906 83.304688 L 52.503906 83.304688 Z M 63.003906 80.304688 L 73.070312 80.304688 L 73.070312 82.238281 L 70.070312 82.238281 L 70.070312 81.804688 L 71.570312 81.804688 L 71.570312 83.304688 L 63.003906 83.304688 Z M 73.070312 83.738281 L 73.070312 92.738281 L 70.070312 92.738281 L 70.070312 83.738281 Z M 73.070312 94.238281 L 73.070312 103.238281 L 70.070312 103.238281 L 70.070312 94.238281 Z M 73.070312 104.738281 L 73.070312 113.738281 L 70.070312 113.738281 L 70.070312 104.738281 Z M 73.070312 115.238281 L 73.070312 124.238281 L 70.070312 124.238281 L 70.070312 115.238281 Z M 73.070312 125.738281 L 73.070312 134.738281 L 70.070312 134.738281 L 70.070312 125.738281 Z M 73.070312 136.238281 L 73.070312 137.878906 L 62.707031 137.878906 L 62.707031 134.878906 L 71.570312 134.878906 L 71.570312 136.378906 L 70.070312 136.378906 L 70.070312 136.238281 Z M 61.207031 137.878906 L 52.207031 137.878906 L 52.207031 134.878906 L 61.207031 134.878906 Z M 50.707031 137.878906 L 41.707031 137.878906 L 41.707031 134.878906 L 50.707031 134.878906 Z M 40.207031 137.878906 L 31.207031 137.878906 L 31.207031 134.878906 L 40.207031 134.878906 Z M 29.707031 137.878906 L 20.707031 137.878906 L 20.707031 134.878906 L 29.707031 134.878906 Z M 19.207031 137.878906 L 9.003906 137.878906 L 9.003906 136.085938 L 12.003906 136.085938 L 12.003906 136.378906 L 10.503906 136.378906 L 10.503906 134.878906 L 19.207031 134.878906 Z M 9.003906 134.585938 L 9.003906 125.585938 L 12.003906 125.585938 L 12.003906 134.585938 Z M 9.003906 124.085938 L 9.003906 115.085938 L 12.003906 115.085938 L 12.003906 124.085938 Z M 9.003906 113.585938 L 9.003906 104.585938 L 12.003906 104.585938 L 12.003906 113.585938 Z M 9.003906 103.085938 L 9.003906 94.085938 L 12.003906 94.085938 L 12.003906 103.085938 Z M 9.003906 92.585938 L 9.003906 83.585938 L 12.003906 83.585938 L 12.003906 92.585938 Z M 9.003906 82.085938 L 9.003906 80.304688 L 19.503906 80.304688 L 19.503906 83.304688 L 10.503906 83.304688 L 10.503906 81.804688 L 12.003906 81.804688 L 12.003906 82.085938 Z M 9.003906 82.085938 " fill-opacity="1" fill-rule="nonzero"/></g><g fill="#ffffff" fill-opacity="1"><g transform="translate(20.058124, 108.602328)"><g><path d="M -0.25 0 C 0.226562 -1.40625 0.71875 -2.835938 1.21875 -4.296875 C 1.71875 -5.765625 2.140625 -7.253906 2.484375 -8.765625 C 2.835938 -10.273438 3.015625 -11.785156 3.015625 -13.296875 C 3.015625 -14.472656 2.925781 -15.554688 2.75 -16.546875 C 2.582031 -17.546875 2.335938 -18.328125 2.015625 -18.890625 L 11.140625 -18.890625 C 11.140625 -16.398438 11.238281 -14.050781 11.4375 -11.84375 C 11.632812 -9.644531 11.972656 -7.566406 12.453125 -5.609375 C 12.929688 -3.648438 13.597656 -1.78125 14.453125 0 L 7.203125 0 C 6.773438 -0.832031 6.46875 -1.613281 6.28125 -2.34375 C 6.101562 -3.070312 6.015625 -3.765625 6.015625 -4.421875 C 6.015625 -5.441406 6.191406 -6.375 6.546875 -7.21875 C 6.898438 -8.070312 7.332031 -8.84375 7.84375 -9.53125 C 8.351562 -10.226562 8.832031 -10.851562 9.28125 -11.40625 C 9.695312 -11.894531 10.039062 -12.332031 10.3125 -12.71875 C 10.59375 -13.101562 10.734375 -13.472656 10.734375 -13.828125 C 10.734375 -14.160156 10.644531 -14.390625 10.46875 -14.515625 C 10.300781 -14.640625 10.097656 -14.703125 9.859375 -14.703125 C 9.472656 -14.703125 9 -14.59375 8.4375 -14.375 C 7.882812 -14.164062 7.304688 -13.847656 6.703125 -13.421875 C 6.097656 -13.003906 5.535156 -12.460938 5.015625 -11.796875 C 4.492188 -11.140625 4.066406 -10.363281 3.734375 -9.46875 C 3.410156 -8.582031 3.25 -7.570312 3.25 -6.4375 C 3.25 -5.488281 3.378906 -4.472656 3.640625 -3.390625 C 3.898438 -2.304688 4.335938 -1.175781 4.953125 0 Z M -0.25 0 "/></g></g></g><path stroke-linecap="butt" transform="matrix(0.75, 0, 0, 0.75, 40.014751, 96.628355)" fill="none" stroke-linejoin="miter" d="M 0.00116523 1.000735 L 32.350125 1.000735 " stroke="#ffffff" stroke-width="2" stroke-opacity="1" stroke-miterlimit="4"/><path stroke-linecap="butt" transform="matrix(0.75, -0.000000000000000651, 0.000000000000000651, 0.75, 40.014751, 104.096012)" fill="none" stroke-linejoin="miter" d="M 0.00116523 1.002192 L 32.350125 1.002192 " stroke="#ffffff" stroke-width="2" stroke-opacity="1" stroke-miterlimit="4"/><path stroke-linecap="butt" transform="matrix(0.75, -0.000000000000000372, 0.000000000000000372, 0.75, 18.859058, 112.202105)" fill="none" stroke-linejoin="miter" d="M 0.000422894 1.00136 L 60.557718 1.00136 " stroke="#ffffff" stroke-width="2" stroke-opacity="1" stroke-miterlimit="4"/><path stroke-linecap="butt" transform="matrix(0.75, 0, 0, 0.75, 18.859058, 119.702105)" fill="none" stroke-linejoin="miter" d="M 0.000422894 1.001361 L 60.557718 1.001361 " stroke="#ffffff" stroke-width="2" stroke-opacity="1" stroke-miterlimit="4"/><path stroke-linecap="butt" transform="matrix(0.75, 0, 0, 0.75, 18.859058, 127.202104)" fill="none" stroke-linejoin="miter" d="M 0.000422894 1.001361 L 60.557718 1.001361 " stroke="#ffffff" stroke-width="2" stroke-opacity="1" stroke-miterlimit="4"/><g clip-path="url(#10b467153e)"><path fill="#ffffff" d="M 86.960938 80.304688 L 95.960938 80.304688 L 95.960938 83.304688 L 86.960938 83.304688 Z M 97.460938 80.304688 L 106.460938 80.304688 L 106.460938 83.304688 L 97.460938 83.304688 Z M 107.960938 80.304688 L 116.960938 80.304688 L 116.960938 83.304688 L 107.960938 83.304688 Z M 118.460938 80.304688 L 127.460938 80.304688 L 127.460938 83.304688 L 118.460938 83.304688 Z M 128.960938 80.304688 L 139.023438 80.304688 L 139.023438 82.238281 L 136.023438 82.238281 L 136.023438 81.804688 L 137.523438 81.804688 L 137.523438 83.304688 L 128.960938 83.304688 Z M 139.023438 83.738281 L 139.023438 92.738281 L 136.023438 92.738281 L 136.023438 83.738281 Z M 139.023438 94.238281 L 139.023438 103.238281 L 136.023438 103.238281 L 136.023438 94.238281 Z M 139.023438 104.738281 L 139.023438 113.738281 L 136.023438 113.738281 L 136.023438 104.738281 Z M 139.023438 115.238281 L 139.023438 124.238281 L 136.023438 124.238281 L 136.023438 115.238281 Z M 139.023438 125.738281 L 139.023438 134.738281 L 136.023438 134.738281 L 136.023438 125.738281 Z M 139.023438 136.238281 L 139.023438 137.878906 L 128.664062 137.878906 L 128.664062 134.878906 L 137.523438 134.878906 L 137.523438 136.378906 L 136.023438 136.378906 L 136.023438 136.238281 Z M 127.164062 137.878906 L 118.164062 137.878906 L 118.164062 134.878906 L 127.164062 134.878906 Z M 116.664062 137.878906 L 107.664062 137.878906 L 107.664062 134.878906 L 116.664062 134.878906 Z M 106.164062 137.878906 L 97.164062 137.878906 L 97.164062 134.878906 L 106.164062 134.878906 Z M 95.664062 137.878906 L 86.664062 137.878906 L 86.664062 134.878906 L 95.664062 134.878906 Z M 85.164062 137.878906 L 74.960938 137.878906 L 74.960938 136.085938 L 77.960938 136.085938 L 77.960938 136.378906 L 76.460938 136.378906 L 76.460938 134.878906 L 85.164062 134.878906 Z M 74.960938 134.585938 L 74.960938 125.585938 L 77.960938 125.585938 L 77.960938 134.585938 Z M 74.960938 124.085938 L 74.960938 115.085938 L 77.960938 115.085938 L 77.960938 124.085938 Z M 74.960938 113.585938 L 74.960938 104.585938 L 77.960938 104.585938 L 77.960938 113.585938 Z M 74.960938 103.085938 L 74.960938 94.085938 L 77.960938 94.085938 L 77.960938 103.085938 Z M 74.960938 92.585938 L 74.960938 83.585938 L 77.960938 83.585938 L 77.960938 92.585938 Z M 74.960938 82.085938 L 74.960938 80.304688 L 85.460938 80.304688 L 85.460938 83.304688 L 76.460938 83.304688 L 76.460938 81.804688 L 77.960938 81.804688 L 77.960938 82.085938 Z M 74.960938 82.085938 " fill-opacity="1" fill-rule="nonzero"/></g><g fill="#ffffff" fill-opacity="1"><g transform="translate(84.815886, 106.307272)"><g><path d="M 17.34375 -0.890625 C 16.296875 -1 15.578125 -1.53125 15.15625 -2.53125 L 12.6875 -8.453125 C 11.234375 -11.90625 10.546875 -13.6875 10.5625 -13.875 C 10.5625 -14.390625 10.90625 -14.640625 11.5625 -14.640625 C 11.484375 -14.390625 11.4375 -14.140625 11.4375 -13.890625 C 11.4375 -13.078125 11.984375 -12.578125 12.796875 -12.578125 C 13.6875 -12.578125 14.21875 -13.1875 14.21875 -14.078125 C 14.21875 -15.53125 13 -16.34375 11.4375 -16.34375 C 10.296875 -16.34375 9.390625 -15.953125 8.6875 -15.15625 C 8.3125 -15.84375 7.59375 -16.171875 6.546875 -16.171875 C 5.734375 -16.171875 5.0625 -15.890625 4.5625 -15.296875 C 5.75 -15.28125 6.5 -14.875 6.796875 -14.09375 L 2.671875 -2.390625 C 2.34375 -1.4375 1.640625 -0.9375 0.5625 -0.890625 C 0.890625 -0.296875 1.375 0 2.015625 0 C 2.734375 0 3.53125 -0.484375 3.859375 -1.125 C 4.15625 -0.375 4.6875 0 5.46875 0 C 6.109375 0 6.625 -0.296875 7.046875 -0.890625 C 5.875 -0.90625 5.296875 -1.4375 5.296875 -2.46875 C 5.296875 -3.71875 6.421875 -4.96875 7.578125 -5.296875 C 7.453125 -5.046875 7.390625 -4.8125 7.390625 -4.609375 C 7.390625 -3.796875 8 -3.34375 8.796875 -3.34375 C 9.828125 -3.34375 10.34375 -3.90625 10.34375 -5 L 10.34375 -5.109375 C 11.109375 -3.265625 11.484375 -2.21875 11.484375 -2.015625 C 11.484375 -1.3125 10.625 -0.890625 9.65625 -0.890625 C 10.015625 -0.296875 10.609375 0 11.4375 0 C 12.359375 0 13.046875 -0.296875 13.5 -0.84375 C 13.90625 -0.296875 14.625 0 15.59375 0 C 16.203125 0 16.78125 -0.296875 17.34375 -0.890625 Z M 9.640625 -6.75 C 9.234375 -7.0625 8.78125 -7.21875 8.21875 -7.21875 C 7.6875 -7.21875 7.203125 -7.078125 6.765625 -6.796875 L 8.078125 -10.609375 Z M 9.640625 -6.75 "/></g></g></g><path stroke-linecap="butt" transform="matrix(0.75, 0, 0, 0.75, 105.971575, 96.628355)" fill="none" stroke-linejoin="miter" d="M 0.00144158 1.000735 L 32.350402 1.000735 " stroke="#ffffff" stroke-width="2" stroke-opacity="1" stroke-miterlimit="4"/><path stroke-linecap="butt" transform="matrix(0.75, 0, 0, 0.75, 105.971575, 104.096012)" fill="none" stroke-linejoin="miter" d="M 0.00144158 1.002192 L 32.350402 1.002192 " stroke="#ffffff" stroke-width="2" stroke-opacity="1" stroke-miterlimit="4"/><path stroke-linecap="butt" transform="matrix(0.75, 0, 0, 0.75, 84.815886, 112.202105)" fill="none" stroke-linejoin="miter" d="M 0.000693797 1.00136 L 60.557989 1.00136 " stroke="#ffffff" stroke-width="2" stroke-opacity="1" stroke-miterlimit="4"/><path stroke-linecap="butt" transform="matrix(0.75, 0, 0, 0.75, 84.815886, 119.702105)" fill="none" stroke-linejoin="miter" d="M 0.000693797 1.001361 L 60.557989 1.001361 " stroke="#ffffff" stroke-width="2" stroke-opacity="1" stroke-miterlimit="4"/><path stroke-linecap="butt" transform="matrix(0.75, 0, 0, 0.75, 84.815886, 127.202104)" fill="none" stroke-linejoin="miter" d="M 0.000693797 1.001361 L 60.557989 1.001361 " stroke="#ffffff" stroke-width="2" stroke-opacity="1" stroke-miterlimit="4"/></svg>