<svg xmlns="http://www.w3.org/2000/svg" xmlns:xlink="http://www.w3.org/1999/xlink" width="200" zoomAndPan="magnify" viewBox="0 0 150 149.999998" height="200" preserveAspectRatio="xMidYMid meet" version="1.0"><defs><clipPath id="43de1e5606"><path d="M 16.015625 16.015625 L 133.765625 16.015625 L 133.765625 133.765625 L 16.015625 133.765625 Z M 16.015625 16.015625 " clip-rule="nonzero"/></clipPath></defs><g clip-path="url(#43de1e5606)"><path fill="#ffffff" d="M 132.007812 31.742188 C 133.09375 31.742188 133.976562 30.863281 133.976562 29.777344 L 133.976562 17.980469 C 133.976562 16.894531 133.09375 16.015625 132.007812 16.015625 L 120.210938 16.015625 C 119.128906 16.015625 118.246094 16.894531 118.246094 17.980469 L 118.246094 21.910156 L 31.742188 21.910156 L 31.742188 17.980469 C 31.742188 16.894531 30.859375 16.015625 29.777344 16.015625 L 17.980469 16.015625 C 16.894531 16.015625 16.015625 16.894531 16.015625 17.980469 L 16.015625 29.777344 C 16.015625 30.863281 16.894531 31.742188 17.980469 31.742188 L 21.910156 31.742188 L 21.910156 118.246094 L 17.980469 118.246094 C 16.894531 118.246094 16.015625 119.125 16.015625 120.210938 L 16.015625 132.007812 C 16.015625 133.097656 16.894531 133.976562 17.980469 133.976562 L 29.777344 133.976562 C 30.859375 133.976562 31.742188 133.097656 31.742188 132.007812 L 31.742188 128.078125 L 118.246094 128.078125 L 118.246094 132.007812 C 118.246094 133.097656 119.128906 133.976562 120.210938 133.976562 L 132.007812 133.976562 C 133.09375 133.976562 133.976562 133.097656 133.976562 132.007812 L 133.976562 120.210938 C 133.976562 119.125 133.09375 118.246094 132.007812 118.246094 L 128.078125 118.246094 L 128.078125 31.742188 Z M 124.144531 118.246094 L 120.210938 118.246094 C 119.128906 118.246094 118.246094 119.125 118.246094 120.210938 L 118.246094 124.144531 L 31.742188 124.144531 L 31.742188 120.210938 C 31.742188 119.125 30.859375 118.246094 29.777344 118.246094 L 25.84375 118.246094 L 25.84375 31.742188 L 29.777344 31.742188 C 30.859375 31.742188 31.742188 30.863281 31.742188 29.777344 L 31.742188 25.84375 L 118.246094 25.84375 L 118.246094 29.777344 C 118.246094 30.863281 119.128906 31.742188 120.210938 31.742188 L 124.144531 31.742188 Z M 124.144531 118.246094 " fill-opacity="1" fill-rule="nonzero"/></g><path fill="#ffffff" d="M 108.417969 33.707031 L 41.570312 33.707031 C 40.488281 33.707031 39.605469 34.585938 39.605469 35.675781 L 39.605469 51.402344 C 39.605469 52.488281 40.488281 53.367188 41.570312 53.367188 L 49.4375 53.367188 C 50.519531 53.367188 51.402344 52.488281 51.402344 51.402344 L 51.402344 45.503906 L 69.097656 45.503906 L 69.097656 104.484375 L 61.230469 104.484375 C 60.148438 104.484375 59.265625 105.363281 59.265625 106.449219 L 59.265625 114.316406 C 59.265625 115.402344 60.148438 116.28125 61.230469 116.28125 L 88.757812 116.28125 C 89.839844 116.28125 90.722656 115.402344 90.722656 114.316406 L 90.722656 106.449219 C 90.722656 105.363281 89.839844 104.484375 88.757812 104.484375 L 80.890625 104.484375 L 80.890625 45.503906 L 98.585938 45.503906 L 98.585938 51.402344 C 98.585938 52.488281 99.46875 53.367188 100.550781 53.367188 L 108.417969 53.367188 C 109.5 53.367188 110.382812 52.488281 110.382812 51.402344 L 110.382812 35.675781 C 110.382812 34.585938 109.5 33.707031 108.417969 33.707031 Z M 108.417969 33.707031 " fill-opacity="1" fill-rule="nonzero"/></svg>