<svg xmlns="http://www.w3.org/2000/svg" xmlns:xlink="http://www.w3.org/1999/xlink" width="200" zoomAndPan="magnify" viewBox="0 0 150 149.999998" height="200" preserveAspectRatio="xMidYMid meet" version="1.0"><defs><g/><clipPath id="12b40c5ac4"><path d="M 10.9375 10.15625 L 136.9375 10.15625 L 136.9375 91 L 10.9375 91 Z M 10.9375 10.15625 " clip-rule="nonzero"/></clipPath><clipPath id="9bd3e72106"><path d="M 17.6875 10.15625 L 130.117188 10.15625 C 133.84375 10.15625 136.867188 13.179688 136.867188 16.90625 L 136.867188 84.230469 C 136.867188 87.957031 133.84375 90.980469 130.117188 90.980469 L 17.6875 90.980469 C 13.960938 90.980469 10.9375 87.957031 10.9375 84.230469 L 10.9375 16.90625 C 10.9375 13.179688 13.960938 10.15625 17.6875 10.15625 Z M 17.6875 10.15625 " clip-rule="nonzero"/></clipPath><clipPath id="d5db951429"><path d="M 5.230469 78.316406 L 51.730469 78.316406 L 51.730469 138.316406 L 5.230469 138.316406 Z M 5.230469 78.316406 " clip-rule="nonzero"/></clipPath><clipPath id="dad0cae764"><path d="M 51.742188 85.09375 L 98.242188 85.09375 L 98.242188 145.09375 L 51.742188 145.09375 Z M 51.742188 85.09375 " clip-rule="nonzero"/></clipPath><clipPath id="b206a0aff3"><path d="M 98.257812 78.316406 L 144.757812 78.316406 L 144.757812 138.316406 L 98.257812 138.316406 Z M 98.257812 78.316406 " clip-rule="nonzero"/></clipPath><clipPath id="fdc632aaf2"><path d="M 21.882812 21.183594 L 47.765625 21.183594 L 47.765625 47.433594 L 21.882812 47.433594 Z M 21.882812 21.183594 " clip-rule="nonzero"/></clipPath></defs><g clip-path="url(#12b40c5ac4)"><g clip-path="url(#9bd3e72106)"><path stroke-linecap="butt" transform="matrix(0.75, 0, 0, 0.75, 10.937495, 10.156104)" fill="none" stroke-linejoin="miter" d="M 9.000007 0.00019503 L 158.906265 0.00019503 C 163.875016 0.00019503 167.906266 4.031445 167.906266 9.000196 L 167.906266 98.765826 C 167.906266 103.734576 163.875016 107.765826 158.906265 107.765826 L 9.000007 107.765826 C 4.031256 107.765826 0.00000611736 103.734576 0.00000611736 98.765826 L 0.00000611736 9.000196 C 0.00000611736 4.031445 4.031256 0.00019503 9.000007 0.00019503 Z M 9.000007 0.00019503 " stroke="#ffffff" stroke-width="4" stroke-opacity="1" stroke-miterlimit="4"/></g></g><g clip-path="url(#d5db951429)"><path fill="#ffffff" d="M 51.742188 133.785156 C 51.742188 117.773438 41.320312 104.800781 28.488281 104.800781 C 15.652344 104.800781 5.230469 117.773438 5.230469 133.785156 C 5.230469 136.28125 15.652344 138.316406 28.488281 138.316406 C 41.320312 138.316406 51.742188 136.28125 51.742188 133.785156 Z M 28.488281 78.316406 C 35.488281 78.316406 41.160156 83.988281 41.160156 90.988281 C 41.160156 97.992188 35.488281 103.664062 28.488281 103.664062 C 21.484375 103.664062 15.8125 97.992188 15.8125 90.988281 C 15.8125 83.988281 21.484375 78.316406 28.488281 78.316406 Z M 28.488281 78.316406 " fill-opacity="1" fill-rule="evenodd"/></g><g clip-path="url(#dad0cae764)"><path fill="#ffffff" d="M 98.253906 140.5625 C 98.253906 124.550781 87.835938 111.578125 75 111.578125 C 62.164062 111.578125 51.742188 124.550781 51.742188 140.5625 C 51.742188 143.058594 62.164062 145.09375 75 145.09375 C 87.835938 145.09375 98.253906 143.058594 98.253906 140.5625 Z M 75 85.09375 C 82 85.09375 87.671875 90.765625 87.671875 97.765625 C 87.671875 104.769531 82 110.441406 75 110.441406 C 68 110.441406 62.328125 104.769531 62.328125 97.765625 C 62.328125 90.765625 68 85.09375 75 85.09375 Z M 75 85.09375 " fill-opacity="1" fill-rule="evenodd"/></g><g clip-path="url(#b206a0aff3)"><path fill="#ffffff" d="M 144.769531 133.785156 C 144.769531 117.773438 134.347656 104.800781 121.511719 104.800781 C 108.675781 104.800781 98.257812 117.773438 98.257812 133.785156 C 98.257812 136.28125 108.675781 138.316406 121.511719 138.316406 C 134.347656 138.316406 144.769531 136.28125 144.769531 133.785156 Z M 121.511719 78.316406 C 128.511719 78.316406 134.183594 83.988281 134.183594 90.988281 C 134.183594 97.992188 128.511719 103.664062 121.511719 103.664062 C 114.511719 103.664062 108.839844 97.992188 108.839844 90.988281 C 108.839844 83.988281 114.511719 78.316406 121.511719 78.316406 Z M 121.511719 78.316406 " fill-opacity="1" fill-rule="evenodd"/></g><g fill="#ffffff" fill-opacity="1"><g transform="translate(27.924685, 43.927182)"><g><path d="M -0.234375 0 C 0.203125 -1.257812 0.644531 -2.550781 1.09375 -3.875 C 1.550781 -5.195312 1.9375 -6.535156 2.25 -7.890625 C 2.5625 -9.253906 2.71875 -10.617188 2.71875 -11.984375 C 2.71875 -13.046875 2.640625 -14.019531 2.484375 -14.90625 C 2.335938 -15.800781 2.113281 -16.503906 1.8125 -17.015625 L 10.03125 -17.015625 C 10.03125 -14.765625 10.117188 -12.644531 10.296875 -10.65625 C 10.472656 -8.675781 10.78125 -6.804688 11.21875 -5.046875 C 11.65625 -3.285156 12.253906 -1.601562 13.015625 0 L 6.484375 0 C 6.109375 -0.75 5.835938 -1.453125 5.671875 -2.109375 C 5.503906 -2.765625 5.421875 -3.390625 5.421875 -3.984375 C 5.421875 -4.898438 5.578125 -5.738281 5.890625 -6.5 C 6.210938 -7.269531 6.601562 -7.96875 7.0625 -8.59375 C 7.519531 -9.21875 7.953125 -9.78125 8.359375 -10.28125 C 8.734375 -10.707031 9.046875 -11.097656 9.296875 -11.453125 C 9.546875 -11.804688 9.671875 -12.140625 9.671875 -12.453125 C 9.671875 -12.753906 9.59375 -12.960938 9.4375 -13.078125 C 9.28125 -13.191406 9.09375 -13.25 8.875 -13.25 C 8.53125 -13.25 8.109375 -13.148438 7.609375 -12.953125 C 7.109375 -12.765625 6.582031 -12.476562 6.03125 -12.09375 C 5.488281 -11.707031 4.984375 -11.21875 4.515625 -10.625 C 4.046875 -10.039062 3.660156 -9.34375 3.359375 -8.53125 C 3.066406 -7.726562 2.921875 -6.816406 2.921875 -5.796875 C 2.921875 -4.941406 3.039062 -4.023438 3.28125 -3.046875 C 3.519531 -2.078125 3.910156 -1.0625 4.453125 0 Z M -0.234375 0 "/></g></g></g><path stroke-linecap="butt" transform="matrix(0.75, 0.000000000000000061, -0.000000000000000061, 0.75, 56.409329, 32.229441)" fill="none" stroke-linejoin="miter" d="M 0.00110279 1.00137 L 86.803191 1.00137 " stroke="#ffffff" stroke-width="2" stroke-opacity="1" stroke-miterlimit="4"/><path stroke-linecap="butt" transform="matrix(0.75, 0, 0, 0.75, 56.409329, 41.279853)" fill="none" stroke-linejoin="miter" d="M 0.00110279 1.001862 L 86.803191 1.001862 " stroke="#ffffff" stroke-width="2" stroke-opacity="1" stroke-miterlimit="4"/><path stroke-linecap="butt" transform="matrix(0.75, -0.000000000000000186, 0.000000000000000186, 0.75, 21.88064, 51.104085)" fill="none" stroke-linejoin="miter" d="M -0.00231184 1.001846 L 132.841446 1.001846 " stroke="#ffffff" stroke-width="2" stroke-opacity="1" stroke-miterlimit="4"/><path stroke-linecap="butt" transform="matrix(0.75, 0, 0, 0.75, 21.88064, 60.193731)" fill="none" stroke-linejoin="miter" d="M -0.00231184 1.002108 L 132.841446 1.002108 " stroke="#ffffff" stroke-width="2" stroke-opacity="1" stroke-miterlimit="4"/><path stroke-linecap="butt" transform="matrix(0.75, 0, 0, 0.75, 21.88064, 69.283373)" fill="none" stroke-linejoin="miter" d="M -0.00231184 1.002378 L 132.841446 1.002378 " stroke="#ffffff" stroke-width="2" stroke-opacity="1" stroke-miterlimit="4"/><g clip-path="url(#fdc632aaf2)"><path fill="#ffffff" d="M 32.382812 19.683594 L 41.382812 19.683594 L 41.382812 22.683594 L 32.382812 22.683594 Z M 42.882812 19.683594 L 49.265625 19.683594 L 49.265625 25.300781 L 46.265625 25.300781 L 46.265625 21.183594 L 47.765625 21.183594 L 47.765625 22.683594 L 42.882812 22.683594 Z M 49.265625 26.800781 L 49.265625 35.800781 L 46.265625 35.800781 L 46.265625 26.800781 Z M 49.265625 37.300781 L 49.265625 46.300781 L 46.265625 46.300781 L 46.265625 37.300781 Z M 47.445312 48.980469 L 38.445312 48.980469 L 38.445312 45.980469 L 47.445312 45.980469 Z M 36.945312 48.980469 L 27.945312 48.980469 L 27.945312 45.980469 L 36.945312 45.980469 Z M 26.445312 48.980469 L 20.382812 48.980469 L 20.382812 43.042969 L 23.382812 43.042969 L 23.382812 47.480469 L 21.882812 47.480469 L 21.882812 45.980469 L 26.445312 45.980469 Z M 20.382812 41.542969 L 20.382812 32.542969 L 23.382812 32.542969 L 23.382812 41.542969 Z M 20.382812 31.042969 L 20.382812 22.042969 L 23.382812 22.042969 L 23.382812 31.042969 Z M 21.882812 19.683594 L 30.882812 19.683594 L 30.882812 22.683594 L 21.882812 22.683594 Z M 21.882812 19.683594 " fill-opacity="1" fill-rule="nonzero"/></g></svg>