<svg xmlns="http://www.w3.org/2000/svg" xmlns:xlink="http://www.w3.org/1999/xlink" width="500" zoomAndPan="magnify" viewBox="0 0 375 374.999991" height="500" preserveAspectRatio="xMidYMid meet" version="1.0"><defs><g/><clipPath id="570a58d034"><path d="M 63.554688 121.125 L 218.804688 121.125 L 218.804688 313.875 L 63.554688 313.875 Z M 63.554688 121.125 " clip-rule="nonzero"/></clipPath><clipPath id="99a64d3461"><path d="M 187.5 51.148438 L 324 51.148438 L 324 212.398438 L 187.5 212.398438 Z M 187.5 51.148438 " clip-rule="nonzero"/></clipPath></defs><g clip-path="url(#570a58d034)"><path fill="#000000" d="M 218.929688 192.230469 L 218.929688 142.523438 L 198.171875 121.8125 L 63.554688 121.8125 L 63.554688 292.558594 L 84.308594 313.269531 L 148.859375 313.269531 L 148.859375 250.265625 L 208.71875 250.265625 L 208.71875 202.589844 L 196.265625 192.230469 Z M 218.929688 192.230469 " fill-opacity="1" fill-rule="nonzero"/></g><path fill="#ffffff" d="M 71.855469 130.097656 L 189.871094 130.097656 L 189.871094 163.234375 L 119.800781 163.234375 L 119.800781 190.160156 L 179.660156 190.160156 L 179.660156 221.269531 L 119.800781 221.269531 L 119.800781 284.273438 L 71.855469 284.273438 Z M 71.855469 130.097656 " fill-opacity="1" fill-rule="nonzero"/><g clip-path="url(#99a64d3461)"><path fill="#000000" d="M 237.523438 212.371094 L 237.523438 111.125 L 278.996094 111.125 L 278.996094 212.371094 Z M 215.429688 92.539062 L 187.511719 51.199219 L 324.011719 51.199219 L 324.011719 92.539062 Z M 215.429688 92.539062 " fill-opacity="1" fill-rule="nonzero"/></g><g fill="#000000" fill-opacity="1"><g transform="translate(106.458331, 358.549985)"><g><path d="M 12.59375 -15.703125 L 12.59375 -13.09375 L 8.0625 -13.09375 L 8.0625 0 L 4.96875 0 L 4.96875 -13.09375 L 0.4375 -13.09375 L 0.4375 -15.703125 Z M 12.59375 -15.703125 "/></g></g></g><g fill="#000000" fill-opacity="1"><g transform="translate(119.47555, 358.549985)"><g><path d="M 11.703125 -5.25 L 4.09375 -5.25 C 4.175781 -4.21875 4.46875 -3.46875 4.96875 -3 C 5.46875 -2.53125 6.15625 -2.296875 7.03125 -2.296875 C 7.707031 -2.296875 8.253906 -2.421875 8.671875 -2.671875 C 9.097656 -2.929688 9.441406 -3.316406 9.703125 -3.828125 L 9.921875 -3.828125 L 11.90625 -2.5625 C 11.519531 -1.738281 10.9375 -1.066406 10.15625 -0.546875 C 9.375 -0.0351562 8.332031 0.21875 7.03125 0.21875 C 5.800781 0.21875 4.738281 -0.0078125 3.84375 -0.46875 C 2.957031 -0.9375 2.269531 -1.628906 1.78125 -2.546875 C 1.300781 -3.472656 1.0625 -4.597656 1.0625 -5.921875 C 1.0625 -7.265625 1.316406 -8.394531 1.828125 -9.3125 C 2.335938 -10.238281 3.023438 -10.929688 3.890625 -11.390625 C 4.753906 -11.847656 5.726562 -12.078125 6.8125 -12.078125 C 8.488281 -12.078125 9.769531 -11.628906 10.65625 -10.734375 C 11.550781 -9.847656 12 -8.546875 12 -6.828125 C 12 -6.203125 11.976562 -5.71875 11.9375 -5.375 Z M 9.15625 -7.171875 C 9.125 -8.078125 8.910156 -8.734375 8.515625 -9.140625 C 8.128906 -9.554688 7.5625 -9.765625 6.8125 -9.765625 C 5.3125 -9.765625 4.425781 -8.898438 4.15625 -7.171875 Z M 9.15625 -7.171875 "/></g></g></g><g fill="#000000" fill-opacity="1"><g transform="translate(132.35315, 358.549985)"><g><path d="M 5.546875 0.21875 C 4.734375 0.21875 3.988281 0.125 3.3125 -0.0625 C 2.644531 -0.25 2.070312 -0.507812 1.59375 -0.84375 C 1.113281 -1.175781 0.757812 -1.554688 0.53125 -1.984375 L 2.1875 -3.765625 L 2.421875 -3.765625 C 2.816406 -3.234375 3.28125 -2.835938 3.8125 -2.578125 C 4.351562 -2.316406 4.9375 -2.1875 5.5625 -2.1875 C 6.144531 -2.1875 6.582031 -2.285156 6.875 -2.484375 C 7.164062 -2.691406 7.3125 -2.992188 7.3125 -3.390625 C 7.3125 -3.679688 7.207031 -3.929688 7 -4.140625 C 6.789062 -4.347656 6.445312 -4.507812 5.96875 -4.625 L 4.40625 -5 C 3.226562 -5.28125 2.367188 -5.707031 1.828125 -6.28125 C 1.285156 -6.851562 1.015625 -7.582031 1.015625 -8.46875 C 1.015625 -9.207031 1.203125 -9.847656 1.578125 -10.390625 C 1.960938 -10.941406 2.492188 -11.359375 3.171875 -11.640625 C 3.859375 -11.929688 4.65625 -12.078125 5.5625 -12.078125 C 6.632812 -12.078125 7.519531 -11.921875 8.21875 -11.609375 C 8.914062 -11.304688 9.460938 -10.894531 9.859375 -10.375 L 8.265625 -8.65625 L 8.0625 -8.65625 C 7.726562 -9.03125 7.351562 -9.300781 6.9375 -9.46875 C 6.53125 -9.644531 6.070312 -9.734375 5.5625 -9.734375 C 4.382812 -9.734375 3.796875 -9.367188 3.796875 -8.640625 C 3.796875 -8.328125 3.90625 -8.070312 4.125 -7.875 C 4.34375 -7.6875 4.726562 -7.53125 5.28125 -7.40625 L 6.75 -7.09375 C 7.945312 -6.832031 8.820312 -6.414062 9.375 -5.84375 C 9.9375 -5.28125 10.21875 -4.519531 10.21875 -3.5625 C 10.21875 -2.800781 10.03125 -2.132812 9.65625 -1.5625 C 9.28125 -0.988281 8.742188 -0.546875 8.046875 -0.234375 C 7.347656 0.0664062 6.515625 0.21875 5.546875 0.21875 Z M 5.546875 0.21875 "/></g></g></g><g fill="#000000" fill-opacity="1"><g transform="translate(143.27602, 358.549985)"><g><path d="M 8.171875 -2.828125 L 8.953125 -0.625 C 8.628906 -0.351562 8.222656 -0.144531 7.734375 0 C 7.242188 0.144531 6.691406 0.21875 6.078125 0.21875 C 4.796875 0.21875 3.820312 -0.128906 3.15625 -0.828125 C 2.488281 -1.523438 2.15625 -2.539062 2.15625 -3.875 L 2.15625 -9.5 L 0.359375 -9.5 L 0.359375 -11.859375 L 2.15625 -11.859375 L 2.15625 -14.171875 L 5.140625 -14.65625 L 5.140625 -11.859375 L 8.5 -11.859375 L 8.5 -9.5 L 5.140625 -9.5 L 5.140625 -4.078125 C 5.140625 -3.492188 5.257812 -3.066406 5.5 -2.796875 C 5.738281 -2.523438 6.09375 -2.390625 6.5625 -2.390625 C 7.09375 -2.390625 7.554688 -2.535156 7.953125 -2.828125 Z M 8.171875 -2.828125 "/></g></g></g><g fill="#000000" fill-opacity="1"><g transform="translate(152.480445, 358.549985)"><g/></g></g><g fill="#000000" fill-opacity="1"><g transform="translate(157.668006, 358.549985)"><g><path d="M 2.625 5.03125 C 2.113281 5.03125 1.648438 4.988281 1.234375 4.90625 C 0.828125 4.832031 0.492188 4.726562 0.234375 4.59375 L 0.703125 2.1875 L 0.90625 2.125 C 1.082031 2.21875 1.300781 2.289062 1.5625 2.34375 C 1.832031 2.40625 2.109375 2.4375 2.390625 2.4375 C 2.867188 2.4375 3.265625 2.375 3.578125 2.25 C 3.898438 2.125 4.171875 1.914062 4.390625 1.625 C 4.617188 1.332031 4.816406 0.929688 4.984375 0.421875 L 0.265625 -11.84375 L 3.375 -11.84375 L 6.3125 -3.609375 L 6.578125 -3.609375 L 9.4375 -11.84375 L 12.46875 -11.84375 L 7.71875 0.734375 C 7.332031 1.753906 6.910156 2.570312 6.453125 3.1875 C 6.003906 3.8125 5.46875 4.273438 4.84375 4.578125 C 4.226562 4.878906 3.488281 5.03125 2.625 5.03125 Z M 2.625 5.03125 "/></g></g></g><g fill="#000000" fill-opacity="1"><g transform="translate(170.384497, 358.549985)"><g><path d="M 6.890625 0.21875 C 5.722656 0.21875 4.703125 -0.015625 3.828125 -0.484375 C 2.953125 -0.960938 2.269531 -1.660156 1.78125 -2.578125 C 1.300781 -3.503906 1.0625 -4.617188 1.0625 -5.921875 C 1.0625 -7.222656 1.300781 -8.332031 1.78125 -9.25 C 2.269531 -10.175781 2.953125 -10.878906 3.828125 -11.359375 C 4.703125 -11.835938 5.722656 -12.078125 6.890625 -12.078125 C 8.046875 -12.078125 9.0625 -11.835938 9.9375 -11.359375 C 10.820312 -10.878906 11.503906 -10.175781 11.984375 -9.25 C 12.472656 -8.332031 12.71875 -7.222656 12.71875 -5.921875 C 12.71875 -4.617188 12.472656 -3.503906 11.984375 -2.578125 C 11.503906 -1.660156 10.820312 -0.960938 9.9375 -0.484375 C 9.0625 -0.015625 8.046875 0.21875 6.890625 0.21875 Z M 6.890625 -2.296875 C 8.722656 -2.296875 9.640625 -3.503906 9.640625 -5.921875 C 9.640625 -7.171875 9.40625 -8.085938 8.9375 -8.671875 C 8.46875 -9.253906 7.785156 -9.546875 6.890625 -9.546875 C 5.046875 -9.546875 4.125 -8.335938 4.125 -5.921875 C 4.125 -3.503906 5.046875 -2.296875 6.890625 -2.296875 Z M 6.890625 -2.296875 "/></g></g></g><g fill="#000000" fill-opacity="1"><g transform="translate(184.153535, 358.549985)"><g><path d="M 5.421875 0.21875 C 4.085938 0.21875 3.101562 -0.140625 2.46875 -0.859375 C 1.84375 -1.585938 1.53125 -2.632812 1.53125 -4 L 1.53125 -11.84375 L 4.5 -11.84375 L 4.5 -4.375 C 4.5 -3.644531 4.65625 -3.113281 4.96875 -2.78125 C 5.28125 -2.445312 5.757812 -2.28125 6.40625 -2.28125 C 7.238281 -2.28125 7.882812 -2.550781 8.34375 -3.09375 C 8.800781 -3.632812 9.03125 -4.488281 9.03125 -5.65625 L 9.03125 -11.84375 L 12 -11.84375 L 12 0 L 9.140625 0 L 9.140625 -1.734375 L 8.921875 -1.796875 C 8.535156 -1.117188 8.066406 -0.613281 7.515625 -0.28125 C 6.972656 0.0507812 6.273438 0.21875 5.421875 0.21875 Z M 5.421875 0.21875 "/></g></g></g><g fill="#000000" fill-opacity="1"><g transform="translate(197.858132, 358.549985)"><g><path d="M 1.703125 0 L 1.703125 -11.84375 L 4.59375 -11.84375 L 4.59375 -10.09375 L 4.828125 -10.046875 C 5.109375 -10.703125 5.484375 -11.179688 5.953125 -11.484375 C 6.421875 -11.796875 6.988281 -11.953125 7.65625 -11.953125 C 8.320312 -11.953125 8.832031 -11.835938 9.1875 -11.609375 L 8.6875 -9.046875 L 8.453125 -9 C 8.265625 -9.082031 8.078125 -9.140625 7.890625 -9.171875 C 7.710938 -9.210938 7.492188 -9.234375 7.234375 -9.234375 C 6.410156 -9.234375 5.78125 -8.941406 5.34375 -8.359375 C 4.90625 -7.773438 4.6875 -6.835938 4.6875 -5.546875 L 4.6875 0 Z M 1.703125 0 "/></g></g></g><g fill="#000000" fill-opacity="1"><g transform="translate(207.148479, 358.549985)"><g/></g></g><g fill="#000000" fill-opacity="1"><g transform="translate(212.33604, 358.549985)"><g><path d="M 2.078125 0 L 2.078125 -9.5 L 0.390625 -9.5 L 0.390625 -11.859375 L 2.078125 -11.859375 C 1.953125 -12.359375 1.890625 -12.828125 1.890625 -13.265625 C 1.890625 -14.015625 2.0625 -14.65625 2.40625 -15.1875 C 2.75 -15.726562 3.242188 -16.132812 3.890625 -16.40625 C 4.535156 -16.6875 5.300781 -16.828125 6.1875 -16.828125 C 7.5 -16.828125 8.476562 -16.601562 9.125 -16.15625 L 8.421875 -13.96875 L 8.203125 -13.921875 C 7.753906 -14.234375 7.179688 -14.390625 6.484375 -14.390625 C 5.953125 -14.390625 5.550781 -14.257812 5.28125 -14 C 5.007812 -13.738281 4.875 -13.382812 4.875 -12.9375 C 4.875 -12.738281 4.882812 -12.554688 4.90625 -12.390625 C 4.9375 -12.234375 4.984375 -12.054688 5.046875 -11.859375 L 8.4375 -11.859375 L 8.4375 -9.5 L 5.046875 -9.5 L 5.046875 0 Z M 2.078125 0 "/></g></g></g><g fill="#000000" fill-opacity="1"><g transform="translate(220.885302, 358.549985)"><g><path d="M 6.890625 0.21875 C 5.722656 0.21875 4.703125 -0.015625 3.828125 -0.484375 C 2.953125 -0.960938 2.269531 -1.660156 1.78125 -2.578125 C 1.300781 -3.503906 1.0625 -4.617188 1.0625 -5.921875 C 1.0625 -7.222656 1.300781 -8.332031 1.78125 -9.25 C 2.269531 -10.175781 2.953125 -10.878906 3.828125 -11.359375 C 4.703125 -11.835938 5.722656 -12.078125 6.890625 -12.078125 C 8.046875 -12.078125 9.0625 -11.835938 9.9375 -11.359375 C 10.820312 -10.878906 11.503906 -10.175781 11.984375 -9.25 C 12.472656 -8.332031 12.71875 -7.222656 12.71875 -5.921875 C 12.71875 -4.617188 12.472656 -3.503906 11.984375 -2.578125 C 11.503906 -1.660156 10.820312 -0.960938 9.9375 -0.484375 C 9.0625 -0.015625 8.046875 0.21875 6.890625 0.21875 Z M 6.890625 -2.296875 C 8.722656 -2.296875 9.640625 -3.503906 9.640625 -5.921875 C 9.640625 -7.171875 9.40625 -8.085938 8.9375 -8.671875 C 8.46875 -9.253906 7.785156 -9.546875 6.890625 -9.546875 C 5.046875 -9.546875 4.125 -8.335938 4.125 -5.921875 C 4.125 -3.503906 5.046875 -2.296875 6.890625 -2.296875 Z M 6.890625 -2.296875 "/></g></g></g><g fill="#000000" fill-opacity="1"><g transform="translate(234.654341, 358.549985)"><g><path d="M 1.703125 0 L 1.703125 -11.84375 L 4.5625 -11.84375 L 4.5625 -10.109375 L 4.796875 -10.0625 C 5.523438 -11.40625 6.71875 -12.078125 8.375 -12.078125 C 9.75 -12.078125 10.753906 -11.703125 11.390625 -10.953125 C 12.035156 -10.210938 12.359375 -9.128906 12.359375 -7.703125 L 12.359375 0 L 9.375 0 L 9.375 -7.34375 C 9.375 -8.125 9.21875 -8.6875 8.90625 -9.03125 C 8.59375 -9.382812 8.085938 -9.5625 7.390625 -9.5625 C 6.535156 -9.5625 5.867188 -9.285156 5.390625 -8.734375 C 4.921875 -8.179688 4.6875 -7.316406 4.6875 -6.140625 L 4.6875 0 Z M 1.703125 0 "/></g></g></g><g fill="#000000" fill-opacity="1"><g transform="translate(248.530782, 358.549985)"><g><path d="M 8.171875 -2.828125 L 8.953125 -0.625 C 8.628906 -0.351562 8.222656 -0.144531 7.734375 0 C 7.242188 0.144531 6.691406 0.21875 6.078125 0.21875 C 4.796875 0.21875 3.820312 -0.128906 3.15625 -0.828125 C 2.488281 -1.523438 2.15625 -2.539062 2.15625 -3.875 L 2.15625 -9.5 L 0.359375 -9.5 L 0.359375 -11.859375 L 2.15625 -11.859375 L 2.15625 -14.171875 L 5.140625 -14.65625 L 5.140625 -11.859375 L 8.5 -11.859375 L 8.5 -9.5 L 5.140625 -9.5 L 5.140625 -4.078125 C 5.140625 -3.492188 5.257812 -3.066406 5.5 -2.796875 C 5.738281 -2.523438 6.09375 -2.390625 6.5625 -2.390625 C 7.09375 -2.390625 7.554688 -2.535156 7.953125 -2.828125 Z M 8.171875 -2.828125 "/></g></g></g><g fill="#000000" fill-opacity="1"><g transform="translate(257.735207, 358.549985)"><g><path d="M 5.546875 0.21875 C 4.734375 0.21875 3.988281 0.125 3.3125 -0.0625 C 2.644531 -0.25 2.070312 -0.507812 1.59375 -0.84375 C 1.113281 -1.175781 0.757812 -1.554688 0.53125 -1.984375 L 2.1875 -3.765625 L 2.421875 -3.765625 C 2.816406 -3.234375 3.28125 -2.835938 3.8125 -2.578125 C 4.351562 -2.316406 4.9375 -2.1875 5.5625 -2.1875 C 6.144531 -2.1875 6.582031 -2.285156 6.875 -2.484375 C 7.164062 -2.691406 7.3125 -2.992188 7.3125 -3.390625 C 7.3125 -3.679688 7.207031 -3.929688 7 -4.140625 C 6.789062 -4.347656 6.445312 -4.507812 5.96875 -4.625 L 4.40625 -5 C 3.226562 -5.28125 2.367188 -5.707031 1.828125 -6.28125 C 1.285156 -6.851562 1.015625 -7.582031 1.015625 -8.46875 C 1.015625 -9.207031 1.203125 -9.847656 1.578125 -10.390625 C 1.960938 -10.941406 2.492188 -11.359375 3.171875 -11.640625 C 3.859375 -11.929688 4.65625 -12.078125 5.5625 -12.078125 C 6.632812 -12.078125 7.519531 -11.921875 8.21875 -11.609375 C 8.914062 -11.304688 9.460938 -10.894531 9.859375 -10.375 L 8.265625 -8.65625 L 8.0625 -8.65625 C 7.726562 -9.03125 7.351562 -9.300781 6.9375 -9.46875 C 6.53125 -9.644531 6.070312 -9.734375 5.5625 -9.734375 C 4.382812 -9.734375 3.796875 -9.367188 3.796875 -8.640625 C 3.796875 -8.328125 3.90625 -8.070312 4.125 -7.875 C 4.34375 -7.6875 4.726562 -7.53125 5.28125 -7.40625 L 6.75 -7.09375 C 7.945312 -6.832031 8.820312 -6.414062 9.375 -5.84375 C 9.9375 -5.28125 10.21875 -4.519531 10.21875 -3.5625 C 10.21875 -2.800781 10.03125 -2.132812 9.65625 -1.5625 C 9.28125 -0.988281 8.742188 -0.546875 8.046875 -0.234375 C 7.347656 0.0664062 6.515625 0.21875 5.546875 0.21875 Z M 5.546875 0.21875 "/></g></g></g></svg>