<?xml version="1.0" encoding="UTF-8" standalone="no"?>
<!-- Created with Inkscape (http://www.inkscape.org/) -->

<svg
   width="57.44894mm"
   height="33.518837mm"
   viewBox="0 0 57.44894 33.518837"
   version="1.1"
   id="svg1"
   xml:space="preserve"
   xmlns="http://www.w3.org/2000/svg"
   xmlns:svg="http://www.w3.org/2000/svg"><defs
     id="defs1" /><g
     id="layer1"
     transform="translate(-92.869143,-79.882764)"><path
       style="fill:#ffffff"
       d="m 126.14156,113.37055 c -0.51887,-0.19416 -0.38717,-1.09897 0.21347,-1.46648 0.29931,-0.18313 0.78927,-0.7264 1.08882,-1.20727 0.57771,-0.92742 1.59453,-1.10378 1.74695,-0.303 0.18829,0.98927 -2.18055,3.30181 -3.04924,2.97675 z m -6.03028,-0.81812 c -1.36503,-0.99161 -1.80319,-1.54428 -1.61439,-2.03629 0.23919,-0.62332 0.71056,-0.48616 2.36654,0.6886 0.97802,0.69382 1.50498,1.24576 1.4525,1.52136 -0.13547,0.71128 -1.08996,0.6361 -2.20465,-0.17367 z m -4.30706,-5.42194 c -0.44291,-0.53368 -1.37047,-2.82573 -1.37047,-3.38653 0,-0.35602 0.18535,-0.50723 0.62177,-0.50723 0.51397,0 0.74863,0.29851 1.35357,1.72188 0.59431,1.39834 0.67025,1.79607 0.40417,2.11667 -0.40148,0.48376 -0.64243,0.49694 -1.00904,0.0552 z m 12.81842,-1.38787 c -0.0913,-0.23788 -0.16597,-1.20041 -0.16597,-2.13896 0,-1.3053 0.0975,-1.74386 0.41466,-1.86558 0.70928,-0.27217 0.96411,0.32087 1.00301,2.33424 0.0346,1.7924 -0.006,1.94873 -0.5241,2.02267 -0.33127,0.0473 -0.62971,-0.0973 -0.7276,-0.35237 z m -35.729107,-2.9374 c -0.09938,-0.25899 0.110719,-0.79376 0.525502,-1.33757 1.187709,-1.557174 2.310189,-0.62456 1.172058,0.9738 -0.61871,0.8689 -1.436479,1.04414 -1.69756,0.36377 z m 20.272907,-3.338804 c -0.15058,-0.18191 -0.41137,-1.0906 -0.57955,-2.01932 -0.32492,-1.79436 -0.16947,-2.26926 0.68868,-2.10399 0.37783,0.0728 0.5537,0.50378 0.79285,1.94304 0.29268,1.7614 0.16479,2.511 -0.42842,2.511 -0.10988,0 -0.32299,-0.14883 -0.47356,-0.33073 z m -15.474414,-1.29236 c -0.671723,-0.37591 -0.583232,-0.58925 0.800582,-1.93006 0.89887,-0.87094 1.439329,-1.19769 1.897822,-1.14739 1.02236,0.11216 0.93716,0.6379 -0.29076,1.79421 -1.489412,1.40256 -1.850523,1.59502 -2.407644,1.28324 z m 28.675834,-1.45186 c -1.00047,-1.84717 -1.06654,-2.55298 -0.22781,-2.43356 0.39404,0.0561 0.88585,0.57394 1.46195,1.53933 0.96079,1.61002 0.9999,2.20886 0.15222,2.33028 -0.44844,0.0642 -0.73395,-0.23152 -1.38636,-1.43605 z m -22.42305,-3.6753 c -0.21313,-0.5554 0.16427,-0.93171 1.84236,-1.83704 1.20595,-0.6506 1.51818,-0.72519 1.85738,-0.44367 0.61983,0.5144 0.26832,1.00296 -1.35368,1.88147 -1.6603,0.89926 -2.12391,0.97815 -2.34606,0.39924 z m 17.03364,-2.06334 c -1.15496,-0.63894 -1.50814,-0.97214 -1.45521,-1.37287 0.10641,-0.80572 0.97421,-0.75638 2.53375,0.14404 1.10925,0.64045 1.38812,0.93332 1.32292,1.38937 -0.11896,0.83208 -0.67431,0.79496 -2.40146,-0.16054 z m -8.22039,0.43511 c -0.097,-0.097 -0.17639,-0.38639 -0.17639,-0.64305 0,-0.28251 -0.23492,-0.50003 -0.59532,-0.55122 -0.94544,-0.13427 -0.77755,-1.08917 0.24447,-1.39037 0.46188,-0.13612 0.96534,-0.52307 1.11881,-0.8599 0.34474,-0.75663 1.34322,-0.82282 1.53184,-0.10154 0.0735,0.28098 0.30045,0.5749 0.5044,0.65316 0.62676,0.24051 0.41136,0.96603 -0.36741,1.23751 -0.44762,0.15605 -0.85517,0.56722 -1.03535,1.04457 -0.27886,0.73879 -0.82486,1.01104 -1.22505,0.61084 z m 30.35667,-5.68702 c -0.073,-0.11819 -0.0155,-0.63992 0.12798,-1.1594 0.29242,-1.05908 0.33351,-1.02261 -1.74836,-1.55174 -0.94249,-0.23955 -1.28409,-0.45987 -1.34386,-0.86673 -0.11312,-0.77014 0.47527,-0.90034 2.1065,-0.46616 1.83831,0.48931 1.72526,0.52072 1.92319,-0.53432 0.0946,-0.50422 0.25975,-0.971 0.36702,-1.0373 0.19274,-0.11912 5.39584,4.04692 5.73039,4.58823 0.0952,0.15399 0.0167,0.33114 -0.17446,0.39366 -0.85905,0.28103 -6.86953,0.82609 -6.9884,0.63376 z m -26.38792,-1.19214 c -0.50973,-0.50973 -0.0706,-1.22077 1.29236,-2.09265 1.51834,-0.97127 2.30143,-1.08017 2.444,-0.33986 0.0528,0.27431 -0.49071,0.81893 -1.51532,1.51832 -1.62676,1.11042 -1.90875,1.22648 -2.22104,0.91419 z m 16.62465,-2.96404 c -0.908,-0.14316 -1.05833,-0.26082 -1.05833,-0.82832 0,-0.63253 0.0637,-0.65888 1.45521,-0.60253 2.22667,0.0902 2.69395,0.25979 2.59686,0.94261 -0.0926,0.65094 -1.01138,0.80079 -2.99374,0.48824 z m -9.19427,-0.18518 c -0.36378,-0.37063 -0.20443,-1.13494 0.26458,-1.26904 0.25466,-0.0728 1.16313,-0.17013 2.01882,-0.21627 1.24446,-0.0671 1.61391,0.007 1.84614,0.37186 0.1889,0.29652 0.19998,0.54394 0.0317,0.70819 -0.33252,0.32457 -3.89948,0.67195 -4.16124,0.40526 z"
       id="path1" /></g></svg>
