<svg xmlns="http://www.w3.org/2000/svg" xmlns:xlink="http://www.w3.org/1999/xlink" width="800" zoomAndPan="magnify" viewBox="0 0 600 225" height="300" preserveAspectRatio="xMidYMid meet" version="1.0"><defs><g/></defs><g fill="#fff" fill-opacity="1"><g transform="translate(22.518354, 144.173379)"><g><path d="M 51.59375 -43.03125 C 50.8125 -43.03125 50.085938 -43.34375 49.421875 -43.96875 C 48.765625 -44.601562 48.4375 -45.460938 48.4375 -46.546875 L 48.4375 -50.953125 C 42.738281 -51.253906 39.890625 -53.804688 39.890625 -58.609375 L 41.78125 -58.609375 C 41.78125 -54.765625 44.300781 -52.84375 49.34375 -52.84375 L 50.328125 -52.84375 L 50.328125 -46.359375 C 50.328125 -45.398438 50.6875 -44.921875 51.40625 -44.921875 C 52.363281 -44.921875 52.84375 -45.398438 52.84375 -46.359375 L 52.84375 -53.390625 L 54.28125 -53.390625 L 54.28125 -46.359375 C 54.28125 -46.117188 54.382812 -45.800781 54.59375 -45.40625 C 54.8125 -45.019531 55.160156 -44.828125 55.640625 -44.828125 C 56.484375 -44.828125 56.90625 -45.367188 56.90625 -46.453125 L 56.90625 -53.390625 L 58.34375 -53.390625 L 58.34375 -46.453125 C 58.34375 -45.429688 58.757812 -44.921875 59.59375 -44.921875 C 59.957031 -44.921875 60.210938 -45.097656 60.359375 -45.453125 C 60.515625 -45.816406 60.59375 -46.179688 60.59375 -46.546875 L 60.59375 -52.84375 C 60.59375 -53.925781 60.304688 -55.257812 59.734375 -56.84375 C 59.160156 -58.4375 58.21875 -59.773438 56.90625 -60.859375 C 55.882812 -61.703125 54.578125 -62.269531 52.984375 -62.5625 C 51.390625 -62.863281 49.570312 -63.015625 47.53125 -63.015625 C 41.351562 -63.015625 36.328125 -63 32.453125 -62.96875 C 28.585938 -62.945312 25.523438 -62.921875 23.265625 -62.890625 C 21.015625 -62.859375 19.257812 -62.828125 18 -62.796875 C 16.738281 -62.765625 15.628906 -62.71875 14.671875 -62.65625 C 13.773438 -62.601562 12.738281 -62.53125 11.5625 -62.4375 C 10.394531 -62.34375 9.238281 -62.113281 8.09375 -61.75 C 6.957031 -61.394531 6.015625 -60.828125 5.265625 -60.046875 C 4.515625 -59.265625 4.140625 -58.1875 4.140625 -56.8125 C 4.140625 -55.664062 4.960938 -54.296875 6.609375 -52.703125 C 8.265625 -51.117188 10.578125 -49.457031 13.546875 -47.71875 C 16.515625 -45.976562 19.921875 -44.296875 23.765625 -42.671875 C 24.484375 -44.835938 25.457031 -46.5625 26.6875 -47.84375 C 27.925781 -49.132812 29.050781 -50.066406 30.0625 -50.640625 C 31.082031 -51.210938 31.59375 -51.5 31.59375 -51.5 L 32.234375 -49.78125 C 32.054688 -49.726562 31.585938 -49.457031 30.828125 -48.96875 C 30.078125 -48.488281 29.238281 -47.769531 28.3125 -46.8125 C 27.382812 -45.851562 26.585938 -44.609375 25.921875 -43.078125 C 25.265625 -41.546875 24.9375 -39.703125 24.9375 -37.546875 C 24.9375 -34.597656 25.460938 -32.164062 26.515625 -30.25 C 27.566406 -28.332031 28.882812 -26.816406 30.46875 -25.703125 C 32.0625 -24.585938 33.710938 -23.804688 35.421875 -23.359375 C 37.140625 -22.910156 38.65625 -22.6875 39.96875 -22.6875 L 39.96875 -20.796875 C 39.425781 -20.796875 38.835938 -20.835938 38.203125 -20.921875 C 37.578125 -21.015625 36.9375 -21.125 36.28125 -21.25 C 35.738281 -18.726562 35.46875 -16.023438 35.46875 -13.140625 C 35.46875 -10.742188 35.585938 -8.492188 35.828125 -6.390625 C 36.066406 -4.285156 36.25 -2.785156 36.375 -1.890625 L 50.234375 -1.890625 L 50.234375 -32.40625 C 50.234375 -36.488281 47.894531 -38.53125 43.21875 -38.53125 L 43.21875 -40.421875 C 45.5 -40.421875 47.253906 -40.046875 48.484375 -39.296875 C 49.710938 -38.546875 50.628906 -37.660156 51.234375 -36.640625 L 67.609375 -36.640625 L 67.609375 -60.765625 L 59.59375 -60.765625 C 60.613281 -59.628906 61.363281 -58.296875 61.84375 -56.765625 C 62.332031 -55.234375 62.578125 -53.925781 62.578125 -52.84375 L 62.578125 -46.640625 C 62.578125 -45.617188 62.273438 -44.75 61.671875 -44.03125 C 61.128906 -43.363281 60.4375 -43.03125 59.59375 -43.03125 C 58.820312 -43.03125 58.164062 -43.300781 57.625 -43.84375 C 57.082031 -43.238281 56.359375 -42.9375 55.453125 -42.9375 C 54.671875 -42.9375 54.015625 -43.207031 53.484375 -43.75 C 52.878906 -43.269531 52.25 -43.03125 51.59375 -43.03125 Z M 51.59375 -43.03125 "/></g></g></g><g fill="#ffffff" fill-opacity="1"><g transform="translate(95.427422, 144.173379)"><g><path d="M 22.234375 -57.984375 L 21.25 -58.875 L 23.671875 -61.671875 C 23.910156 -61.910156 24.03125 -62.179688 24.03125 -62.484375 C 24.03125 -63.023438 23.765625 -63.296875 23.234375 -63.296875 C 23.046875 -63.296875 22.875 -63.265625 22.71875 -63.203125 C 22.570312 -63.140625 22.351562 -62.957031 22.0625 -62.65625 L 19.8125 -60.140625 L 18.8125 -61.046875 L 20.796875 -63.375 C 20.972656 -63.675781 21.0625 -63.945312 21.0625 -64.1875 C 21.0625 -64.664062 20.820312 -64.90625 20.34375 -64.90625 C 19.988281 -64.90625 19.628906 -64.726562 19.265625 -64.375 L 3.59375 -46.546875 L 23.5 -26.46875 L 23.5 -10 L 19.359375 -10 C 19.179688 -10 18.957031 -9.953125 18.6875 -9.859375 C 18.414062 -9.765625 18.28125 -9.539062 18.28125 -9.1875 C 18.28125 -8.582031 18.640625 -8.28125 19.359375 -8.28125 L 23.140625 -8.28125 L 23.140625 -6.84375 L 19.265625 -6.84375 C 19.085938 -6.84375 18.878906 -6.765625 18.640625 -6.609375 C 18.398438 -6.460938 18.28125 -6.238281 18.28125 -5.9375 C 18.28125 -5.28125 18.609375 -4.953125 19.265625 -4.953125 L 23.140625 -4.953125 L 23.140625 -3.515625 L 19.359375 -3.515625 C 18.640625 -3.515625 18.28125 -3.242188 18.28125 -2.703125 C 18.28125 -2.097656 18.640625 -1.796875 19.359375 -1.796875 L 40.609375 -1.796875 L 40.609375 -11.25 L 39.609375 -11.25 C 38.472656 -11.25 37.257812 -11.457031 35.96875 -11.875 C 34.675781 -12.300781 33.25 -13.082031 31.6875 -14.21875 L 32.859375 -15.671875 C 35.140625 -13.984375 37.363281 -13.140625 39.53125 -13.140625 C 41.625 -13.140625 43.46875 -13.90625 45.0625 -15.4375 C 46.65625 -16.96875 47.691406 -18.753906 48.171875 -20.796875 C 45.703125 -20.796875 43 -21.273438 40.0625 -22.234375 C 37.125 -23.191406 34.363281 -24.421875 31.78125 -25.921875 L 32.765625 -27.546875 C 35.585938 -25.867188 38.332031 -24.65625 41 -23.90625 C 43.675781 -23.15625 45.734375 -22.78125 47.171875 -22.78125 C 49.578125 -22.78125 51.921875 -23.289062 54.203125 -24.3125 C 56.484375 -25.332031 58.375 -26.96875 59.875 -29.21875 C 61.375 -31.46875 62.125 -34.394531 62.125 -38 C 62.125 -40.28125 61.640625 -42.453125 60.671875 -44.515625 C 59.710938 -46.585938 58.539062 -48.507812 57.15625 -50.28125 C 55.78125 -52.050781 54.429688 -53.550781 53.109375 -54.78125 C 51.796875 -56.007812 50.78125 -56.894531 50.0625 -57.4375 L 35.65625 -43.75 L 23.5 -56.171875 L 26.296875 -59.78125 C 26.585938 -60.195312 26.734375 -60.5 26.734375 -60.6875 C 26.734375 -61.164062 26.460938 -61.40625 25.921875 -61.40625 C 25.566406 -61.40625 25.148438 -61.164062 24.671875 -60.6875 Z M 22.234375 -57.984375 "/></g></g></g><g fill="#ffffff" fill-opacity="1"><g transform="translate(166.8063, 144.173379)"><g><path d="M 34.84375 -21.78125 C 41.082031 -21.78125 46.164062 -23.476562 50.09375 -26.875 C 54.03125 -30.269531 56.300781 -35.296875 56.90625 -41.953125 C 56.90625 -43.390625 56.632812 -45.1875 56.09375 -47.34375 C 55.550781 -49.507812 54.554688 -51.628906 53.109375 -53.703125 C 51.671875 -55.773438 49.585938 -57.515625 46.859375 -58.921875 C 44.128906 -60.335938 40.601562 -61.046875 36.28125 -61.046875 L 12.96875 -61.046875 C 11.226562 -61.046875 9.847656 -60.488281 8.828125 -59.375 C 7.804688 -58.257812 7.296875 -56.710938 7.296875 -54.734375 L 7.296875 -1.984375 L 24.671875 -1.984375 C 24.910156 -1.984375 25.207031 -2.054688 25.5625 -2.203125 C 25.925781 -2.359375 26.109375 -2.644531 26.109375 -3.0625 C 26.109375 -3.90625 25.597656 -4.328125 24.578125 -4.328125 L 16.203125 -4.328125 L 16.203125 -5.765625 L 24.671875 -5.765625 C 25.628906 -5.765625 26.109375 -6.125 26.109375 -6.84375 C 26.109375 -7.195312 25.941406 -7.476562 25.609375 -7.6875 C 25.285156 -7.90625 24.941406 -8.015625 24.578125 -8.015625 L 16.203125 -8.015625 L 16.203125 -9.453125 L 24.671875 -9.453125 C 25.265625 -9.453125 25.648438 -9.585938 25.828125 -9.859375 C 26.015625 -10.128906 26.109375 -10.382812 26.109375 -10.625 C 26.109375 -11.039062 25.941406 -11.335938 25.609375 -11.515625 C 25.285156 -11.703125 24.941406 -11.796875 24.578125 -11.796875 L 14.3125 -11.796875 L 23.859375 -56.8125 L 25.65625 -56.359375 L 24.03125 -48.890625 L 34.03125 -48.890625 C 34.925781 -48.890625 35.78125 -48.828125 36.59375 -48.703125 C 37.40625 -48.585938 38.066406 -48.195312 38.578125 -47.53125 C 39.085938 -46.875 39.34375 -45.765625 39.34375 -44.203125 L 39.34375 -32.5 L 37.453125 -32.5 L 37.453125 -44.203125 C 37.453125 -45.585938 37.226562 -46.398438 36.78125 -46.640625 C 36.332031 -46.878906 35.414062 -47 34.03125 -47 L 23.671875 -47 L 20.4375 -31.515625 C 20.675781 -29.535156 21.578125 -27.820312 23.140625 -26.375 C 24.703125 -24.9375 26.5625 -23.8125 28.71875 -23 C 30.882812 -22.1875 32.925781 -21.78125 34.84375 -21.78125 Z M 34.84375 -21.78125 "/></g></g></g><g fill="#ffffff" fill-opacity="1"><g transform="translate(229.904143, 144.173379)"><g><path d="M 16.296875 -11.609375 L 16.296875 -13.5 C 18.691406 -13.5 20.703125 -13.90625 22.328125 -14.71875 C 23.953125 -15.53125 25.269531 -16.566406 26.28125 -17.828125 C 27.300781 -19.085938 28.082031 -20.316406 28.625 -21.515625 C 29.707031 -23.859375 30.25 -26.410156 30.25 -29.171875 C 30.25 -32.171875 29.769531 -34.660156 28.8125 -36.640625 C 27.851562 -38.617188 26.632812 -40.253906 25.15625 -41.546875 C 23.6875 -42.835938 22.203125 -43.960938 20.703125 -44.921875 L 21.515625 -46.546875 C 22.421875 -46.128906 23.546875 -45.363281 24.890625 -44.25 C 26.242188 -43.132812 27.535156 -41.8125 28.765625 -40.28125 C 29.992188 -38.757812 30.816406 -37.125 31.234375 -35.375 C 31.773438 -35.863281 32.40625 -36.523438 33.125 -37.359375 C 33.851562 -38.203125 34.484375 -39.359375 35.015625 -40.828125 C 35.554688 -42.296875 35.828125 -44.140625 35.828125 -46.359375 C 35.828125 -49.066406 35.078125 -51.363281 33.578125 -53.25 C 32.078125 -55.144531 30.21875 -56.722656 28 -57.984375 C 25.78125 -59.242188 23.5625 -60.234375 21.34375 -60.953125 L 7.296875 -60.953125 L 7.296875 -11.796875 C 7.296875 -6.867188 8.101562 -3.773438 9.71875 -2.515625 C 10.195312 -2.097656 10.796875 -1.769531 11.515625 -1.53125 C 12.242188 -1.289062 13.144531 -1.171875 14.21875 -1.171875 C 15.0625 -1.171875 15.976562 -1.242188 16.96875 -1.390625 C 17.957031 -1.546875 19.082031 -1.800781 20.34375 -2.15625 L 43.671875 -8.546875 L 43.671875 -2.796875 C 43.671875 -2.128906 43.96875 -1.796875 44.5625 -1.796875 C 45.28125 -1.796875 45.640625 -2.128906 45.640625 -2.796875 L 45.640625 -7.109375 L 47.09375 -7.109375 L 47.09375 -2.875 C 47.09375 -2.15625 47.421875 -1.796875 48.078125 -1.796875 C 48.679688 -1.796875 48.984375 -2.15625 48.984375 -2.875 L 48.984375 -7.109375 L 50.421875 -7.109375 L 50.421875 -2.875 C 50.421875 -2.15625 50.75 -1.796875 51.40625 -1.796875 C 51.582031 -1.796875 51.773438 -1.867188 51.984375 -2.015625 C 52.203125 -2.171875 52.3125 -2.429688 52.3125 -2.796875 L 52.3125 -7.109375 L 53.75 -7.109375 L 53.75 -2.875 C 53.75 -2.582031 53.882812 -2.328125 54.15625 -2.109375 C 54.425781 -1.898438 54.679688 -1.796875 54.921875 -1.796875 C 55.460938 -1.796875 55.734375 -2.15625 55.734375 -2.875 L 55.734375 -20.796875 C 55.734375 -21.578125 55.613281 -22.117188 55.375 -22.421875 C 55.132812 -22.722656 54.5625 -22.875 53.65625 -22.875 L 45.640625 -22.875 L 45.640625 -20.796875 C 45.640625 -19.835938 45.335938 -19.117188 44.734375 -18.640625 C 44.140625 -18.160156 43.484375 -17.921875 42.765625 -17.921875 C 41.921875 -17.921875 41.257812 -18.160156 40.78125 -18.640625 C 40.300781 -18.160156 39.671875 -17.921875 38.890625 -17.921875 C 38.171875 -17.921875 37.507812 -18.160156 36.90625 -18.640625 C 36.425781 -18.160156 35.769531 -17.921875 34.9375 -17.921875 C 34.269531 -17.921875 33.609375 -18.128906 32.953125 -18.546875 C 32.535156 -18.179688 31.960938 -18 31.234375 -18 C 30.398438 -18 29.742188 -18.210938 29.265625 -18.640625 C 26.441406 -13.953125 22.117188 -11.609375 16.296875 -11.609375 Z M 32.140625 -29.171875 C 32.140625 -26.234375 31.539062 -23.410156 30.34375 -20.703125 C 30.34375 -20.285156 30.476562 -20.03125 30.75 -19.9375 C 31.019531 -19.851562 31.179688 -19.8125 31.234375 -19.8125 C 31.359375 -19.8125 31.582031 -19.867188 31.90625 -19.984375 C 32.238281 -20.109375 32.40625 -20.378906 32.40625 -20.796875 L 32.40625 -23.765625 L 33.859375 -23.765625 L 33.859375 -20.796875 C 33.859375 -20.378906 33.976562 -20.09375 34.21875 -19.9375 C 34.457031 -19.789062 34.695312 -19.71875 34.9375 -19.71875 C 35.226562 -19.71875 35.507812 -19.789062 35.78125 -19.9375 C 36.050781 -20.09375 36.1875 -20.378906 36.1875 -20.796875 L 36.1875 -23.765625 L 37.640625 -23.765625 L 37.640625 -20.796875 C 37.640625 -20.316406 37.816406 -20.015625 38.171875 -19.890625 C 38.535156 -19.773438 38.742188 -19.71875 38.796875 -19.71875 C 39.035156 -19.71875 39.289062 -19.789062 39.5625 -19.9375 C 39.832031 -20.09375 39.96875 -20.378906 39.96875 -20.796875 L 39.96875 -23.765625 L 41.328125 -23.765625 L 41.328125 -20.890625 C 41.328125 -20.460938 41.472656 -20.160156 41.765625 -19.984375 C 42.066406 -19.804688 42.335938 -19.71875 42.578125 -19.71875 C 43.359375 -19.71875 43.75 -20.140625 43.75 -20.984375 L 43.75 -36.90625 C 43.75 -38.289062 43.507812 -39.175781 43.03125 -39.5625 C 42.550781 -39.957031 41.800781 -40.15625 40.78125 -40.15625 L 36.640625 -40.15625 C 36.335938 -39.195312 35.722656 -37.992188 34.796875 -36.546875 C 33.867188 -35.109375 32.863281 -34.0625 31.78125 -33.40625 C 31.957031 -32.800781 32.0625 -32.109375 32.09375 -31.328125 C 32.125 -30.546875 32.140625 -29.828125 32.140625 -29.171875 Z M 32.140625 -29.171875 "/></g></g></g><g fill="#ffffff" fill-opacity="1"><g transform="translate(290.841715, 144.173379)"><g><path d="M 7.5625 -4.953125 L 11.890625 -4.953125 L 11.890625 -3.515625 L 7.65625 -3.515625 C 7.351562 -3.515625 7.109375 -3.394531 6.921875 -3.15625 C 6.742188 -2.914062 6.65625 -2.703125 6.65625 -2.515625 C 6.65625 -2.035156 7.046875 -1.796875 7.828125 -1.796875 L 31.96875 -1.796875 C 33.039062 -1.796875 33.953125 -2.242188 34.703125 -3.140625 C 35.453125 -4.046875 35.828125 -5.039062 35.828125 -6.125 C 35.828125 -7.320312 35.585938 -8.492188 35.109375 -9.640625 L 21.421875 -43.3125 L 23.140625 -43.9375 C 23.140625 -43.875 23.421875 -43.132812 23.984375 -41.71875 C 24.554688 -40.3125 25.304688 -38.453125 26.234375 -36.140625 C 27.171875 -33.835938 28.207031 -31.289062 29.34375 -28.5 C 30.488281 -25.707031 31.628906 -22.929688 32.765625 -20.171875 L 34.390625 -20.171875 C 36.554688 -20.171875 38.507812 -20.617188 40.25 -21.515625 C 41.988281 -22.421875 43.378906 -23.632812 44.421875 -25.15625 C 45.472656 -26.6875 46 -28.351562 46 -30.15625 C 46 -31.894531 45.695312 -33.578125 45.09375 -35.203125 C 44.5 -36.828125 43.539062 -38.207031 42.21875 -39.34375 C 41.4375 -38.019531 40.445312 -36.832031 39.25 -35.78125 C 38.050781 -34.738281 36.703125 -33.675781 35.203125 -32.59375 L 34.125 -34.03125 C 36.039062 -35.53125 37.613281 -36.910156 38.84375 -38.171875 C 40.070312 -39.429688 40.988281 -40.828125 41.59375 -42.359375 C 42.195312 -43.890625 42.5 -45.734375 42.5 -47.890625 C 42.5 -50.234375 42.0625 -52.289062 41.1875 -54.0625 C 40.320312 -55.832031 39.332031 -57.285156 38.21875 -58.421875 C 37.101562 -59.566406 36.128906 -60.347656 35.296875 -60.765625 L 12.25 -60.765625 C 10.082031 -60.765625 8.1875 -60.164062 6.5625 -58.96875 C 4.945312 -57.769531 4.140625 -55.941406 4.140625 -53.484375 C 4.140625 -51.984375 4.441406 -50.453125 5.046875 -48.890625 L 18.1875 -13.140625 L 7.65625 -13.140625 C 6.9375 -13.140625 6.578125 -12.867188 6.578125 -12.328125 C 6.578125 -12.085938 6.648438 -11.863281 6.796875 -11.65625 C 6.941406 -11.445312 7.226562 -11.34375 7.65625 -11.34375 L 11.96875 -11.34375 L 11.96875 -9.90625 L 7.65625 -9.90625 C 6.9375 -9.90625 6.578125 -9.601562 6.578125 -9 C 6.578125 -8.40625 6.9375 -8.109375 7.65625 -8.109375 L 11.96875 -8.109375 L 11.96875 -6.65625 L 7.46875 -6.65625 C 6.875 -6.65625 6.578125 -6.359375 6.578125 -5.765625 C 6.578125 -5.222656 6.90625 -4.953125 7.5625 -4.953125 Z M 7.5625 -4.953125 "/></g></g></g><g fill="#ffffff" fill-opacity="1"><g transform="translate(350.969192, 144.173379)"><g><path d="M 16.296875 -11.609375 L 16.296875 -13.5 C 18.691406 -13.5 20.703125 -13.90625 22.328125 -14.71875 C 23.953125 -15.53125 25.269531 -16.566406 26.28125 -17.828125 C 27.300781 -19.085938 28.082031 -20.316406 28.625 -21.515625 C 29.707031 -23.859375 30.25 -26.410156 30.25 -29.171875 C 30.25 -32.171875 29.769531 -34.660156 28.8125 -36.640625 C 27.851562 -38.617188 26.632812 -40.253906 25.15625 -41.546875 C 23.6875 -42.835938 22.203125 -43.960938 20.703125 -44.921875 L 21.515625 -46.546875 C 22.421875 -46.128906 23.546875 -45.363281 24.890625 -44.25 C 26.242188 -43.132812 27.535156 -41.8125 28.765625 -40.28125 C 29.992188 -38.757812 30.816406 -37.125 31.234375 -35.375 C 31.773438 -35.863281 32.40625 -36.523438 33.125 -37.359375 C 33.851562 -38.203125 34.484375 -39.359375 35.015625 -40.828125 C 35.554688 -42.296875 35.828125 -44.140625 35.828125 -46.359375 C 35.828125 -49.066406 35.078125 -51.363281 33.578125 -53.25 C 32.078125 -55.144531 30.21875 -56.722656 28 -57.984375 C 25.78125 -59.242188 23.5625 -60.234375 21.34375 -60.953125 L 7.296875 -60.953125 L 7.296875 -11.796875 C 7.296875 -6.867188 8.101562 -3.773438 9.71875 -2.515625 C 10.195312 -2.097656 10.796875 -1.769531 11.515625 -1.53125 C 12.242188 -1.289062 13.144531 -1.171875 14.21875 -1.171875 C 15.0625 -1.171875 15.976562 -1.242188 16.96875 -1.390625 C 17.957031 -1.546875 19.082031 -1.800781 20.34375 -2.15625 L 43.671875 -8.546875 L 43.671875 -2.796875 C 43.671875 -2.128906 43.96875 -1.796875 44.5625 -1.796875 C 45.28125 -1.796875 45.640625 -2.128906 45.640625 -2.796875 L 45.640625 -7.109375 L 47.09375 -7.109375 L 47.09375 -2.875 C 47.09375 -2.15625 47.421875 -1.796875 48.078125 -1.796875 C 48.679688 -1.796875 48.984375 -2.15625 48.984375 -2.875 L 48.984375 -7.109375 L 50.421875 -7.109375 L 50.421875 -2.875 C 50.421875 -2.15625 50.75 -1.796875 51.40625 -1.796875 C 51.582031 -1.796875 51.773438 -1.867188 51.984375 -2.015625 C 52.203125 -2.171875 52.3125 -2.429688 52.3125 -2.796875 L 52.3125 -7.109375 L 53.75 -7.109375 L 53.75 -2.875 C 53.75 -2.582031 53.882812 -2.328125 54.15625 -2.109375 C 54.425781 -1.898438 54.679688 -1.796875 54.921875 -1.796875 C 55.460938 -1.796875 55.734375 -2.15625 55.734375 -2.875 L 55.734375 -20.796875 C 55.734375 -21.578125 55.613281 -22.117188 55.375 -22.421875 C 55.132812 -22.722656 54.5625 -22.875 53.65625 -22.875 L 45.640625 -22.875 L 45.640625 -20.796875 C 45.640625 -19.835938 45.335938 -19.117188 44.734375 -18.640625 C 44.140625 -18.160156 43.484375 -17.921875 42.765625 -17.921875 C 41.921875 -17.921875 41.257812 -18.160156 40.78125 -18.640625 C 40.300781 -18.160156 39.671875 -17.921875 38.890625 -17.921875 C 38.171875 -17.921875 37.507812 -18.160156 36.90625 -18.640625 C 36.425781 -18.160156 35.769531 -17.921875 34.9375 -17.921875 C 34.269531 -17.921875 33.609375 -18.128906 32.953125 -18.546875 C 32.535156 -18.179688 31.960938 -18 31.234375 -18 C 30.398438 -18 29.742188 -18.210938 29.265625 -18.640625 C 26.441406 -13.953125 22.117188 -11.609375 16.296875 -11.609375 Z M 32.140625 -29.171875 C 32.140625 -26.234375 31.539062 -23.410156 30.34375 -20.703125 C 30.34375 -20.285156 30.476562 -20.03125 30.75 -19.9375 C 31.019531 -19.851562 31.179688 -19.8125 31.234375 -19.8125 C 31.359375 -19.8125 31.582031 -19.867188 31.90625 -19.984375 C 32.238281 -20.109375 32.40625 -20.378906 32.40625 -20.796875 L 32.40625 -23.765625 L 33.859375 -23.765625 L 33.859375 -20.796875 C 33.859375 -20.378906 33.976562 -20.09375 34.21875 -19.9375 C 34.457031 -19.789062 34.695312 -19.71875 34.9375 -19.71875 C 35.226562 -19.71875 35.507812 -19.789062 35.78125 -19.9375 C 36.050781 -20.09375 36.1875 -20.378906 36.1875 -20.796875 L 36.1875 -23.765625 L 37.640625 -23.765625 L 37.640625 -20.796875 C 37.640625 -20.316406 37.816406 -20.015625 38.171875 -19.890625 C 38.535156 -19.773438 38.742188 -19.71875 38.796875 -19.71875 C 39.035156 -19.71875 39.289062 -19.789062 39.5625 -19.9375 C 39.832031 -20.09375 39.96875 -20.378906 39.96875 -20.796875 L 39.96875 -23.765625 L 41.328125 -23.765625 L 41.328125 -20.890625 C 41.328125 -20.460938 41.472656 -20.160156 41.765625 -19.984375 C 42.066406 -19.804688 42.335938 -19.71875 42.578125 -19.71875 C 43.359375 -19.71875 43.75 -20.140625 43.75 -20.984375 L 43.75 -36.90625 C 43.75 -38.289062 43.507812 -39.175781 43.03125 -39.5625 C 42.550781 -39.957031 41.800781 -40.15625 40.78125 -40.15625 L 36.640625 -40.15625 C 36.335938 -39.195312 35.722656 -37.992188 34.796875 -36.546875 C 33.867188 -35.109375 32.863281 -34.0625 31.78125 -33.40625 C 31.957031 -32.800781 32.0625 -32.109375 32.09375 -31.328125 C 32.125 -30.546875 32.140625 -29.828125 32.140625 -29.171875 Z M 32.140625 -29.171875 "/></g></g></g><g fill="#ffffff" fill-opacity="1"><g transform="translate(411.906746, 144.173379)"><g><path d="M 38.890625 -5.765625 L 35.203125 -0.984375 C 37.660156 -1.828125 39.941406 -3.054688 42.046875 -4.671875 C 44.148438 -6.296875 45.84375 -8.21875 47.125 -10.4375 C 48.414062 -12.664062 49.0625 -15.066406 49.0625 -17.640625 C 49.0625 -21.484375 48.535156 -24.769531 47.484375 -27.5 C 46.441406 -30.226562 45.140625 -32.597656 43.578125 -34.609375 C 42.015625 -36.628906 40.484375 -38.445312 38.984375 -40.0625 L 28.984375 -50.78125 L 30.25 -52.03125 C 30.3125 -51.976562 30.550781 -51.753906 30.96875 -51.359375 C 31.382812 -50.972656 32.191406 -50.164062 33.390625 -48.9375 C 34.597656 -47.707031 36.398438 -45.738281 38.796875 -43.03125 C 39.160156 -43.695312 39.550781 -44.703125 39.96875 -46.046875 C 40.394531 -47.398438 40.609375 -49.066406 40.609375 -51.046875 C 40.609375 -52.910156 40.019531 -54.875 38.84375 -56.9375 C 37.675781 -59.007812 35.992188 -60.765625 33.796875 -62.203125 C 31.609375 -63.648438 28.984375 -64.375 25.921875 -64.375 C 23.347656 -64.375 21.160156 -63.890625 19.359375 -62.921875 C 17.554688 -61.960938 16.097656 -60.75 14.984375 -59.28125 C 13.878906 -57.8125 13.070312 -56.265625 12.5625 -54.640625 C 12.050781 -53.023438 11.796875 -51.523438 11.796875 -50.140625 C 11.796875 -49.117188 11.851562 -48.050781 11.96875 -46.9375 C 12.09375 -45.832031 12.363281 -44.679688 12.78125 -43.484375 L 15.3125 -45.375 L 16.390625 -43.84375 C 15.367188 -43 14.253906 -42.140625 13.046875 -41.265625 C 11.847656 -40.398438 10.8125 -39.21875 9.9375 -37.71875 C 9.070312 -36.21875 8.640625 -34.054688 8.640625 -31.234375 C 8.640625 -28.773438 9.070312 -26.703125 9.9375 -25.015625 C 10.8125 -23.335938 11.910156 -22.003906 13.234375 -21.015625 C 14.554688 -20.023438 15.890625 -19.320312 17.234375 -18.90625 C 18.585938 -18.488281 19.710938 -18.28125 20.609375 -18.28125 C 23.253906 -18.28125 25.367188 -18.640625 26.953125 -19.359375 C 28.546875 -20.078125 29.75 -20.84375 30.5625 -21.65625 C 31.375 -22.46875 31.867188 -23.050781 32.046875 -23.40625 L 33.484375 -22.328125 C 33.066406 -21.722656 32.4375 -20.957031 31.59375 -20.03125 C 30.757812 -19.101562 29.679688 -18.304688 28.359375 -17.640625 L 33.40625 -11.890625 L 26.296875 -3.234375 C 26.046875 -2.878906 25.921875 -2.519531 25.921875 -2.15625 C 25.921875 -1.800781 26.023438 -1.5625 26.234375 -1.4375 C 26.453125 -1.320312 26.679688 -1.265625 26.921875 -1.265625 C 27.335938 -1.265625 27.726562 -1.472656 28.09375 -1.890625 L 35.015625 -9.8125 L 36.015625 -8.828125 L 29.703125 -0.8125 C 29.460938 -0.570312 29.34375 -0.300781 29.34375 0 C 29.832031 0 30.34375 -0.0390625 30.875 -0.125 C 31.414062 -0.21875 31.925781 -0.296875 32.40625 -0.359375 C 33.1875 -1.253906 34 -2.195312 34.84375 -3.1875 C 35.6875 -4.1875 36.390625 -5.03125 36.953125 -5.71875 C 37.523438 -6.40625 37.8125 -6.75 37.8125 -6.75 Z M 38.890625 -5.765625 "/></g></g></g><g fill="#ffffff" fill-opacity="1"><g transform="translate(468.433778, 144.173379)"><g><path d="M 38.890625 -5.765625 L 35.203125 -0.984375 C 37.660156 -1.828125 39.941406 -3.054688 42.046875 -4.671875 C 44.148438 -6.296875 45.84375 -8.21875 47.125 -10.4375 C 48.414062 -12.664062 49.0625 -15.066406 49.0625 -17.640625 C 49.0625 -21.484375 48.535156 -24.769531 47.484375 -27.5 C 46.441406 -30.226562 45.140625 -32.597656 43.578125 -34.609375 C 42.015625 -36.628906 40.484375 -38.445312 38.984375 -40.0625 L 28.984375 -50.78125 L 30.25 -52.03125 C 30.3125 -51.976562 30.550781 -51.753906 30.96875 -51.359375 C 31.382812 -50.972656 32.191406 -50.164062 33.390625 -48.9375 C 34.597656 -47.707031 36.398438 -45.738281 38.796875 -43.03125 C 39.160156 -43.695312 39.550781 -44.703125 39.96875 -46.046875 C 40.394531 -47.398438 40.609375 -49.066406 40.609375 -51.046875 C 40.609375 -52.910156 40.019531 -54.875 38.84375 -56.9375 C 37.675781 -59.007812 35.992188 -60.765625 33.796875 -62.203125 C 31.609375 -63.648438 28.984375 -64.375 25.921875 -64.375 C 23.347656 -64.375 21.160156 -63.890625 19.359375 -62.921875 C 17.554688 -61.960938 16.097656 -60.75 14.984375 -59.28125 C 13.878906 -57.8125 13.070312 -56.265625 12.5625 -54.640625 C 12.050781 -53.023438 11.796875 -51.523438 11.796875 -50.140625 C 11.796875 -49.117188 11.851562 -48.050781 11.96875 -46.9375 C 12.09375 -45.832031 12.363281 -44.679688 12.78125 -43.484375 L 15.3125 -45.375 L 16.390625 -43.84375 C 15.367188 -43 14.253906 -42.140625 13.046875 -41.265625 C 11.847656 -40.398438 10.8125 -39.21875 9.9375 -37.71875 C 9.070312 -36.21875 8.640625 -34.054688 8.640625 -31.234375 C 8.640625 -28.773438 9.070312 -26.703125 9.9375 -25.015625 C 10.8125 -23.335938 11.910156 -22.003906 13.234375 -21.015625 C 14.554688 -20.023438 15.890625 -19.320312 17.234375 -18.90625 C 18.585938 -18.488281 19.710938 -18.28125 20.609375 -18.28125 C 23.253906 -18.28125 25.367188 -18.640625 26.953125 -19.359375 C 28.546875 -20.078125 29.75 -20.84375 30.5625 -21.65625 C 31.375 -22.46875 31.867188 -23.050781 32.046875 -23.40625 L 33.484375 -22.328125 C 33.066406 -21.722656 32.4375 -20.957031 31.59375 -20.03125 C 30.757812 -19.101562 29.679688 -18.304688 28.359375 -17.640625 L 33.40625 -11.890625 L 26.296875 -3.234375 C 26.046875 -2.878906 25.921875 -2.519531 25.921875 -2.15625 C 25.921875 -1.800781 26.023438 -1.5625 26.234375 -1.4375 C 26.453125 -1.320312 26.679688 -1.265625 26.921875 -1.265625 C 27.335938 -1.265625 27.726562 -1.472656 28.09375 -1.890625 L 35.015625 -9.8125 L 36.015625 -8.828125 L 29.703125 -0.8125 C 29.460938 -0.570312 29.34375 -0.300781 29.34375 0 C 29.832031 0 30.34375 -0.0390625 30.875 -0.125 C 31.414062 -0.21875 31.925781 -0.296875 32.40625 -0.359375 C 33.1875 -1.253906 34 -2.195312 34.84375 -3.1875 C 35.6875 -4.1875 36.390625 -5.03125 36.953125 -5.71875 C 37.523438 -6.40625 37.8125 -6.75 37.8125 -6.75 Z M 38.890625 -5.765625 "/></g></g></g><g fill="#ffffff" fill-opacity="1"><g transform="translate(524.96081, 144.173379)"><g><path d="M 16.296875 -11.609375 L 16.296875 -13.5 C 18.691406 -13.5 20.703125 -13.90625 22.328125 -14.71875 C 23.953125 -15.53125 25.269531 -16.566406 26.28125 -17.828125 C 27.300781 -19.085938 28.082031 -20.316406 28.625 -21.515625 C 29.707031 -23.859375 30.25 -26.410156 30.25 -29.171875 C 30.25 -32.171875 29.769531 -34.660156 28.8125 -36.640625 C 27.851562 -38.617188 26.632812 -40.253906 25.15625 -41.546875 C 23.6875 -42.835938 22.203125 -43.960938 20.703125 -44.921875 L 21.515625 -46.546875 C 22.421875 -46.128906 23.546875 -45.363281 24.890625 -44.25 C 26.242188 -43.132812 27.535156 -41.8125 28.765625 -40.28125 C 29.992188 -38.757812 30.816406 -37.125 31.234375 -35.375 C 31.773438 -35.863281 32.40625 -36.523438 33.125 -37.359375 C 33.851562 -38.203125 34.484375 -39.359375 35.015625 -40.828125 C 35.554688 -42.296875 35.828125 -44.140625 35.828125 -46.359375 C 35.828125 -49.066406 35.078125 -51.363281 33.578125 -53.25 C 32.078125 -55.144531 30.21875 -56.722656 28 -57.984375 C 25.78125 -59.242188 23.5625 -60.234375 21.34375 -60.953125 L 7.296875 -60.953125 L 7.296875 -11.796875 C 7.296875 -6.867188 8.101562 -3.773438 9.71875 -2.515625 C 10.195312 -2.097656 10.796875 -1.769531 11.515625 -1.53125 C 12.242188 -1.289062 13.144531 -1.171875 14.21875 -1.171875 C 15.0625 -1.171875 15.976562 -1.242188 16.96875 -1.390625 C 17.957031 -1.546875 19.082031 -1.800781 20.34375 -2.15625 L 43.671875 -8.546875 L 43.671875 -2.796875 C 43.671875 -2.128906 43.96875 -1.796875 44.5625 -1.796875 C 45.28125 -1.796875 45.640625 -2.128906 45.640625 -2.796875 L 45.640625 -7.109375 L 47.09375 -7.109375 L 47.09375 -2.875 C 47.09375 -2.15625 47.421875 -1.796875 48.078125 -1.796875 C 48.679688 -1.796875 48.984375 -2.15625 48.984375 -2.875 L 48.984375 -7.109375 L 50.421875 -7.109375 L 50.421875 -2.875 C 50.421875 -2.15625 50.75 -1.796875 51.40625 -1.796875 C 51.582031 -1.796875 51.773438 -1.867188 51.984375 -2.015625 C 52.203125 -2.171875 52.3125 -2.429688 52.3125 -2.796875 L 52.3125 -7.109375 L 53.75 -7.109375 L 53.75 -2.875 C 53.75 -2.582031 53.882812 -2.328125 54.15625 -2.109375 C 54.425781 -1.898438 54.679688 -1.796875 54.921875 -1.796875 C 55.460938 -1.796875 55.734375 -2.15625 55.734375 -2.875 L 55.734375 -20.796875 C 55.734375 -21.578125 55.613281 -22.117188 55.375 -22.421875 C 55.132812 -22.722656 54.5625 -22.875 53.65625 -22.875 L 45.640625 -22.875 L 45.640625 -20.796875 C 45.640625 -19.835938 45.335938 -19.117188 44.734375 -18.640625 C 44.140625 -18.160156 43.484375 -17.921875 42.765625 -17.921875 C 41.921875 -17.921875 41.257812 -18.160156 40.78125 -18.640625 C 40.300781 -18.160156 39.671875 -17.921875 38.890625 -17.921875 C 38.171875 -17.921875 37.507812 -18.160156 36.90625 -18.640625 C 36.425781 -18.160156 35.769531 -17.921875 34.9375 -17.921875 C 34.269531 -17.921875 33.609375 -18.128906 32.953125 -18.546875 C 32.535156 -18.179688 31.960938 -18 31.234375 -18 C 30.398438 -18 29.742188 -18.210938 29.265625 -18.640625 C 26.441406 -13.953125 22.117188 -11.609375 16.296875 -11.609375 Z M 32.140625 -29.171875 C 32.140625 -26.234375 31.539062 -23.410156 30.34375 -20.703125 C 30.34375 -20.285156 30.476562 -20.03125 30.75 -19.9375 C 31.019531 -19.851562 31.179688 -19.8125 31.234375 -19.8125 C 31.359375 -19.8125 31.582031 -19.867188 31.90625 -19.984375 C 32.238281 -20.109375 32.40625 -20.378906 32.40625 -20.796875 L 32.40625 -23.765625 L 33.859375 -23.765625 L 33.859375 -20.796875 C 33.859375 -20.378906 33.976562 -20.09375 34.21875 -19.9375 C 34.457031 -19.789062 34.695312 -19.71875 34.9375 -19.71875 C 35.226562 -19.71875 35.507812 -19.789062 35.78125 -19.9375 C 36.050781 -20.09375 36.1875 -20.378906 36.1875 -20.796875 L 36.1875 -23.765625 L 37.640625 -23.765625 L 37.640625 -20.796875 C 37.640625 -20.316406 37.816406 -20.015625 38.171875 -19.890625 C 38.535156 -19.773438 38.742188 -19.71875 38.796875 -19.71875 C 39.035156 -19.71875 39.289062 -19.789062 39.5625 -19.9375 C 39.832031 -20.09375 39.96875 -20.378906 39.96875 -20.796875 L 39.96875 -23.765625 L 41.328125 -23.765625 L 41.328125 -20.890625 C 41.328125 -20.460938 41.472656 -20.160156 41.765625 -19.984375 C 42.066406 -19.804688 42.335938 -19.71875 42.578125 -19.71875 C 43.359375 -19.71875 43.75 -20.140625 43.75 -20.984375 L 43.75 -36.90625 C 43.75 -38.289062 43.507812 -39.175781 43.03125 -39.5625 C 42.550781 -39.957031 41.800781 -40.15625 40.78125 -40.15625 L 36.640625 -40.15625 C 36.335938 -39.195312 35.722656 -37.992188 34.796875 -36.546875 C 33.867188 -35.109375 32.863281 -34.0625 31.78125 -33.40625 C 31.957031 -32.800781 32.0625 -32.109375 32.09375 -31.328125 C 32.125 -30.546875 32.140625 -29.828125 32.140625 -29.171875 Z M 32.140625 -29.171875 "/></g></g></g></svg>