<svg xmlns="http://www.w3.org/2000/svg" xmlns:xlink="http://www.w3.org/1999/xlink" width="200" zoomAndPan="magnify" viewBox="0 0 150 44.999999" height="60" preserveAspectRatio="xMidYMid meet" version="1.0"><defs><g/></defs><g fill="current" fill-opacity="1"><g transform="translate(1.419962, 32.196855)"><g><path d="M 5.1875 0 L 0.4375 0 C 0.882812 -1.476562 1.300781 -2.859375 1.6875 -4.140625 C 2.082031 -5.429688 2.457031 -6.660156 2.8125 -7.828125 C 3.175781 -9.003906 3.535156 -10.179688 3.890625 -11.359375 C 4.242188 -12.535156 4.613281 -13.75 5 -15 C 5.382812 -16.257812 5.789062 -17.613281 6.21875 -19.0625 C 6.382812 -19.570312 6.585938 -20.046875 6.828125 -20.484375 C 7.078125 -20.929688 7.394531 -21.289062 7.78125 -21.5625 C 8.164062 -21.84375 8.617188 -21.984375 9.140625 -21.984375 C 9.679688 -21.984375 10.140625 -21.84375 10.515625 -21.5625 C 10.890625 -21.289062 11.203125 -20.929688 11.453125 -20.484375 C 11.710938 -20.046875 11.914062 -19.570312 12.0625 -19.0625 C 12.5 -17.613281 12.90625 -16.257812 13.28125 -15 C 13.664062 -13.75 14.035156 -12.535156 14.390625 -11.359375 C 14.753906 -10.179688 15.113281 -9.003906 15.46875 -7.828125 C 15.832031 -6.660156 16.207031 -5.429688 16.59375 -4.140625 C 16.976562 -2.859375 17.394531 -1.476562 17.84375 0 L 14.515625 0 C 14.066406 -1.507812 13.648438 -2.90625 13.265625 -4.1875 C 12.878906 -5.46875 12.515625 -6.707031 12.171875 -7.90625 L 4.890625 -7.90625 C 4.867188 -6.695312 4.863281 -5.554688 4.875 -4.484375 C 4.882812 -3.410156 4.921875 -2.476562 4.984375 -1.6875 C 5.046875 -0.894531 5.113281 -0.332031 5.1875 0 Z M 4.921875 -8.234375 L 12.0625 -8.234375 C 11.726562 -9.378906 11.382812 -10.515625 11.03125 -11.640625 C 10.6875 -12.765625 10.328125 -13.9375 9.953125 -15.15625 C 9.585938 -16.375 9.179688 -17.675781 8.734375 -19.0625 C 8.660156 -19.3125 8.554688 -19.507812 8.421875 -19.65625 C 8.296875 -19.800781 8.109375 -19.875 7.859375 -19.875 C 7.460938 -19.875 7.113281 -19.644531 6.8125 -19.1875 C 6.507812 -18.738281 6.25 -18.125 6.03125 -17.34375 C 5.8125 -16.570312 5.625 -15.691406 5.46875 -14.703125 C 5.320312 -13.710938 5.203125 -12.660156 5.109375 -11.546875 C 5.023438 -10.429688 4.960938 -9.328125 4.921875 -8.234375 Z M 4.921875 -8.234375 "/></g></g></g><g fill="currrent" fill-opacity="1"><g transform="translate(19.70752, 32.196855)"><g><path d="M 0.65625 -18.203125 L 0.65625 -21.765625 L 16.078125 -21.765625 L 16.078125 -18.203125 C 15.597656 -18.691406 15.003906 -19.171875 14.296875 -19.640625 C 13.585938 -20.109375 12.847656 -20.507812 12.078125 -20.84375 C 11.304688 -21.1875 10.597656 -21.378906 9.953125 -21.421875 L 9.953125 0 L 6.796875 0 L 6.796875 -21.421875 C 6.140625 -21.378906 5.425781 -21.1875 4.65625 -20.84375 C 3.882812 -20.507812 3.144531 -20.109375 2.4375 -19.640625 C 1.726562 -19.171875 1.132812 -18.691406 0.65625 -18.203125 Z M 0.65625 -18.203125 "/></g></g></g><g fill="currrent" fill-opacity="1"><g transform="translate(36.44934, 32.196855)"><g><path d="M 0.65625 -18.203125 L 0.65625 -21.765625 L 16.078125 -21.765625 L 16.078125 -18.203125 C 15.597656 -18.691406 15.003906 -19.171875 14.296875 -19.640625 C 13.585938 -20.109375 12.847656 -20.507812 12.078125 -20.84375 C 11.304688 -21.1875 10.597656 -21.378906 9.953125 -21.421875 L 9.953125 0 L 6.796875 0 L 6.796875 -21.421875 C 6.140625 -21.378906 5.425781 -21.1875 4.65625 -20.84375 C 3.882812 -20.507812 3.144531 -20.109375 2.4375 -19.640625 C 1.726562 -19.171875 1.132812 -18.691406 0.65625 -18.203125 Z M 0.65625 -18.203125 "/></g></g></g><g fill="currrent" fill-opacity="1"><g transform="translate(53.191161, 32.196855)"><g><path d="M 0.875 -7.3125 C 0.875 -8.238281 1.101562 -9.003906 1.5625 -9.609375 C 2.03125 -10.222656 2.660156 -10.679688 3.453125 -10.984375 C 4.242188 -11.296875 5.128906 -11.453125 6.109375 -11.453125 C 6.835938 -11.453125 7.492188 -11.375 8.078125 -11.21875 C 8.671875 -11.0625 9.21875 -10.878906 9.71875 -10.671875 C 10.226562 -10.472656 10.722656 -10.296875 11.203125 -10.140625 C 11.679688 -9.992188 12.175781 -9.921875 12.6875 -9.921875 C 12.9375 -9.921875 13.15625 -9.972656 13.34375 -10.078125 C 13.539062 -10.191406 13.640625 -10.375 13.640625 -10.625 C 13.640625 -10.9375 13.4375 -11.21875 13.03125 -11.46875 C 12.625 -11.726562 12.109375 -11.957031 11.484375 -12.15625 C 10.867188 -12.351562 10.210938 -12.53125 9.515625 -12.6875 C 8.816406 -12.84375 8.175781 -12.992188 7.59375 -13.140625 C 6.820312 -13.328125 6.070312 -13.519531 5.34375 -13.71875 C 4.613281 -13.914062 3.945312 -14.171875 3.34375 -14.484375 C 2.75 -14.796875 2.273438 -15.207031 1.921875 -15.71875 C 1.566406 -16.238281 1.390625 -16.898438 1.390625 -17.703125 C 1.390625 -17.960938 1.453125 -18.273438 1.578125 -18.640625 C 1.703125 -19.015625 1.921875 -19.390625 2.234375 -19.765625 C 2.546875 -20.148438 2.976562 -20.507812 3.53125 -20.84375 C 4.09375 -21.1875 4.8125 -21.460938 5.6875 -21.671875 C 6.570312 -21.878906 7.632812 -21.984375 8.875 -21.984375 C 9.445312 -21.984375 10.078125 -21.957031 10.765625 -21.90625 C 11.460938 -21.851562 12.164062 -21.769531 12.875 -21.65625 C 13.59375 -21.539062 14.242188 -21.390625 14.828125 -21.203125 C 15.421875 -21.023438 15.882812 -20.800781 16.21875 -20.53125 L 15.328125 -17.265625 C 14.898438 -17.566406 14.320312 -17.835938 13.59375 -18.078125 C 12.863281 -18.328125 12.039062 -18.53125 11.125 -18.6875 C 10.21875 -18.84375 9.300781 -18.921875 8.375 -18.921875 C 6.789062 -18.921875 5.640625 -18.726562 4.921875 -18.34375 C 4.210938 -17.96875 3.859375 -17.394531 3.859375 -16.625 C 3.859375 -16.03125 4.0625 -15.539062 4.46875 -15.15625 C 4.882812 -14.769531 5.429688 -14.445312 6.109375 -14.1875 C 6.785156 -13.925781 7.53125 -13.695312 8.34375 -13.5 C 9.15625 -13.3125 9.960938 -13.117188 10.765625 -12.921875 C 11.566406 -12.722656 12.304688 -12.488281 12.984375 -12.21875 C 13.660156 -11.945312 14.203125 -11.609375 14.609375 -11.203125 C 15.023438 -10.796875 15.234375 -10.28125 15.234375 -9.65625 C 15.234375 -9.125 15.097656 -8.65625 14.828125 -8.25 C 14.566406 -7.851562 14.210938 -7.539062 13.765625 -7.3125 C 13.328125 -7.09375 12.851562 -6.976562 12.34375 -6.96875 C 11.539062 -6.9375 10.785156 -7.019531 10.078125 -7.21875 C 9.378906 -7.414062 8.707031 -7.644531 8.0625 -7.90625 C 7.414062 -8.175781 6.765625 -8.414062 6.109375 -8.625 C 5.460938 -8.84375 4.78125 -8.953125 4.0625 -8.953125 C 3.09375 -8.953125 2.382812 -8.789062 1.9375 -8.46875 C 1.488281 -8.144531 1.265625 -7.703125 1.265625 -7.140625 C 1.265625 -6.335938 1.53125 -5.664062 2.0625 -5.125 C 2.601562 -4.582031 3.328125 -4.148438 4.234375 -3.828125 C 5.140625 -3.515625 6.164062 -3.285156 7.3125 -3.140625 C 8.457031 -3.003906 9.640625 -2.9375 10.859375 -2.9375 C 11.773438 -2.9375 12.675781 -3.007812 13.5625 -3.15625 C 14.445312 -3.3125 15.257812 -3.703125 16 -4.328125 L 14.6875 -0.546875 C 14.113281 -0.265625 13.53125 -0.0664062 12.9375 0.046875 C 12.351562 0.160156 11.691406 0.21875 10.953125 0.21875 C 9.640625 0.21875 8.378906 0.0820312 7.171875 -0.1875 C 5.960938 -0.457031 4.882812 -0.882812 3.9375 -1.46875 C 3 -2.050781 2.253906 -2.820312 1.703125 -3.78125 C 1.148438 -4.738281 0.875 -5.914062 0.875 -7.3125 Z M 0.875 -7.3125 "/></g></g></g><g fill="currrent" fill-opacity="1"><g transform="translate(69.889442, 32.196855)"><g><path d="M 1.53125 0 L 1.53125 -21.765625 C 1.644531 -21.835938 1.796875 -21.890625 1.984375 -21.921875 C 2.179688 -21.960938 2.351562 -21.984375 2.5 -21.984375 C 3.15625 -21.984375 3.71875 -21.84375 4.1875 -21.5625 C 4.65625 -21.28125 5.085938 -20.847656 5.484375 -20.265625 C 5.890625 -19.679688 6.3125 -18.945312 6.75 -18.0625 C 7.195312 -17.175781 7.707031 -16.132812 8.28125 -14.9375 C 8.851562 -13.738281 9.546875 -12.390625 10.359375 -10.890625 C 11.453125 -8.867188 12.367188 -7.296875 13.109375 -6.171875 C 13.847656 -5.046875 14.445312 -4.226562 14.90625 -3.71875 C 15.300781 -3.300781 15.609375 -3.039062 15.828125 -2.9375 C 16.054688 -2.832031 16.222656 -2.800781 16.328125 -2.84375 C 16.429688 -2.894531 16.484375 -2.921875 16.484375 -2.921875 C 16.484375 -5.628906 16.328125 -8.097656 16.015625 -10.328125 C 15.710938 -12.554688 15.253906 -14.601562 14.640625 -16.46875 C 14.035156 -18.34375 13.269531 -20.109375 12.34375 -21.765625 L 16.875 -21.765625 L 16.875 0 C 16.75 0.0625 16.59375 0.113281 16.40625 0.15625 C 16.21875 0.195312 16.046875 0.21875 15.890625 0.21875 C 15.222656 0.21875 14.539062 -0.0351562 13.84375 -0.546875 C 13.15625 -1.054688 12.457031 -1.753906 11.75 -2.640625 C 11.050781 -3.523438 10.359375 -4.535156 9.671875 -5.671875 C 8.984375 -6.804688 8.304688 -8.015625 7.640625 -9.296875 C 6.597656 -11.285156 5.753906 -12.925781 5.109375 -14.21875 C 4.472656 -15.519531 3.992188 -16.476562 3.671875 -17.09375 C 3.367188 -17.664062 3.101562 -18.09375 2.875 -18.375 C 2.65625 -18.664062 2.476562 -18.851562 2.34375 -18.9375 C 2.207031 -19.019531 2.101562 -19.050781 2.03125 -19.03125 C 1.957031 -19.019531 1.921875 -19.015625 1.921875 -19.015625 C 1.921875 -16.242188 2.070312 -13.734375 2.375 -11.484375 C 2.675781 -9.242188 3.132812 -7.179688 3.75 -5.296875 C 4.363281 -3.421875 5.128906 -1.65625 6.046875 0 Z M 1.53125 0 "/></g></g></g><g fill="currrent" fill-opacity="1"><g transform="translate(88.285854, 32.196855)"><g><path d="M 0.65625 -18.203125 L 0.65625 -21.765625 L 16.078125 -21.765625 L 16.078125 -18.203125 C 15.597656 -18.691406 15.003906 -19.171875 14.296875 -19.640625 C 13.585938 -20.109375 12.847656 -20.507812 12.078125 -20.84375 C 11.304688 -21.1875 10.597656 -21.378906 9.953125 -21.421875 L 9.953125 0 L 6.796875 0 L 6.796875 -21.421875 C 6.140625 -21.378906 5.425781 -21.1875 4.65625 -20.84375 C 3.882812 -20.507812 3.144531 -20.109375 2.4375 -19.640625 C 1.726562 -19.171875 1.132812 -18.691406 0.65625 -18.203125 Z M 0.65625 -18.203125 "/></g></g></g><g fill="currrent" fill-opacity="1"><g transform="translate(105.027674, 32.196855)"><g><path d="M 1.53125 0 L 1.53125 -21.765625 L 4.671875 -21.765625 L 4.671875 0 Z M 1.53125 0 "/></g></g></g><g fill="currrent" fill-opacity="1"><g transform="translate(111.232376, 32.196855)"><g><path d="M 9.46875 0.21875 C 7.738281 0.21875 6.226562 -0.242188 4.9375 -1.171875 C 3.644531 -2.097656 2.644531 -3.390625 1.9375 -5.046875 C 1.226562 -6.710938 0.875 -8.660156 0.875 -10.890625 C 0.875 -13.109375 1.226562 -15.046875 1.9375 -16.703125 C 2.644531 -18.367188 3.644531 -19.664062 4.9375 -20.59375 C 6.226562 -21.519531 7.738281 -21.984375 9.46875 -21.984375 C 10.757812 -21.984375 11.929688 -21.71875 12.984375 -21.1875 C 14.035156 -20.65625 14.941406 -19.898438 15.703125 -18.921875 C 16.460938 -17.941406 17.046875 -16.773438 17.453125 -15.421875 C 17.859375 -14.066406 18.0625 -12.554688 18.0625 -10.890625 C 18.0625 -9.210938 17.859375 -7.695312 17.453125 -6.34375 C 17.046875 -4.988281 16.460938 -3.820312 15.703125 -2.84375 C 14.941406 -1.863281 14.035156 -1.109375 12.984375 -0.578125 C 11.929688 -0.046875 10.757812 0.21875 9.46875 0.21875 Z M 4.265625 -10.90625 C 4.265625 -8.738281 4.476562 -6.847656 4.90625 -5.234375 C 5.332031 -3.617188 5.9375 -2.359375 6.71875 -1.453125 C 7.507812 -0.554688 8.421875 -0.109375 9.453125 -0.109375 C 10.492188 -0.109375 11.40625 -0.554688 12.1875 -1.453125 C 12.96875 -2.359375 13.578125 -3.617188 14.015625 -5.234375 C 14.453125 -6.847656 14.671875 -8.738281 14.671875 -10.90625 C 14.671875 -13.0625 14.453125 -14.945312 14.015625 -16.5625 C 13.578125 -18.175781 12.96875 -19.429688 12.1875 -20.328125 C 11.40625 -21.222656 10.492188 -21.671875 9.453125 -21.671875 C 8.421875 -21.671875 7.507812 -21.222656 6.71875 -20.328125 C 5.9375 -19.429688 5.332031 -18.175781 4.90625 -16.5625 C 4.476562 -14.945312 4.265625 -13.0625 4.265625 -10.90625 Z M 4.265625 -10.90625 "/></g></g></g><g fill="currrent" fill-opacity="1"><g transform="translate(130.173065, 32.196855)"><g><path d="M 1.53125 0 L 1.53125 -21.765625 C 1.644531 -21.835938 1.796875 -21.890625 1.984375 -21.921875 C 2.179688 -21.960938 2.351562 -21.984375 2.5 -21.984375 C 3.15625 -21.984375 3.71875 -21.84375 4.1875 -21.5625 C 4.65625 -21.28125 5.085938 -20.847656 5.484375 -20.265625 C 5.890625 -19.679688 6.3125 -18.945312 6.75 -18.0625 C 7.195312 -17.175781 7.707031 -16.132812 8.28125 -14.9375 C 8.851562 -13.738281 9.546875 -12.390625 10.359375 -10.890625 C 11.453125 -8.867188 12.367188 -7.296875 13.109375 -6.171875 C 13.847656 -5.046875 14.445312 -4.226562 14.90625 -3.71875 C 15.300781 -3.300781 15.609375 -3.039062 15.828125 -2.9375 C 16.054688 -2.832031 16.222656 -2.800781 16.328125 -2.84375 C 16.429688 -2.894531 16.484375 -2.921875 16.484375 -2.921875 C 16.484375 -5.628906 16.328125 -8.097656 16.015625 -10.328125 C 15.710938 -12.554688 15.253906 -14.601562 14.640625 -16.46875 C 14.035156 -18.34375 13.269531 -20.109375 12.34375 -21.765625 L 16.875 -21.765625 L 16.875 0 C 16.75 0.0625 16.59375 0.113281 16.40625 0.15625 C 16.21875 0.195312 16.046875 0.21875 15.890625 0.21875 C 15.222656 0.21875 14.539062 -0.0351562 13.84375 -0.546875 C 13.15625 -1.054688 12.457031 -1.753906 11.75 -2.640625 C 11.050781 -3.523438 10.359375 -4.535156 9.671875 -5.671875 C 8.984375 -6.804688 8.304688 -8.015625 7.640625 -9.296875 C 6.597656 -11.285156 5.753906 -12.925781 5.109375 -14.21875 C 4.472656 -15.519531 3.992188 -16.476562 3.671875 -17.09375 C 3.367188 -17.664062 3.101562 -18.09375 2.875 -18.375 C 2.65625 -18.664062 2.476562 -18.851562 2.34375 -18.9375 C 2.207031 -19.019531 2.101562 -19.050781 2.03125 -19.03125 C 1.957031 -19.019531 1.921875 -19.015625 1.921875 -19.015625 C 1.921875 -16.242188 2.070312 -13.734375 2.375 -11.484375 C 2.675781 -9.242188 3.132812 -7.179688 3.75 -5.296875 C 4.363281 -3.421875 5.128906 -1.65625 6.046875 0 Z M 1.53125 0 "/></g></g></g></svg>