<svg xmlns="http://www.w3.org/2000/svg" xmlns:xlink="http://www.w3.org/1999/xlink" width="200" zoomAndPan="magnify" viewBox="0 0 150 44.999999" height="60" preserveAspectRatio="xMidYMid meet" version="1.0"><defs><g/></defs><g fill="#000000" fill-opacity="1"><g transform="translate(2.221866, 29.691601)"><g><path d="M 9.765625 0 C 9.847656 -0.03125 9.890625 -0.140625 9.890625 -0.328125 C 9.898438 -0.515625 9.835938 -0.851562 9.703125 -1.34375 L 8.015625 -7.109375 L 2.625 -7.109375 L 2.171875 -5.546875 C 1.960938 -4.804688 1.9375 -4.082031 2.09375 -3.375 C 2.25 -2.664062 2.554688 -2.019531 3.015625 -1.4375 C 3.472656 -0.851562 4.03125 -0.375 4.6875 0 L 0.46875 0 L 5.265625 -16.515625 C 5.296875 -16.492188 5.425781 -16.410156 5.65625 -16.265625 C 5.882812 -16.128906 6.222656 -16.007812 6.671875 -15.90625 C 7.128906 -15.8125 7.707031 -15.796875 8.40625 -15.859375 C 8.851562 -15.898438 9.296875 -15.988281 9.734375 -16.125 C 10.179688 -16.269531 10.554688 -16.398438 10.859375 -16.515625 L 15.171875 -1.625 C 15.347656 -1.039062 15.488281 -0.628906 15.59375 -0.390625 C 15.707031 -0.160156 15.800781 -0.03125 15.875 0 Z M 2.640625 -7.203125 L 8 -7.203125 L 5.3125 -16.390625 Z M 2.640625 -7.203125 "/></g></g></g><g fill="#000000" fill-opacity="1"><g transform="translate(18.560792, 29.691601)"><g><path d="M 18.921875 -12.171875 C 18.460938 -12.992188 17.898438 -13.71875 17.234375 -14.34375 C 16.566406 -14.96875 15.816406 -15.460938 14.984375 -15.828125 C 14.160156 -16.203125 13.285156 -16.390625 12.359375 -16.390625 L 12.359375 -1.953125 C 12.359375 -1.335938 12.394531 -0.882812 12.46875 -0.59375 C 12.550781 -0.3125 12.65625 -0.113281 12.78125 0 L 6.609375 0 C 6.734375 -0.113281 6.832031 -0.3125 6.90625 -0.59375 C 6.988281 -0.882812 7.03125 -1.335938 7.03125 -1.953125 L 7.03125 -16.390625 C 6.113281 -16.390625 5.242188 -16.203125 4.421875 -15.828125 C 3.597656 -15.460938 2.847656 -14.96875 2.171875 -14.34375 C 1.492188 -13.71875 0.925781 -12.992188 0.46875 -12.171875 L 0.796875 -16.515625 L 18.59375 -16.515625 Z M 18.921875 -12.171875 "/></g></g></g><g fill="#000000" fill-opacity="1"><g transform="translate(37.941156, 29.691601)"><g><path d="M 18.921875 -12.171875 C 18.460938 -12.992188 17.898438 -13.71875 17.234375 -14.34375 C 16.566406 -14.96875 15.816406 -15.460938 14.984375 -15.828125 C 14.160156 -16.203125 13.285156 -16.390625 12.359375 -16.390625 L 12.359375 -1.953125 C 12.359375 -1.335938 12.394531 -0.882812 12.46875 -0.59375 C 12.550781 -0.3125 12.65625 -0.113281 12.78125 0 L 6.609375 0 C 6.734375 -0.113281 6.832031 -0.3125 6.90625 -0.59375 C 6.988281 -0.882812 7.03125 -1.335938 7.03125 -1.953125 L 7.03125 -16.390625 C 6.113281 -16.390625 5.242188 -16.203125 4.421875 -15.828125 C 3.597656 -15.460938 2.847656 -14.96875 2.171875 -14.34375 C 1.492188 -13.71875 0.925781 -12.992188 0.46875 -12.171875 L 0.796875 -16.515625 L 18.59375 -16.515625 Z M 18.921875 -12.171875 "/></g></g></g><g fill="#000000" fill-opacity="1"><g transform="translate(57.32152, 29.691601)"><g><path d="M 6.390625 -0.078125 C 7.898438 -0.078125 9.304688 -0.457031 10.609375 -1.21875 C 11.921875 -1.976562 12.945312 -3.019531 13.6875 -4.34375 L 13.359375 0 L 0.46875 0 C 0.59375 -0.113281 0.691406 -0.3125 0.765625 -0.59375 C 0.847656 -0.882812 0.890625 -1.335938 0.890625 -1.953125 L 0.890625 -14.5625 C 0.890625 -15.175781 0.847656 -15.625 0.765625 -15.90625 C 0.691406 -16.195312 0.59375 -16.398438 0.46875 -16.515625 L 13.359375 -16.515625 L 13.6875 -12.171875 C 12.945312 -13.492188 11.921875 -14.535156 10.609375 -15.296875 C 9.304688 -16.054688 7.898438 -16.4375 6.390625 -16.4375 L 6.234375 -16.4375 L 6.234375 -8.3125 C 6.296875 -8.3125 6.484375 -8.316406 6.796875 -8.328125 C 7.109375 -8.347656 7.488281 -8.394531 7.9375 -8.46875 C 8.382812 -8.550781 8.847656 -8.671875 9.328125 -8.828125 C 9.804688 -8.992188 10.242188 -9.226562 10.640625 -9.53125 C 11.046875 -9.832031 11.351562 -10.21875 11.5625 -10.6875 L 11.5625 -5.828125 C 11.351562 -6.296875 11.046875 -6.679688 10.640625 -6.984375 C 10.242188 -7.285156 9.804688 -7.515625 9.328125 -7.671875 C 8.847656 -7.835938 8.382812 -7.957031 7.9375 -8.03125 C 7.488281 -8.113281 7.109375 -8.160156 6.796875 -8.171875 C 6.484375 -8.191406 6.296875 -8.203125 6.234375 -8.203125 L 6.234375 -0.078125 Z M 6.390625 -0.078125 "/></g></g></g><g fill="#000000" fill-opacity="1"><g transform="translate(71.46778, 29.691601)"><g><path d="M 3.15625 -14.234375 L 3.15625 -8.84375 C 3.15625 -6.707031 3.535156 -4.882812 4.296875 -3.375 C 5.066406 -1.863281 6.101562 -0.738281 7.40625 0 L 3.09375 0 L 3.09375 -14.296875 L 0.46875 -17.015625 L 7.390625 -17.015625 L 16.78125 -7.640625 L 16.78125 -8.15625 C 16.78125 -10.300781 16.394531 -12.128906 15.625 -13.640625 C 14.863281 -15.148438 13.832031 -16.273438 12.53125 -17.015625 L 16.875 -17.015625 L 16.875 0 Z M 3.15625 -14.234375 "/></g></g></g><g fill="#000000" fill-opacity="1"><g transform="translate(88.796936, 29.691601)"><g><path d="M 18.921875 -12.171875 C 18.460938 -12.992188 17.898438 -13.71875 17.234375 -14.34375 C 16.566406 -14.96875 15.816406 -15.460938 14.984375 -15.828125 C 14.160156 -16.203125 13.285156 -16.390625 12.359375 -16.390625 L 12.359375 -1.953125 C 12.359375 -1.335938 12.394531 -0.882812 12.46875 -0.59375 C 12.550781 -0.3125 12.65625 -0.113281 12.78125 0 L 6.609375 0 C 6.734375 -0.113281 6.832031 -0.3125 6.90625 -0.59375 C 6.988281 -0.882812 7.03125 -1.335938 7.03125 -1.953125 L 7.03125 -16.390625 C 6.113281 -16.390625 5.242188 -16.203125 4.421875 -15.828125 C 3.597656 -15.460938 2.847656 -14.96875 2.171875 -14.34375 C 1.492188 -13.71875 0.925781 -12.992188 0.46875 -12.171875 L 0.796875 -16.515625 L 18.59375 -16.515625 Z M 18.921875 -12.171875 "/></g></g></g><g fill="#000000" fill-opacity="1"><g transform="translate(108.177299, 29.691601)"><g><path d="M 0.46875 0 C 0.59375 -0.113281 0.691406 -0.3125 0.765625 -0.59375 C 0.847656 -0.882812 0.890625 -1.335938 0.890625 -1.953125 L 0.890625 -14.5625 C 0.890625 -15.175781 0.847656 -15.625 0.765625 -15.90625 C 0.691406 -16.195312 0.59375 -16.398438 0.46875 -16.515625 L 6.65625 -16.515625 C 6.507812 -16.398438 6.398438 -16.195312 6.328125 -15.90625 C 6.265625 -15.625 6.234375 -15.175781 6.234375 -14.5625 L 6.234375 -1.953125 C 6.234375 -1.335938 6.265625 -0.882812 6.328125 -0.59375 C 6.398438 -0.3125 6.507812 -0.113281 6.65625 0 Z M 0.46875 0 "/></g></g></g><g fill="#000000" fill-opacity="1"><g transform="translate(115.297582, 29.691601)"><g><path d="M 7.578125 -16.515625 C 8.546875 -16.515625 9.457031 -16.328125 10.3125 -15.953125 C 11.175781 -15.585938 11.929688 -15.078125 12.578125 -14.421875 C 13.234375 -13.773438 13.742188 -13.019531 14.109375 -12.15625 C 14.484375 -11.300781 14.671875 -10.382812 14.671875 -9.40625 L 14.671875 -7.109375 C 14.671875 -6.128906 14.484375 -5.207031 14.109375 -4.34375 C 13.742188 -3.488281 13.234375 -2.734375 12.578125 -2.078125 C 11.929688 -1.429688 11.175781 -0.921875 10.3125 -0.546875 C 9.457031 -0.179688 8.546875 0 7.578125 0 C 6.597656 0 5.675781 -0.179688 4.8125 -0.546875 C 3.957031 -0.921875 3.203125 -1.429688 2.546875 -2.078125 C 1.898438 -2.734375 1.390625 -3.488281 1.015625 -4.34375 C 0.648438 -5.207031 0.46875 -6.128906 0.46875 -7.109375 L 0.46875 -9.40625 C 0.46875 -10.382812 0.648438 -11.300781 1.015625 -12.15625 C 1.390625 -13.019531 1.898438 -13.773438 2.546875 -14.421875 C 3.203125 -15.078125 3.957031 -15.585938 4.8125 -15.953125 C 5.675781 -16.328125 6.597656 -16.515625 7.578125 -16.515625 Z M 9.34375 -1.84375 L 9.34375 -14.671875 C 9.320312 -15.160156 9.144531 -15.570312 8.8125 -15.90625 C 8.476562 -16.25 8.066406 -16.421875 7.578125 -16.421875 C 7.085938 -16.421875 6.664062 -16.25 6.3125 -15.90625 C 5.96875 -15.570312 5.796875 -15.160156 5.796875 -14.671875 L 5.796875 -1.84375 C 5.796875 -1.351562 5.96875 -0.9375 6.3125 -0.59375 C 6.664062 -0.257812 7.085938 -0.09375 7.578125 -0.09375 C 8.066406 -0.09375 8.476562 -0.257812 8.8125 -0.59375 C 9.144531 -0.9375 9.320312 -1.351562 9.34375 -1.84375 Z M 9.34375 -1.84375 "/></g></g></g><g fill="#000000" fill-opacity="1"><g transform="translate(130.434072, 29.691601)"><g><path d="M 3.15625 -14.234375 L 3.15625 -8.84375 C 3.15625 -6.707031 3.535156 -4.882812 4.296875 -3.375 C 5.066406 -1.863281 6.101562 -0.738281 7.40625 0 L 3.09375 0 L 3.09375 -14.296875 L 0.46875 -17.015625 L 7.390625 -17.015625 L 16.78125 -7.640625 L 16.78125 -8.15625 C 16.78125 -10.300781 16.394531 -12.128906 15.625 -13.640625 C 14.863281 -15.148438 13.832031 -16.273438 12.53125 -17.015625 L 16.875 -17.015625 L 16.875 0 Z M 3.15625 -14.234375 "/></g></g></g></svg>