<svg xmlns="http://www.w3.org/2000/svg" xmlns:xlink="http://www.w3.org/1999/xlink" width="200" zoomAndPan="magnify" viewBox="0 0 150 44.999999" height="60" preserveAspectRatio="xMidYMid meet" version="1.0"><defs><g/></defs><g fill="#000000" fill-opacity="1"><g transform="translate(2.26172, 30.752602)"><g><path d="M 7.59375 -3.390625 L 7.15625 0 L -0.28125 0 L 5.328125 -16.515625 L 12.03125 -16.515625 L 17.640625 0 L 10.265625 0 L 9.8125 -3.390625 Z M 8.890625 -10.3125 L 8.5 -10.3125 L 7.90625 -5.1875 L 9.46875 -5.1875 Z M 8.890625 -10.3125 "/></g></g></g><g fill="#000000" fill-opacity="1"><g transform="translate(19.615162, 30.752602)"><g><path d="M 14.703125 -16.515625 L 14.765625 -9.21875 L 9.625 -9.46875 L 10.765625 0 L 4.4375 0 L 5.546875 -9.46875 L 0.421875 -9.21875 L 0.46875 -16.515625 Z M 14.703125 -16.515625 "/></g></g></g><g fill="#000000" fill-opacity="1"><g transform="translate(34.799423, 30.752602)"><g><path d="M 14.703125 -16.515625 L 14.765625 -9.21875 L 9.625 -9.46875 L 10.765625 0 L 4.4375 0 L 5.546875 -9.46875 L 0.421875 -9.21875 L 0.46875 -16.515625 Z M 14.703125 -16.515625 "/></g></g></g><g fill="#000000" fill-opacity="1"><g transform="translate(49.983683, 30.752602)"><g><path d="M 14.375 -9.890625 L 6 -10.125 L 6 -9.15625 L 12.171875 -9.390625 L 12.171875 -7.265625 L 6 -7.5 L 6 -6.484375 L 14.890625 -6.90625 L 14.890625 0 L 0.65625 0 L 0.65625 -16.515625 L 14.375 -16.515625 Z M 14.375 -9.890625 "/></g></g></g><g fill="#000000" fill-opacity="1"><g transform="translate(65.309415, 30.752602)"><g><path d="M 16.96875 0 L 11.9375 0 L 6.46875 -9.203125 L 6.15625 -9.109375 L 7.671875 0 L 0.65625 0 L 0.65625 -16.515625 L 5.828125 -16.515625 L 11.140625 -9.203125 L 11.484375 -9.296875 L 10.265625 -16.515625 L 16.96875 -16.515625 Z M 16.96875 0 "/></g></g></g><g fill="#000000" fill-opacity="1"><g transform="translate(82.922215, 30.752602)"><g><path d="M 14.703125 -16.515625 L 14.765625 -9.21875 L 9.625 -9.46875 L 10.765625 0 L 4.4375 0 L 5.546875 -9.46875 L 0.421875 -9.21875 L 0.46875 -16.515625 Z M 14.703125 -16.515625 "/></g></g></g><g fill="#000000" fill-opacity="1"><g transform="translate(98.106475, 30.752602)"><g><path d="M 0.46875 -9.34375 L 0.46875 -16.515625 L 13.59375 -16.515625 L 13.59375 -9.34375 L 9.40625 -9.671875 L 9.484375 -6.84375 L 13.59375 -7.171875 L 13.59375 0 L 0.46875 0 L 0.46875 -7.171875 L 4.578125 -6.84375 L 4.640625 -9.671875 Z M 0.46875 -9.34375 "/></g></g></g><g fill="#000000" fill-opacity="1"><g transform="translate(112.158995, 30.752602)"><g><path d="M 8.984375 0.359375 C 7.316406 0.359375 5.835938 0.03125 4.546875 -0.625 C 3.265625 -1.289062 2.253906 -2.265625 1.515625 -3.546875 C 0.785156 -4.828125 0.421875 -6.40625 0.421875 -8.28125 C 0.421875 -10.15625 0.785156 -11.726562 1.515625 -13 C 2.253906 -14.269531 3.265625 -15.234375 4.546875 -15.890625 C 5.835938 -16.546875 7.316406 -16.875 8.984375 -16.875 C 10.648438 -16.875 12.128906 -16.546875 13.421875 -15.890625 C 14.710938 -15.234375 15.722656 -14.269531 16.453125 -13 C 17.179688 -11.726562 17.546875 -10.15625 17.546875 -8.28125 C 17.546875 -6.40625 17.179688 -4.828125 16.453125 -3.546875 C 15.722656 -2.265625 14.710938 -1.289062 13.421875 -0.625 C 12.128906 0.03125 10.648438 0.359375 8.984375 0.359375 Z M 8.984375 -6.65625 C 9.929688 -6.65625 10.691406 -6.796875 11.265625 -7.078125 C 11.835938 -7.359375 12.125 -7.75 12.125 -8.25 C 12.125 -8.757812 11.835938 -9.15625 11.265625 -9.4375 C 10.691406 -9.71875 9.929688 -9.859375 8.984375 -9.859375 C 8.023438 -9.859375 7.257812 -9.71875 6.6875 -9.4375 C 6.125 -9.15625 5.84375 -8.757812 5.84375 -8.25 C 5.84375 -7.75 6.125 -7.359375 6.6875 -7.078125 C 7.257812 -6.796875 8.023438 -6.65625 8.984375 -6.65625 Z M 8.984375 -6.65625 "/></g></g></g><g fill="#000000" fill-opacity="1"><g transform="translate(130.125463, 30.752602)"><g><path d="M 16.96875 0 L 11.9375 0 L 6.46875 -9.203125 L 6.15625 -9.109375 L 7.671875 0 L 0.65625 0 L 0.65625 -16.515625 L 5.828125 -16.515625 L 11.140625 -9.203125 L 11.484375 -9.296875 L 10.265625 -16.515625 L 16.96875 -16.515625 Z M 16.96875 0 "/></g></g></g></svg>