<svg xmlns="http://www.w3.org/2000/svg" xmlns:xlink="http://www.w3.org/1999/xlink" width="200" zoomAndPan="magnify" viewBox="0 0 150 44.999999" height="60" preserveAspectRatio="xMidYMid meet" version="1.0"><defs><g/></defs><g fill="#000000" fill-opacity="1"><g transform="translate(1.367349, 26.869179)"><g><path d="M 6.546875 0 L 0.6875 0 L 0.6875 -0.734375 C 0.6875 -1.597656 0.84375 -2.328125 1.15625 -2.921875 C 1.476562 -3.523438 1.898438 -4.019531 2.421875 -4.40625 C 2.941406 -4.789062 3.515625 -5.101562 4.140625 -5.34375 C 4.765625 -5.582031 5.390625 -5.765625 6.015625 -5.890625 C 6.640625 -6.023438 7.210938 -6.128906 7.734375 -6.203125 C 8.253906 -6.273438 8.675781 -6.351562 9 -6.4375 C 9.320312 -6.519531 9.484375 -6.640625 9.484375 -6.796875 C 9.484375 -6.960938 9.367188 -7.066406 9.140625 -7.109375 C 8.921875 -7.160156 8.632812 -7.1875 8.28125 -7.1875 C 8.113281 -7.1875 7.929688 -7.179688 7.734375 -7.171875 C 7.535156 -7.171875 7.332031 -7.171875 7.125 -7.171875 C 6.644531 -7.171875 6.15625 -7.203125 5.65625 -7.265625 C 5.15625 -7.335938 4.6875 -7.472656 4.25 -7.671875 C 3.820312 -7.878906 3.476562 -8.203125 3.21875 -8.640625 C 2.96875 -9.078125 2.84375 -9.671875 2.84375 -10.421875 C 2.84375 -11.222656 3.039062 -11.960938 3.4375 -12.640625 C 3.832031 -13.328125 4.335938 -13.921875 4.953125 -14.421875 C 5.578125 -14.921875 6.226562 -15.3125 6.90625 -15.59375 C 7.582031 -15.875 8.195312 -16.015625 8.75 -16.015625 L 9.15625 -16.015625 C 10.226562 -16.015625 11.148438 -15.726562 11.921875 -15.15625 C 12.703125 -14.59375 13.359375 -13.828125 13.890625 -12.859375 C 14.429688 -11.898438 14.867188 -10.835938 15.203125 -9.671875 C 15.535156 -8.503906 15.789062 -7.316406 15.96875 -6.109375 C 16.144531 -4.898438 16.265625 -3.765625 16.328125 -2.703125 C 16.398438 -1.648438 16.4375 -0.75 16.4375 0 L 11.0625 0 C 11.0625 -1.570312 11.046875 -3.097656 11.015625 -4.578125 C 10.984375 -6.054688 10.925781 -7.429688 10.84375 -8.703125 C 10.769531 -9.984375 10.648438 -11.097656 10.484375 -12.046875 C 10.328125 -13.003906 10.117188 -13.753906 9.859375 -14.296875 C 9.609375 -14.835938 9.289062 -15.109375 8.90625 -15.109375 C 8.707031 -15.109375 8.507812 -14.984375 8.3125 -14.734375 C 8.125 -14.484375 7.953125 -14.15625 7.796875 -13.75 C 7.648438 -13.351562 7.53125 -12.945312 7.4375 -12.53125 C 7.34375 -12.125 7.296875 -11.757812 7.296875 -11.4375 C 7.296875 -10.894531 7.398438 -10.441406 7.609375 -10.078125 C 7.816406 -9.722656 8.078125 -9.414062 8.390625 -9.15625 C 8.703125 -8.894531 9.007812 -8.65625 9.3125 -8.4375 C 9.625 -8.21875 9.878906 -7.976562 10.078125 -7.71875 C 10.285156 -7.46875 10.390625 -7.171875 10.390625 -6.828125 C 10.390625 -6.367188 10.257812 -6.007812 10 -5.75 C 9.738281 -5.488281 9.414062 -5.269531 9.03125 -5.09375 C 8.65625 -4.914062 8.273438 -4.71875 7.890625 -4.5 C 7.515625 -4.28125 7.195312 -3.972656 6.9375 -3.578125 C 6.675781 -3.191406 6.546875 -2.660156 6.546875 -1.984375 Z M 6.546875 0 "/></g></g></g><g fill="#000000" fill-opacity="1"><g transform="translate(18.481103, 26.869179)"><g><path d="M 2.5625 -16.015625 L 15.5 -16.015625 C 16.070312 -16.015625 16.523438 -15.863281 16.859375 -15.5625 C 17.203125 -15.257812 17.375 -14.816406 17.375 -14.234375 C 17.375 -13.859375 17.332031 -13.515625 17.25 -13.203125 C 17.164062 -12.890625 17.078125 -12.5625 16.984375 -12.21875 C 16.890625 -11.875 16.84375 -11.457031 16.84375 -10.96875 C 16.84375 -10.40625 16.921875 -9.960938 17.078125 -9.640625 C 17.234375 -9.328125 17.3125 -9.171875 17.3125 -9.171875 C 17.3125 -9.160156 17.125 -9.113281 16.75 -9.03125 C 16.382812 -8.945312 15.953125 -8.90625 15.453125 -8.90625 C 14.960938 -8.90625 14.457031 -8.988281 13.9375 -9.15625 C 13.414062 -9.320312 12.976562 -9.632812 12.625 -10.09375 C 12.28125 -10.550781 12.109375 -11.222656 12.109375 -12.109375 C 12.109375 -12.472656 12.160156 -12.832031 12.265625 -13.1875 C 12.367188 -13.539062 12.460938 -13.859375 12.546875 -14.140625 C 12.640625 -14.429688 12.648438 -14.660156 12.578125 -14.828125 C 12.503906 -14.992188 12.285156 -15.078125 11.921875 -15.078125 C 11.515625 -15.078125 11.238281 -14.851562 11.09375 -14.40625 C 10.945312 -13.957031 10.890625 -13.34375 10.921875 -12.5625 C 10.953125 -11.789062 11.03125 -10.898438 11.15625 -9.890625 C 11.289062 -8.878906 11.441406 -7.804688 11.609375 -6.671875 C 11.773438 -5.546875 11.914062 -4.410156 12.03125 -3.265625 C 12.15625 -2.128906 12.21875 -1.039062 12.21875 0 L 6.21875 0 C 6.21875 -0.332031 6.257812 -0.851562 6.34375 -1.5625 C 6.4375 -2.269531 6.539062 -3.085938 6.65625 -4.015625 C 6.78125 -4.953125 6.898438 -5.925781 7.015625 -6.9375 C 7.128906 -7.945312 7.210938 -8.9375 7.265625 -9.90625 C 7.316406 -10.875 7.316406 -11.742188 7.265625 -12.515625 C 7.210938 -13.296875 7.082031 -13.914062 6.875 -14.375 C 6.664062 -14.84375 6.359375 -15.078125 5.953125 -15.078125 C 5.585938 -15.078125 5.367188 -14.992188 5.296875 -14.828125 C 5.234375 -14.660156 5.242188 -14.429688 5.328125 -14.140625 C 5.410156 -13.859375 5.503906 -13.535156 5.609375 -13.171875 C 5.710938 -12.816406 5.765625 -12.445312 5.765625 -12.0625 C 5.765625 -11.195312 5.597656 -10.535156 5.265625 -10.078125 C 4.929688 -9.628906 4.519531 -9.320312 4.03125 -9.15625 C 3.539062 -8.988281 3.050781 -8.90625 2.5625 -8.90625 C 2.09375 -8.90625 1.675781 -8.945312 1.3125 -9.03125 C 0.957031 -9.113281 0.769531 -9.160156 0.75 -9.171875 C 0.75 -9.171875 0.828125 -9.328125 0.984375 -9.640625 C 1.140625 -9.960938 1.21875 -10.40625 1.21875 -10.96875 C 1.21875 -11.457031 1.175781 -11.875 1.09375 -12.21875 C 1.007812 -12.5625 0.921875 -12.890625 0.828125 -13.203125 C 0.734375 -13.515625 0.6875 -13.859375 0.6875 -14.234375 C 0.6875 -14.816406 0.851562 -15.257812 1.1875 -15.5625 C 1.519531 -15.863281 1.976562 -16.015625 2.5625 -16.015625 Z M 2.5625 -16.015625 "/></g></g></g><g fill="#000000" fill-opacity="1"><g transform="translate(36.532916, 26.869179)"><g><path d="M 2.5625 -16.015625 L 15.5 -16.015625 C 16.070312 -16.015625 16.523438 -15.863281 16.859375 -15.5625 C 17.203125 -15.257812 17.375 -14.816406 17.375 -14.234375 C 17.375 -13.859375 17.332031 -13.515625 17.25 -13.203125 C 17.164062 -12.890625 17.078125 -12.5625 16.984375 -12.21875 C 16.890625 -11.875 16.84375 -11.457031 16.84375 -10.96875 C 16.84375 -10.40625 16.921875 -9.960938 17.078125 -9.640625 C 17.234375 -9.328125 17.3125 -9.171875 17.3125 -9.171875 C 17.3125 -9.160156 17.125 -9.113281 16.75 -9.03125 C 16.382812 -8.945312 15.953125 -8.90625 15.453125 -8.90625 C 14.960938 -8.90625 14.457031 -8.988281 13.9375 -9.15625 C 13.414062 -9.320312 12.976562 -9.632812 12.625 -10.09375 C 12.28125 -10.550781 12.109375 -11.222656 12.109375 -12.109375 C 12.109375 -12.472656 12.160156 -12.832031 12.265625 -13.1875 C 12.367188 -13.539062 12.460938 -13.859375 12.546875 -14.140625 C 12.640625 -14.429688 12.648438 -14.660156 12.578125 -14.828125 C 12.503906 -14.992188 12.285156 -15.078125 11.921875 -15.078125 C 11.515625 -15.078125 11.238281 -14.851562 11.09375 -14.40625 C 10.945312 -13.957031 10.890625 -13.34375 10.921875 -12.5625 C 10.953125 -11.789062 11.03125 -10.898438 11.15625 -9.890625 C 11.289062 -8.878906 11.441406 -7.804688 11.609375 -6.671875 C 11.773438 -5.546875 11.914062 -4.410156 12.03125 -3.265625 C 12.15625 -2.128906 12.21875 -1.039062 12.21875 0 L 6.21875 0 C 6.21875 -0.332031 6.257812 -0.851562 6.34375 -1.5625 C 6.4375 -2.269531 6.539062 -3.085938 6.65625 -4.015625 C 6.78125 -4.953125 6.898438 -5.925781 7.015625 -6.9375 C 7.128906 -7.945312 7.210938 -8.9375 7.265625 -9.90625 C 7.316406 -10.875 7.316406 -11.742188 7.265625 -12.515625 C 7.210938 -13.296875 7.082031 -13.914062 6.875 -14.375 C 6.664062 -14.84375 6.359375 -15.078125 5.953125 -15.078125 C 5.585938 -15.078125 5.367188 -14.992188 5.296875 -14.828125 C 5.234375 -14.660156 5.242188 -14.429688 5.328125 -14.140625 C 5.410156 -13.859375 5.503906 -13.535156 5.609375 -13.171875 C 5.710938 -12.816406 5.765625 -12.445312 5.765625 -12.0625 C 5.765625 -11.195312 5.597656 -10.535156 5.265625 -10.078125 C 4.929688 -9.628906 4.519531 -9.320312 4.03125 -9.15625 C 3.539062 -8.988281 3.050781 -8.90625 2.5625 -8.90625 C 2.09375 -8.90625 1.675781 -8.945312 1.3125 -9.03125 C 0.957031 -9.113281 0.769531 -9.160156 0.75 -9.171875 C 0.75 -9.171875 0.828125 -9.328125 0.984375 -9.640625 C 1.140625 -9.960938 1.21875 -10.40625 1.21875 -10.96875 C 1.21875 -11.457031 1.175781 -11.875 1.09375 -12.21875 C 1.007812 -12.5625 0.921875 -12.890625 0.828125 -13.203125 C 0.734375 -13.515625 0.6875 -13.859375 0.6875 -14.234375 C 0.6875 -14.816406 0.851562 -15.257812 1.1875 -15.5625 C 1.519531 -15.863281 1.976562 -16.015625 2.5625 -16.015625 Z M 2.5625 -16.015625 "/></g></g></g><g fill="#000000" fill-opacity="1"><g transform="translate(54.58473, 26.869179)"><g><path d="M 0.6875 -16.015625 C 0.6875 -16.015625 0.914062 -16.015625 1.375 -16.015625 C 1.832031 -16.015625 2.421875 -16.015625 3.140625 -16.015625 C 3.859375 -16.015625 4.613281 -16.015625 5.40625 -16.015625 C 6.207031 -16.015625 6.96875 -16.015625 7.6875 -16.015625 C 8.40625 -16.015625 8.992188 -16.015625 9.453125 -16.015625 C 9.910156 -16.015625 10.140625 -16.015625 10.140625 -16.015625 C 10.640625 -16.015625 11.132812 -15.976562 11.625 -15.90625 C 12.113281 -15.84375 12.554688 -15.707031 12.953125 -15.5 C 13.347656 -15.300781 13.664062 -14.988281 13.90625 -14.5625 C 14.15625 -14.132812 14.28125 -13.5625 14.28125 -12.84375 C 14.28125 -11.894531 13.976562 -11.113281 13.375 -10.5 C 12.769531 -9.894531 12.003906 -9.59375 11.078125 -9.59375 C 10.421875 -9.59375 9.898438 -9.707031 9.515625 -9.9375 C 9.140625 -10.175781 8.851562 -10.445312 8.65625 -10.75 C 8.46875 -11.0625 8.347656 -11.332031 8.296875 -11.5625 C 8.242188 -11.800781 8.21875 -11.921875 8.21875 -11.921875 C 8.21875 -11.921875 8.28125 -11.96875 8.40625 -12.0625 C 8.539062 -12.15625 8.664062 -12.316406 8.78125 -12.546875 C 8.90625 -12.773438 8.96875 -13.09375 8.96875 -13.5 C 8.96875 -13.945312 8.816406 -14.328125 8.515625 -14.640625 C 8.222656 -14.953125 7.816406 -15.109375 7.296875 -15.109375 C 6.691406 -15.109375 6.210938 -14.863281 5.859375 -14.375 C 5.503906 -13.882812 5.328125 -13.320312 5.328125 -12.6875 C 5.328125 -12.03125 5.429688 -11.5 5.640625 -11.09375 C 5.859375 -10.695312 6.128906 -10.390625 6.453125 -10.171875 C 6.773438 -9.953125 7.09375 -9.757812 7.40625 -9.59375 C 7.726562 -9.4375 7.992188 -9.265625 8.203125 -9.078125 C 8.421875 -8.890625 8.53125 -8.625 8.53125 -8.28125 C 8.53125 -7.976562 8.453125 -7.71875 8.296875 -7.5 C 8.140625 -7.289062 7.9375 -7.09375 7.6875 -6.90625 C 7.445312 -6.726562 7.203125 -6.515625 6.953125 -6.265625 C 6.710938 -6.023438 6.507812 -5.71875 6.34375 -5.34375 C 6.1875 -4.96875 6.109375 -4.492188 6.109375 -3.921875 C 6.109375 -3.429688 6.210938 -2.953125 6.421875 -2.484375 C 6.628906 -2.015625 6.90625 -1.632812 7.25 -1.34375 C 7.601562 -1.0625 8.007812 -0.921875 8.46875 -0.921875 C 8.9375 -0.921875 9.296875 -1.082031 9.546875 -1.40625 C 9.804688 -1.738281 9.9375 -2.203125 9.9375 -2.796875 C 9.9375 -3.367188 9.875 -3.832031 9.75 -4.1875 C 9.625 -4.550781 9.492188 -4.8125 9.359375 -4.96875 C 9.234375 -5.132812 9.171875 -5.21875 9.171875 -5.21875 C 9.171875 -5.21875 9.179688 -5.304688 9.203125 -5.484375 C 9.234375 -5.671875 9.320312 -5.878906 9.46875 -6.109375 C 9.613281 -6.335938 9.859375 -6.539062 10.203125 -6.71875 C 10.554688 -6.90625 11.054688 -7 11.703125 -7 C 12.367188 -7 12.925781 -6.847656 13.375 -6.546875 C 13.832031 -6.253906 14.171875 -5.867188 14.390625 -5.390625 C 14.609375 -4.910156 14.71875 -4.378906 14.71875 -3.796875 C 14.71875 -3.066406 14.578125 -2.457031 14.296875 -1.96875 C 14.023438 -1.476562 13.679688 -1.085938 13.265625 -0.796875 C 12.847656 -0.503906 12.398438 -0.296875 11.921875 -0.171875 C 11.453125 -0.0546875 11.007812 0 10.59375 0 L 3 0 C 2.40625 0 1.945312 -0.144531 1.625 -0.4375 C 1.300781 -0.738281 1.070312 -1.109375 0.9375 -1.546875 C 0.8125 -1.984375 0.75 -2.40625 0.75 -2.8125 C 0.75 -3.664062 0.910156 -4.375 1.234375 -4.9375 C 1.554688 -5.507812 1.96875 -5.96875 2.46875 -6.3125 C 2.976562 -6.65625 3.515625 -6.925781 4.078125 -7.125 C 4.648438 -7.320312 5.1875 -7.472656 5.6875 -7.578125 C 6.195312 -7.679688 6.613281 -7.785156 6.9375 -7.890625 C 7.257812 -8.003906 7.421875 -8.132812 7.421875 -8.28125 C 7.421875 -8.445312 7.273438 -8.53125 6.984375 -8.53125 C 6.753906 -8.53125 6.453125 -8.492188 6.078125 -8.421875 C 5.703125 -8.347656 5.304688 -8.269531 4.890625 -8.1875 C 4.484375 -8.113281 4.097656 -8.078125 3.734375 -8.078125 C 2.972656 -8.078125 2.390625 -8.175781 1.984375 -8.375 C 1.578125 -8.570312 1.296875 -8.847656 1.140625 -9.203125 C 0.992188 -9.566406 0.921875 -9.992188 0.921875 -10.484375 C 0.921875 -11.066406 0.972656 -11.6875 1.078125 -12.34375 C 1.179688 -13 1.234375 -13.644531 1.234375 -14.28125 C 1.234375 -14.863281 1.140625 -15.296875 0.953125 -15.578125 C 0.773438 -15.867188 0.6875 -16.015625 0.6875 -16.015625 Z M 0.6875 -16.015625 "/></g></g></g><g fill="#000000" fill-opacity="1"><g transform="translate(69.982533, 26.869179)"><g><path d="M 0.6875 0 C 0.6875 -1.269531 0.742188 -2.382812 0.859375 -3.34375 C 0.972656 -4.300781 1.101562 -5.195312 1.25 -6.03125 C 1.394531 -6.875 1.523438 -7.734375 1.640625 -8.609375 C 1.753906 -9.492188 1.8125 -10.476562 1.8125 -11.5625 C 1.8125 -12.582031 1.71875 -13.421875 1.53125 -14.078125 C 1.351562 -14.734375 1.164062 -15.21875 0.96875 -15.53125 C 0.78125 -15.851562 0.6875 -16.015625 0.6875 -16.015625 C 0.6875 -16.015625 0.875 -16.015625 1.25 -16.015625 C 1.625 -16.015625 2.082031 -16.015625 2.625 -16.015625 C 3.175781 -16.015625 3.726562 -16.015625 4.28125 -16.015625 C 4.84375 -16.015625 5.3125 -16.015625 5.6875 -16.015625 C 6.0625 -16.015625 6.25 -16.015625 6.25 -16.015625 C 6.738281 -16.015625 7.140625 -15.816406 7.453125 -15.421875 C 7.773438 -15.023438 8.046875 -14.503906 8.265625 -13.859375 C 8.492188 -13.210938 8.691406 -12.5 8.859375 -11.71875 C 9.023438 -10.9375 9.191406 -10.15625 9.359375 -9.375 C 9.523438 -8.601562 9.71875 -7.890625 9.9375 -7.234375 C 10.164062 -6.585938 10.441406 -6.066406 10.765625 -5.671875 C 11.097656 -5.273438 11.507812 -5.078125 12 -5.078125 C 12.34375 -5.078125 12.570312 -5.226562 12.6875 -5.53125 C 12.800781 -5.84375 12.835938 -6.253906 12.796875 -6.765625 C 12.765625 -7.273438 12.691406 -7.859375 12.578125 -8.515625 C 12.472656 -9.171875 12.367188 -9.851562 12.265625 -10.5625 C 12.171875 -11.269531 12.125 -11.960938 12.125 -12.640625 C 12.125 -13.378906 12.175781 -13.972656 12.28125 -14.421875 C 12.394531 -14.878906 12.523438 -15.222656 12.671875 -15.453125 C 12.816406 -15.679688 12.941406 -15.832031 13.046875 -15.90625 C 13.148438 -15.976562 13.203125 -16.015625 13.203125 -16.015625 C 13.203125 -16.015625 13.347656 -16.015625 13.640625 -16.015625 C 13.929688 -16.015625 14.289062 -16.015625 14.71875 -16.015625 C 15.15625 -16.015625 15.585938 -16.015625 16.015625 -16.015625 C 16.453125 -16.015625 16.8125 -16.015625 17.09375 -16.015625 C 17.382812 -16.015625 17.53125 -16.015625 17.53125 -16.015625 C 17.257812 -15.609375 17.039062 -15.148438 16.875 -14.640625 C 16.71875 -14.140625 16.609375 -13.648438 16.546875 -13.171875 C 16.484375 -12.703125 16.441406 -12.316406 16.421875 -12.015625 C 16.410156 -11.710938 16.40625 -11.5625 16.40625 -11.5625 C 16.40625 -10.476562 16.460938 -9.492188 16.578125 -8.609375 C 16.691406 -7.734375 16.820312 -6.875 16.96875 -6.03125 C 17.113281 -5.195312 17.242188 -4.300781 17.359375 -3.34375 C 17.472656 -2.382812 17.53125 -1.269531 17.53125 0 L 11.96875 0 C 11.476562 0 11.078125 -0.191406 10.765625 -0.578125 C 10.453125 -0.972656 10.195312 -1.492188 10 -2.140625 C 9.800781 -2.785156 9.628906 -3.5 9.484375 -4.28125 C 9.335938 -5.0625 9.191406 -5.835938 9.046875 -6.609375 C 8.898438 -7.378906 8.726562 -8.085938 8.53125 -8.734375 C 8.332031 -9.378906 8.078125 -9.894531 7.765625 -10.28125 C 7.453125 -10.675781 7.050781 -10.875 6.5625 -10.875 C 6.226562 -10.875 5.992188 -10.644531 5.859375 -10.1875 C 5.722656 -9.726562 5.660156 -9.125 5.671875 -8.375 C 5.691406 -7.625 5.75 -6.816406 5.84375 -5.953125 C 5.945312 -5.097656 6.054688 -4.257812 6.171875 -3.4375 C 6.296875 -2.613281 6.40625 -1.890625 6.5 -1.265625 C 6.601562 -0.648438 6.65625 -0.226562 6.65625 0 Z M 0.6875 0 "/></g></g></g><g fill="#000000" fill-opacity="1"><g transform="translate(88.194502, 26.869179)"><g><path d="M 2.5625 -16.015625 L 15.5 -16.015625 C 16.070312 -16.015625 16.523438 -15.863281 16.859375 -15.5625 C 17.203125 -15.257812 17.375 -14.816406 17.375 -14.234375 C 17.375 -13.859375 17.332031 -13.515625 17.25 -13.203125 C 17.164062 -12.890625 17.078125 -12.5625 16.984375 -12.21875 C 16.890625 -11.875 16.84375 -11.457031 16.84375 -10.96875 C 16.84375 -10.40625 16.921875 -9.960938 17.078125 -9.640625 C 17.234375 -9.328125 17.3125 -9.171875 17.3125 -9.171875 C 17.3125 -9.160156 17.125 -9.113281 16.75 -9.03125 C 16.382812 -8.945312 15.953125 -8.90625 15.453125 -8.90625 C 14.960938 -8.90625 14.457031 -8.988281 13.9375 -9.15625 C 13.414062 -9.320312 12.976562 -9.632812 12.625 -10.09375 C 12.28125 -10.550781 12.109375 -11.222656 12.109375 -12.109375 C 12.109375 -12.472656 12.160156 -12.832031 12.265625 -13.1875 C 12.367188 -13.539062 12.460938 -13.859375 12.546875 -14.140625 C 12.640625 -14.429688 12.648438 -14.660156 12.578125 -14.828125 C 12.503906 -14.992188 12.285156 -15.078125 11.921875 -15.078125 C 11.515625 -15.078125 11.238281 -14.851562 11.09375 -14.40625 C 10.945312 -13.957031 10.890625 -13.34375 10.921875 -12.5625 C 10.953125 -11.789062 11.03125 -10.898438 11.15625 -9.890625 C 11.289062 -8.878906 11.441406 -7.804688 11.609375 -6.671875 C 11.773438 -5.546875 11.914062 -4.410156 12.03125 -3.265625 C 12.15625 -2.128906 12.21875 -1.039062 12.21875 0 L 6.21875 0 C 6.21875 -0.332031 6.257812 -0.851562 6.34375 -1.5625 C 6.4375 -2.269531 6.539062 -3.085938 6.65625 -4.015625 C 6.78125 -4.953125 6.898438 -5.925781 7.015625 -6.9375 C 7.128906 -7.945312 7.210938 -8.9375 7.265625 -9.90625 C 7.316406 -10.875 7.316406 -11.742188 7.265625 -12.515625 C 7.210938 -13.296875 7.082031 -13.914062 6.875 -14.375 C 6.664062 -14.84375 6.359375 -15.078125 5.953125 -15.078125 C 5.585938 -15.078125 5.367188 -14.992188 5.296875 -14.828125 C 5.234375 -14.660156 5.242188 -14.429688 5.328125 -14.140625 C 5.410156 -13.859375 5.503906 -13.535156 5.609375 -13.171875 C 5.710938 -12.816406 5.765625 -12.445312 5.765625 -12.0625 C 5.765625 -11.195312 5.597656 -10.535156 5.265625 -10.078125 C 4.929688 -9.628906 4.519531 -9.320312 4.03125 -9.15625 C 3.539062 -8.988281 3.050781 -8.90625 2.5625 -8.90625 C 2.09375 -8.90625 1.675781 -8.945312 1.3125 -9.03125 C 0.957031 -9.113281 0.769531 -9.160156 0.75 -9.171875 C 0.75 -9.171875 0.828125 -9.328125 0.984375 -9.640625 C 1.140625 -9.960938 1.21875 -10.40625 1.21875 -10.96875 C 1.21875 -11.457031 1.175781 -11.875 1.09375 -12.21875 C 1.007812 -12.5625 0.921875 -12.890625 0.828125 -13.203125 C 0.734375 -13.515625 0.6875 -13.859375 0.6875 -14.234375 C 0.6875 -14.816406 0.851562 -15.257812 1.1875 -15.5625 C 1.519531 -15.863281 1.976562 -16.015625 2.5625 -16.015625 Z M 2.5625 -16.015625 "/></g></g></g><g fill="#000000" fill-opacity="1"><g transform="translate(106.246315, 26.869179)"><g><path d="M 6.65625 0 L 0.6875 0 C 0.6875 -1.269531 0.742188 -2.382812 0.859375 -3.34375 C 0.972656 -4.300781 1.101562 -5.195312 1.25 -6.03125 C 1.394531 -6.875 1.523438 -7.734375 1.640625 -8.609375 C 1.753906 -9.492188 1.8125 -10.476562 1.8125 -11.5625 C 1.8125 -12.582031 1.71875 -13.421875 1.53125 -14.078125 C 1.351562 -14.734375 1.164062 -15.21875 0.96875 -15.53125 C 0.78125 -15.851562 0.6875 -16.015625 0.6875 -16.015625 C 0.6875 -16.015625 0.851562 -16.015625 1.1875 -16.015625 C 1.519531 -16.015625 1.9375 -16.015625 2.4375 -16.015625 C 2.9375 -16.015625 3.425781 -16.015625 3.90625 -16.015625 C 4.394531 -16.015625 4.804688 -16.015625 5.140625 -16.015625 C 5.484375 -16.015625 5.65625 -16.015625 5.65625 -16.015625 C 5.820312 -15.710938 5.9375 -15.382812 6 -15.03125 C 6.0625 -14.6875 6.097656 -14.390625 6.109375 -14.140625 C 6.128906 -13.898438 6.140625 -13.78125 6.140625 -13.78125 C 6.140625 -12.820312 6.007812 -12.003906 5.75 -11.328125 C 5.5 -10.660156 5.1875 -10.097656 4.8125 -9.640625 C 4.4375 -9.179688 4.054688 -8.800781 3.671875 -8.5 C 3.296875 -8.207031 2.984375 -7.945312 2.734375 -7.71875 C 2.484375 -7.5 2.359375 -7.289062 2.359375 -7.09375 C 2.359375 -6.894531 2.460938 -6.796875 2.671875 -6.796875 C 2.847656 -6.796875 3.054688 -6.820312 3.296875 -6.875 C 3.535156 -6.925781 3.796875 -6.953125 4.078125 -6.953125 C 4.378906 -6.953125 4.679688 -6.882812 4.984375 -6.75 C 5.296875 -6.613281 5.578125 -6.347656 5.828125 -5.953125 C 6.078125 -5.554688 6.273438 -4.976562 6.421875 -4.21875 C 6.578125 -3.46875 6.65625 -2.472656 6.65625 -1.234375 Z M 6.65625 0 "/></g></g></g><g fill="#000000" fill-opacity="1"><g transform="translate(113.590585, 26.869179)"><g><path d="M 0.6875 -2.890625 C 0.6875 -3.484375 0.816406 -3.988281 1.078125 -4.40625 C 1.335938 -4.820312 1.671875 -5.179688 2.078125 -5.484375 C 2.492188 -5.796875 2.929688 -6.0625 3.390625 -6.28125 C 3.847656 -6.5 4.28125 -6.703125 4.6875 -6.890625 C 5.101562 -7.078125 5.441406 -7.253906 5.703125 -7.421875 C 5.960938 -7.597656 6.09375 -7.796875 6.09375 -8.015625 C 6.09375 -8.222656 5.960938 -8.414062 5.703125 -8.59375 C 5.441406 -8.769531 5.101562 -8.945312 4.6875 -9.125 C 4.28125 -9.300781 3.847656 -9.5 3.390625 -9.71875 C 2.929688 -9.9375 2.492188 -10.195312 2.078125 -10.5 C 1.671875 -10.8125 1.335938 -11.179688 1.078125 -11.609375 C 0.816406 -12.035156 0.6875 -12.535156 0.6875 -13.109375 C 0.6875 -13.554688 0.796875 -14 1.015625 -14.4375 C 1.234375 -14.882812 1.585938 -15.257812 2.078125 -15.5625 C 2.566406 -15.863281 3.191406 -16.015625 3.953125 -16.015625 L 12.859375 -16.015625 C 13.628906 -16.015625 14.253906 -15.863281 14.734375 -15.5625 C 15.210938 -15.257812 15.566406 -14.882812 15.796875 -14.4375 C 16.023438 -14 16.140625 -13.554688 16.140625 -13.109375 C 16.140625 -12.535156 16.007812 -12.035156 15.75 -11.609375 C 15.488281 -11.179688 15.148438 -10.8125 14.734375 -10.5 C 14.328125 -10.195312 13.894531 -9.9375 13.4375 -9.71875 C 12.976562 -9.5 12.539062 -9.300781 12.125 -9.125 C 11.71875 -8.945312 11.382812 -8.769531 11.125 -8.59375 C 10.863281 -8.414062 10.734375 -8.222656 10.734375 -8.015625 C 10.734375 -7.796875 10.863281 -7.597656 11.125 -7.421875 C 11.382812 -7.253906 11.71875 -7.078125 12.125 -6.890625 C 12.539062 -6.703125 12.976562 -6.5 13.4375 -6.28125 C 13.894531 -6.0625 14.328125 -5.796875 14.734375 -5.484375 C 15.148438 -5.179688 15.488281 -4.820312 15.75 -4.40625 C 16.007812 -3.988281 16.140625 -3.484375 16.140625 -2.890625 C 16.140625 -2.460938 16.023438 -2.019531 15.796875 -1.5625 C 15.566406 -1.113281 15.210938 -0.738281 14.734375 -0.4375 C 14.253906 -0.144531 13.628906 0 12.859375 0 L 3.953125 0 C 3.191406 0 2.566406 -0.144531 2.078125 -0.4375 C 1.585938 -0.738281 1.234375 -1.113281 1.015625 -1.5625 C 0.796875 -2.019531 0.6875 -2.460938 0.6875 -2.890625 Z M 6.015625 -12.421875 C 6.015625 -11.890625 6.097656 -11.382812 6.265625 -10.90625 C 6.441406 -10.425781 6.613281 -9.957031 6.78125 -9.5 C 6.945312 -9.039062 7.03125 -8.550781 7.03125 -8.03125 C 7.03125 -7.507812 6.945312 -7.015625 6.78125 -6.546875 C 6.613281 -6.085938 6.441406 -5.617188 6.265625 -5.140625 C 6.097656 -4.671875 6.015625 -4.160156 6.015625 -3.609375 C 6.015625 -2.878906 6.234375 -2.253906 6.671875 -1.734375 C 7.109375 -1.222656 7.6875 -0.96875 8.40625 -0.96875 C 9.125 -0.96875 9.703125 -1.222656 10.140625 -1.734375 C 10.578125 -2.253906 10.796875 -2.878906 10.796875 -3.609375 C 10.796875 -4.160156 10.710938 -4.671875 10.546875 -5.140625 C 10.378906 -5.617188 10.210938 -6.085938 10.046875 -6.546875 C 9.878906 -7.015625 9.796875 -7.507812 9.796875 -8.03125 C 9.796875 -8.550781 9.878906 -9.039062 10.046875 -9.5 C 10.210938 -9.957031 10.378906 -10.425781 10.546875 -10.90625 C 10.710938 -11.382812 10.796875 -11.890625 10.796875 -12.421875 C 10.796875 -13.160156 10.578125 -13.785156 10.140625 -14.296875 C 9.703125 -14.816406 9.125 -15.078125 8.40625 -15.078125 C 7.6875 -15.078125 7.109375 -14.816406 6.671875 -14.296875 C 6.234375 -13.785156 6.015625 -13.160156 6.015625 -12.421875 Z M 6.015625 -12.421875 "/></g></g></g><g fill="#000000" fill-opacity="1"><g transform="translate(130.406915, 26.869179)"><g><path d="M 0.6875 0 C 0.6875 -1.269531 0.742188 -2.382812 0.859375 -3.34375 C 0.972656 -4.300781 1.101562 -5.195312 1.25 -6.03125 C 1.394531 -6.875 1.523438 -7.734375 1.640625 -8.609375 C 1.753906 -9.492188 1.8125 -10.476562 1.8125 -11.5625 C 1.8125 -12.582031 1.71875 -13.421875 1.53125 -14.078125 C 1.351562 -14.734375 1.164062 -15.21875 0.96875 -15.53125 C 0.78125 -15.851562 0.6875 -16.015625 0.6875 -16.015625 C 0.6875 -16.015625 0.875 -16.015625 1.25 -16.015625 C 1.625 -16.015625 2.082031 -16.015625 2.625 -16.015625 C 3.175781 -16.015625 3.726562 -16.015625 4.28125 -16.015625 C 4.84375 -16.015625 5.3125 -16.015625 5.6875 -16.015625 C 6.0625 -16.015625 6.25 -16.015625 6.25 -16.015625 C 6.738281 -16.015625 7.140625 -15.816406 7.453125 -15.421875 C 7.773438 -15.023438 8.046875 -14.503906 8.265625 -13.859375 C 8.492188 -13.210938 8.691406 -12.5 8.859375 -11.71875 C 9.023438 -10.9375 9.191406 -10.15625 9.359375 -9.375 C 9.523438 -8.601562 9.71875 -7.890625 9.9375 -7.234375 C 10.164062 -6.585938 10.441406 -6.066406 10.765625 -5.671875 C 11.097656 -5.273438 11.507812 -5.078125 12 -5.078125 C 12.34375 -5.078125 12.570312 -5.226562 12.6875 -5.53125 C 12.800781 -5.84375 12.835938 -6.253906 12.796875 -6.765625 C 12.765625 -7.273438 12.691406 -7.859375 12.578125 -8.515625 C 12.472656 -9.171875 12.367188 -9.851562 12.265625 -10.5625 C 12.171875 -11.269531 12.125 -11.960938 12.125 -12.640625 C 12.125 -13.378906 12.175781 -13.972656 12.28125 -14.421875 C 12.394531 -14.878906 12.523438 -15.222656 12.671875 -15.453125 C 12.816406 -15.679688 12.941406 -15.832031 13.046875 -15.90625 C 13.148438 -15.976562 13.203125 -16.015625 13.203125 -16.015625 C 13.203125 -16.015625 13.347656 -16.015625 13.640625 -16.015625 C 13.929688 -16.015625 14.289062 -16.015625 14.71875 -16.015625 C 15.15625 -16.015625 15.585938 -16.015625 16.015625 -16.015625 C 16.453125 -16.015625 16.8125 -16.015625 17.09375 -16.015625 C 17.382812 -16.015625 17.53125 -16.015625 17.53125 -16.015625 C 17.257812 -15.609375 17.039062 -15.148438 16.875 -14.640625 C 16.71875 -14.140625 16.609375 -13.648438 16.546875 -13.171875 C 16.484375 -12.703125 16.441406 -12.316406 16.421875 -12.015625 C 16.410156 -11.710938 16.40625 -11.5625 16.40625 -11.5625 C 16.40625 -10.476562 16.460938 -9.492188 16.578125 -8.609375 C 16.691406 -7.734375 16.820312 -6.875 16.96875 -6.03125 C 17.113281 -5.195312 17.242188 -4.300781 17.359375 -3.34375 C 17.472656 -2.382812 17.53125 -1.269531 17.53125 0 L 11.96875 0 C 11.476562 0 11.078125 -0.191406 10.765625 -0.578125 C 10.453125 -0.972656 10.195312 -1.492188 10 -2.140625 C 9.800781 -2.785156 9.628906 -3.5 9.484375 -4.28125 C 9.335938 -5.0625 9.191406 -5.835938 9.046875 -6.609375 C 8.898438 -7.378906 8.726562 -8.085938 8.53125 -8.734375 C 8.332031 -9.378906 8.078125 -9.894531 7.765625 -10.28125 C 7.453125 -10.675781 7.050781 -10.875 6.5625 -10.875 C 6.226562 -10.875 5.992188 -10.644531 5.859375 -10.1875 C 5.722656 -9.726562 5.660156 -9.125 5.671875 -8.375 C 5.691406 -7.625 5.75 -6.816406 5.84375 -5.953125 C 5.945312 -5.097656 6.054688 -4.257812 6.171875 -3.4375 C 6.296875 -2.613281 6.40625 -1.890625 6.5 -1.265625 C 6.601562 -0.648438 6.65625 -0.226562 6.65625 0 Z M 0.6875 0 "/></g></g></g></svg>