<svg xmlns="http://www.w3.org/2000/svg" xmlns:xlink="http://www.w3.org/1999/xlink" width="200" zoomAndPan="magnify" viewBox="0 0 150 44.999999" height="60" preserveAspectRatio="xMidYMid meet" version="1.0"><defs><g/></defs><g fill="#000000" fill-opacity="1"><g transform="translate(4.269954, 28.641311)"><g><path d="M 8.28125 0 L 0.46875 0 C 0.46875 -0.945312 0.609375 -1.941406 0.890625 -2.984375 C 1.171875 -4.023438 1.535156 -5.050781 1.984375 -6.0625 C 2.441406 -7.082031 2.921875 -8.039062 3.421875 -8.9375 C 3.921875 -9.84375 4.390625 -10.628906 4.828125 -11.296875 C 5.128906 -11.753906 5.453125 -12.210938 5.796875 -12.671875 C 6.148438 -13.128906 6.492188 -13.566406 6.828125 -13.984375 C 6.492188 -15.097656 6.171875 -15.9375 5.859375 -16.5 C 5.546875 -17.0625 5.085938 -17.34375 4.484375 -17.34375 L 4.484375 -18.03125 C 5.816406 -18.03125 6.988281 -17.851562 8 -17.5 C 9.019531 -17.144531 9.894531 -16.675781 10.625 -16.09375 C 11.351562 -15.519531 11.953125 -14.867188 12.421875 -14.140625 C 12.898438 -13.421875 13.265625 -12.691406 13.515625 -11.953125 C 14.078125 -10.265625 14.539062 -8.65625 14.90625 -7.125 C 15.28125 -5.59375 15.726562 -4.210938 16.25 -2.984375 C 16.59375 -2.222656 17.046875 -1.800781 17.609375 -1.71875 C 18.179688 -1.644531 18.679688 -1.828125 19.109375 -2.265625 L 19.5625 -1.796875 C 19.03125 -1.054688 18.378906 -0.539062 17.609375 -0.25 C 16.847656 0.0390625 16.132812 0.1875 15.46875 0.1875 C 14.5 0.1875 13.625 -0.046875 12.84375 -0.515625 C 12.0625 -0.992188 11.394531 -1.613281 10.84375 -2.375 C 10.300781 -3.144531 9.878906 -3.960938 9.578125 -4.828125 L 5.640625 -4.828125 C 5.941406 -3.878906 6.328125 -2.984375 6.796875 -2.140625 C 7.265625 -1.296875 7.757812 -0.582031 8.28125 0 Z M 9.375 -5.46875 C 8.976562 -6.675781 8.59375 -7.96875 8.21875 -9.34375 C 7.84375 -10.71875 7.460938 -12.019531 7.078125 -13.25 C 6.910156 -13.019531 6.75 -12.796875 6.59375 -12.578125 C 6.4375 -12.367188 6.28125 -12.144531 6.125 -11.90625 C 5.519531 -11.007812 5.191406 -9.992188 5.140625 -8.859375 C 5.085938 -7.722656 5.203125 -6.59375 5.484375 -5.46875 Z M 9.375 -5.46875 "/></g></g></g><g fill="#000000" fill-opacity="1"><g transform="translate(22.026265, 28.641311)"><g><path d="M 2.21875 -10.71875 C 1.726562 -11.125 1.3125 -11.570312 0.96875 -12.0625 C 0.632812 -12.550781 0.46875 -13.128906 0.46875 -13.796875 C 0.46875 -14.148438 0.53125 -14.5625 0.65625 -15.03125 C 0.78125 -15.507812 1.015625 -15.976562 1.359375 -16.4375 C 1.703125 -16.894531 2.179688 -17.273438 2.796875 -17.578125 C 3.410156 -17.890625 4.210938 -18.046875 5.203125 -18.046875 C 6.179688 -18.046875 7.078125 -17.90625 7.890625 -17.625 C 8.710938 -17.34375 9.46875 -17.015625 10.15625 -16.640625 C 10.84375 -16.273438 11.460938 -15.953125 12.015625 -15.671875 C 12.578125 -15.390625 13.082031 -15.25 13.53125 -15.25 C 14.15625 -15.25 14.664062 -15.378906 15.0625 -15.640625 C 15.457031 -15.910156 15.75 -16.242188 15.9375 -16.640625 C 16.132812 -17.035156 16.234375 -17.441406 16.234375 -17.859375 L 16.890625 -17.859375 C 16.890625 -16.648438 16.6875 -15.625 16.28125 -14.78125 C 15.875 -13.9375 15.347656 -13.25 14.703125 -12.71875 C 14.066406 -12.1875 13.382812 -11.800781 12.65625 -11.5625 C 11.925781 -11.332031 11.234375 -11.21875 10.578125 -11.21875 C 9.835938 -11.21875 9.148438 -11.289062 8.515625 -11.4375 C 7.890625 -11.59375 7.300781 -11.773438 6.75 -11.984375 C 6.976562 -11.367188 7.285156 -10.921875 7.671875 -10.640625 C 8.066406 -10.359375 8.488281 -10.160156 8.9375 -10.046875 C 9.382812 -9.941406 9.804688 -9.84375 10.203125 -9.75 C 10.609375 -9.65625 10.9375 -9.484375 11.1875 -9.234375 C 11.445312 -8.992188 11.578125 -8.582031 11.578125 -8 L 11.578125 0 L 5.8125 0 L 5.8125 -12.375 C 5.300781 -12.601562 4.84375 -12.804688 4.4375 -12.984375 C 4.03125 -13.160156 3.675781 -13.25 3.375 -13.25 C 2.957031 -13.25 2.660156 -13.109375 2.484375 -12.828125 C 2.304688 -12.546875 2.238281 -12.238281 2.28125 -11.90625 C 2.320312 -11.582031 2.457031 -11.332031 2.6875 -11.15625 Z M 2.21875 -10.71875 "/></g></g></g><g fill="#000000" fill-opacity="1"><g transform="translate(39.386823, 28.641311)"><g><path d="M 2.21875 -10.71875 C 1.726562 -11.125 1.3125 -11.570312 0.96875 -12.0625 C 0.632812 -12.550781 0.46875 -13.128906 0.46875 -13.796875 C 0.46875 -14.148438 0.53125 -14.5625 0.65625 -15.03125 C 0.78125 -15.507812 1.015625 -15.976562 1.359375 -16.4375 C 1.703125 -16.894531 2.179688 -17.273438 2.796875 -17.578125 C 3.410156 -17.890625 4.210938 -18.046875 5.203125 -18.046875 C 6.179688 -18.046875 7.078125 -17.90625 7.890625 -17.625 C 8.710938 -17.34375 9.46875 -17.015625 10.15625 -16.640625 C 10.84375 -16.273438 11.460938 -15.953125 12.015625 -15.671875 C 12.578125 -15.390625 13.082031 -15.25 13.53125 -15.25 C 14.15625 -15.25 14.664062 -15.378906 15.0625 -15.640625 C 15.457031 -15.910156 15.75 -16.242188 15.9375 -16.640625 C 16.132812 -17.035156 16.234375 -17.441406 16.234375 -17.859375 L 16.890625 -17.859375 C 16.890625 -16.648438 16.6875 -15.625 16.28125 -14.78125 C 15.875 -13.9375 15.347656 -13.25 14.703125 -12.71875 C 14.066406 -12.1875 13.382812 -11.800781 12.65625 -11.5625 C 11.925781 -11.332031 11.234375 -11.21875 10.578125 -11.21875 C 9.835938 -11.21875 9.148438 -11.289062 8.515625 -11.4375 C 7.890625 -11.59375 7.300781 -11.773438 6.75 -11.984375 C 6.976562 -11.367188 7.285156 -10.921875 7.671875 -10.640625 C 8.066406 -10.359375 8.488281 -10.160156 8.9375 -10.046875 C 9.382812 -9.941406 9.804688 -9.84375 10.203125 -9.75 C 10.609375 -9.65625 10.9375 -9.484375 11.1875 -9.234375 C 11.445312 -8.992188 11.578125 -8.582031 11.578125 -8 L 11.578125 0 L 5.8125 0 L 5.8125 -12.375 C 5.300781 -12.601562 4.84375 -12.804688 4.4375 -12.984375 C 4.03125 -13.160156 3.675781 -13.25 3.375 -13.25 C 2.957031 -13.25 2.660156 -13.109375 2.484375 -12.828125 C 2.304688 -12.546875 2.238281 -12.238281 2.28125 -11.90625 C 2.320312 -11.582031 2.457031 -11.332031 2.6875 -11.15625 Z M 2.21875 -10.71875 "/></g></g></g><g fill="#000000" fill-opacity="1"><g transform="translate(56.747381, 28.641311)"><g><path d="M 11.421875 -9.625 L 10.984375 -8.953125 L 8.546875 -8.953125 C 7.171875 -8.953125 6.289062 -8.488281 5.90625 -7.5625 C 5.519531 -6.632812 5.734375 -5.390625 6.546875 -3.828125 C 7.078125 -2.804688 7.710938 -2.070312 8.453125 -1.625 C 9.203125 -1.1875 9.984375 -0.976562 10.796875 -1 C 11.617188 -1.019531 12.414062 -1.222656 13.1875 -1.609375 C 13.96875 -1.992188 14.648438 -2.488281 15.234375 -3.09375 L 15.515625 -2.765625 C 14.984375 -2.191406 14.394531 -1.675781 13.75 -1.21875 C 13.113281 -0.769531 12.367188 -0.421875 11.515625 -0.171875 C 10.660156 0.0664062 9.632812 0.1875 8.4375 0.1875 C 6.789062 0.1875 5.375 -0.0195312 4.1875 -0.4375 C 3 -0.863281 2.082031 -1.441406 1.4375 -2.171875 C 0.789062 -2.898438 0.46875 -3.75 0.46875 -4.71875 C 0.46875 -5.582031 0.703125 -6.304688 1.171875 -6.890625 C 1.640625 -7.484375 2.273438 -7.96875 3.078125 -8.34375 C 3.890625 -8.726562 4.816406 -9.007812 5.859375 -9.1875 C 4.910156 -9.425781 4.09375 -9.8125 3.40625 -10.34375 C 2.71875 -10.875 2.191406 -11.472656 1.828125 -12.140625 C 1.472656 -12.804688 1.28125 -13.488281 1.25 -14.1875 C 1.226562 -14.882812 1.398438 -15.519531 1.765625 -16.09375 C 2.140625 -16.675781 2.71875 -17.144531 3.5 -17.5 C 4.28125 -17.863281 5.285156 -18.046875 6.515625 -18.046875 C 7.171875 -18.046875 7.78125 -17.941406 8.34375 -17.734375 C 8.90625 -17.535156 9.414062 -17.300781 9.875 -17.03125 C 10.34375 -16.757812 10.773438 -16.519531 11.171875 -16.3125 C 11.566406 -16.113281 11.929688 -16.015625 12.265625 -16.015625 C 12.921875 -16.015625 13.347656 -16.1875 13.546875 -16.53125 C 13.753906 -16.875 13.859375 -17.335938 13.859375 -17.921875 L 14.4375 -17.921875 C 14.539062 -17.203125 14.550781 -16.457031 14.46875 -15.6875 C 14.394531 -14.925781 14.195312 -14.21875 13.875 -13.5625 C 13.5625 -12.914062 13.097656 -12.390625 12.484375 -11.984375 C 11.867188 -11.578125 11.066406 -11.375 10.078125 -11.375 C 9.429688 -11.375 8.863281 -11.515625 8.375 -11.796875 C 7.894531 -12.078125 7.46875 -12.429688 7.09375 -12.859375 C 6.726562 -13.296875 6.390625 -13.738281 6.078125 -14.1875 C 5.773438 -14.632812 5.46875 -15.023438 5.15625 -15.359375 C 4.851562 -15.691406 4.53125 -15.910156 4.1875 -16.015625 C 3.84375 -16.117188 3.441406 -16.03125 2.984375 -15.75 C 2.628906 -15.539062 2.382812 -15.195312 2.25 -14.71875 C 2.125 -14.25 2.132812 -13.722656 2.28125 -13.140625 C 2.425781 -12.554688 2.722656 -11.992188 3.171875 -11.453125 C 3.628906 -10.921875 4.253906 -10.484375 5.046875 -10.140625 C 5.835938 -9.796875 6.820312 -9.625 8 -9.625 Z M 11.421875 -9.625 "/></g></g></g><g fill="#000000" fill-opacity="1"><g transform="translate(71.759774, 28.641311)"><g><path d="M 8.390625 -14.125 C 8.847656 -13.3125 9.320312 -12.460938 9.8125 -11.578125 C 10.3125 -10.703125 10.789062 -9.847656 11.25 -9.015625 C 11.71875 -8.179688 12.140625 -7.421875 12.515625 -6.734375 C 12.804688 -6.171875 13.070312 -5.65625 13.3125 -5.1875 C 13.550781 -4.71875 13.757812 -4.28125 13.9375 -3.875 C 13.8125 -5.28125 13.628906 -6.460938 13.390625 -7.421875 C 13.148438 -8.390625 12.878906 -9.179688 12.578125 -9.796875 C 12.285156 -10.421875 11.972656 -10.953125 11.640625 -11.390625 C 11.304688 -11.835938 10.984375 -12.234375 10.671875 -12.578125 C 10.367188 -12.929688 10.085938 -13.3125 9.828125 -13.71875 C 9.578125 -14.125 9.375 -14.617188 9.21875 -15.203125 C 9.070312 -15.785156 9 -16.515625 9 -17.390625 L 9 -17.890625 L 14.75 -17.890625 L 14.75 0 L 14.09375 0 C 14.09375 -0.707031 13.957031 -1.25 13.6875 -1.625 C 13.425781 -2 13.070312 -2.28125 12.625 -2.46875 C 12.175781 -2.664062 11.675781 -2.832031 11.125 -2.96875 C 10.570312 -3.113281 10.003906 -3.289062 9.421875 -3.5 C 8.835938 -3.71875 8.273438 -4.03125 7.734375 -4.4375 C 7.203125 -4.84375 6.726562 -5.40625 6.3125 -6.125 L 1.375 -14.8125 C 1.476562 -13.238281 1.640625 -11.925781 1.859375 -10.875 C 2.078125 -9.832031 2.335938 -8.96875 2.640625 -8.28125 C 2.953125 -7.59375 3.28125 -7.019531 3.625 -6.5625 C 3.96875 -6.113281 4.300781 -5.707031 4.625 -5.34375 C 4.957031 -4.976562 5.253906 -4.59375 5.515625 -4.1875 C 5.773438 -3.789062 5.984375 -3.300781 6.140625 -2.71875 C 6.304688 -2.132812 6.390625 -1.394531 6.390625 -0.5 L 6.390625 0 L 0.640625 0 L 0.640625 -17.890625 L 1.296875 -17.890625 C 1.867188 -17.890625 2.457031 -17.863281 3.0625 -17.8125 C 3.675781 -17.757812 4.289062 -17.617188 4.90625 -17.390625 C 5.519531 -17.160156 6.117188 -16.789062 6.703125 -16.28125 C 7.296875 -15.769531 7.859375 -15.050781 8.390625 -14.125 Z M 8.390625 -14.125 "/></g></g></g><g fill="#000000" fill-opacity="1"><g transform="translate(87.141541, 28.641311)"><g><path d="M 2.21875 -10.71875 C 1.726562 -11.125 1.3125 -11.570312 0.96875 -12.0625 C 0.632812 -12.550781 0.46875 -13.128906 0.46875 -13.796875 C 0.46875 -14.148438 0.53125 -14.5625 0.65625 -15.03125 C 0.78125 -15.507812 1.015625 -15.976562 1.359375 -16.4375 C 1.703125 -16.894531 2.179688 -17.273438 2.796875 -17.578125 C 3.410156 -17.890625 4.210938 -18.046875 5.203125 -18.046875 C 6.179688 -18.046875 7.078125 -17.90625 7.890625 -17.625 C 8.710938 -17.34375 9.46875 -17.015625 10.15625 -16.640625 C 10.84375 -16.273438 11.460938 -15.953125 12.015625 -15.671875 C 12.578125 -15.390625 13.082031 -15.25 13.53125 -15.25 C 14.15625 -15.25 14.664062 -15.378906 15.0625 -15.640625 C 15.457031 -15.910156 15.75 -16.242188 15.9375 -16.640625 C 16.132812 -17.035156 16.234375 -17.441406 16.234375 -17.859375 L 16.890625 -17.859375 C 16.890625 -16.648438 16.6875 -15.625 16.28125 -14.78125 C 15.875 -13.9375 15.347656 -13.25 14.703125 -12.71875 C 14.066406 -12.1875 13.382812 -11.800781 12.65625 -11.5625 C 11.925781 -11.332031 11.234375 -11.21875 10.578125 -11.21875 C 9.835938 -11.21875 9.148438 -11.289062 8.515625 -11.4375 C 7.890625 -11.59375 7.300781 -11.773438 6.75 -11.984375 C 6.976562 -11.367188 7.285156 -10.921875 7.671875 -10.640625 C 8.066406 -10.359375 8.488281 -10.160156 8.9375 -10.046875 C 9.382812 -9.941406 9.804688 -9.84375 10.203125 -9.75 C 10.609375 -9.65625 10.9375 -9.484375 11.1875 -9.234375 C 11.445312 -8.992188 11.578125 -8.582031 11.578125 -8 L 11.578125 0 L 5.8125 0 L 5.8125 -12.375 C 5.300781 -12.601562 4.84375 -12.804688 4.4375 -12.984375 C 4.03125 -13.160156 3.675781 -13.25 3.375 -13.25 C 2.957031 -13.25 2.660156 -13.109375 2.484375 -12.828125 C 2.304688 -12.546875 2.238281 -12.238281 2.28125 -11.90625 C 2.320312 -11.582031 2.457031 -11.332031 2.6875 -11.15625 Z M 2.21875 -10.71875 "/></g></g></g><g fill="#000000" fill-opacity="1"><g transform="translate(104.502099, 28.641311)"><g><path d="M 6.390625 0 L 0.609375 0 L 0.609375 -17.890625 L 6.390625 -17.890625 Z M 6.390625 0 "/></g></g></g><g fill="#000000" fill-opacity="1"><g transform="translate(111.493813, 28.641311)"><g><path d="M 9.421875 -18.046875 C 10.671875 -18.046875 11.832031 -17.8125 12.90625 -17.34375 C 13.976562 -16.882812 14.925781 -16.234375 15.75 -15.390625 C 16.582031 -14.554688 17.226562 -13.585938 17.6875 -12.484375 C 18.144531 -11.390625 18.375 -10.210938 18.375 -8.953125 C 18.375 -7.679688 18.144531 -6.492188 17.6875 -5.390625 C 17.226562 -4.296875 16.582031 -3.328125 15.75 -2.484375 C 14.925781 -1.648438 13.976562 -0.992188 12.90625 -0.515625 C 11.832031 -0.046875 10.671875 0.1875 9.421875 0.1875 C 8.191406 0.1875 7.035156 -0.046875 5.953125 -0.515625 C 4.867188 -0.992188 3.914062 -1.648438 3.09375 -2.484375 C 2.28125 -3.328125 1.640625 -4.296875 1.171875 -5.390625 C 0.703125 -6.492188 0.46875 -7.679688 0.46875 -8.953125 C 0.46875 -10.210938 0.703125 -11.390625 1.171875 -12.484375 C 1.640625 -13.585938 2.28125 -14.554688 3.09375 -15.390625 C 3.914062 -16.234375 4.867188 -16.882812 5.953125 -17.34375 C 7.035156 -17.8125 8.191406 -18.046875 9.421875 -18.046875 Z M 13.875 -1.765625 C 14.382812 -2.085938 14.644531 -2.703125 14.65625 -3.609375 C 14.664062 -4.515625 14.457031 -5.585938 14.03125 -6.828125 C 13.613281 -8.066406 12.992188 -9.335938 12.171875 -10.640625 C 11.359375 -11.953125 10.488281 -13.070312 9.5625 -14 C 8.644531 -14.9375 7.773438 -15.597656 6.953125 -15.984375 C 6.140625 -16.378906 5.476562 -16.414062 4.96875 -16.09375 C 4.46875 -15.78125 4.207031 -15.175781 4.1875 -14.28125 C 4.175781 -13.382812 4.382812 -12.3125 4.8125 -11.0625 C 5.25 -9.820312 5.867188 -8.546875 6.671875 -7.234375 C 7.503906 -5.910156 8.378906 -4.78125 9.296875 -3.84375 C 10.222656 -2.914062 11.09375 -2.257812 11.90625 -1.875 C 12.726562 -1.5 13.382812 -1.460938 13.875 -1.765625 Z M 13.875 -1.765625 "/></g></g></g><g fill="#000000" fill-opacity="1"><g transform="translate(130.331859, 28.641311)"><g><path d="M 8.390625 -14.125 C 8.847656 -13.3125 9.320312 -12.460938 9.8125 -11.578125 C 10.3125 -10.703125 10.789062 -9.847656 11.25 -9.015625 C 11.71875 -8.179688 12.140625 -7.421875 12.515625 -6.734375 C 12.804688 -6.171875 13.070312 -5.65625 13.3125 -5.1875 C 13.550781 -4.71875 13.757812 -4.28125 13.9375 -3.875 C 13.8125 -5.28125 13.628906 -6.460938 13.390625 -7.421875 C 13.148438 -8.390625 12.878906 -9.179688 12.578125 -9.796875 C 12.285156 -10.421875 11.972656 -10.953125 11.640625 -11.390625 C 11.304688 -11.835938 10.984375 -12.234375 10.671875 -12.578125 C 10.367188 -12.929688 10.085938 -13.3125 9.828125 -13.71875 C 9.578125 -14.125 9.375 -14.617188 9.21875 -15.203125 C 9.070312 -15.785156 9 -16.515625 9 -17.390625 L 9 -17.890625 L 14.75 -17.890625 L 14.75 0 L 14.09375 0 C 14.09375 -0.707031 13.957031 -1.25 13.6875 -1.625 C 13.425781 -2 13.070312 -2.28125 12.625 -2.46875 C 12.175781 -2.664062 11.675781 -2.832031 11.125 -2.96875 C 10.570312 -3.113281 10.003906 -3.289062 9.421875 -3.5 C 8.835938 -3.71875 8.273438 -4.03125 7.734375 -4.4375 C 7.203125 -4.84375 6.726562 -5.40625 6.3125 -6.125 L 1.375 -14.8125 C 1.476562 -13.238281 1.640625 -11.925781 1.859375 -10.875 C 2.078125 -9.832031 2.335938 -8.96875 2.640625 -8.28125 C 2.953125 -7.59375 3.28125 -7.019531 3.625 -6.5625 C 3.96875 -6.113281 4.300781 -5.707031 4.625 -5.34375 C 4.957031 -4.976562 5.253906 -4.59375 5.515625 -4.1875 C 5.773438 -3.789062 5.984375 -3.300781 6.140625 -2.71875 C 6.304688 -2.132812 6.390625 -1.394531 6.390625 -0.5 L 6.390625 0 L 0.640625 0 L 0.640625 -17.890625 L 1.296875 -17.890625 C 1.867188 -17.890625 2.457031 -17.863281 3.0625 -17.8125 C 3.675781 -17.757812 4.289062 -17.617188 4.90625 -17.390625 C 5.519531 -17.160156 6.117188 -16.789062 6.703125 -16.28125 C 7.296875 -15.769531 7.859375 -15.050781 8.390625 -14.125 Z M 8.390625 -14.125 "/></g></g></g></svg>